<svg xmlns="http://www.w3.org/2000/svg" xmlns:xlink="http://www.w3.org/1999/xlink" width="105" height="105" viewBox="0 0 105 105">
  <defs>
    <linearGradient id="linear-gradient" x1="1" x2="0.143" y2="0.954" gradientUnits="objectBoundingBox">
      <stop offset="0" stop-color="#fbe18a"/>
      <stop offset="0" stop-color="#8f39ce"/>
      <stop offset="0.035" stop-color="#fcbb45"/>
      <stop offset="0.38" stop-color="#f75274"/>
      <stop offset="0.583" stop-color="#d53692"/>
      <stop offset="1" stop-color="#5b4fe9"/>
    </linearGradient>
  </defs>
  <g id="Group_26" data-name="Group 26" transform="translate(-438.315 -613.24)">
    <rect id="Rectangle_23" data-name="Rectangle 23" width="105" height="105" transform="translate(543.315 613.24) rotate(90)" fill="url(#linear-gradient)"/>
    <path id="Path_56" data-name="Path 56" d="M21.751,9.11A3.591,3.591,0,1,0,25.342,12.7,3.591,3.591,0,0,0,21.751,9.11Z" transform="translate(485.367 636.844)" fill="#fff"/>
    <path id="Path_57" data-name="Path 57" d="M25.624,10.4A15.154,15.154,0,1,0,40.778,25.554,15.154,15.154,0,0,0,25.624,10.4Zm0,24.885a9.732,9.732,0,1,1,9.732-9.732,9.732,9.732,0,0,1-9.732,9.732Z" transform="translate(465.443 640.186)" fill="#fff"/>
    <path id="Path_54" data-name="Path 54" d="M48.962,67.6H24.544A18.529,18.529,0,0,1,6.05,48.962V24.543A18.529,18.529,0,0,1,24.544,6.05H48.962A18.529,18.529,0,0,1,67.456,24.543V48.962A18.529,18.529,0,0,1,48.962,67.6ZM24.544,11.831A12.748,12.748,0,0,0,11.832,24.543V48.962A12.748,12.748,0,0,0,24.544,61.674H48.962A12.748,12.748,0,0,0,61.818,48.962V24.543A12.748,12.748,0,0,0,48.962,11.831Z" transform="translate(453.991 628.916)" fill="#fff"/>
  </g>
</svg>
