<svg xmlns="http://www.w3.org/2000/svg" width="105" height="105" viewBox="0 0 105 105">
  <g id="Group_10" data-name="Group 10" transform="translate(-316.048 -305.24)">
    <rect id="Rectangle_9" data-name="Rectangle 9" width="105" height="105" transform="translate(421.047 305.24) rotate(90)" fill="#656565"/>
    <path id="Path_20" data-name="Path 20" d="M21.751,9.11A3.591,3.591,0,1,0,25.342,12.7,3.591,3.591,0,0,0,21.751,9.11Z" transform="translate(363.1 328.844)" fill="#fff"/>
    <path id="Path_21" data-name="Path 21" d="M25.624,10.4A15.154,15.154,0,1,0,40.778,25.554,15.154,15.154,0,0,0,25.624,10.4Zm0,24.885a9.732,9.732,0,1,1,9.732-9.732,9.732,9.732,0,0,1-9.732,9.732Z" transform="translate(343.175 332.186)" fill="#fff"/>
    <path id="Path_22" data-name="Path 22" d="M48.962,67.6H24.544A18.529,18.529,0,0,1,6.05,48.962V24.543A18.529,18.529,0,0,1,24.544,6.05H48.962A18.529,18.529,0,0,1,67.456,24.543V48.962A18.529,18.529,0,0,1,48.962,67.6ZM24.544,11.831A12.748,12.748,0,0,0,11.832,24.543V48.962A12.748,12.748,0,0,0,24.544,61.674H48.962A12.748,12.748,0,0,0,61.818,48.962V24.543A12.748,12.748,0,0,0,48.962,11.831Z" transform="translate(331.723 320.916)" fill="#fff"/>
  </g>
</svg>
