<svg xmlns="http://www.w3.org/2000/svg" xmlns:xlink="http://www.w3.org/1999/xlink" width="105" height="105" viewBox="0 0 105 105">
  <defs>
    <linearGradient id="linear-gradient" x2="1.416" y2="1.462" gradientUnits="objectBoundingBox">
      <stop offset="0" stop-color="#007ab5"/>
      <stop offset="1" stop-color="#0046e5"/>
    </linearGradient>
  </defs>
  <g id="Group_32" data-name="Group 32" transform="translate(-1360 -576.469)">
    <rect id="Rectangle_28" data-name="Rectangle 28" width="105" height="105" transform="translate(1465 576.469) rotate(90)" fill="url(#linear-gradient)"/>
    <path id="Path_68" data-name="Path 68" d="M9.086,23.611H19.249V56.289H9.086Zm5.1-16.231A5.889,5.889,0,1,1,8.26,13.2,5.889,5.889,0,0,1,14.185,7.38" transform="translate(1381.401 595.59)" fill="#fff"/>
    <path id="Path_69" data-name="Path 69" d="M13.1,12.5h9.732v4.453h0a10.773,10.773,0,0,1,9.588-5.279c10.306,0,12.173,6.787,12.173,15.585V45.213H34.61V29.269c0-3.771,0-8.654-5.279-8.654s-6.1,4.13-6.1,8.4V45.177H13.1Z" transform="translate(1393.942 606.702)" fill="#fff"/>
  </g>
</svg>
