<svg xmlns="http://www.w3.org/2000/svg" width="105" height="105" viewBox="0 0 105 105">
  <g id="Group_11" data-name="Group 11" transform="translate(-456.095 -305.24)">
    <rect id="Rectangle_10" data-name="Rectangle 10" width="105" height="105" transform="translate(561.095 305.24) rotate(90)" fill="#656565"/>
    <path id="Path_23" data-name="Path 23" d="M63.891,13.785a23.592,23.592,0,0,1-5.781,1.652c.934,0,2.3-1.831,2.837-2.514a10.773,10.773,0,0,0,1.939-3.591V9.045a.215.215,0,0,0-.287,0A30.7,30.7,0,0,1,55.7,11.667a.467.467,0,0,1-.467,0l-.575-.61a12.856,12.856,0,0,0-3.34-2.047A11.814,11.814,0,0,0,46.187,8a12.784,12.784,0,0,0-4.848,1.4,12.353,12.353,0,0,0-3.914,3.16,12.712,12.712,0,0,0-2.334,4.668,12.784,12.784,0,0,0,0,4.956c0,.251,0,.287-.251.251A36.771,36.771,0,0,1,11.1,10.589c-.251-.323-.4-.323-.646,0A11.922,11.922,0,0,0,12.5,24.7c.467.431.934.9,1.436,1.293A11.886,11.886,0,0,1,9.416,24.7c-.287-.18-.431,0-.467.251a9.48,9.48,0,0,0,0,1.365,12.03,12.03,0,0,0,7.433,9.624,5.638,5.638,0,0,0,1.508.467,12.6,12.6,0,0,1-4.453,0c-.323,0-.467,0-.323.4a12.6,12.6,0,0,0,9.372,7.864H23.78a15.046,15.046,0,0,1-6.428,3.591A22.982,22.982,0,0,1,7.62,49.479H6.866c-.144,0,0,.215,0,.359a12.594,12.594,0,0,0,2.011,1.221,32.713,32.713,0,0,0,6.5,2.585,34.617,34.617,0,0,0,33.647-7.864,35.3,35.3,0,0,0,9.3-25.747c0-.359.431-.575.718-.79A21.977,21.977,0,0,0,63.6,14.5a1.58,1.58,0,0,0,.323-.9h0S64.106,13.678,63.891,13.785Z" transform="translate(473.72 325.964)" fill="#fff"/>
  </g>
</svg>
