<svg xmlns="http://www.w3.org/2000/svg" xmlns:xlink="http://www.w3.org/1999/xlink" width="105" height="105" viewBox="0 0 105 105">
  <defs>
    <linearGradient id="linear-gradient" x2="1" y2="1" gradientUnits="objectBoundingBox">
      <stop offset="0" stop-color="#60fc7c"/>
      <stop offset="1" stop-color="#4ab161"/>
    </linearGradient>
  </defs>
  <g id="Group_25" data-name="Group 25" transform="translate(-298.268 -613.24)">
    <rect id="Rectangle_22" data-name="Rectangle 22" width="105" height="105" transform="translate(403.268 613.24) rotate(90)" fill="url(#linear-gradient)"/>
    <path id="Path_53" data-name="Path 53" d="M6.72,67.079,11.1,50.74a30.236,30.236,0,1,1,12.03,11.922ZM23.957,56.665l1.041.61a24.6,24.6,0,1,0-8.4-8.331l.646,1.041L14.907,59Z" transform="translate(315.679 628.394)" fill="#fff"/>
    <path id="Path_55" data-name="Path 55" d="M37.017,28.368a4.991,4.991,0,0,0-4.309-.97c-1.149.431-1.831,2.19-2.585,3.088a1.077,1.077,0,0,1-1.365.323,19.391,19.391,0,0,1-9.767-8.367,1.221,1.221,0,0,1,0-1.652,6.643,6.643,0,0,0,1.76-2.873,6.069,6.069,0,0,0-.79-3.591,8.044,8.044,0,0,0-2.514-3.591,3.591,3.591,0,0,0-3.591.539,7.613,7.613,0,0,0-2.621,6.033,8.367,8.367,0,0,0,.215,1.9,15.3,15.3,0,0,0,1.831,4.237c.61,1.005,1.221,1.975,1.9,2.909A29.338,29.338,0,0,0,23.515,33.9a24.49,24.49,0,0,0,5.171,2.478,11.168,11.168,0,0,0,6,.934,7.182,7.182,0,0,0,5.494-4.058,3.591,3.591,0,0,0,.251-2.083C40.105,29.912,38.166,29.05,37.017,28.368Z" transform="translate(327.361 640.389)" fill="#fff" fill-rule="evenodd"/>
  </g>
</svg>
