<svg xmlns="http://www.w3.org/2000/svg" width="105" height="105" viewBox="0 0 105 105">
  <g id="Group_13" data-name="Group 13" transform="translate(-723 -295)">
    <rect id="Rectangle_11" data-name="Rectangle 11" width="105" height="105" transform="translate(828 295) rotate(90)" fill="#656565"/>
    <path id="Path_26" data-name="Path 26" d="M63.905,21.569A12.64,12.64,0,0,0,51.3,9H19.2A12.64,12.64,0,0,0,6.45,21.569V36.543A12.6,12.6,0,0,0,19.2,49.147H51.517a12.6,12.6,0,0,0,12.6-12.6Zm-18.96,8.618L30.581,37.369c-.539.287-2.478,0-2.478-.754V21.892c0-.646,1.939-1.041,2.514-.718l13.717,7.505C44.909,29.038,45.52,29.864,44.945,30.187Z" transform="translate(739.55 318)" fill="#fff"/>
  </g>
</svg>
