<svg xmlns="http://www.w3.org/2000/svg" width="50" height="50" viewBox="0 0 50 50">
  <g id="Group_647" data-name="Group 647" transform="translate(-708.562 -2651)">
    <rect id="Rectangle_35" data-name="Rectangle 35" width="50" height="50" rx="5" transform="translate(708.562 2651)" fill="#606060"/>
    <path id="Path_365" data-name="Path 365" d="M9.737,18.3l.941-1.041a4.331,4.331,0,0,0-.306-6.117L8.783,9.708a4.331,4.331,0,0,0-6.116.306l-.941,1.042a4.228,4.228,0,0,0-.346.437l-.044.048A5.275,5.275,0,0,0,.129,16.417,24.291,24.291,0,0,0,21.72,35.944a6.1,6.1,0,0,0,3.723-.777,4.361,4.361,0,0,0,1.057-.852l.942-1.042a4.336,4.336,0,0,0-.307-6.116l-1.59-1.437a4.328,4.328,0,0,0-6.115.307l-.942,1.041A4.3,4.3,0,0,0,17.6,28.59l-.084.252-.247-.1A18.237,18.237,0,0,1,7.624,19.9L7.49,19.63l.287-.086A4.315,4.315,0,0,0,9.737,18.3" transform="translate(719.561 2653.411)" fill="#fff"/>
  </g>
</svg>
