<svg xmlns="http://www.w3.org/2000/svg" xmlns:xlink="http://www.w3.org/1999/xlink" width="50.007" height="50.008" viewBox="0 0 50.007 50.008">
  <defs>
    <clipPath id="clip-path">
      <rect id="Rectangle_21" data-name="Rectangle 21" width="50.007" height="50.007" rx="7.649" fill="none"/>
    </clipPath>
    <linearGradient id="linear-gradient" x1="0.146" y1="0.854" x2="0.789" y2="0.753" gradientUnits="objectBoundingBox">
      <stop offset="0" stop-color="#007ab5"/>
      <stop offset="1" stop-color="#0046e5"/>
    </linearGradient>
    <clipPath id="clip-path-2">
      <rect id="Rectangle_22" data-name="Rectangle 22" width="50.007" height="50.007" fill="none"/>
    </clipPath>
  </defs>
  <g id="Group_612" data-name="Group 612" transform="translate(0 0)">
    <g id="Group_594" data-name="Group 594" transform="translate(0 0)">
      <g id="Group_593" data-name="Group 593" clip-path="url(#clip-path)">
        <rect id="Rectangle_20" data-name="Rectangle 20" width="70.721" height="70.721" transform="translate(-25.004 25.004) rotate(-45)" fill="url(#linear-gradient)"/>
      </g>
    </g>
    <g id="Group_596" data-name="Group 596" transform="translate(0 0)">
      <g id="Group_595" data-name="Group 595" clip-path="url(#clip-path-2)">
        <path id="Path_360" data-name="Path 360" d="M8.65,15.109h4.843V30.666H8.65Zm2.421-7.731a2.8,2.8,0,1,1-2.808,2.8,2.8,2.8,0,0,1,2.808-2.8" transform="translate(5.868 5.239)" fill="#fff"/>
        <path id="Path_361" data-name="Path 361" d="M13.1,12.058h4.638v2.127H17.8a5.086,5.086,0,0,1,4.58-2.512c4.9,0,5.8,3.22,5.8,7.41v8.532H23.343V20.051c0-1.806-.036-4.125-2.514-4.125-2.516,0-2.9,1.965-2.9,3.993v7.7H13.1Z" transform="translate(9.299 8.289)" fill="#fff"/>
      </g>
    </g>
  </g>
</svg>
