<svg id="Sign-out" xmlns="http://www.w3.org/2000/svg" width="19.918" height="19.918" viewBox="0 0 19.918 19.918">
  <path id="Path_4" data-name="Path 4" d="M11.336,6.979H5.691L6.711,5.95A1.662,1.662,0,1,0,4.358,3.6L.485,7.484A1.66,1.66,0,0,0,.5,9.847L4.472,13.7A1.662,1.662,0,0,0,6.793,11.32L5.728,10.3h5.608a1.663,1.663,0,0,0,0-3.325Z" transform="translate(0 1.317)" fill="#fff"/>
  <path id="Path_5" data-name="Path 5" d="M15.93.537A1.824,1.824,0,0,0,14.635,0H10.047a1.831,1.831,0,1,0,0,3.661h2.759v12.6H10.047a1.831,1.831,0,1,0,0,3.662h4.588a1.831,1.831,0,0,0,1.831-1.831V1.831A1.824,1.824,0,0,0,15.93.537Z" transform="translate(3.452 0.001)" fill="#fff"/>
</svg>
