<svg xmlns="http://www.w3.org/2000/svg" width="230.042" height="48.025" viewBox="0 0 230.042 48.025">
  <g id="Group_17" data-name="Group 17" transform="translate(-545.979 -76.257)">
    <path id="Path_54" data-name="Path 54" d="M113.461,115.266l1.229,7.451-6.658-3.556-6.711,3.469,1.325-7.434-5.377-5.307,7.486-1.037,3.382-6.754,3.3,6.8,7.469,1.133Z" transform="translate(455.868 -17.724)" fill="#ed6b14"/>
    <path id="Path_55" data-name="Path 55" d="M28.763,5.306l-1.676.007a5.035,5.035,0,0,0-1.71-3.821A6.171,6.171,0,0,0,21.259.006s-1.35.007-3.372,0-3.481,0-3.481,0C11.182.006,8.57,2.2,8.57,5.312L7.193,5.306A7.066,7.066,0,0,0,0,12.235v10.4a7.071,7.071,0,0,0,7.193,6.936H28.763a7.071,7.071,0,0,0,7.193-6.936v-10.4a7.066,7.066,0,0,0-7.193-6.929M14.243,2.257s2.015-.013,3.25-.007l.882.013c1.235.007,3.087-.007,3.087-.007a3.133,3.133,0,0,1,3.277,3.056H10.965a3.133,3.133,0,0,1,3.277-3.056m9.927,18.2,1.411,8.277-7.674-3.952-7.722,3.854,1.527-8.257-6.2-5.889,8.617-1.158,3.9-7.492,3.8,7.544,8.6,1.256Z" transform="translate(545.979 76.257)" fill="#545b5f"/>
    <path id="Path_56" data-name="Path 56" d="M81.08,70.484l-8.6-1.256-3.8-7.544-3.9,7.492-8.617,1.158,6.2,5.889L60.832,84.48l7.722-3.854,7.674,3.952L74.817,76.3Zm-12.5,7.839-5.225,2.6,1.031-5.581L60.2,71.361l5.829-.779,2.633-5.071,2.572,5.1,5.815.851L72.809,75.4l.957,5.594Z" transform="translate(495.331 20.415)" fill="#fff"/>
    <path id="Path_57" data-name="Path 57" d="M443.543,79.663h1.075c.832,0,1.11-.267,1.11-1.07V65.753c0-.8-.277-1.07-1.11-1.07h-1.075V60.5H462.65v6.654h-4.577v-.936c0-1.07-.277-1.338-1.387-1.338h-4.231V69.7h7.906v4.38h-7.906v4.314c0,.8.277,1.07,1.11,1.07h2.462c1.457,0,2.185-.535,2.289-1.471l.1-1h4.647l-.416,6.855H443.543Z" transform="translate(146.001 21.484)" fill="#fff"/>
    <path id="Path_58" data-name="Path 58" d="M655.932,126.878h7.629a68.231,68.231,0,0,0,2.289,11.035,68.82,68.82,0,0,0,2.254-11.035h6.935v3.845h-.555c-.832,0-1.11.267-1.352,1.07a82.4,82.4,0,0,1-4.82,12.138H662.66a82.418,82.418,0,0,1-4.82-12.138c-.243-.8-.52-1.07-1.352-1.07h-.555Z" transform="translate(-45.527 -38.604)" fill="#fff"/>
    <path id="Path_59" data-name="Path 59" d="M867.122,133.035a1.031,1.031,0,0,0-.971,1.07c0,.535.451,1.1,1.63,1.1a27.023,27.023,0,0,0,8.045-1.705v4.815a17.75,17.75,0,0,1-8.045,1.605c-5.9,0-8.635-3.511-8.635-8.995s3.606-8.995,9.155-8.995c5.132,0,7.629,2.474,7.629,5.484,0,3.21-1.907,4.146-6.138,5.049Zm-1.6-3.31v.736c.139-.134.312-.234,1.11-.435l1.283-.3c1.248-.3,1.768-.836,1.768-1.973a1.354,1.354,0,0,0-1.422-1.338c-1.8,0-2.739,1.438-2.739,3.31" transform="translate(-228.781 -34.128)" fill="#fff"/>
    <path id="Path_60" data-name="Path 60" d="M1055.076,122.4h7.456a8.7,8.7,0,0,1,.347,2.341,5.889,5.889,0,0,1,5.236-2.809c3.329,0,4.855,1.07,5.617,3.009a13.322,13.322,0,0,1,.625,4.748v4.849c0,.8.277,1.07,1.11,1.07h.867v3.846h-7.248c-.832,0-1.11-.335-1.11-1.137v-7.691a8.37,8.37,0,0,0-.382-2.976,1.447,1.447,0,0,0-1.526-.936c-1.6,0-2.427.97-2.427,4.113v3.712c0,.8.277,1.07,1.109,1.07h.728v3.846h-10.4v-3.846h1.075c.832,0,1.109-.267,1.109-1.07v-7.223c0-.8-.277-1.07-1.109-1.07h-1.075Z" transform="translate(-405.467 -34.129)" fill="#fff"/>
    <path id="Path_61" data-name="Path 61" d="M1284.15,81.923h-2.427V77.977h2.427V74.4a18.229,18.229,0,0,1,6.38-1.538v5.116h3.815v3.946h-3.815v6.989c0,1.571.832,1.772,1.665,1.772a9.989,9.989,0,0,0,2.7-.334V95a18.483,18.483,0,0,1-4.369.5c-4.681,0-6.38-2.006-6.38-5.985Z" transform="translate(-609.851 10.297)" fill="#fff"/>
    <path id="Path_62" data-name="Path 62" d="M1442.669,55.057a5.747,5.747,0,0,0,.139-1.07.7.7,0,0,0-.693-.736,6.744,6.744,0,0,0-.937.067l.659-3.678a15.941,15.941,0,0,1,3.919-.435c2.774,0,3.5,1.07,3.5,2.675a22.647,22.647,0,0,1-.52,3.478l-.52,2.809a5.653,5.653,0,0,1,4.369-2.073c3.676,0,5.236,2.608,5.236,5.985,0,6.621-3.294,12-10.3,12-5.236,0-6.935-2.608-6.935-6.019a23.811,23.811,0,0,1,.416-3.879Zm4.022,12c0,1.605.485,2.408,1.664,2.408,2.15,0,3.26-3.712,3.26-6.186,0-1.6-.486-2.475-1.664-2.475-2.15,0-3.26,3.779-3.26,6.253" transform="translate(-753.113 31.712)" fill="#fff"/>
    <path id="Path_63" data-name="Path 63" d="M1648.052,135.961c0,.869.277,1.739,1.387,1.739,1.526,0,2.531-1.17,3.121-4.447l1.491-8.293h6.138l-2.081,11.4a5.689,5.689,0,0,0-.139.9c0,.8.486.9,1.041.9h.867l-.659,3.611a13.1,13.1,0,0,1-3.363.435c-2.67,0-3.468-.368-3.572-2.474a7.21,7.21,0,0,1-5.514,2.742c-3.051,0-5.167-1.137-5.167-4.414,0-2.675,1.63-6.888,1.63-8.36,0-.8-.485-.9-1.04-.9h-.867l.659-3.611a18.046,18.046,0,0,1,4.126-.435c2.774,0,3.5,1.07,3.5,2.675,0,2.474-1.56,6.52-1.56,8.527" transform="translate(-934.134 -36.686)" fill="#fff"/>
    <path id="Path_64" data-name="Path 64" d="M1870.13,49.11a5.728,5.728,0,0,0,.139-1.07.7.7,0,0,0-.694-.736c-.555,0-.832.033-1.248.067l.659-3.678a19.141,19.141,0,0,1,4.23-.435c2.774,0,3.5,1.07,3.5,2.675a22.651,22.651,0,0,1-.52,3.478l-1.006,5.451a5.641,5.641,0,0,0-.139.9c0,.8.486.9,1.041.9h.867l-.659,3.611a13.1,13.1,0,0,1-3.363.435c-2.879,0-4.161-.869-4.161-3.444a22.746,22.746,0,0,1,.485-3.544Zm4.681-14.379a3.647,3.647,0,1,1-3.78,3.645,3.723,3.723,0,0,1,3.78-3.645" transform="translate(-1138.839 44.815)" fill="#fff"/>
    <path id="Path_65" data-name="Path 65" d="M1977.077,139.886a69.28,69.28,0,0,0,9.987-8.962h-2.948c-1.075,0-1.387.268-1.594,1.338l-.035.234h-3.71l1.005-5.618h14.356l-.243,1.471a9.872,9.872,0,0,1-2.774,5.283,73.562,73.562,0,0,1-6.9,6.253h2.462a1.758,1.758,0,0,0,1.977-1.3l.139-.535h3.745c-.277,5.35-1.145,5.885-4.2,5.885h-12Z" transform="translate(-1236.251 -38.604)" fill="#fff"/>
    <path id="Path_66" data-name="Path 66" d="M2161.709,139.886a69.28,69.28,0,0,0,9.987-8.962h-2.948c-1.075,0-1.387.268-1.6,1.338l-.035.234h-3.71l1.006-5.618h14.356l-.242,1.471a9.872,9.872,0,0,1-2.774,5.283,73.623,73.623,0,0,1-6.9,6.253h2.462a1.758,1.758,0,0,0,1.977-1.3l.138-.535h3.746c-.278,5.35-1.145,5.885-4.2,5.885h-12Z" transform="translate(-1402.749 -38.604)" fill="#fff"/>
    <path id="Path_67" data-name="Path 67" d="M869.634,389.3a3.183,3.183,0,0,1-3.434-3.467c0-3.192,1.737-6.006,4.952-6.006a3.178,3.178,0,0,1,3.434,3.467c0,3.193-1.737,6.006-4.952,6.006m1.343-8.02c-1.967,0-2.8,2.591-2.8,4.449,0,1.151.42,2.12,1.629,2.12,1.967,0,2.8-2.591,2.8-4.449,0-1.152-.422-2.12-1.629-2.12" transform="translate(-235.142 -267.595)" fill="#fff"/>
    <path id="Path_68" data-name="Path 68" d="M966.112,408.143c0-.472-.176-.837-.76-.837-.841.013-1.425.615-1.7,2.146l-.57,3.192h-1.833l.814-4.528a4.586,4.586,0,0,0,.11-.667.274.274,0,0,0-.272-.288c-.218,0-.408.013-.57.026l.2-1.164a8.953,8.953,0,0,1,1.519-.13c.57,0,.9.222.9.72v.34A2.581,2.581,0,0,1,966.1,405.8c1.154,0,1.941.549,1.941,1.727s-.651,2.931-.651,3.507c0,.34.176.431.474.431h.394l-.2,1.138a5.109,5.109,0,0,1-1.059.1c-.976,0-1.466-.353-1.466-1.348,0-.785.584-2.3.584-3.219" transform="translate(-320.86 -291.11)" fill="#fff"/>
    <path id="Path_69" data-name="Path 69" d="M1046.445,410.08c-.366.078-.6.275-.6.615,0,.275.232.668.882.668a7.1,7.1,0,0,0,2.877-.746l-.272,1.544a5.691,5.691,0,0,1-2.742.654,2.538,2.538,0,0,1-2.713-2.7c0-2.407,1.289-4.317,3.7-4.317,1.791,0,2.633.864,2.633,1.805,0,1.439-.95,1.845-2.592,2.212Zm-.624-.837a1.673,1.673,0,0,1,.61-.249l.854-.209c.706-.17,1.058-.379,1.058-.942a.674.674,0,0,0-.746-.668c-.922,0-1.574.785-1.751,1.9Z" transform="translate(-395.37 -291.11)" fill="#fff"/>
    <path id="Path_70" data-name="Path 70" d="M1152.021,410.577a2.617,2.617,0,0,0-.054.458c0,.34.176.431.476.431h.339l-.2,1.138a4.515,4.515,0,0,1-1,.1c-.868,0-1.208-.209-1.276-.942a2.8,2.8,0,0,1-2.007,1.047c-1.521,0-2.307-1.073-2.307-2.656,0-2.407,1.153-4.357,3.338-4.357a1.682,1.682,0,0,1,1.7.981,2.47,2.47,0,0,1,.244-.811h1.6Zm-2.483-3.336c-1.153,0-1.7,1.466-1.7,2.8,0,.824.285,1.361.991,1.361,1.167,0,1.683-1.479,1.683-2.8,0-.811-.272-1.36-.978-1.36" transform="translate(-487.445 -291.11)" fill="#fff"/>
    <path id="Path_71" data-name="Path 71" d="M1216.591,406.023a8.94,8.94,0,0,1,1.519-.13c.556,0,.9.209.9.72v.222a2.238,2.238,0,0,1,1.859-1.033c1.519,0,2.32,1.073,2.32,2.656,0,2.407-1.153,4.344-3.324,4.344a1.681,1.681,0,0,1-1.629-.837l-.258,1.478a2.18,2.18,0,0,0-.04.353c0,.2.1.262.352.262h.49l-.2,1.177h-3.636l.2-1.177h.488c.326,0,.434-.105.488-.419l1-5.522a4.628,4.628,0,0,0,.109-.667.274.274,0,0,0-.272-.288c-.218,0-.408.013-.57.026Zm2.049,4c0,.811.284,1.361.99,1.361,1.153,0,1.683-1.479,1.683-2.813,0-.824-.272-1.36-.978-1.36-1.167,0-1.7,1.492-1.7,2.813" transform="translate(-549.625 -291.11)" fill="#fff"/>
    <path id="Path_72" data-name="Path 72" d="M1298.513,406.023a8.94,8.94,0,0,1,1.519-.13c.556,0,.9.209.9.72v.222a2.237,2.237,0,0,1,1.859-1.033c1.519,0,2.321,1.073,2.321,2.656,0,2.407-1.154,4.344-3.325,4.344a1.681,1.681,0,0,1-1.629-.837l-.257,1.478a2.075,2.075,0,0,0-.042.353c0,.2.1.262.352.262h.49l-.2,1.177h-3.638l.2-1.177h.488c.326,0,.434-.105.488-.419l1-5.522a4.593,4.593,0,0,0,.11-.667.274.274,0,0,0-.272-.288c-.218,0-.408.013-.57.026Zm2.049,4c0,.811.284,1.361.99,1.361,1.153,0,1.683-1.479,1.683-2.813,0-.824-.272-1.36-.978-1.36-1.167,0-1.7,1.492-1.7,2.813" transform="translate(-623.499 -291.11)" fill="#fff"/>
    <path id="Path_73" data-name="Path 73" d="M1407.277,380.432l-1.073,5.823c-.312,1.688-1.126,2.368-2.591,2.368a4.936,4.936,0,0,1-1.195-.118l.284-1.492a2.248,2.248,0,0,0,.76.131c.408,0,.787-.183.937-.982l1.044-5.731h-.908l.216-1.23h.91l.216-1.112c.23-1.177.936-1.858,2.511-1.858a5.832,5.832,0,0,1,1.438.183l-.272,1.465a3.612,3.612,0,0,0-.99-.17.917.917,0,0,0-.95.837l-.122.654h1.479l-.216,1.23Z" transform="translate(-718.693 -264.341)" fill="#fff"/>
    <path id="Path_74" data-name="Path 74" d="M1472.278,412.814a2.538,2.538,0,0,1-2.714-2.7c0-2.407,1.289-4.317,3.7-4.317a2.545,2.545,0,0,1,2.715,2.7c0,2.407-1.29,4.317-3.705,4.317m.828-5.6c-1.167,0-1.669,1.518-1.669,2.8,0,.785.326,1.387,1,1.387,1.167,0,1.669-1.518,1.669-2.8,0-.785-.326-1.387-1-1.387" transform="translate(-779.244 -291.11)" fill="#fff"/>
    <path id="Path_75" data-name="Path 75" d="M1546.94,406.272a8.944,8.944,0,0,1,1.519-.13c.556,0,.882.222.882.72v.248a2.013,2.013,0,0,1,1.751-1.033,4.411,4.411,0,0,1,.692.066l-.312,1.753a2.043,2.043,0,0,0-.828-.17c-.869,0-1.316.523-1.519,1.649l-.638,3.52h-1.833l.814-4.527a4.6,4.6,0,0,0,.109-.667.274.274,0,0,0-.272-.288c-.218,0-.408.013-.57.026Z" transform="translate(-848.761 -291.359)" fill="#fff"/>
    <path id="Path_76" data-name="Path 76" d="M1634.74,410.08c-.366.078-.6.275-.6.615,0,.275.232.668.882.668a7.1,7.1,0,0,0,2.877-.746l-.272,1.544a5.689,5.689,0,0,1-2.741.654,2.538,2.538,0,0,1-2.714-2.7c0-2.407,1.289-4.317,3.7-4.317,1.791,0,2.633.864,2.633,1.805,0,1.439-.95,1.845-2.591,2.212Zm-.624-.837a1.675,1.675,0,0,1,.611-.249l.854-.209c.706-.17,1.058-.379,1.058-.942a.674.674,0,0,0-.746-.668c-.923,0-1.575.785-1.751,1.9Z" transform="translate(-925.882 -291.11)" fill="#fff"/>
    <path id="Path_77" data-name="Path 77" d="M1703.416,408.705c-.134-.6-.406-.668-.814-.668h-.244l.2-1.138a5.369,5.369,0,0,1,1.045-.13c.991,0,1.29.078,1.493,1.217a23.468,23.468,0,0,1,.434,3.651,20.73,20.73,0,0,0,2.049-4.789h1.927a24.166,24.166,0,0,1-3.582,6.673h-1.7a37.862,37.862,0,0,0-.814-4.815" transform="translate(-989.172 -291.986)" fill="#fff"/>
    <path id="Path_78" data-name="Path 78" d="M1778.988,410.08c-.366.078-.6.275-.6.615,0,.275.232.668.882.668a7.1,7.1,0,0,0,2.877-.746l-.272,1.544a5.69,5.69,0,0,1-2.741.654,2.538,2.538,0,0,1-2.713-2.7c0-2.407,1.289-4.317,3.7-4.317,1.791,0,2.633.864,2.633,1.805,0,1.439-.951,1.845-2.592,2.212Zm-.624-.837a1.673,1.673,0,0,1,.61-.249l.854-.209c.706-.17,1.058-.379,1.058-.942a.674.674,0,0,0-.746-.668c-.923,0-1.574.785-1.751,1.9Z" transform="translate(-1055.962 -291.11)" fill="#fff"/>
    <path id="Path_79" data-name="Path 79" d="M1851.313,406.272a8.945,8.945,0,0,1,1.519-.13c.556,0,.882.222.882.72v.248a2.014,2.014,0,0,1,1.75-1.033,4.415,4.415,0,0,1,.693.066l-.312,1.753a2.042,2.042,0,0,0-.828-.17c-.868,0-1.317.523-1.519,1.649l-.638,3.52h-1.833l.814-4.527a4.567,4.567,0,0,0,.11-.667.274.274,0,0,0-.272-.288c-.218,0-.408.013-.57.026Z" transform="translate(-1123.239 -291.359)" fill="#fff"/>
    <path id="Path_80" data-name="Path 80" d="M1899.239,414.789a1.826,1.826,0,0,0,1.791-2.015,14.613,14.613,0,0,0-.746-4.069c-.176-.6-.406-.667-.814-.667h-.244l.2-1.138a5.507,5.507,0,0,1,1.058-.13c1,0,1.207.118,1.479,1.217a14.368,14.368,0,0,1,.448,3.336c0,.223,0,.446-.014.655a24.19,24.19,0,0,0,2.009-5.129h1.9a29.624,29.624,0,0,1-3.474,7.079,4.389,4.389,0,0,1-3.528,2.342,4.283,4.283,0,0,1-1.3-.183l.285-1.492a2.7,2.7,0,0,0,.95.2" transform="translate(-1165.601 -291.985)" fill="#fff"/>
    <path id="Path_81" data-name="Path 81" d="M1988.911,390.066h-.964l.232-1.23h.949l.286-1.505a6.02,6.02,0,0,1,1.913-.458l-.366,1.963h1.533l-.217,1.23h-1.534l-.569,3.114a2.525,2.525,0,0,0-.056.484c0,.419.232.51.638.51a3.243,3.243,0,0,0,1-.183l-.258,1.492a5.871,5.871,0,0,1-1.425.17c-1.3,0-1.859-.51-1.859-1.531a7.045,7.045,0,0,1,.122-.955Z" transform="translate(-1246.71 -273.975)" fill="#fff"/>
    <path id="Path_82" data-name="Path 82" d="M2039.734,377.33a9.615,9.615,0,0,1,1.574-.131c.747,0,1,.34,1,.837a5.823,5.823,0,0,1-.136.969l-.353,1.884a2.448,2.448,0,0,1,1.967-.981c1.153,0,1.927.549,1.927,1.727s-.652,2.931-.652,3.507c0,.34.164.431.476.431h.393l-.2,1.138a5.117,5.117,0,0,1-1.059.1c-.978,0-1.466-.353-1.466-1.348,0-.785.6-2.3.6-3.219,0-.472-.163-.837-.76-.837-.883,0-1.452.732-1.751,2.407l-.528,2.931h-1.833l1.384-7.576a2.279,2.279,0,0,0,.054-.419.273.273,0,0,0-.272-.288c-.216,0-.406.013-.57.026Z" transform="translate(-1292.689 -265.217)" fill="#fff"/>
    <path id="Path_83" data-name="Path 83" d="M2123.717,379.355a2.2,2.2,0,0,0,.056-.419.274.274,0,0,0-.272-.288c-.218,0-.408.013-.57.026l.2-1.165a9.667,9.667,0,0,1,1.573-.13c.746,0,1,.34,1,.837a5.824,5.824,0,0,1-.136.968l-.529,2.879a2.608,2.608,0,0,0-.054.458c0,.34.162.432.475.432h.394l-.2,1.138a5.093,5.093,0,0,1-1.058.1c-.977,0-1.465-.353-1.465-1.348a8.238,8.238,0,0,1,.162-1.217Zm1.438-5.051a1.165,1.165,0,1,1-1.207,1.164,1.19,1.19,0,0,1,1.207-1.164" transform="translate(-1368.435 -262.596)" fill="#fff"/>
    <path id="Path_84" data-name="Path 84" d="M2171.713,408.143c0-.472-.176-.837-.76-.837-.841.013-1.425.615-1.7,2.146l-.57,3.192h-1.833l.814-4.528a4.569,4.569,0,0,0,.11-.667.274.274,0,0,0-.272-.288c-.218,0-.408.013-.57.026l.2-1.164a8.952,8.952,0,0,1,1.519-.13c.571,0,.9.222.9.72v.34a2.582,2.582,0,0,1,2.144-1.151c1.154,0,1.941.549,1.941,1.727s-.651,2.931-.651,3.507c0,.34.176.431.475.431h.394l-.2,1.138a5.107,5.107,0,0,1-1.059.1c-.976,0-1.466-.353-1.466-1.348,0-.785.584-2.3.584-3.219" transform="translate(-1408.046 -291.11)" fill="#fff"/>
    <path id="Path_85" data-name="Path 85" d="M2252.449,407.161a.427.427,0,0,0-.5.419l-.8,4.436a3.662,3.662,0,0,1-3.99,3.376,4.01,4.01,0,0,1-2.239-.563l.286-1.57a3.307,3.307,0,0,0,2.008.615,2.022,2.022,0,0,0,2.076-1.7l.094-.51a2.28,2.28,0,0,1-1.763.772,2.137,2.137,0,0,1-2.213-2.434c0-2.238,1.086-4.2,3.352-4.2a1.764,1.764,0,0,1,1.751.981c.122-.589.38-.9.977-.9.476,0,1.249.052,1.575.092l-.218,1.191Zm-3.528.079c-1.14,0-1.643,1.374-1.643,2.578,0,.706.3,1.151.991,1.151,1.167,0,1.615-1.322,1.643-2.526,0-.706-.286-1.2-.99-1.2" transform="translate(-1478.441 -291.11)" fill="#fff"/>
  </g>
</svg>
