<svg id="Group_27" data-name="Group 27" xmlns="http://www.w3.org/2000/svg" xmlns:xlink="http://www.w3.org/1999/xlink" width="11.498" height="10.769" viewBox="0 0 11.498 10.769">
  <defs>
    <clipPath id="clip-path">
      <rect id="Rectangle_30" data-name="Rectangle 30" width="11.498" height="10.769" fill="none"/>
    </clipPath>
  </defs>
  <g id="Group_26" data-name="Group 26" clip-path="url(#clip-path)">
    <path id="Path_96" data-name="Path 96" d="M108.934,43.283a.306.306,0,1,1-.61-.028.3.3,0,0,1,.322-.3.3.3,0,0,1,.288.332" transform="translate(-98.486 -39.049)" fill="#333"/>
    <path id="Path_97" data-name="Path 97" d="M9.506,31.443c-.3.025-.4.12-.389.405.014.467-.005.934.007,1.4.006.227-.054.321-.3.32q-3.07-.011-6.141,0c-.242,0-.312-.083-.307-.312.012-.481,0-.963,0-1.446,0-.174-.015-.317-.242-.361A1.7,1.7,0,0,0,.02,33.13C0,34.123.058,35.119,0,36.109a1.722,1.722,0,0,0,2.031,1.921c.253-.023.35-.1.346-.35-.007-.451.017-.9-.009-1.354-.017-.312.074-.414.4-.408.993.02,1.987.007,2.98.007s2.017.011,3.025-.007c.286-.005.363.087.353.355-.016.466-.007.934,0,1.4,0,.147-.009.292.2.348a1.731,1.731,0,0,0,2.17-1.632c.006-1.023-.062-2.05,0-3.07a1.716,1.716,0,0,0-1.987-1.876m.628,1.878a.477.477,0,0,1-.5-.519.483.483,0,0,1,.509-.554c.334-.005.467.216.5.521-.019.323-.165.553-.513.552" transform="translate(0 -28.559)" fill="#545b5f"/>
    <path id="Path_98" data-name="Path 98" d="M36.852.4c0-.282-.081-.406-.383-.4q-2.549.014-5.1,0c-.3,0-.39.114-.389.4.01,1.247.015,2.5,0,3.742,0,.35.133.436.454.43.826-.015,1.654-.005,2.48-.005s1.654-.009,2.48.005c.314.005.464-.07.459-.425-.017-1.247-.012-2.5,0-3.743M32.093.781h3.651c.2,0,.431-.011.416.272-.015.259-.233.27-.44.269-.616,0-1.231,0-1.847,0-.587,0-1.172,0-1.758,0-.206,0-.424-.01-.439-.269-.015-.284.218-.272.417-.272m3.681,2.89q-1.848,0-3.7,0c-.216,0-.416-.047-.4-.305.013-.242.223-.241.41-.241h3.7c.192,0,.388.021.38.268-.006.229-.187.277-.387.277m-.03-1.176c-.616,0-1.232,0-1.848,0s-1.2,0-1.8,0c-.211,0-.419-.026-.42-.289,0-.246.209-.258.394-.258q1.848,0,3.7,0c.187,0,.394.012.4.256,0,.262-.205.292-.417.292" transform="translate(-28.168 0)" fill="#ed6b14"/>
    <path id="Path_99" data-name="Path 99" d="M108.934,43.283a.306.306,0,1,1-.61-.028.3.3,0,0,1,.322-.3.3.3,0,0,1,.288.332" transform="translate(-98.486 -39.049)" fill="#f8f6f5"/>
    <path id="Path_100" data-name="Path 100" d="M36.7,86.091h0c-.058-.161-.2-.1-.307-.1q-2.589-.006-5.177,0c-.107,0-.248-.056-.307.1a17.911,17.911,0,0,0,0,2.733h0c0,.063.031.092.1.08q2.8.068,5.6,0c.065.012.094-.017.1-.08a17.92,17.92,0,0,0,0-2.732" transform="translate(-28.055 -78.169)" fill="#545b5f"/>
    <path id="Path_101" data-name="Path 101" d="M108.934,43.283a.306.306,0,1,1-.61-.028.3.3,0,0,1,.322-.3.3.3,0,0,1,.288.332" transform="translate(-98.486 -39.049)" fill="#ed6b14"/>
  </g>
</svg>
