<svg xmlns="http://www.w3.org/2000/svg" width="17.25" height="16.935" viewBox="0 0 17.25 16.935">
  <g id="Group_1862" data-name="Group 1862" transform="translate(17067 7729.718)">
    <g id="Icon-eye" transform="translate(-17157 -7853.667)">
      <path id="Path_5" data-name="Path 5" d="M98.625,138.167c-4.751,0-8.625-4.623-8.625-5.75s3.875-5.75,8.625-5.75,8.625,4.623,8.625,5.75S103.376,138.167,98.625,138.167Zm0-10.542c-4.2,0-7.569,4.188-7.668,4.81.1.585,3.469,4.773,7.668,4.773s7.569-4.188,7.668-4.81c-.1-.584-3.469-4.773-7.668-4.773Z" fill="#9aaac1"/>
      <circle id="Ellipse_1" data-name="Ellipse 1" cx="3.354" cy="3.354" r="3.354" transform="translate(95.271 129.063)" fill="#9aaac1"/>
    </g>
    <g id="Path_692" data-name="Path 692" transform="translate(-17051.289 -7729.718) rotate(45)" fill="#9aaac1">
      <path d="M 1.088839650154114 21.64720153808594 C 0.5574995875358582 21.64719009399414 0.1252095997333527 21.21491050720215 0.1251995861530304 20.68358039855957 L 0.1249995902180672 1.088600754737854 C 0.1249995902180672 0.8312307596206665 0.2252295911312103 0.5892507433891296 0.4072395861148834 0.4072407782077789 C 0.5892395973205566 0.2252407670021057 0.8312196135520935 0.1250007748603821 1.088579535484314 0.1250007748603821 C 1.619919538497925 0.1250107735395432 2.052209615707397 0.55729079246521 2.05221962928772 1.088620781898499 L 2.052419662475586 20.68360137939453 C 2.052419662475586 20.94097137451172 1.952189564704895 21.18295097351074 1.770179629325867 21.36496162414551 C 1.588179588317871 21.54696083068848 1.346199631690979 21.64720153808594 1.088839650154114 21.64720153808594 Z" stroke="none"/>
      <path d="M 1.088579535484314 0.25 C 0.8645995855331421 0.25 0.6540195941925049 0.3372306823730469 0.4956295490264893 0.4956302642822266 C 0.3372296094894409 0.6540298461914062 0.2499996423721313 0.8646202087402344 0.2499996423721313 1.088600158691406 L 0.250199556350708 20.68358039855957 C 0.2502095699310303 21.1459903717041 0.6264195442199707 21.52219009399414 1.088839650154114 21.52220153808594 C 1.312819600105286 21.52220153808594 1.523399591445923 21.43497085571289 1.681789636611938 21.27657127380371 C 1.840189576148987 21.11817169189453 1.927419543266296 20.9075813293457 1.927419543266296 20.68360137939453 L 1.92721962928772 1.088621139526367 C 1.927209615707397 0.6262111663818359 1.550999641418457 0.25 1.088579535484314 0.25 M 1.088581085205078 0 C 1.689386129379272 0.00202178955078125 2.177209615707397 0.4873619079589844 2.17721962928772 1.088621139526367 L 2.177419662475586 20.68360137939453 C 2.177429676055908 21.28482055664062 1.689391136169434 21.7722110748291 1.088819622993469 21.77220153808594 C 0.4875996112823486 21.77219009399414 0.0002095699310302734 21.2848014831543 0.0001995563507080078 20.68358039855957 L -4.76837158203125e-07 1.088600158691406 C -1.049041748046875e-05 0.4874172210693359 0.4874116182327271 0 1.088581085205078 0 Z" stroke="none" fill="#fff"/>
    </g>
  </g>
</svg>
