<svg id="copy" xmlns="http://www.w3.org/2000/svg" width="20" height="20" viewBox="0 0 20 20">
  <rect id="Rectangle_5" data-name="Rectangle 5" width="20" height="20" transform="translate(0)" fill="none"/>
  <path id="Path_5" data-name="Path 5" d="M13.8-18.845l-1.654-1.7A1.454,1.454,0,0,0,11.069-21H5.6a1.454,1.454,0,0,0-1.081.457,1.531,1.531,0,0,0-.445,1.11v1.567H1.527a1.454,1.454,0,0,0-1.081.457A1.531,1.531,0,0,0,0-16.3V-5.853a1.531,1.531,0,0,0,.445,1.11,1.454,1.454,0,0,0,1.081.457H8.652a1.454,1.454,0,0,0,1.081-.457,1.531,1.531,0,0,0,.445-1.11V-7.42h2.545A1.454,1.454,0,0,0,13.8-7.877a1.531,1.531,0,0,0,.445-1.11v-8.749A1.531,1.531,0,0,0,13.8-18.845ZM11.2-19.955a.85.85,0,0,1,.223.163l1.654,1.7a.871.871,0,0,1,.159.229H11.2ZM9.161-5.853a.516.516,0,0,1-.143.375.489.489,0,0,1-.366.147H1.527a.489.489,0,0,1-.366-.147.516.516,0,0,1-.143-.375V-16.3a.516.516,0,0,1,.143-.375.489.489,0,0,1,.366-.147H4.071v7.835a1.531,1.531,0,0,0,.445,1.11A1.454,1.454,0,0,0,5.6-7.42H9.161Zm4.071-3.134a.516.516,0,0,1-.143.375.489.489,0,0,1-.366.147H5.6a.489.489,0,0,1-.366-.147.516.516,0,0,1-.143-.375V-19.433a.516.516,0,0,1,.143-.375.489.489,0,0,1,.366-.147h4.58v2.35a.766.766,0,0,0,.223.555.727.727,0,0,0,.541.229h2.29Z" transform="translate(3.286 22.643)" fill="#a6aaaf"/>
</svg>
