<svg id="briefcase" xmlns="http://www.w3.org/2000/svg" width="35.8" height="26.3" viewBox="0 0 35.8 26.3">
  <path id="Path_42" data-name="Path 42" d="M34.3,5H1.5A1.538,1.538,0,0,0,0,6.5V24.8a1.538,1.538,0,0,0,1.5,1.5H34.3a1.538,1.538,0,0,0,1.5-1.5V6.5A1.538,1.538,0,0,0,34.3,5Zm.5,19.8a.472.472,0,0,1-.5.5H1.5a.472.472,0,0,1-.5-.5V6.5A.472.472,0,0,1,1.5,6H34.3a.472.472,0,0,1,.5.5Z" fill="#fff"/>
  <path id="Path_43" data-name="Path 43" d="M27,4a.472.472,0,0,1-.5-.5v-2A.472.472,0,0,0,26,1H9.8a.472.472,0,0,0-.5.5v2a.5.5,0,0,1-1,0v-2A1.538,1.538,0,0,1,9.8,0H26a1.538,1.538,0,0,1,1.5,1.5v2A.472.472,0,0,1,27,4Z" fill="#fff"/>
</svg>
