<svg xmlns="http://www.w3.org/2000/svg" width="18.076" height="14.001" viewBox="0 0 18.076 14.001">
  <path id="Union_1" data-name="Union 1" d="M15.428,16v-3.55H1.556V16H0V11.2A3.649,3.649,0,0,1,.726,8.915v-5A.948.948,0,0,1,1.7,3H15.316a.99.99,0,0,1,.992.916v5a3.512,3.512,0,0,1,.768,2.285V16Zm-.011-5.015a2.019,2.019,0,0,0-.906-1.636,7.59,7.59,0,0,0-3.735-.959c-.6-.035-1.511-.056-2.483-.06-.919,0-1.78.025-2.346.06a6.853,6.853,0,0,0-3.526.959,2.052,2.052,0,0,0-.855,1.636H15.417ZM2.283,7.712a9.841,9.841,0,0,1,3.565-.785C6.39,6.9,7.166,6.874,8,6.868v0h.569c1.042,0,1.983.023,2.585.062h0a10.129,10.129,0,0,1,3.505.764V4.465H2.283ZM15.424,16h0ZM1.556,16h0Z" transform="translate(0.5 -2.5)" fill="#0fa1c1" stroke="rgba(0,0,0,0)" stroke-width="1"/>
</svg>
