<svg xmlns="http://www.w3.org/2000/svg" width="24" height="24" viewBox="0 0 24 24" fill="#a6aaaf">
  <path id="schedule_FILL0_wght300_GRAD0_opsz48_2_" data-name="schedule_FILL0_wght300_GRAD0_opsz48 (2)" d="M116.74,213.829l1.069-1.069-5.021-5.053v-6.323h-1.433v6.911ZM112,220a11.6,11.6,0,0,1-4.655-.945,12.129,12.129,0,0,1-6.4-6.4,11.933,11.933,0,0,1,0-9.308,12.13,12.13,0,0,1,6.4-6.4,11.933,11.933,0,0,1,9.308,0,12.129,12.129,0,0,1,6.4,6.4,11.933,11.933,0,0,1,0,9.308,12.129,12.129,0,0,1-6.4,6.4A11.587,11.587,0,0,1,112,220ZM112,208Zm0,10.567a10.6,10.6,0,1,0-7.464-3.1A10.176,10.176,0,0,0,112,218.568Z" transform="translate(-100.001 -196.001)"/>
</svg>
