<svg xmlns="http://www.w3.org/2000/svg" width="53.181" height="53.181" viewBox="0 0 53.181 53.181">
  <g id="registration_successful" transform="translate(-149.986 -143.986)">
    <circle id="Ellipse_1" data-name="Ellipse 1" cx="26.591" cy="26.591" r="26.591" transform="translate(149.986 143.986)" fill="#1da83f"/>
    <path id="Shape_576" data-name="Shape 576" d="M4863.243,262.021a1.759,1.759,0,0,1-1.2-.452l-7.488-7.168a1.532,1.532,0,0,1-.059-2.31,1.829,1.829,0,0,1,2.487-.054l5.49,3.637a.752.752,0,0,0,1.058-.106l13.006-14.92a1.831,1.831,0,0,1,2.459-.319,1.543,1.543,0,0,1,.342,2.284l-14.694,18.741a1.787,1.787,0,0,1-1.257.638A.278.278,0,0,1,4863.243,262.021Z" transform="translate(-4690.27 -80.841)" fill="#fff"/>
  </g>
</svg>
