<svg xmlns="http://www.w3.org/2000/svg" width="25" height="25" viewBox="0 0 25 25">
  <path id="Icon_awesome-pinterest-square" data-name="Icon awesome-pinterest-square" d="M25,4.929V24.571a2.679,2.679,0,0,1-2.679,2.679H8.616a14.3,14.3,0,0,0,1.529-3.309c.167-.642.854-3.259.854-3.259a3.664,3.664,0,0,0,3.142,1.574c4.135,0,7.109-3.8,7.109-8.521,0-4.526-3.694-7.913-8.449-7.913-5.915,0-9.051,3.968-9.051,8.292,0,2.009,1.071,4.509,2.779,5.307.262.123.4.067.458-.184.045-.19.279-1.122.379-1.551a.4.4,0,0,0-.095-.391A5.342,5.342,0,0,1,6.25,14.17a5.931,5.931,0,0,1,6.189-5.949A5.411,5.411,0,0,1,18.164,13.8c0,3.705-1.869,6.272-4.308,6.272a1.993,1.993,0,0,1-2.031-2.478c.385-1.629,1.133-3.387,1.133-4.565,0-2.958-4.213-2.55-4.213,1.4a5.007,5.007,0,0,0,.407,2.037C7.4,23.868,7.137,23.963,7.5,27.205l.123.045H2.679A2.679,2.679,0,0,1,0,24.571V4.929A2.679,2.679,0,0,1,2.679,2.25H22.321A2.679,2.679,0,0,1,25,4.929Z" transform="translate(0 -2.25)" fill="#1ca1c1"/>
</svg>
