<svg xmlns="http://www.w3.org/2000/svg" width="25" height="25" viewBox="0 0 25 25">
  <path id="Icon_awesome-google-plus-square" data-name="Icon awesome-google-plus-square" d="M22.321,2.25H2.679A2.679,2.679,0,0,0,0,4.929V24.571A2.679,2.679,0,0,0,2.679,27.25H22.321A2.679,2.679,0,0,0,25,24.571V4.929A2.679,2.679,0,0,0,22.321,2.25ZM9.152,20.33a5.58,5.58,0,1,1,0-11.161,5.331,5.331,0,0,1,3.739,1.462l-1.512,1.456a3.131,3.131,0,0,0-2.221-.859,3.528,3.528,0,0,0,0,7.054,3.027,3.027,0,0,0,3.17-2.405H9.152v-1.92H14.42a4.535,4.535,0,0,1,.089.926A5.144,5.144,0,0,1,9.152,20.33Zm12.277-4.565H19.81v1.618H18.181V15.766H16.563V14.136h1.618V12.518H19.81v1.618h1.618Z" transform="translate(0 -2.25)" fill="#1ca1c1"/>
</svg>
