<svg xmlns="http://www.w3.org/2000/svg" width="33.045" height="33.57" viewBox="0 0 33.045 33.57">
  <g id="Group_53" data-name="Group 53" transform="translate(-23.139 -149)">
    <path id="Path_508" data-name="Path 508" d="M30.688,3.569H27.174V1.62A1.62,1.62,0,0,0,25.554,0H25.3a1.619,1.619,0,0,0-1.619,1.62V3.569H11.28V1.62A1.62,1.62,0,0,0,9.66,0H9.4A1.619,1.619,0,0,0,7.784,1.62V3.569H4.311A3.337,3.337,0,0,0,.977,6.9V30.237A3.338,3.338,0,0,0,4.311,33.57H30.688a3.338,3.338,0,0,0,3.334-3.334V6.9A3.338,3.338,0,0,0,30.688,3.569ZM30.253,29.8H4.745V11.637H30.253Z" transform="translate(22.162 149)" fill="#fff"/>
    <path id="Path_513" data-name="Path 513" d="M327.552,12.11a.8.8,0,0,1-.562-1.358,6.63,6.63,0,0,0,0-9.39A.8.8,0,1,1,328.114.235a8.222,8.222,0,0,1,0,11.642A.793.793,0,0,1,327.552,12.11Zm0,0" transform="translate(-282.62 163.795)" fill="#fff"/>
    <path id="Path_511" data-name="Path 511" d="M210.2,88.015a1.672,1.672,0,1,1,0-2.362A1.676,1.676,0,0,1,210.2,88.015Zm0,0" transform="translate(-169.352 83.017)" fill="#fff"/>
    <path id="Path_512" data-name="Path 512" d="M292.6,52.923a.8.8,0,0,1-.562-1.358,3.324,3.324,0,0,0,0-4.707.8.8,0,1,1,1.124-1.126,4.914,4.914,0,0,1,0,6.959A.792.792,0,0,1,292.6,52.923Zm0,0" transform="translate(-249.466 120.64)" fill="#fff"/>
    <path id="Path_510" data-name="Path 510" d="M135.408,52.921a.793.793,0,0,1-.562-.232,4.914,4.914,0,0,1,0-6.959.8.8,0,0,1,1.124,1.126,3.324,3.324,0,0,0,0,4.707.8.8,0,0,1-.562,1.358Zm0,0" transform="translate(-99.218 120.642)" fill="#fff"/>
    <path id="Path_509" data-name="Path 509" d="M82.544,12.108a.792.792,0,0,1-.562-.232,8.222,8.222,0,0,1,0-11.642.8.8,0,0,1,1.124,1.126,6.63,6.63,0,0,0,0,9.391.8.8,0,0,1-.562,1.358Zm0,0" transform="translate(-48.153 163.797)" fill="#fff"/>
  </g>
</svg>
