<svg xmlns="http://www.w3.org/2000/svg" width="83" height="108" viewBox="0 0 83 108">
  <g id="Group_52" data-name="Group 52" transform="translate(-22)">
    <rect id="Rectangle_17" data-name="Rectangle 17" width="83" height="108" transform="translate(22)" fill="#fff"/>
    <g id="Group_6" data-name="Group 6" transform="translate(-838.409 -1272)">
      <g id="Group_1" data-name="Group 1" transform="translate(877.409 1362.552)">
        <path id="Path_475" data-name="Path 475" d="M878.6,2041.449a1.126,1.126,0,0,1-1.191-1.247c0-1.148.6-2.16,1.718-2.16a1.124,1.124,0,0,1,1.191,1.247C880.318,2040.438,879.715,2041.449,878.6,2041.449Zm.466-2.885c-.682,0-.97.932-.97,1.6,0,.414.146.762.565.762.682,0,.97-.932.97-1.6C879.631,2038.913,879.484,2038.565,879.066,2038.565Z" transform="translate(-877.409 -2037.854)" fill="#040506"/>
        <path id="Path_476" data-name="Path 476" d="M910.106,2047.359c0-.17-.061-.3-.264-.3-.292,0-.494.221-.588.772l-.2,1.148h-.636l.282-1.629a1.721,1.721,0,0,0,.038-.24.1.1,0,0,0-.094-.1c-.076,0-.142,0-.2.009l.071-.419a3,3,0,0,1,.527-.047c.2,0,.311.08.311.259v.122a.888.888,0,0,1,.743-.414.589.589,0,0,1,.673.621c0,.424-.226,1.054-.226,1.261,0,.122.061.155.165.155h.137l-.071.409a1.7,1.7,0,0,1-.367.038c-.339,0-.509-.127-.509-.485C909.9,2048.234,910.106,2047.688,910.106,2047.359Z" transform="translate(-905.183 -2045.443)" fill="#040506"/>
        <path id="Path_477" data-name="Path 477" d="M936.267,2048.055c-.127.028-.207.1-.207.221,0,.1.08.24.306.24a2.394,2.394,0,0,0,1-.268l-.094.555a1.915,1.915,0,0,1-.951.235.9.9,0,0,1-.941-.97c0-.866.447-1.553,1.285-1.553.621,0,.913.311.913.649,0,.518-.33.664-.9.8Zm-.217-.3a.57.57,0,0,1,.212-.09l.3-.075c.245-.061.367-.136.367-.339a.238.238,0,0,0-.259-.24c-.32,0-.546.282-.607.682Z" transform="translate(-929.324 -2045.443)" fill="#040506"/>
        <path id="Path_478" data-name="Path 478" d="M970.782,2048.234a.975.975,0,0,0-.019.165c0,.122.061.155.165.155h.117l-.071.409a1.508,1.508,0,0,1-.348.038c-.3,0-.419-.075-.443-.339a.962.962,0,0,1-.7.376c-.527,0-.8-.386-.8-.955,0-.866.4-1.567,1.158-1.567a.582.582,0,0,1,.589.353.912.912,0,0,1,.085-.292h.555Zm-.861-1.2c-.4,0-.588.527-.588,1.007,0,.3.1.49.344.49.4,0,.584-.532.584-1.007C970.26,2047.231,970.166,2047.034,969.921,2047.034Z" transform="translate(-959.156 -2045.443)" fill="#040506"/>
        <path id="Path_479" data-name="Path 479" d="M991.758,2046.6a3,3,0,0,1,.527-.047c.193,0,.311.075.311.259v.08a.771.771,0,0,1,.645-.372c.527,0,.8.386.8.955,0,.866-.4,1.563-1.153,1.563a.579.579,0,0,1-.565-.3l-.089.531a.814.814,0,0,0-.014.127c0,.071.033.094.122.094h.17l-.071.424h-1.261l.07-.424h.169c.113,0,.151-.038.169-.151l.348-1.986a1.711,1.711,0,0,0,.038-.24.1.1,0,0,0-.094-.1c-.076,0-.141,0-.2.009Zm.711,1.44c0,.292.1.49.344.49.4,0,.584-.532.584-1.012,0-.3-.094-.489-.339-.489C992.652,2047.024,992.469,2047.561,992.469,2048.036Z" transform="translate(-979.303 -2045.443)" fill="#040506"/>
        <path id="Path_480" data-name="Path 480" d="M1018.486,2046.6a3,3,0,0,1,.527-.047c.193,0,.311.075.311.259v.08a.771.771,0,0,1,.645-.372c.527,0,.805.386.805.955,0,.866-.4,1.563-1.154,1.563a.579.579,0,0,1-.565-.3l-.089.531a.775.775,0,0,0-.014.127c0,.071.033.094.122.094h.17l-.071.424h-1.262l.071-.424h.169c.113,0,.151-.038.169-.151l.348-1.986a1.711,1.711,0,0,0,.038-.24.1.1,0,0,0-.094-.1c-.076,0-.142,0-.2.009Zm.711,1.44c0,.292.1.49.344.49.4,0,.584-.532.584-1.012,0-.3-.094-.489-.339-.489C1019.38,2047.024,1019.2,2047.561,1019.2,2048.036Z" transform="translate(-1003.239 -2045.443)" fill="#040506"/>
        <path id="Path_481" data-name="Path 481" d="M1054.036,2038.38l-.372,2.094c-.108.607-.391.852-.9.852a1.653,1.653,0,0,1-.414-.042l.1-.536a.756.756,0,0,0,.264.047c.141,0,.273-.066.325-.353l.362-2.061h-.315l.075-.443h.316l.075-.4a.762.762,0,0,1,.871-.668,1.955,1.955,0,0,1,.5.066l-.094.527a1.213,1.213,0,0,0-.344-.061.322.322,0,0,0-.33.3l-.042.235h.513l-.075.443Z" transform="translate(-1034.083 -2036.803)" fill="#040506"/>
        <path id="Path_482" data-name="Path 482" d="M1075.2,2049.039a.9.9,0,0,1-.941-.97c0-.866.447-1.553,1.285-1.553a.9.9,0,0,1,.942.97C1076.483,2048.352,1076.036,2049.039,1075.2,2049.039Zm.287-2.014c-.4,0-.579.546-.579,1.007,0,.282.113.5.348.5.4,0,.579-.546.579-1.007C1075.834,2047.241,1075.721,2047.024,1075.485,2047.024Z" transform="translate(-1053.701 -2045.443)" fill="#040506"/>
        <path id="Path_483" data-name="Path 483" d="M1099.506,2046.677a3,3,0,0,1,.527-.047c.193,0,.306.08.306.259v.089a.7.7,0,0,1,.607-.372,1.474,1.474,0,0,1,.24.024l-.108.631a.687.687,0,0,0-.287-.061c-.3,0-.457.188-.527.593l-.221,1.266h-.636l.282-1.629a1.711,1.711,0,0,0,.038-.24.1.1,0,0,0-.094-.1c-.076,0-.141,0-.2.009Z" transform="translate(-1076.225 -2045.524)" fill="#040506"/>
        <path id="Path_484" data-name="Path 484" d="M1128.2,2048.055c-.127.028-.207.1-.207.221,0,.1.08.24.306.24a2.394,2.394,0,0,0,1-.268l-.094.555a1.916,1.916,0,0,1-.951.235.9.9,0,0,1-.941-.97c0-.866.447-1.553,1.285-1.553.621,0,.913.311.913.649,0,.518-.33.664-.9.8Zm-.216-.3a.571.571,0,0,1,.212-.09l.3-.075c.245-.061.367-.136.367-.339a.237.237,0,0,0-.259-.24c-.32,0-.546.282-.607.682Z" transform="translate(-1101.213 -2045.443)" fill="#040506"/>
        <path id="Path_485" data-name="Path 485" d="M1150.572,2047.529c-.047-.217-.141-.24-.282-.24h-.085l.071-.41a1.8,1.8,0,0,1,.362-.047c.344,0,.448.028.518.438a8.768,8.768,0,0,1,.151,1.313,7.6,7.6,0,0,0,.711-1.723h.668a8.8,8.8,0,0,1-1.242,2.4h-.589A14.069,14.069,0,0,0,1150.572,2047.529Z" transform="translate(-1121.719 -2045.726)" fill="#040506"/>
        <path id="Path_486" data-name="Path 486" d="M1175.259,2048.055c-.127.028-.208.1-.208.221,0,.1.08.24.306.24a2.394,2.394,0,0,0,1-.268l-.094.555a1.915,1.915,0,0,1-.951.235.9.9,0,0,1-.941-.97c0-.866.447-1.553,1.285-1.553.621,0,.913.311.913.649,0,.518-.33.664-.9.8Zm-.217-.3a.569.569,0,0,1,.212-.09l.3-.075c.245-.061.367-.136.367-.339a.237.237,0,0,0-.259-.24c-.32,0-.546.282-.607.682Z" transform="translate(-1143.359 -2045.443)" fill="#040506"/>
        <path id="Path_487" data-name="Path 487" d="M1198.808,2046.677a3,3,0,0,1,.527-.047c.193,0,.306.08.306.259v.089a.7.7,0,0,1,.607-.372,1.476,1.476,0,0,1,.24.024l-.108.631a.687.687,0,0,0-.287-.061c-.3,0-.457.188-.527.593l-.221,1.266h-.636l.282-1.629a1.731,1.731,0,0,0,.038-.24.1.1,0,0,0-.094-.1c-.075,0-.141,0-.2.009Z" transform="translate(-1165.158 -2045.524)" fill="#040506"/>
        <path id="Path_488" data-name="Path 488" d="M1214.463,2049.717a.649.649,0,0,0,.621-.725,5.434,5.434,0,0,0-.259-1.464c-.061-.217-.141-.24-.282-.24h-.085l.071-.41a1.845,1.845,0,0,1,.367-.047c.348,0,.419.042.513.438a5.351,5.351,0,0,1,.155,1.2c0,.08,0,.16,0,.236a8.886,8.886,0,0,0,.7-1.845h.659a10.82,10.82,0,0,1-1.2,2.546,1.522,1.522,0,0,1-1.224.843,1.441,1.441,0,0,1-.452-.066l.1-.537A.91.91,0,0,0,1214.463,2049.717Z" transform="translate(-1178.883 -2045.726)" fill="#040506"/>
        <path id="Path_489" data-name="Path 489" d="M1243.713,2041.49h-.334l.08-.443h.329l.1-.541a2.027,2.027,0,0,1,.664-.164l-.127.706h.532l-.075.443h-.532l-.2,1.12a.936.936,0,0,0-.019.174c0,.151.08.184.221.184a1.091,1.091,0,0,0,.348-.066l-.09.536a1.966,1.966,0,0,1-.494.061c-.452,0-.645-.184-.645-.551a2.62,2.62,0,0,1,.042-.344Z" transform="translate(-1205.162 -2039.914)" fill="#040506"/>
        <path id="Path_490" data-name="Path 490" d="M1260.291,2037.232a3.207,3.207,0,0,1,.546-.047c.259,0,.348.122.348.3a2.152,2.152,0,0,1-.047.348l-.122.678a.84.84,0,0,1,.682-.353.586.586,0,0,1,.668.621c0,.424-.226,1.054-.226,1.261,0,.122.057.155.165.155h.136l-.07.409a1.711,1.711,0,0,1-.367.038c-.339,0-.509-.127-.509-.485,0-.282.207-.828.207-1.158,0-.17-.057-.3-.264-.3-.306,0-.5.263-.607.866l-.183,1.054h-.636l.48-2.725a.851.851,0,0,0,.019-.151.1.1,0,0,0-.094-.1c-.075,0-.141,0-.2.009Z" transform="translate(-1220.06 -2037.086)" fill="#040506"/>
        <path id="Path_491" data-name="Path 491" d="M1287.69,2038.057a.818.818,0,0,0,.019-.151.1.1,0,0,0-.094-.1c-.075,0-.141,0-.2.009l.071-.419a3.257,3.257,0,0,1,.546-.047c.259,0,.348.122.348.3a2.164,2.164,0,0,1-.047.348l-.183,1.036a.987.987,0,0,0-.019.165c0,.122.056.155.165.155h.136l-.071.409a1.7,1.7,0,0,1-.367.038c-.339,0-.508-.127-.508-.485a3.073,3.073,0,0,1,.056-.438Zm.5-1.817a.419.419,0,1,1-.419.419A.42.42,0,0,1,1288.189,2036.24Z" transform="translate(-1244.603 -2036.24)" fill="#040506"/>
        <path id="Path_492" data-name="Path 492" d="M1303.432,2047.359c0-.17-.061-.3-.264-.3-.292,0-.494.221-.588.772l-.2,1.148h-.636l.282-1.629a1.7,1.7,0,0,0,.038-.24.1.1,0,0,0-.094-.1c-.075,0-.141,0-.2.009l.071-.419a3,3,0,0,1,.527-.047c.2,0,.311.08.311.259v.122a.888.888,0,0,1,.743-.414.589.589,0,0,1,.673.621c0,.424-.226,1.054-.226,1.261,0,.122.061.155.165.155h.137l-.071.409a1.7,1.7,0,0,1-.367.038c-.339,0-.509-.127-.509-.485C1303.229,2048.234,1303.432,2047.688,1303.432,2047.359Z" transform="translate(-1257.436 -2045.443)" fill="#040506"/>
        <path id="Path_493" data-name="Path 493" d="M1329.828,2047.005c-.108,0-.155.038-.174.151l-.278,1.6a1.284,1.284,0,0,1-1.384,1.214,1.353,1.353,0,0,1-.777-.2l.1-.565a1.119,1.119,0,0,0,.7.221.709.709,0,0,0,.72-.612l.033-.184a.779.779,0,0,1-.612.278c-.537,0-.767-.386-.767-.875,0-.8.377-1.511,1.162-1.511a.609.609,0,0,1,.607.353c.042-.212.132-.325.339-.325.165,0,.433.019.546.033l-.076.428Zm-1.224.028c-.4,0-.57.494-.57.927,0,.254.1.414.344.414.4,0,.56-.475.57-.908C1328.948,2047.213,1328.849,2047.034,1328.6,2047.034Z" transform="translate(-1280.246 -2045.443)" fill="#040506"/>
      </g>
      <g id="Group_5" data-name="Group 5" transform="translate(877.409 1284)">
        <g id="Group_3" data-name="Group 3" transform="translate(0.249 0)">
          <g id="Group_2" data-name="Group 2">
            <path id="Path_494" data-name="Path 494" d="M919.233,1291.543l-2.3.01h0c0-4.416-3.58-7.546-8-7.546,0,0-1.845.016-4.624,0s-4.771,0-4.771,0c-4.416,0-8,3.13-8,7.546h0l-1.893-.01a9.859,9.859,0,0,0-9.859,9.859v14.789a9.859,9.859,0,0,0,9.859,9.859h29.577a9.859,9.859,0,0,0,9.859-9.859V1301.4A9.859,9.859,0,0,0,919.233,1291.543Zm-19.911-4.33s2.76-.02,4.46-.01l1.21.021c1.685.008,4.228-.01,4.228-.01a4.365,4.365,0,0,1,4.5,4.339H894.825A4.365,4.365,0,0,1,899.322,1287.214Zm13.609,25.883,1.939,11.769-10.52-5.619-10.593,5.481,2.093-11.742-8.487-8.381,11.814-1.638,5.348-10.661,5.209,10.73,11.792,1.792Z" transform="translate(-879.797 -1284)" fill="#5d6365"/>
            <path id="Path_495" data-name="Path 495" d="M1038.1,1314.666s-2.543.018-4.228.011l-1.211-.021c-1.7-.01-4.46.01-4.46.01a4.365,4.365,0,0,0-4.5,4.339H1042.6A4.365,4.365,0,0,0,1038.1,1314.666Z" transform="translate(-1008.679 -1311.452)" fill="none"/>
            <path id="Path_496" data-name="Path 496" d="M969.414,1363.537l-5.348,10.661-11.814,1.638,8.487,8.381-2.093,11.742,10.593-5.481,10.52,5.619-1.939-11.769,8.6-8.269-11.792-1.792Z" transform="translate(-944.686 -1355.231)" fill="none"/>
          </g>
          <path id="Path_497" data-name="Path 497" d="M1023.853,1437.732l-7.111-3.8-7.16,3.705L1011,1429.7l-5.736-5.665,7.985-1.107,3.615-7.207,3.521,7.253,7.971,1.211-5.81,5.591Z" transform="translate(-992.158 -1401.968)" fill="#ed6800"/>
        </g>
        <g id="Group_4" data-name="Group 4" transform="translate(0 45.765)">
          <path id="Path_498" data-name="Path 498" d="M877.411,1732.739h.567c.439,0,.585-.146.585-.585v-7.022c0-.439-.146-.585-.585-.585h-.567v-2.286h10.077v3.639h-2.414v-.512c0-.585-.146-.732-.732-.732h-2.231v2.634h4.17v2.4h-4.17v2.359c0,.439.146.585.585.585h1.3c.768,0,1.152-.292,1.207-.8l.055-.549h2.451l-.219,3.749H877.411Z" transform="translate(-877.411 -1722.26)" fill="#161615"/>
          <path id="Path_499" data-name="Path 499" d="M978.453,1755.184h4.023a38.539,38.539,0,0,0,1.207,6.035,38.839,38.839,0,0,0,1.189-6.035h3.658v2.1h-.293c-.439,0-.585.146-.713.585a46.079,46.079,0,0,1-2.542,6.638H982a46.05,46.05,0,0,1-2.542-6.638c-.128-.439-.274-.585-.713-.585h-.293Z" transform="translate(-967.902 -1751.746)" fill="#161615"/>
          <path id="Path_500" data-name="Path 500" d="M1084.053,1758.8a.557.557,0,0,0-.512.585c0,.293.238.6.859.6a13.815,13.815,0,0,0,4.243-.933v2.634a9.082,9.082,0,0,1-4.243.878c-3.109,0-4.553-1.92-4.553-4.919a4.566,4.566,0,0,1,4.828-4.92c2.707,0,4.023,1.353,4.023,3,0,1.756-1.006,2.268-3.237,2.761Zm-.841-1.811v.4c.073-.073.165-.128.585-.238l.677-.165c.658-.165.932-.457.932-1.079a.726.726,0,0,0-.75-.732C1083.706,1755.182,1083.212,1755.968,1083.212,1756.992Z" transform="translate(-1058.708 -1749.549)" fill="#161615"/>
          <path id="Path_501" data-name="Path 501" d="M1177.035,1752.987h3.932a4.932,4.932,0,0,1,.183,1.28,3.087,3.087,0,0,1,2.761-1.536c1.756,0,2.56.585,2.963,1.646a7.539,7.539,0,0,1,.329,2.6v2.652c0,.439.146.585.585.585h.457v2.1h-3.822c-.439,0-.585-.183-.585-.622v-4.206a4.729,4.729,0,0,0-.2-1.627.761.761,0,0,0-.8-.512c-.841,0-1.28.53-1.28,2.249v2.03c0,.439.146.585.585.585h.384v2.1h-5.486v-2.1h.567c.439,0,.585-.146.585-.585v-3.95c0-.439-.146-.585-.585-.585h-.567Z" transform="translate(-1145.747 -1749.549)" fill="#161615"/>
          <path id="Path_502" data-name="Path 502" d="M1283.735,1733.345h-1.28v-2.158h1.28v-1.957a9.339,9.339,0,0,1,3.365-.841v2.8h2.012v2.158H1287.1v3.822c0,.859.439.969.878.969a5.085,5.085,0,0,0,1.427-.183v2.542a9.423,9.423,0,0,1-2.3.274c-2.469,0-3.365-1.1-3.365-3.274Z" transform="translate(-1240.159 -1727.749)" fill="#161615"/>
          <path id="Path_503" data-name="Path 503" d="M879.559,1877.463a3.258,3.258,0,0,0,.073-.585.376.376,0,0,0-.366-.4,3.4,3.4,0,0,0-.494.037l.347-2.012a8.126,8.126,0,0,1,2.067-.238c1.463,0,1.847.585,1.847,1.463a12.808,12.808,0,0,1-.274,1.9l-.274,1.536a2.947,2.947,0,0,1,2.3-1.134c1.939,0,2.761,1.427,2.761,3.274,0,3.621-1.737,6.565-5.431,6.565-2.761,0-3.658-1.426-3.658-3.292a13.487,13.487,0,0,1,.219-2.121Zm2.121,6.565c0,.878.256,1.317.878,1.317,1.134,0,1.719-2.03,1.719-3.383,0-.878-.256-1.353-.878-1.353C882.266,1880.609,881.681,1882.675,881.681,1884.029Z" transform="translate(-878.352 -1858.39)" fill="#161615"/>
          <path id="Path_504" data-name="Path 504" d="M989.006,1917.867c0,.475.146.951.732.951.8,0,1.335-.64,1.646-2.432l.786-4.535h3.237l-1.1,6.236a3.22,3.22,0,0,0-.073.494c0,.439.256.494.549.494h.457l-.347,1.975a6.666,6.666,0,0,1-1.774.238c-1.408,0-1.829-.2-1.884-1.353a3.763,3.763,0,0,1-2.908,1.5c-1.609,0-2.725-.622-2.725-2.414,0-1.463.859-3.767.859-4.572,0-.439-.256-.494-.549-.494h-.457l.347-1.975a9.183,9.183,0,0,1,2.176-.238c1.463,0,1.847.585,1.847,1.463C989.829,1914.557,989.006,1916.77,989.006,1917.867Z" transform="translate(-974.175 -1891.955)" fill="#161615"/>
          <path id="Path_505" data-name="Path 505" d="M1103.738,1874.946a3.257,3.257,0,0,0,.073-.585.376.376,0,0,0-.366-.4,6.48,6.48,0,0,0-.658.037l.347-2.012a9.739,9.739,0,0,1,2.231-.238c1.463,0,1.847.585,1.847,1.463a12.823,12.823,0,0,1-.274,1.9l-.53,2.981a3.2,3.2,0,0,0-.073.494c0,.439.256.494.549.494h.457l-.348,1.975a6.663,6.663,0,0,1-1.774.238c-1.518,0-2.194-.475-2.194-1.884a12.844,12.844,0,0,1,.256-1.938Zm2.469-7.864a1.993,1.993,0,1,1-1.993,1.993A2,2,0,0,1,1106.206,1867.082Z" transform="translate(-1079.252 -1851.959)" fill="#161615"/>
          <path id="Path_506" data-name="Path 506" d="M1163.232,1919.9a37.008,37.008,0,0,0,5.267-4.9h-1.554c-.567,0-.732.146-.842.732l-.018.128h-1.957l.53-3.072h7.571l-.128.8a5.465,5.465,0,0,1-1.463,2.889,39.27,39.27,0,0,1-3.64,3.42h1.3a.928.928,0,0,0,1.042-.713l.073-.292h1.975c-.146,2.926-.6,3.219-2.213,3.219h-6.328Z" transform="translate(-1133.042 -1892.895)" fill="#161615"/>
          <path id="Path_507" data-name="Path 507" d="M1264.8,1919.9a37,37,0,0,0,5.267-4.9h-1.554c-.567,0-.731.146-.841.732l-.018.128H1265.7l.53-3.072h7.571l-.128.8a5.468,5.468,0,0,1-1.463,2.889,39.317,39.317,0,0,1-3.639,3.42h1.3a.929.929,0,0,0,1.043-.713l.073-.292h1.975c-.146,2.926-.6,3.219-2.213,3.219h-6.327Z" transform="translate(-1224.005 -1892.895)" fill="#161615"/>
        </g>
      </g>
    </g>
  </g>
</svg>
