<svg xmlns="http://www.w3.org/2000/svg" width="27.519" height="19.944" viewBox="0 0 27.519 19.944">
  <g id="cloud-computing" transform="translate(0 -66.65)">
    <g id="Group_47" data-name="Group 47" transform="translate(0 66.65)">
      <path id="Path_35" data-name="Path 35" d="M21.5,86.594H15.6V80.652h1.951a.608.608,0,0,0,.495-.963l-3.8-5.231a.606.606,0,0,0-.984,0l-3.8,5.231a.606.606,0,0,0,.495.963h1.951v5.942H5.3A5.9,5.9,0,0,1,0,80.7a5.575,5.575,0,0,1,2.778-4.817,3.727,3.727,0,0,1-.231-1.3,3.8,3.8,0,0,1,3.812-3.8,3.761,3.761,0,0,1,1.3.23,7.639,7.639,0,0,1,14.5,2.509A6.61,6.61,0,0,1,21.5,86.594Z" transform="translate(0 -66.65)" fill="#444"/>
    </g>
  </g>
</svg>
