<svg xmlns="http://www.w3.org/2000/svg" width="21.522" height="17.084" viewBox="0 0 21.522 17.084">
  <path id="Path_44" data-name="Path 44" d="M112.957,126.823H111.8V112.55a1.273,1.273,0,0,0-1.271-1.272h-2.085a1.273,1.273,0,0,0-1.271,1.272v14.274h-1.9v-5.793a1.273,1.273,0,0,0-1.272-1.272h-2.085a1.273,1.273,0,0,0-1.272,1.272v5.793h-1.9v-2.718a1.273,1.273,0,0,0-1.271-1.272H95.4a1.273,1.273,0,0,0-1.271,1.272v2.718H92.973a.769.769,0,0,0,0,1.538h19.984a.769.769,0,0,0,0-1.538Z" transform="translate(-92.204 -111.278)" fill="#444"/>
</svg>
