<svg xmlns="http://www.w3.org/2000/svg" width="16.576" height="18.944" viewBox="0 0 16.576 18.944">
  <g id="files-copy-interface-symbol" transform="translate(-43.714)">
    <g id="_x33__31_" transform="translate(43.714)">
      <g id="Group_54" data-name="Group 54">
        <path id="Path_42" data-name="Path 42" d="M56.146.018,49.042,0a2.467,2.467,0,0,0-2.368,2.368l-.684.016a2.371,2.371,0,0,0-2.276,2.352v11.84a2.467,2.467,0,0,0,2.368,2.368h8.88a2.467,2.467,0,0,0,2.368-2.368h.592a2.467,2.467,0,0,0,2.368-2.368V4.75ZM54.962,17.76h-8.88A1.241,1.241,0,0,1,44.9,16.576V4.736c0-.881.725-1.184,1.776-1.184V14.208a2.467,2.467,0,0,0,2.368,2.368l7.109-.007A1.12,1.12,0,0,1,54.962,17.76Zm1.184-5.322H50.818a.591.591,0,1,1,0-1.183h5.328a.591.591,0,1,1,0,1.183Zm0-2.957H50.818a.591.591,0,1,1,0-1.183h5.328a.591.591,0,1,1,0,1.183ZM57.33,4.736a1.226,1.226,0,0,1-1.184-1.184V1.2h0l2.96,3.535Z" transform="translate(-43.714)" fill="#444"/>
      </g>
    </g>
  </g>
</svg>
