<svg xmlns="http://www.w3.org/2000/svg" width="24" height="24" viewBox="0 0 24 24">
  <path id="Union_4" data-name="Union 4" d="M17.067,20.533A3.467,3.467,0,1,1,20.533,24,3.466,3.466,0,0,1,17.067,20.533Zm-8.533,0A3.467,3.467,0,1,1,12,24,3.466,3.466,0,0,1,8.533,20.533ZM0,20.533A3.467,3.467,0,1,1,3.467,24,3.466,3.466,0,0,1,0,20.533ZM17.067,12a3.467,3.467,0,1,1,3.467,3.467A3.466,3.466,0,0,1,17.067,12ZM8.533,12A3.467,3.467,0,1,1,12,15.467,3.466,3.466,0,0,1,8.533,12ZM0,12a3.467,3.467,0,1,1,3.467,3.467A3.466,3.466,0,0,1,0,12ZM17.067,3.467a3.467,3.467,0,1,1,3.467,3.467A3.466,3.466,0,0,1,17.067,3.467Zm-8.533,0A3.467,3.467,0,1,1,12,6.933,3.466,3.466,0,0,1,8.533,3.467ZM0,3.467A3.467,3.467,0,1,1,3.467,6.933,3.466,3.466,0,0,1,0,3.467Z" fill="#444"/>
</svg>
