<svg xmlns="http://www.w3.org/2000/svg" width="23.369" height="23.37" viewBox="0 0 23.369 23.37">
  <path id="Path_25" data-name="Path 25" d="M5422.178,5307.453l-1.831-.232a9.153,9.153,0,0,0-.554-1.338l1.13-1.456a1.447,1.447,0,0,0-.119-1.927l-1.534-1.534a1.451,1.451,0,0,0-1.933-.124l-1.454,1.13a9.143,9.143,0,0,0-1.339-.554l-.233-1.828a1.458,1.458,0,0,0-1.447-1.286h-2.181a1.459,1.459,0,0,0-1.447,1.283l-.232,1.831a9.037,9.037,0,0,0-1.339.554l-1.455-1.13a1.448,1.448,0,0,0-1.927.119l-1.534,1.533a1.451,1.451,0,0,0-.124,1.934l1.13,1.455a9.047,9.047,0,0,0-.554,1.338l-1.828.232a1.459,1.459,0,0,0-1.286,1.447v2.181a1.458,1.458,0,0,0,1.283,1.447l1.831.233a9.176,9.176,0,0,0,.554,1.338l-1.13,1.456a1.447,1.447,0,0,0,.119,1.927l1.534,1.534a1.452,1.452,0,0,0,1.933.123l1.455-1.13a8.943,8.943,0,0,0,1.338.554l.232,1.827a1.459,1.459,0,0,0,1.447,1.287h2.181a1.458,1.458,0,0,0,1.447-1.282l.233-1.831a9.176,9.176,0,0,0,1.338-.554l1.456,1.13a1.447,1.447,0,0,0,1.927-.119l1.534-1.534a1.45,1.45,0,0,0,.124-1.933l-1.13-1.455a8.964,8.964,0,0,0,.554-1.338l1.827-.233a1.458,1.458,0,0,0,1.285-1.447V5308.9a1.457,1.457,0,0,0-1.281-1.447Zm-10.4,7.407a4.869,4.869,0,1,1,4.869-4.869,4.874,4.874,0,0,1-4.869,4.869Z" transform="translate(-5400.09 -5298.306)" fill="#444"/>
</svg>
