<svg xmlns="http://www.w3.org/2000/svg" width="17.643" height="23.161" viewBox="0 0 17.643 23.161">
  <g id="google-forms" transform="translate(-61)">
    <path id="Path_39" data-name="Path 39" d="M331.679,13.82h4.352L331,8.789v4.352A.679.679,0,0,0,331.679,13.82Z" transform="translate(-257.786 -8.391)" fill="#7bbf70"/>
    <path id="Path_40" data-name="Path 40" d="M63.036,23.161H76.607a2.038,2.038,0,0,0,2.036-2.036V6.786h-4.75A2.038,2.038,0,0,1,71.857,4.75V0H63.036A2.038,2.038,0,0,0,61,2.036v19.09A2.038,2.038,0,0,0,63.036,23.161ZM67.107,10.9h6.786a.679.679,0,0,1,0,1.357H67.107a.679.679,0,0,1,0-1.357Zm0,2.714h6.786a.679.679,0,0,1,0,1.357H67.107a.679.679,0,0,1,0-1.357Zm0,2.714h6.786a.679.679,0,0,1,0,1.357H67.107a.679.679,0,0,1,0-1.357ZM64.393,10.9a.679.679,0,1,1-.679.679A.679.679,0,0,1,64.393,10.9Zm0,2.714a.679.679,0,1,1-.679.679A.679.679,0,0,1,64.393,13.616Zm0,2.714a.679.679,0,1,1-.679.679A.679.679,0,0,1,64.393,16.331Z" fill="#7bbf70"/>
  </g>
</svg>
