<svg id="registration_successful" xmlns="http://www.w3.org/2000/svg" width="106" height="106" viewBox="0 0 106 106">
  <circle id="Ellipse_1" data-name="Ellipse 1" cx="53" cy="53" r="53" fill="#92bf3e"/>
  <path id="Shape_576" data-name="Shape 576" d="M4872.8,284.759c-.917,0-1.369-1.417-2-2l-16-14c-1.431-1.222-1.373-2.672,0-4,1.315-1.327,4.569-1.273,6,0l10,6a1.359,1.359,0,0,0,2,0l26-30c1.145-1.434,4.454-1.114,6,0,1.544,1.063,1.2,2.565,0,4l-30,38c-.628.745-1.029,1.947-2,2C4872.679,284.812,4872.906,284.759,4872.8,284.759Z" transform="translate(-4826.905 -210.76)" fill="#fff"/>
</svg>
