<svg xmlns="http://www.w3.org/2000/svg" xmlns:xlink="http://www.w3.org/1999/xlink" width="239.978" height="51.384" viewBox="0 0 239.978 51.384">
  <defs>
    <clipPath id="clip-path">
      <path id="Path_161" data-name="Path 161" d="M0-4.97H239.978V-56.354H0Z" fill="none"/>
    </clipPath>
  </defs>
  <g id="Group_875" data-name="Group 875" transform="translate(0 56.354)">
    <g id="Group_313" data-name="Group 313" clip-path="url(#clip-path)">
      <g id="Group_301" data-name="Group 301" transform="translate(15.147 -46.653)">
        <path id="Path_149" data-name="Path 149" d="M0,0A.779.779,0,0,1,.881.881V3.288c0,.587-.294.822-.881.822H-10.685V18.317H-1.7c.588,0,.881.235.881.822v2.407c0,.587-.293.822-.881.822h-8.982V36.987H0a.779.779,0,0,1,.881.881v2.407c0,.587-.294.822-.881.822H-14.266a.779.779,0,0,1-.881-.881V.881A.779.779,0,0,1-14.266,0Z" fill="#fff"/>
      </g>
      <g id="Group_302" data-name="Group 302" transform="translate(24.18 -5.557)">
        <path id="Path_150" data-name="Path 150" d="M0,0C-.352,0-.528-.235-.7-.528c-2.113-3.523-5.577-9.687-5.577-15.089V-28.65a.634.634,0,0,1,.646-.7h3.111a.634.634,0,0,1,.646.7v13.562C-1.879-11.1,1-5.577,2.29-3.17h.058C3.581-5.577,6.517-11.1,6.517-15.088V-28.65a.634.634,0,0,1,.646-.7h3.052a.634.634,0,0,1,.646.7v13.033c0,5.4-3.464,11.566-5.577,15.089-.176.293-.352.528-.7.528Z" fill="#fff"/>
      </g>
      <g id="Group_303" data-name="Group 303" transform="translate(52.444 -25.812)">
        <path id="Path_151" data-name="Path 151" d="M0,0C0-3.934-1.115-5.754-4.814-5.754-8.278-5.754-9.57-3.64-9.57.235V3.288H0ZM-.117,12.681v-.646a.8.8,0,0,1,.88-.88H3.4a.8.8,0,0,1,.881.88v.353c0,5.225-2.994,8.454-9.159,8.454-5.988,0-9.1-3.464-9.1-10.1V.528c0-6.634,3.17-10.215,9.159-10.215C1.82-9.687,4.4-5.7,4.4,1.468V6.047a.778.778,0,0,1-.88.881H-9.57V11.1c0,3.933,1.292,5.812,4.7,5.812,3.758,0,4.756-1.585,4.756-4.227" fill="#fff"/>
      </g>
      <g id="Group_304" data-name="Group 304" transform="translate(65.447 -31.682)">
        <path id="Path_152" data-name="Path 152" d="M0,0A8.756,8.756,0,0,1,7.28-3.816c4.7,0,6.928,3.111,6.928,7.984V25.245a.779.779,0,0,1-.881.881H10.685a.779.779,0,0,1-.881-.881V4.286C9.8,1.585,8.748.059,5.988.059,2.466.059.47,2.29.47,5.754V25.245a.779.779,0,0,1-.881.881H-3.053a.779.779,0,0,1-.881-.881V-2.348a.8.8,0,0,1,.881-.881H-.822c.587,0,.822.352.822.881Z" fill="#fff"/>
      </g>
      <g id="Group_305" data-name="Group 305" transform="translate(97.379 -6.966)">
        <path id="Path_153" data-name="Path 153" d="M0,0A.872.872,0,0,1-.528.939,9.85,9.85,0,0,1-5.049,2C-9.8,2-11.8-.646-11.8-5.812V-24.306h-3.463a.719.719,0,0,1-.822-.822v-2a.719.719,0,0,1,.822-.822h3.64l.352-5.4c.058-.528.293-.822.822-.822H-8.4c.587,0,.821.352.821.881v5.342h6.517a.719.719,0,0,1,.822.822v2a.719.719,0,0,1-.822.822H-7.4v18.67c0,2.29.7,3.7,2.7,3.7a7.839,7.839,0,0,0,3.934-1C-.352-3.17,0-2.994,0-2.407Z" fill="#fff"/>
      </g>
      <g id="Group_306" data-name="Group 306" transform="translate(106.124 -9.608)">
        <path id="Path_154" data-name="Path 154" d="M0,0H4.4C7.574,0,9.511-2.055,9.511-6.105V-9.041c0-4.051-1.937-5.988-5.108-5.988H0ZM0-18.728H4.521C7.4-18.787,9.159-20.9,9.159-24.834v-2c0-4.051-1.879-6.165-5.049-6.165H0ZM-4.4-36.165a.8.8,0,0,1,.88-.88H4.344c5.871,0,9.277,3.463,9.277,10.508v1.468c0,3.581-1.409,6.576-4.11,8.219,3.229,1.468,4.462,4.58,4.462,8.337v2.055c0,7.045-3.7,10.509-9.57,10.509H-3.523A.778.778,0,0,1-4.4,3.17Z" fill="#fff"/>
      </g>
      <g id="Group_307" data-name="Group 307" transform="translate(137.936 -8.786)">
        <path id="Path_155" data-name="Path 155" d="M0,0A7.437,7.437,0,0,1-6.693,3.816c-4.521,0-7.515-3.17-7.515-8.219V-25.245a.8.8,0,0,1,.881-.881h2.642a.8.8,0,0,1,.88.881V-4.579c0,2.935,1.468,4.52,4.051,4.52C-2.407-.059-.47-2.348-.47-5.812V-25.245a.8.8,0,0,1,.881-.881H3.053a.8.8,0,0,1,.881.881V2.348a.779.779,0,0,1-.881.881H.822C.235,3.229,0,2.935,0,2.348Z" fill="#fff"/>
      </g>
      <g id="Group_308" data-name="Group 308" transform="translate(151.02 -6.437)">
        <path id="Path_156" data-name="Path 156" d="M0,0A.779.779,0,0,1-.881.881H-3.522A.779.779,0,0,1-4.4,0V-27.593a.8.8,0,0,1,.881-.881H-.881A.8.8,0,0,1,0-27.593ZM.235-32.7a.838.838,0,0,1-.94.939H-3.7a.838.838,0,0,1-.94-.939v-2.407a.838.838,0,0,1,.94-.94H-.7a.839.839,0,0,1,.94.94Z" fill="#fff"/>
      </g>
      <g id="Group_309" data-name="Group 309" transform="translate(154.886 -34.09)">
        <path id="Path_157" data-name="Path 157" d="M0,0A.719.719,0,0,1,.822-.822H16.38A.719.719,0,0,1,17.2,0V2.642a1.44,1.44,0,0,1-.235.7L3.875,24.717h12.5a.719.719,0,0,1,.822.821v2.173a.719.719,0,0,1-.822.822H-.059a.719.719,0,0,1-.822-.822V25.245a1.639,1.639,0,0,1,.294-1L12.446,3.053H.822A.719.719,0,0,1,0,2.231Z" fill="#fff"/>
      </g>
      <g id="Group_310" data-name="Group 310" transform="translate(175.904 -34.09)">
        <path id="Path_158" data-name="Path 158" d="M0,0A.719.719,0,0,1,.822-.822H16.38A.719.719,0,0,1,17.2,0V2.642a1.44,1.44,0,0,1-.235.7L3.875,24.717h12.5a.719.719,0,0,1,.822.821v2.173a.719.719,0,0,1-.822.822H-.059a.719.719,0,0,1-.822-.822V25.245a1.639,1.639,0,0,1,.294-1L12.446,3.053H.822A.719.719,0,0,1,0,2.231Z" fill="#fff"/>
      </g>
      <g id="Group_311" data-name="Group 311" transform="translate(211.894 -31.083)">
        <path id="Path_159" data-name="Path 159" d="M0,0-.172.392A13.341,13.341,0,0,1-6.19,7.05a13.823,13.823,0,0,1-4.742,1.476l.8-5.2a6.033,6.033,0,0,1,3.7-4.3A9.892,9.892,0,0,1-1.312-1.986l1.357.209L.139-3.192c.022-.222.048-.447.075-.671L-3.6-4.451c-8.862-1.366-8.486-8.384-8.16-10.5l1.176-7.624a23.475,23.475,0,0,1,6.294,3.491A14.356,14.356,0,0,1,1.382-9.752l.042.294A22.67,22.67,0,0,1,2.41-11.9c.128-.272.263-.535.4-.795a17.018,17.018,0,0,0-5.844-8.057,25.084,25.084,0,0,0-8.123-4.212l-1.125-.3-1.541,10a10.7,10.7,0,0,0,2.339,9.12A11.351,11.351,0,0,0-6.768-3.1c-3.059,1.27-5.018,3.46-5.426,6.109l-1.177,7.637,1.174.042h.143A15.382,15.382,0,0,0-5.279,8.929,14.909,14.909,0,0,0,.3,3.833C.243,3.448.191,3.055.148,2.651.055,1.788.008.9,0,0" fill="#eb6d92"/>
      </g>
      <g id="Group_312" data-name="Group 312" transform="translate(237.146 -52.16)">
        <path id="Path_160" data-name="Path 160" d="M0,0-1.473,9.558A12.773,12.773,0,0,1-4.31,15.929C-6.755,18.7-10.4,19.735-15.14,19l-5.917-.937c.054-.51.121-1.034.2-1.563a21.689,21.689,0,0,1,.93-3.8c.137-.4.287-.785.446-1.16a17.536,17.536,0,0,1,1.094-2.159c.2-.34.422-.676.648-1a16.638,16.638,0,0,1,1.1-1.4c.26-.3.534-.588.816-.867s.578-.551.883-.813A18.2,18.2,0,0,1-12.97,3.839c.349-.225.714-.445,1.085-.653.187-.105.377-.206.569-.306.381-.2.781-.391,1.187-.573s.832-.357,1.255-.518A29.276,29.276,0,0,1,0,0M-10.234,30.586l-1.01,6.555a17.2,17.2,0,0,1-5.122-3.524c-3.3-3.315-4.926-7.718-4.841-13.1l2.456.394a12.37,12.37,0,0,1,5.725,3.133c1.516,1.413,3.232,3.694,2.792,6.542M1.473-2.452c-.042,0-.262-.008-.632-.008-.122,0-.26,0-.414.006s-.321.009-.5.016-.378.018-.588.031c-.461.028-.932.068-1.4.118-.256.028-.522.059-.8.1-.138.018-.279.037-.422.058-.607.088-1.216.194-1.811.315q-.475.1-.969.212t-1,.255c-.71.194-1.411.413-2.083.651q-.266.095-.532.195A20.729,20.729,0,0,0-21.377,9.87a22.617,22.617,0,0,0-1.883,6.264c-.1.637-.178,1.274-.238,1.9l-.12,1.8a26.144,26.144,0,0,0,.126,3.713,19.274,19.274,0,0,0,5.4,11.779,18.7,18.7,0,0,0,7.5,4.648l1.319.366,1.448-9.392c.511-3.314-1.038-6.668-4.27-9.317a14.1,14.1,0,0,0,6.892-1.847A11.827,11.827,0,0,0-.774,15.169a14.305,14.305,0,0,0,.925-2.085,16.86,16.86,0,0,0,.635-2.328q.081-.408.147-.828l1.9-12.322Z" fill="#e64370"/>
      </g>
    </g>
  </g>
</svg>
