<svg xmlns="http://www.w3.org/2000/svg" width="14" height="16" viewBox="0 0 14 16">
  <path id="trash" d="M10.5-12,9.438-13.406A1.4,1.4,0,0,0,8.25-14H5.75a1.4,1.4,0,0,0-1.187.594L3.5-12H.75a.723.723,0,0,0-.531.219A.723.723,0,0,0,0-11.25v.063a.18.18,0,0,0,.063.125A.18.18,0,0,0,.188-11H1V.5a1.447,1.447,0,0,0,.438,1.063A1.447,1.447,0,0,0,2.5,2h9a1.447,1.447,0,0,0,1.063-.437A1.447,1.447,0,0,0,13,.5V-11h.813a.18.18,0,0,0,.125-.062A.18.18,0,0,0,14-11.187v-.062a.723.723,0,0,0-.219-.531A.723.723,0,0,0,13.25-12ZM5.75-13h2.5a.5.5,0,0,1,.406.188L9.25-12H4.75l.594-.812A.5.5,0,0,1,5.75-13ZM12,.5a.481.481,0,0,1-.5.5h-9A.481.481,0,0,1,2,.5V-11H12ZM6.5-.875a.362.362,0,0,0,.109.266A.362.362,0,0,0,6.875-.5h.25a.362.362,0,0,0,.266-.109A.362.362,0,0,0,7.5-.875v-8.25a.362.362,0,0,0-.109-.266A.362.362,0,0,0,7.125-9.5h-.25a.362.362,0,0,0-.266.109.362.362,0,0,0-.109.266ZM4-.875a.362.362,0,0,0,.109.266A.362.362,0,0,0,4.375-.5h.25a.362.362,0,0,0,.266-.109A.362.362,0,0,0,5-.875v-8.25a.362.362,0,0,0-.109-.266A.362.362,0,0,0,4.625-9.5h-.25a.362.362,0,0,0-.266.109A.362.362,0,0,0,4-9.125Zm5,0a.362.362,0,0,0,.109.266A.362.362,0,0,0,9.375-.5h.25a.362.362,0,0,0,.266-.109A.362.362,0,0,0,10-.875v-8.25a.362.362,0,0,0-.109-.266A.362.362,0,0,0,9.625-9.5h-.25a.362.362,0,0,0-.266.109A.362.362,0,0,0,9-9.125Z" transform="translate(0 14)" fill="#a6aaaf"/>
</svg>
