<svg xmlns="http://www.w3.org/2000/svg" width="12.237" height="11.892" viewBox="0 0 12.237 11.892">
  <g id="archive_1_" data-name="archive (1)" transform="translate(0 -7.232)">
    <g id="Group_2052" data-name="Group 2052" transform="translate(0 11.104)">
      <g id="Group_2051" data-name="Group 2051">
        <path id="Path_713" data-name="Path 713" d="M12.106,160.15a.582.582,0,0,0-.44-.2H.573a.582.582,0,0,0-.44.2.532.532,0,0,0-.128.421l.655,6.65,0,.015a.86.86,0,0,0,.852.736h9.211a.84.84,0,0,0,.854-.751l.655-6.65A.532.532,0,0,0,12.106,160.15Zm-1.379,6.99H1.521a.027.027,0,0,1-.011-.013l-.625-6.343H11.353Z" transform="translate(0 -159.952)" fill="#646c70"/>
      </g>
    </g>
    <g id="Group_2054" data-name="Group 2054" transform="translate(1.121 9.044)">
      <g id="Group_2053" data-name="Group 2053">
        <path id="Path_714" data-name="Path 714" d="M49.821,83.225a.518.518,0,0,0-.419-.23H40.5a.519.519,0,0,0-.42.239.774.774,0,0,0-.127.54l.248,1.958.819-.153L40.818,84h8.265l-.2,1.581.819.153.249-1.964A.784.784,0,0,0,49.821,83.225Z" transform="translate(-39.944 -82.995)" fill="#646c70"/>
      </g>
    </g>
    <g id="Group_2056" data-name="Group 2056" transform="translate(1.757 7.232)">
      <g id="Group_2055" data-name="Group 2055">
        <path id="Path_715" data-name="Path 715" d="M101.626,7.463a.628.628,0,0,0-.485-.231H93.688a.626.626,0,0,0-.486.239.694.694,0,0,0-.146.541l.287,1.925.946-.155-.231-1.546h6.71l-.243,1.542.945.164.3-1.935A.7.7,0,0,0,101.626,7.463Z" transform="translate(-93.047 -7.232)" fill="#646c70"/>
      </g>
    </g>
    <g id="Group_2058" data-name="Group 2058" transform="translate(3.508 13.491)">
      <g id="Group_2057" data-name="Group 2057">
        <path id="Path_716" data-name="Path 716" d="M167.658,272.7H163.44a.5.5,0,1,0,0,1h4.217a.5.5,0,1,0,0-1Z" transform="translate(-162.938 -272.703)" fill="#646c70"/>
      </g>
    </g>
  </g>
</svg>
