<svg xmlns="http://www.w3.org/2000/svg" xmlns:xlink="http://www.w3.org/1999/xlink" width="298.77" height="219.334" viewBox="0 0 298.77 219.334">
  <defs>
    <clipPath id="clip-path">
      <rect id="Rectangle_3918" data-name="Rectangle 3918" width="260.521" height="185.775" fill="none"/>
    </clipPath>
    <clipPath id="clip-path-2">
      <rect id="Rectangle_3891" data-name="Rectangle 3891" width="260.522" height="185.775" fill="none"/>
    </clipPath>
    <clipPath id="clip-path-4">
      <rect id="Rectangle_3909" data-name="Rectangle 3909" width="2.356" height="12.076" fill="#9ba22d"/>
    </clipPath>
    <clipPath id="clip-path-5">
      <rect id="Rectangle_3910" data-name="Rectangle 3910" width="9.929" height="5.145" fill="#9ba22d"/>
    </clipPath>
    <clipPath id="clip-path-6">
      <rect id="Rectangle_3913" data-name="Rectangle 3913" width="2.947" height="2.9" fill="none"/>
    </clipPath>
    <clipPath id="clip-path-7">
      <rect id="Rectangle_3914" data-name="Rectangle 3914" width="1.424" height="2.855" fill="none"/>
    </clipPath>
  </defs>
  <g id="Group_3598" data-name="Group 3598" transform="translate(-364.115 -3122.333)">
    <g id="Group_2366" data-name="Group 2366" transform="translate(364.115 3155.892)" clip-path="url(#clip-path)">
      <path id="Path_2268" data-name="Path 2268" d="M0,0H206.307V135.981H0Z" transform="translate(50.853 0.202)" fill="#f2f2f2"/>
      <g id="Group_2351" data-name="Group 2351" transform="translate(0 0)">
        <g id="Group_2350" data-name="Group 2350" clip-path="url(#clip-path-2)">
          <path id="Rectangle_3890" data-name="Rectangle 3890" d="M-1.5-1.5H205.211V134.885H-1.5Zm206.307.4H-1.1V134.481h205.9Z" transform="translate(52.151 1.5)" fill="#dbd9d9"/>
        </g>
      </g>
      <rect id="Rectangle_3892" data-name="Rectangle 3892" width="192.453" height="123.058" transform="translate(57.78 5.35)" fill="#fff"/>
      <g id="Group_2365" data-name="Group 2365" transform="translate(0 0)">
        <g id="Group_2364" data-name="Group 2364" clip-path="url(#clip-path-2)">
          <path id="Path_2202" data-name="Path 2202" d="M620.474,293.99a27.807,27.807,0,0,1,5.452.541l.125.025-.017.126-3.7,26.675,25.571-2.856.014.135a27.727,27.727,0,0,1-.4,8.529,27.458,27.458,0,0,1-4.154,9.873,27.69,27.69,0,0,1-12.147,10,27.466,27.466,0,0,1-5.183,1.609,27.876,27.876,0,0,1-11.128,0,27.461,27.461,0,0,1-9.872-4.154,27.689,27.689,0,0,1-10-12.147,27.47,27.47,0,0,1-1.609-5.183,27.875,27.875,0,0,1,0-11.128,27.459,27.459,0,0,1,4.154-9.873,27.689,27.689,0,0,1,12.147-10,27.471,27.471,0,0,1,5.183-1.609A27.813,27.813,0,0,1,620.474,293.99Zm5.275.78a27.545,27.545,0,0,0-10.785.044,27.191,27.191,0,0,0-9.776,4.114,27.42,27.42,0,0,0-9.906,12.029,27.2,27.2,0,0,0-1.593,5.132,27.612,27.612,0,0,0,0,11.02,27.189,27.189,0,0,0,4.114,9.776,27.42,27.42,0,0,0,12.029,9.906,27.2,27.2,0,0,0,5.132,1.593,27.607,27.607,0,0,0,11.02,0,27.189,27.189,0,0,0,9.776-4.114,27.42,27.42,0,0,0,9.906-12.029,27.2,27.2,0,0,0,1.593-5.132,27.453,27.453,0,0,0,.411-8.312l-25.646,2.865.024-.172Z" transform="translate(-513.019 -254.395)" fill="#dd386a"/>
          <path id="Path_2203" data-name="Path 2203" d="M870.141,286.973a27.49,27.49,0,0,0-21.889-23.986l-3.72,26.846Z" transform="translate(-730.791 -227.568)" fill="#dd386a"/>
          <path id="Path_2204" data-name="Path 2204" d="M744.261,556.932a1.756,1.756,0,1,1,1.751,1.942,1.752,1.752,0,0,1-1.751-1.942m2.486,0c0-.755-.292-1.117-.735-1.117s-.735.373-.735,1.117.3,1.117.735,1.117.735-.362.735-1.117m3.462-1.862h1.2l-4.81,7.044h-1.2Zm-1.157,5.183a1.756,1.756,0,1,1,1.741,1.942,1.751,1.751,0,0,1-1.741-1.942m2.475,0c0-.745-.292-1.117-.734-1.117s-.735.363-.735,1.117.3,1.117.735,1.117.734-.372.734-1.117" transform="translate(-644.025 -480.244)" fill="#dd386a"/>
          <path id="Rectangle_3893" data-name="Rectangle 3893" d="M-2-2H68.631V50.239H-2Zm70.093.539H-1.461V49.7H68.093Z" transform="translate(156.994 43.174)" fill="#dd386a"/>
          <rect id="Rectangle_3894" data-name="Rectangle 3894" width="4.579" height="8.475" transform="translate(162.161 74.486)" fill="#e3708f"/>
          <rect id="Rectangle_3895" data-name="Rectangle 3895" width="4.579" height="18.834" transform="translate(170.781 64.127)" fill="#e3708f"/>
          <rect id="Rectangle_3896" data-name="Rectangle 3896" width="4.579" height="28.622" transform="translate(179.4 54.339)" fill="#e3708f"/>
          <rect id="Rectangle_3897" data-name="Rectangle 3897" width="4.579" height="21.232" transform="translate(188.02 61.729)" fill="#e3708f"/>
          <rect id="Rectangle_3898" data-name="Rectangle 3898" width="4.579" height="22.982" transform="translate(196.639 59.979)" fill="#e3708f"/>
          <rect id="Rectangle_3899" data-name="Rectangle 3899" width="4.579" height="22.607" transform="translate(205.259 60.354)" fill="#e3708f"/>
          <rect id="Rectangle_3900" data-name="Rectangle 3900" width="4.579" height="32.567" transform="translate(213.878 50.394)" fill="#dd386a"/>
          <path id="Path_2205" data-name="Path 2205" d="M1217.77,484.543l-.4-.356,9.18-10.4,9.224-6.333,8.054,7.114,6.016-5.668.369.392-6.374,6-8.107-7.162-8.823,6.057Z" transform="translate(-1053.413 -404.501)" fill="#dd386a"/>
          <rect id="Rectangle_3901" data-name="Rectangle 3901" width="75.495" height="8.51" transform="translate(117.157 12.83)" fill="#eef2f4"/>
          <rect id="Rectangle_3902" data-name="Rectangle 3902" width="125.521" height="1.181" transform="translate(91.875 29.843)" fill="#eef2f4"/>
          <rect id="Rectangle_3903" data-name="Rectangle 3903" width="125.521" height="1.181" transform="translate(91.875 26.342)" fill="#eef2f4"/>
          <rect id="Rectangle_3904" data-name="Rectangle 3904" width="125.521" height="1.181" transform="translate(91.875 111.459)" fill="#eef2f4"/>
          <rect id="Rectangle_3905" data-name="Rectangle 3905" width="125.521" height="1.181" transform="translate(91.875 115.05)" fill="#eef2f4"/>
          <rect id="Rectangle_3906" data-name="Rectangle 3906" width="125.521" height="1.181" transform="translate(91.875 118.642)" fill="#eef2f4"/>
          <rect id="Rectangle_3907" data-name="Rectangle 3907" width="28.552" height="3.681" transform="translate(92.641 99.212)" fill="#eef2f4"/>
          <path id="Path_2206" data-name="Path 2206" d="M627.031,533.575c.727-1.639.419-3.669-2.9-6.835l-.269,4.209Z" transform="translate(-539.845 -455.799)" fill="#6f3428"/>
          <path id="Path_2207" data-name="Path 2207" d="M640.339,468.456c-.15.064-6.532,4.6-6.826,4.713a10.945,10.945,0,0,1-3.135-2.311c-.087-.139.882-7.757,1.731-7.393,1.086.467.532,2.585.494,3.265.2-.014.108-.021.313-.036a.282.282,0,0,1,.04,0l2.841-4.8a.506.506,0,0,1,.2-.2.434.434,0,0,1,.612.39,11.182,11.182,0,0,1-1.229,3.7c1.016-.855,2.51-2.393,3.56-3.208.488-.376.967.207.607.781a39.4,39.4,0,0,1-2.959,3.461c.855-.388,3.352-2.075,3.485-1.959a.451.451,0,0,1,.309.769,18.752,18.752,0,0,1-3.047,2.677,9.431,9.431,0,0,0,2.728-.752c.566-.244.836.657.271.9" transform="translate(-545.474 -399.481)" fill="#f9b384"/>
          <path id="Path_2208" data-name="Path 2208" d="M618.708,516.038l-2.342,3.2,1.363,7.324,6.146-8.427Z" transform="translate(-533.354 -446.539)" fill="#f9b384"/>
          <path id="Path_2209" data-name="Path 2209" d="M649,503.173l-.274-.116a2.506,2.506,0,0,0-.448-2.35l.228-.191a2.767,2.767,0,0,1,.494,2.657" transform="translate(-560.967 -433.107)" fill="#e28b6d"/>
          <path id="Path_2210" data-name="Path 2210" d="M665.368,498.59a4.211,4.211,0,0,0-2.152-2.52l.12-.272a4.552,4.552,0,0,1,2.309,2.684Z" transform="translate(-573.895 -429.023)" fill="#e28b6d"/>
          <path id="Path_2211" data-name="Path 2211" d="M422.032,485.406a25.125,25.125,0,0,1,7.063.311,11.7,11.7,0,0,1,8.029,5.47l4.594,7.418,7.766-7.748a13.972,13.972,0,0,0,2.9,6.835l-8.642,9.093a3.965,3.965,0,0,1-5.2.1l-6.027-4.463-6.734-2.11Z" transform="translate(-365.193 -419.915)" fill="#c6cd53"/>
          <path id="Path_2212" data-name="Path 2212" d="M357.069,1224.879l3.8-5.86-4.83-4.083-3.553,5.423a21.983,21.983,0,0,0,4.583,4.52" transform="translate(-305.014 -1051.31)" fill="#e28b6d"/>
          <path id="Path_2213" data-name="Path 2213" d="M330.573,1259.72a21.98,21.98,0,0,1-4.583-4.52l-4.124,6.294,11.258,10.054c.728-3.186-1.4-8.382-3.177-10.862Z" transform="translate(-278.517 -1086.151)"/>
          <path id="Path_2214" data-name="Path 2214" d="M403.3,1332c-2.155-2.514-7.273-4.22-10.146-4.848l-.057-1.379a21.9,21.9,0,0,1-5.346-.662l.375,6.89Z" transform="translate(-335.527 -1146.647)"/>
          <path id="Path_2215" data-name="Path 2215" d="M390.888,1283.51l-.3-7.24-5.387.269.343,6.309a21.905,21.905,0,0,0,5.346.662" transform="translate(-333.321 -1104.382)"/>
          <path id="Path_2216" data-name="Path 2216" d="M427.613,1034.542l-.011-.217-.65,1.751Z" transform="translate(-369.449 -895.023)" fill="#ecb380"/>
          <path id="Path_2217" data-name="Path 2217" d="M371.833,763.954l-3.688-25.018-13.468.673,2.785,23.251,0,.03,3.094,7.046a3.381,3.381,0,0,1,.074,2.511l-3.169,8.533v-.07l-10.6,24.558,8.889,6.869,13.8-31.463a30.9,30.9,0,0,0,2.273-16.919" transform="translate(-300.15 -639.417)" fill="#dbdb84"/>
          <path id="Path_2218" data-name="Path 2218" d="M329.8,733.521,328.31,742.9a56.662,56.662,0,0,0-.344,15.227l5.784,51.981h9.427l-.9-62.035,10.236-7.093-1.167-7.991Z" transform="translate(-283.488 -634.272)" fill="#dbdb84"/>
          <path id="Path_2219" data-name="Path 2219" d="M316.078,529.953a2.3,2.3,0,0,1-.4-3.184,1.294,1.294,0,0,0,.108-.242,18.349,18.349,0,0,0,.237-5.08c-.221-5.457-1.153-12.994-1.153-12.994l2.29-10.236,4.757-4.536,11.674-.092,5.834,7.811,1.53,17.961a20.109,20.109,0,0,0,1.7,6.012c2.629,5.581-24.334,6.723-26.575,4.579" transform="translate(-272.46 -427.114)" fill="#c6cd53"/>
          <rect id="Rectangle_3908" data-name="Rectangle 3908" width="0.404" height="9.079" transform="translate(65.414 71.703) rotate(-2.834)" fill="#b8bf47"/>
          <path id="Path_2220" data-name="Path 2220" d="M439.29,574.94l-13.518,1.9.117-18.786,13.518-1.9Z" transform="translate(-368.429 -481.252)" fill="#f6f5f5"/>
          <path id="Path_2221" data-name="Path 2221" d="M444.637,585.92l-.08-.6,9.214-1.308.08.6Z" transform="translate(-384.684 -505.361)" fill="#dd386a"/>
          <path id="Path_2222" data-name="Path 2222" d="M444.549,604.9l-.08-.6L453.683,603l.08.6Z" transform="translate(-384.608 -521.786)" fill="#dd386a"/>
          <path id="Path_2223" data-name="Path 2223" d="M445,625l-.08-.6,9.214-1.309.08.6Z" transform="translate(-384.997 -539.179)" fill="#dd386a"/>
          <path id="Path_2224" data-name="Path 2224" d="M444.9,646.774l-.08-.6,9.214-1.308.08.6Z" transform="translate(-384.911 -558.019)" fill="#e3708f"/>
          <path id="Path_2225" data-name="Path 2225" d="M444.807,666.87l-.08-.6,9.214-1.309.08.6Z" transform="translate(-384.832 -575.408)" fill="#e3708f"/>
          <path id="Path_2226" data-name="Path 2226" d="M381.088,648.929a7.077,7.077,0,0,0,1.594-7.939l-3.816,4.3Z" transform="translate(-327.841 -554.662)" fill="#6f3428"/>
          <g id="Group_2354" data-name="Group 2354" transform="translate(45.266 78.06)" opacity="0.3">
            <g id="Group_2353" data-name="Group 2353">
              <g id="Group_2352" data-name="Group 2352" clip-path="url(#clip-path-4)">
                <path id="Path_2227" data-name="Path 2227" d="M336.1,591.678c.507-.313,1.634-.024,1.919-.693,1.128-2.653-.128-8.387-1.482-11.382Z" transform="translate(-336.103 -579.602)" fill="#9ba22d"/>
              </g>
            </g>
          </g>
          <g id="Group_2357" data-name="Group 2357" transform="translate(43.322 94.269)" opacity="0.3">
            <g id="Group_2356" data-name="Group 2356">
              <g id="Group_2355" data-name="Group 2355" clip-path="url(#clip-path-5)">
                <path id="Path_2228" data-name="Path 2228" d="M331.595,699.95s-1.88,4.2-9.929,5.145a18.344,18.344,0,0,0,.237-5.08Z" transform="translate(-321.666 -699.95)" fill="#9ba22d"/>
              </g>
            </g>
          </g>
          <path id="Path_2229" data-name="Path 2229" d="M384.673,635.61l-6.25,2.4.241,5.525,7.506-3.167Z" transform="translate(-327.457 -550.006)" fill="#f9b384"/>
          <path id="Path_2230" data-name="Path 2230" d="M415.711,617.127c-.223.047-.45.069-.676.1a.823.823,0,0,1-.519,1.291l-.153.022a.683.683,0,0,1-.121.652,8.429,8.429,0,0,1-1.472.983c-5.9,2.81-6.9-.414-6.617-1.529a7.491,7.491,0,0,1,1.891-2.638c2.4-2.023,3.9-2.874,6.317-3.274.972-.162.863.772.06,1.267a5.57,5.57,0,0,1-1.2.56.278.278,0,0,1-.057.049,17.039,17.039,0,0,0-1.82,1.5c.773-.022,4.92-.495,5.345.124.148.215-.423.776-.982.894" transform="translate(-351.415 -530.199)" fill="#f9b384"/>
          <rect id="Rectangle_3911" data-name="Rectangle 3911" width="3.4" height="0.299" transform="translate(60.22 87.175) rotate(-4.931)" fill="#e28b6d"/>
          <rect id="Rectangle_3912" data-name="Rectangle 3912" width="2.745" height="0.299" transform="matrix(0.989, -0.146, 0.146, 0.989, 60.211, 88.598)" fill="#e28b6d"/>
          <path id="Path_2231" data-name="Path 2231" d="M293.215,482.269a20.786,20.786,0,0,0-8.645,2.7,12.952,12.952,0,0,0-6.484,10.935c-.1,3.829-.225,9-.327,13.092a5.168,5.168,0,0,0,6.333,5.163l9.5-2.58a14.967,14.967,0,0,1,1.751-8.013l-9.832,1.549.247-9.652,9.158-1.8Z" transform="translate(-240.35 -417.317)" fill="#c6cd53"/>
          <path id="Path_2232" data-name="Path 2232" d="M315.419,641.712l-.157-.372c2.959-1.25,8.244-1.937,12.517-2.395l.043.4c-4.246.456-9.493,1.136-12.4,2.366" transform="translate(-272.803 -552.892)" fill="#6f3428"/>
          <path id="Path_2233" data-name="Path 2233" d="M390.408,515.552a5.529,5.529,0,0,1-3.491-1.223l.255-.313a5.157,5.157,0,0,0,3.87,1.094,4.439,4.439,0,0,0,3.069-1.687l.323.243a4.839,4.839,0,0,1-3.343,1.845,5.686,5.686,0,0,1-.683.041" transform="translate(-334.807 -444.275)" fill="#6f3428"/>
          <path id="Path_2234" data-name="Path 2234" d="M387.446,443.24v4.842a3.629,3.629,0,0,1-.05.607,3.655,3.655,0,0,1-7.281-.607V443.24Z" transform="translate(-328.922 -383.545)" fill="#f9b384"/>
          <path id="Path_2235" data-name="Path 2235" d="M397.613,456.03v3.378a3.249,3.249,0,0,1-.049.566,5.922,5.922,0,0,1-5.7-3.578Z" transform="translate(-339.089 -394.612)" fill="#102048"/>
          <path id="Path_2236" data-name="Path 2236" d="M383.335,374.607a4.67,4.67,0,0,1-1.859,3.469c-1.8,1.336-5.754,1.665-9.514-4.477l-.1-8.544,5.969-.986,4.929,2.074-.161,4.175a9.692,9.692,0,0,1,.469,1.433,8.773,8.773,0,0,1,.264,2.855" transform="translate(-321.784 -315.037)" fill="#f9b384"/>
          <path id="Path_2237" data-name="Path 2237" d="M351.845,348a4.774,4.774,0,0,1,2.311-5.259c2.534.877,6.327,1.229,8.216-.525,2.023-1.517,1.5-6.748-3-6.607a2.546,2.546,0,0,0-2.49,2.334c-7.558-4.515-13,6.293-6.764,9.722Z" transform="translate(-300.612 -290.403)"/>
          <path id="Path_2238" data-name="Path 2238" d="M360.564,419.5a1.876,1.876,0,0,1-1.879,1.986,2.774,2.774,0,0,1-2.351-2.464,1.693,1.693,0,0,1,1.763-1.871,2.761,2.761,0,0,1,2.467,2.349" transform="translate(-308.34 -360.968)" fill="#f9b384"/>
          <path id="Path_2239" data-name="Path 2239" d="M364.894,423.748c-.132-.177-.265-.354-.4-.51a1.606,1.606,0,0,0-.451-.374.592.592,0,0,0-.485-.03,2.157,2.157,0,0,0-.523.326l-.123-.1a1.25,1.25,0,0,1,.495-.549.88.88,0,0,1,.406-.11.9.9,0,0,1,.412.1,1.46,1.46,0,0,1,.545.525,2.014,2.014,0,0,1,.275.656Z" transform="translate(-314.031 -365.515)" fill="#e28b6d"/>
          <path id="Path_2240" data-name="Path 2240" d="M439.56,410.579c.026.349.212.62.415.6s.346-.311.32-.661-.212-.62-.415-.6-.346.312-.32.661" transform="translate(-380.358 -354.71)" fill="#102048"/>
          <path id="Path_2241" data-name="Path 2241" d="M410.535,413.234c.026.349.212.62.415.6s.346-.311.32-.661-.212-.62-.415-.6-.346.311-.32.661" transform="translate(-355.242 -357.007)" fill="#102048"/>
          <path id="Path_2242" data-name="Path 2242" d="M427.418,418.219a5.305,5.305,0,0,0,.611.691,6.225,6.225,0,0,1,.651.717,1.213,1.213,0,0,1,.225.5.666.666,0,0,1-.028.312.731.731,0,0,1-.158.253,2.445,2.445,0,0,1-.8.577l-.068-.12a4.18,4.18,0,0,0,.633-.655.359.359,0,0,0,.081-.311.954.954,0,0,0-.173-.352c-.169-.239-.389-.468-.589-.718a2.842,2.842,0,0,1-.51-.832Z" transform="translate(-369.747 -361.893)" fill="#102048"/>
          <path id="Path_2243" data-name="Path 2243" d="M422.55,446.725a1.6,1.6,0,0,1-.7.289,2.1,2.1,0,0,1-.763-.01,2.3,2.3,0,0,1-.705-.277,2.68,2.68,0,0,1-.306-.216,3.333,3.333,0,0,1-.262-.262l.088-.107c.11.05.209.11.312.164l.156.074a1.175,1.175,0,0,0,.155.071c.053.02.1.043.156.065s.106.035.159.054a2.959,2.959,0,0,0,.32.09,2.782,2.782,0,0,0,.659.055,2.688,2.688,0,0,0,.664-.109Z" transform="translate(-363.273 -386.057)" fill="#102048"/>
          <path id="Path_2244" data-name="Path 2244" d="M434.549,402.294a2.82,2.82,0,0,0-.473-.127,1.646,1.646,0,0,0-.435-.017,1.522,1.522,0,0,0-.408.1,1.587,1.587,0,0,0-.4.237l-.186-.1a.858.858,0,0,1,.334-.542,1.131,1.131,0,0,1,.611-.232,1.178,1.178,0,0,1,1.091.519Z" transform="translate(-374.38 -347.522)" fill="#102048"/>
          <path id="Path_2245" data-name="Path 2245" d="M405.835,405.051a3.189,3.189,0,0,0-.609-.16,2.346,2.346,0,0,0-.6-.006,4.041,4.041,0,0,0-.6.117,4.557,4.557,0,0,0-.6.2l-.151-.147a1.417,1.417,0,0,1,.574-.5,1.972,1.972,0,0,1,.727-.211,1.731,1.731,0,0,1,.766.094,1.461,1.461,0,0,1,.618.439Z" transform="translate(-348.964 -349.885)" fill="#102048"/>
          <g id="Group_2360" data-name="Group 2360" transform="translate(52.883 57.413)" opacity="0.4">
            <g id="Group_2359" data-name="Group 2359">
              <g id="Group_2358" data-name="Group 2358" clip-path="url(#clip-path-6)">
                <path id="Path_2246" data-name="Path 2246" d="M392.66,427.757a1.474,1.474,0,1,0,1.46-1.467,1.459,1.459,0,0,0-1.46,1.467" transform="translate(-392.659 -426.29)" fill="#ee6f57"/>
              </g>
            </g>
          </g>
          <g id="Group_2363" data-name="Group 2363" transform="translate(60.156 56.715)" opacity="0.4">
            <g id="Group_2362" data-name="Group 2362">
              <g id="Group_2361" data-name="Group 2361" clip-path="url(#clip-path-7)">
                <path id="Path_2247" data-name="Path 2247" d="M448.059,423.965a1.445,1.445,0,0,1-.264-2.855,8.773,8.773,0,0,1,.264,2.855" transform="translate(-446.664 -421.11)" fill="#ee6f57"/>
              </g>
            </g>
          </g>
          <line id="Line_193" data-name="Line 193" y2="70.033" transform="translate(229.725 114.599)" fill="#102048"/>
          <path id="Line_194" data-name="Line 194" d="M-1.461,70.033H-2V0h.539Z" transform="translate(231.456 114.599)"/>
          <rect id="Rectangle_3915" data-name="Rectangle 3915" width="61.593" height="3.206" transform="translate(198.929 113.342)" fill="#d5d5d5"/>
          <path id="Path_2248" data-name="Path 2248" d="M1635.031,1352.588h-26.062a4.171,4.171,0,0,1,4.172-4.172h17.719a4.171,4.171,0,0,1,4.172,4.172" transform="translate(-1392.274 -1166.813)"/>
          <rect id="Rectangle_3916" data-name="Rectangle 3916" width="18.406" height="2.694" transform="translate(216.572 110.649)" fill="#646c70" opacity="0.556"/>
          <path id="Path_2249" data-name="Path 2249" d="M1674.73,709.9h-21l8.628-20.494h21Z" transform="translate(-1431.01 -596.558)" fill="#86a4ae"/>
        </g>
      </g>
    </g>
    <path id="settings_FILL0_wght100_GRAD0_opsz48_1_" data-name="settings_FILL0_wght100_GRAD0_opsz48 (1)" d="M156.062,251.02l-.5-3.671a8.9,8.9,0,0,1-1.687-.744,7.6,7.6,0,0,1-1.555-1.108l-3.374,1.521L147,243.545l2.977-2.216q-.066-.43-.116-.893a8.389,8.389,0,0,1-.05-.893,8.108,8.108,0,0,1,.05-.86q.05-.463.116-.992L147,235.442l1.951-3.374,3.34,1.455a11.858,11.858,0,0,1,1.588-1.091,7.581,7.581,0,0,1,1.654-.728l.529-3.7h3.9l.5,3.7a11.4,11.4,0,0,1,1.654.761,9.235,9.235,0,0,1,1.488,1.058l3.506-1.455,1.918,3.374-3.109,2.315a5.143,5.143,0,0,1,.165.926q.033.43.033.827a6.963,6.963,0,0,1-.05.794q-.05.43-.149.992l3.076,2.249-1.951,3.473-3.44-1.554a11.773,11.773,0,0,1-1.538,1.141,6.266,6.266,0,0,1-1.6.711l-.5,3.7Zm1.852-8.7a2.811,2.811,0,1,0-1.984-4.812,2.835,2.835,0,0,0,0,4A2.734,2.734,0,0,0,157.914,242.321Zm0-.728a2.084,2.084,0,1,1,1.488-3.555,2.117,2.117,0,0,1,0,2.944A1.991,1.991,0,0,1,157.914,241.594ZM158.014,239.51Zm-1.356,10.782h2.679l.5-3.671a7.521,7.521,0,0,0,1.8-.728,9.5,9.5,0,0,0,1.7-1.29l3.374,1.455,1.323-2.282-2.977-2.216q.132-.628.2-1.108a6.894,6.894,0,0,0,.066-.943,6.677,6.677,0,0,0-.066-.976q-.066-.447-.2-1.009l3.043-2.282-1.323-2.282-3.473,1.455a7.3,7.3,0,0,0-1.621-1.29,4.724,4.724,0,0,0-1.885-.728l-.43-3.671h-2.712l-.4,3.638a6.085,6.085,0,0,0-1.9.678,8.14,8.14,0,0,0-1.7,1.34l-3.407-1.422-1.323,2.282,2.977,2.183a4.66,4.66,0,0,0-.232.992,9.077,9.077,0,0,0-.066,1.125,7.753,7.753,0,0,0,.066,1.025,7.9,7.9,0,0,0,.2.992l-2.944,2.216,1.323,2.282,3.374-1.422a6.744,6.744,0,0,0,1.654,1.29,8.151,8.151,0,0,0,1.951.728Z" transform="translate(229.021 2941.082)" fill="#86a4ae"/>
    <path id="cloud_done_FILL0_wght100_GRAD0_opsz48" d="M102.617,322.288l6.35-6.317-.5-.5L102.65,321.3l-3.01-2.977-.5.5Zm-5.16,3.44a5.238,5.238,0,0,1-3.87-1.6A5.321,5.321,0,0,1,92,320.237a5.428,5.428,0,0,1,1.588-3.853,4.992,4.992,0,0,1,3.837-1.637,7.168,7.168,0,0,1,2.4-4.812A7.26,7.26,0,0,1,104.866,308a7.033,7.033,0,0,1,5.226,2.2,7.318,7.318,0,0,1,2.15,5.308v1.984H113.3a4.021,4.021,0,0,1,3.092,1.091,3.944,3.944,0,0,1,1.273,3.01,4.122,4.122,0,0,1-4.134,4.134Zm0-.728h16.074a3.388,3.388,0,0,0,3.407-3.407,3.248,3.248,0,0,0-.992-2.381,3.286,3.286,0,0,0-2.414-.992h-2.018v-2.712a6.59,6.59,0,0,0-1.951-4.8,6.688,6.688,0,0,0-9.509,0,6.561,6.561,0,0,0-1.968,4.8h-.661A4.5,4.5,0,0,0,94.1,316.9a4.621,4.621,0,0,0-1.373,3.374,4.743,4.743,0,0,0,4.73,4.73ZM104.833,316.864Z" transform="matrix(0.966, -0.259, 0.259, 0.966, 384.44, 3035.907)" fill="#86a4ae"/>
    <path id="calendar_month_FILL0_wght100_GRAD0_opsz48" d="M173.535,236.122A1.515,1.515,0,0,1,172,234.587V219.979a1.515,1.515,0,0,1,1.535-1.535h2.5V216h.767v2.444h8.015V216h.682v2.444h2.473a1.515,1.515,0,0,1,1.535,1.535v14.608a1.515,1.515,0,0,1-1.535,1.535Zm0-.625h14.438a.978.978,0,0,0,.909-.909v-9.805H172.625v9.805a.978.978,0,0,0,.909.909Zm-.909-11.34h16.257v-4.178a.978.978,0,0,0-.909-.909H173.535a.978.978,0,0,0-.909.909Zm0,0v0Zm8.128,4.576a.827.827,0,1,1,.554-.242A.762.762,0,0,1,180.754,228.732Zm-4.547,0a.827.827,0,1,1,.554-.242A.762.762,0,0,1,176.206,228.732Zm9.095,0a.827.827,0,1,1,.554-.242A.762.762,0,0,1,185.3,228.732Zm-4.547,4.32a.827.827,0,1,1,.554-.242A.762.762,0,0,1,180.754,233.052Zm-4.547,0a.827.827,0,1,1,.554-.242A.762.762,0,0,1,176.206,233.052Zm9.095,0a.827.827,0,1,1,.554-.242A.762.762,0,0,1,185.3,233.052Z" transform="matrix(0.966, -0.259, 0.259, 0.966, 238.703, 2962.741)" fill="#86a4ae"/>
    <path id="sms_FILL0_wght100_GRAD0_opsz48" d="M138.086,237.757a.926.926,0,0,0,0-1.852.871.871,0,0,0-.661.281.918.918,0,0,0,0,1.29A.871.871,0,0,0,138.086,237.757Zm5.457,0a.962.962,0,1,0-.645-.281A.887.887,0,0,0,143.543,237.757Zm5.391,0a.962.962,0,1,0-.645-.281A.887.887,0,0,0,148.934,237.757ZM132,249.432V229.786A1.758,1.758,0,0,1,133.786,228h19.448a1.752,1.752,0,0,1,1.786,1.786v14.156a1.752,1.752,0,0,1-1.786,1.786H135.7Zm.728-1.786L135.374,245h17.86a1.019,1.019,0,0,0,1.058-1.058V229.786a1.019,1.019,0,0,0-1.058-1.058H133.786a1.019,1.019,0,0,0-1.058,1.058Zm0-17.86v0Z" transform="translate(340.866 3087.842)" fill="#86a4ae"/>
    <path id="mail_FILL0_wght100_GRAD0_opsz48" d="M133.786,325.728A1.764,1.764,0,0,1,132,323.942V309.786A1.764,1.764,0,0,1,133.786,308h19.448a1.763,1.763,0,0,1,1.786,1.786v14.156a1.763,1.763,0,0,1-1.786,1.786Zm9.724-9.294-10.782-7.243v14.751A1.019,1.019,0,0,0,133.786,325h19.448a1.019,1.019,0,0,0,1.058-1.058V309.191Zm0-.926,10.22-6.78H133.323Zm-10.782-6.317v14.751A1.019,1.019,0,0,0,133.786,325h-1.058Z" transform="translate(680.622 2807.725) rotate(30)" fill="#86a4ae"/>
    <path id="receipt_long_FILL0_wght100_GRAD0_opsz48" d="M173.367,273A2.352,2.352,0,0,1,171,270.633v-2.552h4.512V248l1.775,1.036L179.136,248l1.849,1.036L182.834,248l1.849,1.036L186.533,248l1.849,1.036L190.231,248l1.849,1.036L193.855,248v22.633A2.352,2.352,0,0,1,191.488,273Zm18.14-.814a1.483,1.483,0,0,0,1.091-.444,1.505,1.505,0,0,0,.444-1.109v-21.08H176.325v18.528h13.646v2.552a1.505,1.505,0,0,0,.444,1.109A1.483,1.483,0,0,0,191.507,272.186Zm-12.814-17.715v-.814h7.618v.814Zm0,4.623v-.814h7.618v.814Zm11.021-4.105a.948.948,0,1,1,.647-.277A.887.887,0,0,1,189.713,254.99Zm0,4.549a.948.948,0,1,1,.647-.277A.887.887,0,0,1,189.713,259.538ZM173.34,272.186h15.818v-3.291H171.814v1.738a1.5,1.5,0,0,0,.449,1.109A1.479,1.479,0,0,0,173.34,272.186Zm-1.527,0v0Z" transform="matrix(0.966, -0.259, 0.259, 0.966, 404.978, 3044.372)" fill="#86a4ae"/>
    <path id="language_FILL0_wght100_GRAD0_opsz48" d="M142.25,248.5a9.934,9.934,0,0,1-3.991-.81,10.574,10.574,0,0,1-3.269-2.194,10.266,10.266,0,0,1,0-14.521,10.365,10.365,0,0,1,3.269-2.18,10.412,10.412,0,0,1,7.982,0,10.365,10.365,0,0,1,3.269,2.18,10.266,10.266,0,0,1,0,14.521,10.574,10.574,0,0,1-3.269,2.194A9.934,9.934,0,0,1,142.25,248.5Zm0-.589a14.4,14.4,0,0,0,1.944-2.8,15.254,15.254,0,0,0,1.208-3.24h-6.3a15.487,15.487,0,0,0,1.237,3.343A13.058,13.058,0,0,0,142.25,247.911Zm-.854-.059a10.369,10.369,0,0,1-1.782-2.636,14.8,14.8,0,0,1-1.193-3.343H133.3a9.789,9.789,0,0,0,8.1,5.979Zm1.738,0A9.5,9.5,0,0,0,147.905,246a10.342,10.342,0,0,0,3.3-4.124h-5.125a21.491,21.491,0,0,1-1.325,3.372A13.653,13.653,0,0,1,143.134,247.852Zm-10.014-6.627H138.3q-.147-.825-.206-1.576t-.059-1.429q0-.677.059-1.414a14.985,14.985,0,0,1,.206-1.532h-5.184a7.444,7.444,0,0,0-.353,1.414,10.06,10.06,0,0,0-.118,1.532,10.252,10.252,0,0,0,.118,1.561A8.163,8.163,0,0,0,133.119,241.225Zm5.832,0h6.6q.147-.854.206-1.561t.059-1.443q0-.707-.059-1.4t-.206-1.546h-6.6q-.147.854-.206,1.546t-.059,1.4q0,.736.059,1.443T138.951,241.225Zm7.246,0h5.184a8.163,8.163,0,0,0,.353-1.443,10.251,10.251,0,0,0,.118-1.561,10.058,10.058,0,0,0-.118-1.532,7.444,7.444,0,0,0-.353-1.414h-5.154q.118.884.177,1.605t.059,1.34q0,.677-.059,1.414T146.2,241.225Zm-.118-6.6H151.2a10.144,10.144,0,0,0-3.225-4.168,9.694,9.694,0,0,0-4.875-1.841,13.412,13.412,0,0,1,1.753,2.725A16.928,16.928,0,0,1,146.079,234.627Zm-6.981,0h6.333a16.88,16.88,0,0,0-1.281-3.328,12.322,12.322,0,0,0-1.9-2.71,10.781,10.781,0,0,0-1.841,2.562A17.8,17.8,0,0,0,139.1,234.627Zm-5.8,0h5.125a17.157,17.157,0,0,1,1.208-3.269,13.907,13.907,0,0,1,1.738-2.739,9.9,9.9,0,0,0-4.86,1.856A10.085,10.085,0,0,0,133.3,234.627Z" transform="matrix(0.966, 0.259, -0.259, 0.966, 306.532, 3031.194)" fill="#86a4ae"/>
    <path id="location_on_FILL0_wght100_GRAD0_opsz48" d="M194.119,211.525a1.418,1.418,0,1,0-.994-.414A1.349,1.349,0,0,0,194.119,211.525Zm0,10.436a27.359,27.359,0,0,0,5.535-6.267,10.9,10.9,0,0,0,1.974-5.356,7.544,7.544,0,0,0-2.161-5.56,7.674,7.674,0,0,0-10.7,0,7.544,7.544,0,0,0-2.161,5.56,10.851,10.851,0,0,0,1.988,5.356A27.949,27.949,0,0,0,194.117,221.96Zm0,.856a34.481,34.481,0,0,1-6.115-6.86,10.86,10.86,0,0,1-2-5.618,7.858,7.858,0,0,1,2.457-6.074,8.206,8.206,0,0,1,11.319,0,7.858,7.858,0,0,1,2.457,6.074,10.86,10.86,0,0,1-2,5.618A34.482,34.482,0,0,1,194.117,222.816ZM194.117,210.337Z" transform="translate(357.473 2923.484)" fill="#86a4ae"/>
  </g>
</svg>
