<svg xmlns="http://www.w3.org/2000/svg" width="526" height="445.43" viewBox="0 0 526 445.43">
  <g id="Group_7" data-name="Group 7" transform="translate(-1761.729 -5144.107)">
    <g id="Group_1" data-name="Group 1" transform="translate(-69.98 -230.468)">
      <path id="Path_24" data-name="Path 24" d="M1213.238,1545.441h-57.8c-17.092,0-30.948-18.3-30.948-40.875v-363.68c0-22.574,13.857-40.875,30.948-40.875h57.8c17.093,0,30.948,18.3,30.948,40.875v363.68c0,22.574-13.856,40.875-30.948,40.875" transform="translate(707.218 4274.564)" fill="#868585"/>
      <path id="Path_25" data-name="Path 25" d="M1396.5,1545.441h-57.8c-17.092,0-30.948-18.3-30.948-40.875v-363.68c0-22.574,13.857-40.875,30.948-40.875h57.8c17.093,0,30.948,18.3,30.948,40.875v363.68c0,22.574-13.856,40.875-30.948,40.875" transform="translate(659.189 4274.564)" fill="#adabab"/>
      <path id="Path_26" data-name="Path 26" d="M1579.764,1545.441h-57.8c-17.092,0-30.948-18.3-30.948-40.875v-363.68c0-22.574,13.857-40.875,30.948-40.875h57.8c17.093,0,30.948,18.3,30.948,40.875v363.68c0,22.574-13.856,40.875-30.948,40.875" transform="translate(611.159 4274.564)" fill="#868585"/>
      <path id="Path_150" data-name="Path 150" d="M1579.764,1545.441h-57.8c-17.092,0-30.948-18.3-30.948-40.875v-363.68c0-22.574,13.857-40.875,30.948-40.875h57.8c17.093,0,30.948,18.3,30.948,40.875v363.68c0,22.574-13.856,40.875-30.948,40.875" transform="translate(746.996 4274.564)" fill="#adabab"/>
    </g>
  </g>
</svg>
