<svg xmlns="http://www.w3.org/2000/svg" width="522.825" height="445.43" viewBox="0 0 522.825 445.43">
  <g id="Group_5" data-name="Group 5" transform="translate(-479.187 -5104.861)">
    <path id="Path_148" data-name="Path 148" d="M1255.687,2091.415h-85.445c-25.267,0-45.751-18.3-45.751-40.875V1686.861c0-22.575,20.484-40.876,45.751-40.876h85.445c25.268,0,45.751,18.3,45.751,40.876V2050.54c0,22.575-20.483,40.875-45.751,40.875" transform="translate(-299.426 3458.876)" fill="#868585"/>
    <path id="Path_149" data-name="Path 149" d="M1589.142,2091.415H1346.251c-21.262,0-38.5-18.3-38.5-40.875V1686.861c0-22.575,17.235-40.876,38.5-40.876h242.891c21.262,0,38.5,18.3,38.5,40.876V2050.54c0,22.575-17.235,40.875-38.5,40.875" transform="translate(-828.567 3458.876)" fill="#adabab"/>
  </g>
</svg>
