<svg xmlns="http://www.w3.org/2000/svg" width="567.952" height="501.365" viewBox="0 0 567.952 501.365">
  <g id="Group_13" data-name="Group 13" transform="translate(-3116.024 -1130.465)">
    <path id="Path_96" data-name="Path 96" d="M3511.86,272.444H3144.15a53.787,53.787,0,0,0-53.75,53.77v337.94a53.77,53.77,0,0,0,53.75,53.72h367.71a53.763,53.763,0,0,0,53.72-53.72V326.214a53.767,53.767,0,0,0-53.72-53.77M3397.67,352.4a51.91,51.91,0,1,1-51.91,51.91,51.909,51.909,0,0,1,51.91-51.91M3495,668.184H3168.33a14.676,14.676,0,0,1-14.26-23.17l89.09-176.46a14.992,14.992,0,0,1,27.46-2.54l89.68,117.08a21.956,21.956,0,0,0,30.62,5.15,22.547,22.547,0,0,0,3.4-3l21.92-22.2a20.906,20.906,0,0,1,29.53-1.47,21.3,21.3,0,0,1,3.6,4.26l56.75,81.07c8.14,11.76,3.21,21.28-11.12,21.28" transform="translate(118.396 858.021)" fill="#adabab"/>
    <path id="Path_97" data-name="Path 97" d="M3452.58,421.313a51.91,51.91,0,1,1-51.91-51.909,51.909,51.909,0,0,1,51.91,51.909" transform="translate(118.396 858.021)" fill="#d9d8d7"/>
    <path id="Path_98" data-name="Path 98" d="M3495,668.184H3168.33a14.676,14.676,0,0,1-14.26-23.17l89.09-176.46a14.992,14.992,0,0,1,27.46-2.54l89.68,117.08a21.956,21.956,0,0,0,30.62,5.15,22.547,22.547,0,0,0,3.4-3l21.92-22.2a20.906,20.906,0,0,1,29.53-1.47,21.3,21.3,0,0,1,3.6,4.26l56.75,81.07c8.14,11.76,3.21,21.28-11.12,21.28" transform="translate(118.396 858.021)" fill="#d9d8d7"/>
    <path id="Path_99" data-name="Path 99" d="M3419.088,328.378h-367.71a53.787,53.787,0,0,0-53.75,53.77V720.089a53.77,53.77,0,0,0,53.75,53.72h367.71a53.763,53.763,0,0,0,53.72-53.72V382.148a53.768,53.768,0,0,0-53.72-53.77M3304.9,408.339a51.91,51.91,0,1,1-51.91,51.91,51.909,51.909,0,0,1,51.91-51.91m97.33,315.779h-326.67a14.676,14.676,0,0,1-14.26-23.17l89.09-176.459a14.992,14.992,0,0,1,27.46-2.541l89.68,117.081a21.956,21.956,0,0,0,30.62,5.149,22.433,22.433,0,0,0,3.4-3l21.92-22.2a20.905,20.905,0,0,1,29.53-1.47,21.266,21.266,0,0,1,3.6,4.26l56.75,81.07c8.14,11.76,3.21,21.279-11.12,21.279" transform="translate(118.396 858.021)" fill="#868585"/>
    <path id="Path_100" data-name="Path 100" d="M3356.808,460.249a51.91,51.91,0,1,1-51.91-51.91,51.909,51.909,0,0,1,51.91,51.91" transform="translate(118.396 858.021)" fill="#d9d8d7"/>
    <path id="Path_101" data-name="Path 101" d="M3402.228,724.118h-326.67a14.676,14.676,0,0,1-14.26-23.17l89.09-176.459a14.992,14.992,0,0,1,27.46-2.541l89.68,117.081a21.956,21.956,0,0,0,30.62,5.149,22.433,22.433,0,0,0,3.4-3l21.92-22.2a20.905,20.905,0,0,1,29.53-1.47,21.266,21.266,0,0,1,3.6,4.26l56.75,81.07c8.14,11.76,3.21,21.279-11.12,21.279" transform="translate(118.396 858.021)" fill="#adabab"/>
  </g>
</svg>
