<svg xmlns="http://www.w3.org/2000/svg" viewBox="0 0 415.99 512"><defs><style>.cls-1{fill:#565555;}</style></defs><g id="Layer_2" data-name="Layer 2"><g id="Layer_1-2" data-name="Layer 1"><path class="cls-1" d="M376,64H288V48A48,48,0,0,0,240,0H176a48,48,0,0,0-48,48V64H40A40,40,0,0,0,0,104v32a16,16,0,0,0,16,16H400a16,16,0,0,0,16-16V104A40,40,0,0,0,376,64ZM160,48a16,16,0,0,1,16-16h64a16,16,0,0,1,16,16V64H160Z"/><path class="cls-1" d="M30.36,184a5,5,0,0,0-5,5.24l13.2,277A47.94,47.94,0,0,0,86.51,512h243a47.94,47.94,0,0,0,47.94-45.72l13.2-277a5,5,0,0,0-5-5.24ZM272,224a16,16,0,0,1,32,0V432a16,16,0,0,1-32,0Zm-80,0a16,16,0,0,1,32,0V432a16,16,0,0,1-32,0Zm-80,0a16,16,0,0,1,32,0V432a16,16,0,0,1-32,0Z"/></g></g></svg>