<svg id="Group_65" data-name="Group 65" xmlns="http://www.w3.org/2000/svg" xmlns:xlink="http://www.w3.org/1999/xlink" width="526.322" height="445.43" viewBox="0 0 526.322 445.43">
  <defs>
    <clipPath id="clip-path">
      <rect id="Rectangle_152" data-name="Rectangle 152" width="526.322" height="445.43" fill="none"/>
    </clipPath>
  </defs>
  <g id="Group_64" data-name="Group 64" clip-path="url(#clip-path)">
    <path id="Path_446" data-name="Path 446" d="M485.417,445.43H40.906A40.905,40.905,0,0,1,0,404.525V40.9A40.905,40.905,0,0,1,40.906,0H485.417a40.905,40.905,0,0,1,40.905,40.9v363.62a40.905,40.905,0,0,1-40.905,40.9" fill="#adabab"/>
    <path id="Path_447" data-name="Path 447" d="M316.116,222.408H210.876a10.667,10.667,0,0,1,0-21.333h105.24a10.667,10.667,0,1,1,0,21.333" fill="#868585"/>
    <path id="Path_448" data-name="Path 448" d="M316.116,251.672H210.876a10.666,10.666,0,0,1,0-21.333h105.24a10.666,10.666,0,1,1,0,21.333" fill="#868585"/>
    <path id="Path_449" data-name="Path 449" d="M316.116,280.935H210.876a10.667,10.667,0,0,1,0-21.333h105.24a10.667,10.667,0,1,1,0,21.333" fill="#868585"/>
    <path id="Path_450" data-name="Path 450" d="M271.683,185.828H210.876a10.667,10.667,0,1,1,0-21.333h60.807a10.667,10.667,0,1,1,0,21.333" fill="#d9d8d7"/>
    <path id="Path_451" data-name="Path 451" d="M167.467,222.408H62.227a10.667,10.667,0,0,1,0-21.333h105.24a10.667,10.667,0,1,1,0,21.333" fill="#868585"/>
    <path id="Path_452" data-name="Path 452" d="M167.467,251.672H62.227a10.666,10.666,0,0,1,0-21.333h105.24a10.666,10.666,0,1,1,0,21.333" fill="#868585"/>
    <path id="Path_453" data-name="Path 453" d="M167.467,280.935H62.227a10.667,10.667,0,0,1,0-21.333h105.24a10.667,10.667,0,1,1,0,21.333" fill="#868585"/>
    <path id="Path_454" data-name="Path 454" d="M123.035,185.828H62.228a10.667,10.667,0,1,1,0-21.333h60.807a10.667,10.667,0,1,1,0,21.333" fill="#d9d8d7"/>
    <path id="Path_455" data-name="Path 455" d="M464.094,222.408H358.854a10.667,10.667,0,0,1,0-21.333h105.24a10.667,10.667,0,1,1,0,21.333" fill="#868585"/>
    <path id="Path_456" data-name="Path 456" d="M419.662,185.828H358.855a10.667,10.667,0,1,1,0-21.333h60.807a10.667,10.667,0,1,1,0,21.333" fill="#d9d8d7"/>
    <path id="Path_457" data-name="Path 457" d="M464.094,251.672H358.854a10.666,10.666,0,0,1,0-21.333h105.24a10.666,10.666,0,1,1,0,21.333" fill="#868585"/>
    <path id="Path_458" data-name="Path 458" d="M464.094,280.935H358.854a10.667,10.667,0,0,1,0-21.333h105.24a10.667,10.667,0,1,1,0,21.333" fill="#868585"/>
  </g>
</svg>
