<svg xmlns="http://www.w3.org/2000/svg" viewBox="0 0 540.77 365.76"><defs><style>.cls-1{fill:#565555;}</style></defs><g id="Layer_2" data-name="Layer 2"><g id="Layer_1-2" data-name="Layer 1"><path class="cls-1" d="M537.79,175.66,415.09,53a10.45,10.45,0,0,0-14.38,0L374.1,79.56a10.18,10.18,0,0,0,0,14.39L463,182.85l-88.9,88.92a10.17,10.17,0,0,0,0,14.38l26.6,26.6a10.15,10.15,0,0,0,14.39,0L537.79,190.06A10.19,10.19,0,0,0,537.79,175.66Z"/><path class="cls-1" d="M166.66,271.77l-88.9-88.91L166.67,94a10.18,10.18,0,0,0,0-14.39L140.07,53a10.18,10.18,0,0,0-14.39,0L3,175.66a10.18,10.18,0,0,0,0,14.39l122.7,122.7a10.15,10.15,0,0,0,14.39,0l26.6-26.6A10.16,10.16,0,0,0,166.66,271.77Z"/><path class="cls-1" d="M340.16,11.68a10.18,10.18,0,0,0-6.06-4.89L312.54.42A10.17,10.17,0,0,0,299.9,7.3l-100.11,339A10.18,10.18,0,0,0,206.66,359l21.57,6.37a10.29,10.29,0,0,0,2.88.42,10.17,10.17,0,0,0,9.75-7.3L341,19.42A10.18,10.18,0,0,0,340.16,11.68Z"/></g></g></svg>