<svg xmlns="http://www.w3.org/2000/svg" width="526.322" height="445.43" viewBox="0 0 526.322 445.43">
  <g id="Group_5" data-name="Group 5" transform="translate(-3136.839 -421.317)">
    <path id="Path_85" data-name="Path 85" d="M2273.665,1613.726H1829.094a40.875,40.875,0,0,1-40.876-40.875V1209.172a40.876,40.876,0,0,1,40.876-40.876h444.571a40.875,40.875,0,0,1,40.875,40.876v363.679a40.875,40.875,0,0,1-40.875,40.875" transform="translate(1348.621 -746.979)" fill="#868585"/>
    <path id="Path_86" data-name="Path 86" d="M2035.065,1435.1a9.494,9.494,0,0,0,2.81,6.76,9.644,9.644,0,0,0,13.6,0c1.195-1.2,4.267-7.221,7.989-21.511-14.34,3.718-20.381,6.794-21.588,7.991a9.479,9.479,0,0,0-2.81,6.76" transform="translate(1348.621 -746.979)" fill="#d9d8d7"/>
    <path id="Path_87" data-name="Path 87" d="M2073.7,1320.8v-14.3h2.92a13.14,13.14,0,0,0,13.126-13.125v-18.1a13.14,13.14,0,0,0-13.126-13.125h-57.557a13.14,13.14,0,0,0-13.125,13.125v18.1a13.139,13.139,0,0,0,13.125,13.125h2.921V1320.8c-50.564,11.727-88.356,57.071-88.356,111.057,0,62.86,51.238,114,114.215,114s114.213-51.139,114.213-114c0-53.986-37.792-99.33-88.356-111.057m-25.857,192.746a81.688,81.688,0,1,1,81.836-81.689,81.858,81.858,0,0,1-81.836,81.689" transform="translate(1348.621 -746.979)" fill="#adabab"/>
    <path id="Path_88" data-name="Path 88" d="M2047.844,1366.794a65.065,65.065,0,1,0,65.213,65.064,65.212,65.212,0,0,0-65.213-65.064m29.031,52.44c-1.779,7.455-6.5,27.247-13.66,34.39a26.211,26.211,0,1,1-37.081-37.055c1.767-1.768,7.154-7.143,34.444-13.625a13.531,13.531,0,0,1,16.3,16.29" transform="translate(1348.621 -746.979)" fill="#adabab"/>
    <path id="Path_89" data-name="Path 89" d="M2163.9,1327.313l-11.459-11.455a17.852,17.852,0,0,0-25.208,0l-8.821,8.814a129.676,129.676,0,0,1,36.743,36.589l8.745-8.738a17.812,17.812,0,0,0,0-25.206" transform="translate(1348.621 -746.979)" fill="#d9d8d7"/>
  </g>
</svg>
