<svg xmlns="http://www.w3.org/2000/svg" viewBox="0 0 589.45 470.43"><defs><style>.cls-1{fill:#565555;}.cls-2{fill:#494646;}.cls-3{fill:#e0e0de;}</style></defs><g id="Layer_2" data-name="Layer 2"><g id="Layer_1-2" data-name="Layer 1"><path class="cls-1" d="M300.11,387.26l-46.45,18.12-3.72,13.05c-5.37,18.82-25.78,34.22-45.35,34.22v8.89H358.18Z"/><path class="cls-2" d="M339.51,418.43l-3.73-13.05-10.22-35.74-30.84-35.77-30.83,35.77-10.23,35.74q23.22-.39,46.45-.33l3.82,13.38c5.37,18.82,25.78,34.22,45.35,34.22l17.79,8.89,17.79-8.89c-19.57,0-40-15.4-45.35-34.22Z"/><path class="cls-1" d="M550.14,382.73a2459.62,2459.62,0,0,0-510.83,0A35.58,35.58,0,0,1,0,347.36V35.56A35.57,35.57,0,0,1,39.31.2,2459.62,2459.62,0,0,0,550.14.2a35.57,35.57,0,0,1,39.31,35.36V347.37A35.58,35.58,0,0,1,550.14,382.73Z"/><path class="cls-3" d="M553.87,35.58Q536.11,37.43,518.29,39h0C444,45.7,369.05,49.08,294.72,49.08A2506.49,2506.49,0,0,1,35.58,35.58V347.35a2506.53,2506.53,0,0,1,259.15-13.5c74.32,0,149.23,3.38,223.56,10.06q17.81,1.59,35.58,3.44Z"/><path class="cls-2" d="M451.87,470.43H137.58a8.9,8.9,0,1,1,0-17.79H451.87a8.9,8.9,0,1,1,0,17.79Z"/></g></g></svg>