<svg xmlns="http://www.w3.org/2000/svg" viewBox="0 0 512 306.25"><defs><style>.cls-1{fill:#565555;}</style></defs><g id="Layer_2" data-name="Layer 2"><g id="Layer_1-2" data-name="Layer 1"><path class="cls-1" d="M510,145.61A293.05,293.05,0,0,0,280.09,0C354.16,11.61,411,75.85,411,153.13S354.16,294.64,280.09,306.25A292.64,292.64,0,0,0,404.7,266.79,294.84,294.84,0,0,0,510,160.64a15,15,0,0,0,0-15Z"/><path class="cls-1" d="M101,153.13C101,75.85,157.84,11.61,231.91,0A293.09,293.09,0,0,0,2,145.61a15,15,0,0,0,0,15A294.87,294.87,0,0,0,107.31,266.79a292.6,292.6,0,0,0,124.6,39.46C157.84,294.64,101,230.4,101,153.13Z"/><circle class="cls-1" cx="256" cy="153.13" r="113.67"/></g></g></svg>