<svg xmlns="http://www.w3.org/2000/svg" viewBox="0 0 512 510.09"><defs><style>.cls-1{fill:#565555;}.cls-2{fill:#989797;}</style></defs><g id="Layer_2" data-name="Layer 2"><g id="Layer_1-2" data-name="Layer 1"><path class="cls-1" d="M497,85.82a15,15,0,0,0,15-15V15A15,15,0,0,0,497,0H441.18a15,15,0,0,0-15,15V27.91H85.82V15a15,15,0,0,0-15-15H15A15,15,0,0,0,0,15V70.82a15,15,0,0,0,15,15H27.91V424.28H15a15,15,0,0,0-15,15v55.81a15,15,0,0,0,15,15H70.82a15,15,0,0,0,15-15V483.9H426.18v11.19a15,15,0,0,0,15,15H497a15,15,0,0,0,15-15V439.28a15,15,0,0,0-15-15H483.9V85.82ZM453.9,424.28H441.18a15,15,0,0,0-15,15V453.9H85.82V439.28a15,15,0,0,0-15-15H57.91V85.82H70.82a15,15,0,0,0,15-15V57.91H426.18V70.82a15,15,0,0,0,15,15H453.9Z"/><path class="cls-2" d="M379.09,362.19c-7.85,0-15.36,6.89-15,15s6.59,15,15,15c7.85,0,15.36-6.9,15-15S387.5,362.19,379.09,362.19Z"/><path class="cls-2" d="M132.91,363.9c-7.85,0-15.36,6.9-15,15s6.59,15,15,15c7.84,0,15.36-6.9,15-15S141.32,363.9,132.91,363.9Z"/><path class="cls-2" d="M132.91,117.91c-7.85,0-15.36,6.9-15,15s6.59,15,15,15c7.84,0,15.36-6.9,15-15S141.32,117.91,132.91,117.91Z"/><path class="cls-2" d="M379.09,117.91c-7.85,0-15.36,6.9-15,15s6.59,15,15,15c7.85,0,15.36-6.9,15-15S387.5,117.91,379.09,117.91Z"/></g></g></svg>