<svg xmlns="http://www.w3.org/2000/svg" width="526.322" height="445.43" viewBox="0 0 526.322 445.43">
  <g id="Group_4" data-name="Group 4" transform="translate(-496.086 -5753.602)">
    <path id="Path_155" data-name="Path 155" d="M1608.23,445.433H1163.659a40.875,40.875,0,0,1-40.876-40.875V40.879A40.876,40.876,0,0,1,1163.659,0H1608.23A40.875,40.875,0,0,1,1649.1,40.879V404.558a40.875,40.875,0,0,1-40.875,40.875" transform="translate(-626.697 5753.599)" fill="#868585"/>
    <path id="Path_157" data-name="Path 157" d="M1248.272,2136.65h-80.616c-23.839,0-43.166-20.158-43.166-45.026V1691.012c0-24.868,19.327-45.027,43.166-45.027h80.616c23.84,0,43.166,20.16,43.166,45.027v400.612c0,24.868-19.325,45.026-43.166,45.026" transform="translate(-1134.638 7086.028) rotate(-90)" fill="#adabab"/>
    <path id="Path_158" data-name="Path 158" d="M1248.272,2136.65h-80.616c-23.839,0-43.166-20.158-43.166-45.026V1691.012c0-24.868,19.327-45.027,43.166-45.027h80.616c23.84,0,43.166,20.16,43.166,45.027v400.612c0,24.868-19.325,45.026-43.166,45.026" transform="translate(-1134.638 7286.028) rotate(-90)" fill="#d9d8d7"/>
  </g>
</svg>
