<svg xmlns="http://www.w3.org/2000/svg" width="526.322" height="445.43" viewBox="0 0 526.322 445.43">
  <g id="Group_11" data-name="Group 11" transform="translate(-3136.839 -2691.87)">
    <path id="Path_90" data-name="Path 90" d="M2190.733,2199.425H1746.162a40.876,40.876,0,0,1-40.876-40.875V1794.87a40.876,40.876,0,0,1,40.876-40.875h444.571a40.875,40.875,0,0,1,40.875,40.875v363.68a40.875,40.875,0,0,1-40.875,40.875" transform="translate(1431.553 937.875)" fill="#adabab"/>
    <path id="Path_91" data-name="Path 91" d="M2032.041,1880.268H1905.427c-8.775,0-16.326-8.23-16.469-18.756-.146-10.676,7.031-19.4,15.9-19.4h126.614c8.774,0,16.326,8.23,16.469,18.756.146,10.676-7.031,19.395-15.9,19.395" transform="translate(1431.553 937.875)" fill="#d9d8d7"/>
    <path id="Path_92" data-name="Path 92" d="M2107.114,1950.362H1830.165a10.92,10.92,0,0,1-11.05-10.488,10.671,10.671,0,0,1,10.666-10.845h276.948a10.919,10.919,0,0,1,11.05,10.488,10.671,10.671,0,0,1-10.665,10.845" transform="translate(1431.553 937.875)" fill="#868585"/>
    <path id="Path_93" data-name="Path 93" d="M2107.114,2014.362H1830.165a10.92,10.92,0,0,1-11.05-10.488,10.671,10.671,0,0,1,10.666-10.845h276.948a10.919,10.919,0,0,1,11.05,10.488,10.671,10.671,0,0,1-10.665,10.845" transform="translate(1431.553 937.875)" fill="#868585"/>
    <path id="Path_94" data-name="Path 94" d="M1953.081,2111.3h-82.39a12.891,12.891,0,0,1-12.892-12.891v-13.474a12.891,12.891,0,0,1,12.892-12.891h82.39a12.89,12.89,0,0,1,12.891,12.891v13.474a12.89,12.89,0,0,1-12.891,12.891" transform="translate(1431.553 937.875)" fill="#868585"/>
    <path id="Path_95" data-name="Path 95" d="M2076.084,2111.3h-82.391a12.891,12.891,0,0,1-12.891-12.891v-13.474a12.891,12.891,0,0,1,12.891-12.891h82.391a12.89,12.89,0,0,1,12.891,12.891v13.474a12.89,12.89,0,0,1-12.891,12.891" transform="translate(1431.553 937.875)" fill="#d9d8d7"/>
  </g>
</svg>
