<svg xmlns="http://www.w3.org/2000/svg" width="475.18" height="445.43" viewBox="0 0 475.18 445.43">
  <g id="Group_2" data-name="Group 2" transform="translate(-1789.007 -3721.829)">
    <path id="Path_102" data-name="Path 102" d="M1463.177,617.826h-367.71a53.787,53.787,0,0,0-53.75,53.77v337.94a53.77,53.77,0,0,0,53.75,53.72h367.71a53.763,53.763,0,0,0,53.72-53.72V671.6a53.767,53.767,0,0,0-53.72-53.77m-114.19,79.96a51.91,51.91,0,1,1-51.91,51.91,51.909,51.909,0,0,1,51.91-51.91m97.33,315.78h-326.67a14.677,14.677,0,0,1-14.26-23.17l89.09-176.46a14.992,14.992,0,0,1,27.46-2.54l89.68,117.08a21.956,21.956,0,0,0,30.62,5.15,22.536,22.536,0,0,0,3.4-3l21.92-22.2a20.906,20.906,0,0,1,29.53-1.47,21.29,21.29,0,0,1,3.6,4.26l56.75,81.07c8.14,11.76,3.21,21.28-11.12,21.28" transform="translate(747.29 3104.003)" fill="#868585"/>
    <path id="Path_103" data-name="Path 103" d="M1400.9,749.7a51.91,51.91,0,1,1-51.91-51.91,51.909,51.909,0,0,1,51.91,51.91" transform="translate(747.29 3104.003)" fill="#d9d8d7"/>
    <path id="Path_104" data-name="Path 104" d="M1446.317,1013.566h-326.67a14.677,14.677,0,0,1-14.26-23.17l89.09-176.46a14.992,14.992,0,0,1,27.46-2.54l89.68,117.08a21.956,21.956,0,0,0,30.62,5.15,22.536,22.536,0,0,0,3.4-3l21.92-22.2a20.906,20.906,0,0,1,29.53-1.47,21.29,21.29,0,0,1,3.6,4.26l56.75,81.07c8.14,11.76,3.21,21.28-11.12,21.28" transform="translate(747.29 3104.003)" fill="#adabab"/>
  </g>
</svg>
