<svg xmlns="http://www.w3.org/2000/svg" width="526.322" height="445.429" viewBox="0 0 526.322 445.429">
  <g id="Group_6" data-name="Group 6" transform="translate(-4934.827 -1922.104)">
    <path id="Path_131" data-name="Path 131" d="M3280.7,2718.786H2836.189a40.9,40.9,0,0,1-40.906-40.9v-363.62a40.905,40.905,0,0,1,40.906-40.905H3280.7a40.905,40.905,0,0,1,40.905,40.905v363.62a40.9,40.9,0,0,1-40.905,40.9" transform="translate(2139.544 -351.253)" fill="#adabab"/>
    <path id="Path_132" data-name="Path 132" d="M3018.056,2611.93H2853.829a24.122,24.122,0,0,1-24.249-23.994V2461.867a24.122,24.122,0,0,1,24.249-23.993h164.227a24.122,24.122,0,0,1,24.249,23.993v126.069a24.122,24.122,0,0,1-24.249,23.994" transform="translate(2130.559 -377.787)" fill="#d9d8d7"/>
    <path id="Path_133" data-name="Path 133" d="M3190.111,2506.6H2996.372c-4.118,0-7.661-4.6-7.729-10.488-.069-5.97,3.3-10.845,7.461-10.845h193.738c4.118,0,7.662,4.6,7.729,10.488.069,5.969-3.3,10.845-7.46,10.845" transform="translate(2216.169 -351.253)" fill="#868585"/>
    <path id="Path_134" data-name="Path 134" d="M3190.111,2468.6H2996.372c-4.118,0-7.661-4.6-7.729-10.488-.069-5.97,3.3-10.845,7.461-10.845h193.738c4.118,0,7.662,4.6,7.729,10.488.069,5.969-3.3,10.845-7.46,10.845" transform="translate(2216.169 -351.253)" fill="#868585"/>
    <path id="Path_135" data-name="Path 135" d="M3190.111,2544.6H2996.372c-4.118,0-7.661-4.6-7.729-10.488-.069-5.97,3.3-10.845,7.461-10.845h193.738c4.118,0,7.662,4.6,7.729,10.488.069,5.969-3.3,10.845-7.46,10.845" transform="translate(2216.169 -351.253)" fill="#868585"/>
  </g>
</svg>
