<svg xmlns="http://www.w3.org/2000/svg" viewBox="0 0 512 512"><defs><style>.cls-1{fill:#bbbaba;}.cls-2{fill:#e0e0de;}.cls-3{fill:#989797;}.cls-4{fill:#e24753;}</style></defs><g id="Layer_2" data-name="Layer 2"><g id="Layer_1-2" data-name="Layer 1"><path class="cls-1" d="M136.71,48.25,136,282.83l-.41,129.85-.07,22L23.32,509.48A15,15,0,0,1,7,509.69a15.48,15.48,0,0,1-7-13.16v-353a15,15,0,0,1,6.68-12.48L70.94,88.21h0l.06,0,56.17-37.44A15,15,0,0,1,136.71,48.25Z"/><path class="cls-1" d="M512,143.53V497a15,15,0,0,1-23.32,12.48L376.5,434.7l-13.36,8.9L256,429l-119.29-16.2h0l-1.14-.15L136,282.83l.73-234.58a14.89,14.89,0,0,1,1.86.27l.67.16.36.1a5.58,5.58,0,0,1,.58.18l.31.1.67.26.3.13c.21.08.42.18.62.28a1,1,0,0,1,.2.11,6.85,6.85,0,0,1,.71.37c.28.16.56.33.83.51L256,125.51l26-17.36,53.13-35.41a47.11,47.11,0,0,0,74.65,55.91c.8-.8,1.57-1.63,2.31-2.48h0c.26-.28.5-.57.74-.85h0c.48-.58.95-1.17,1.4-1.77,0,0,0,0,0,0,.9-1.21,1.74-2.46,2.54-3.75,0,0,0,0,0,0,.2-.33.4-.65.58-1,0,0,0,0,0,0,.39-.66.75-1.32,1.09-2h0a46.16,46.16,0,0,0,2.2-5,47.34,47.34,0,0,0,2.09-25.51,48.72,48.72,0,0,0-1.32-5.16c0-.14-.09-.29-.14-.43-.15-.46-.31-.91-.47-1.37s-.34-.91-.52-1.36-.36-.89-.55-1.33a1.33,1.33,0,0,0-.11-.24c-.35-.8-.73-1.59-1.12-2.37-.22-.43-.44-.85-.67-1.27L471,108.15l34.35,22.91A15,15,0,0,1,512,143.53Z"/><path class="cls-2" d="M376.5,142.47V434.7l-13.36,8.9L256,429.05h0L135.5,434.7l.07-22L136,282.83l.73-234.58a14.89,14.89,0,0,1,1.86.27l.67.16.36.1a5.58,5.58,0,0,1,.58.18l.31.1.67.26.3.13c.21.08.42.18.62.28a1,1,0,0,1,.2.11,6.85,6.85,0,0,1,.71.37c.28.16.56.33.83.51L256,125.51l26-17.36,53.13-35.41a47.1,47.1,0,0,0,41.34,69.73Z"/><path class="cls-1" d="M512,143.53V497a15,15,0,0,1-23.32,12.48L376.5,434.7l-13.36,8.9L256,429V125.51l26-17.36,53.13-35.41a47.11,47.11,0,0,0,74.65,55.91c.8-.8,1.57-1.63,2.31-2.48h0c.26-.28.5-.57.74-.85h0c.48-.58.95-1.17,1.4-1.77,0,0,0,0,0,0,.9-1.21,1.74-2.46,2.54-3.75,0,0,0,0,0,0,.2-.33.4-.65.58-1,0,0,0,0,0,0,.39-.66.75-1.32,1.09-2h0a46.16,46.16,0,0,0,2.2-5,47.34,47.34,0,0,0,2.09-25.51,48.72,48.72,0,0,0-1.32-5.16c0-.14-.09-.29-.14-.43-.15-.46-.31-.91-.47-1.37s-.34-.91-.52-1.36-.36-.89-.55-1.33a1.33,1.33,0,0,0-.11-.24c-.35-.8-.73-1.59-1.12-2.37-.22-.43-.44-.85-.67-1.27L471,108.15l34.35,22.91A15,15,0,0,1,512,143.53Z"/><path class="cls-2" d="M512,143.53V497a15,15,0,0,1-23.32,12.48L376.5,434.7V142.47a47,47,0,0,0,33.31-13.82c.8-.8,1.57-1.63,2.31-2.48h0c.26-.28.5-.57.74-.85h0c.48-.58.95-1.17,1.4-1.77,0,0,0,0,0,0,.9-1.21,1.74-2.46,2.54-3.75,0,0,0,0,0,0,.2-.33.4-.65.58-1,0,0,0,0,0,0,.39-.66.75-1.32,1.09-2h0a46.16,46.16,0,0,0,2.2-5,47.34,47.34,0,0,0,2.09-25.51,48.72,48.72,0,0,0-1.32-5.16c0-.14-.09-.29-.14-.43-.15-.46-.31-.91-.47-1.37s-.34-.91-.52-1.36-.36-.89-.55-1.33a1.33,1.33,0,0,0-.11-.24c-.35-.8-.73-1.59-1.12-2.37-.22-.43-.44-.85-.67-1.27L471,108.15l34.35,22.91A15,15,0,0,1,512,143.53Z"/><path class="cls-3" d="M376.5,0a95.34,95.34,0,0,0-42.73,180.56l29.79,50.89a15,15,0,0,0,25.89,0l29.78-50.89c1-.5,2-1,3-1.56q2.21-1.2,4.33-2.52c.95-.58,1.88-1.18,2.8-1.79.69-.46,1.38-.93,2.05-1.41a94.2,94.2,0,0,0,11.4-9.43c.59-.57,1.17-1.15,1.74-1.73A95.34,95.34,0,0,0,376.5,0Zm42,74c.39.78.77,1.57,1.12,2.37a1.33,1.33,0,0,1,.11.24c.19.44.37.89.55,1.33s.36.9.52,1.36.32.91.47,1.37c.05.14.1.29.14.43a48.72,48.72,0,0,1,1.32,5.16,47.34,47.34,0,0,1-2.09,25.51,46.16,46.16,0,0,1-2.2,5h0c-.34.68-.7,1.34-1.09,2,0,0,0,0,0,0-.18.32-.38.64-.58,1,0,0,0,0,0,0-.8,1.29-1.64,2.54-2.54,3.75,0,0,0,0,0,0-.45.6-.92,1.19-1.4,1.77h0c-.24.28-.48.57-.74.85h0c-.74.85-1.51,1.68-2.31,2.48a47.14,47.14,0,1,1,0-66.63c.39.39.78.8,1.16,1.21.77.81,1.5,1.66,2.2,2.53s1.38,1.77,2,2.69,1.25,1.86,1.82,2.82q.44.74.84,1.47a0,0,0,0,0,0,0C418.09,73.17,418.31,73.59,418.53,74Z"/><path class="cls-3" d="M471.83,95.33a95.23,95.23,0,0,1-27.3,66.79c-.57.58-1.15,1.16-1.74,1.73a94.2,94.2,0,0,1-11.4,9.43c-.67.48-1.36.95-2.05,1.41-.92.61-1.85,1.21-2.8,1.79q-2.13,1.32-4.33,2.52c-1,.54-2,1.06-3,1.56l-29.78,50.89a15,15,0,0,1-12.95,7.42v-96.4a47,47,0,0,0,33.31-13.82c.8-.8,1.57-1.63,2.31-2.48h0c.26-.28.5-.57.74-.85h0c.48-.58.95-1.17,1.4-1.77,0,0,0,0,0,0,.9-1.21,1.74-2.46,2.54-3.75,0,0,0,0,0,0,.2-.33.4-.65.58-1,0,0,0,0,0,0,.39-.66.75-1.32,1.09-2h0a46.16,46.16,0,0,0,2.2-5,47.34,47.34,0,0,0,2.09-25.51,48.72,48.72,0,0,0-1.32-5.16c0-.14-.09-.29-.14-.43-.15-.46-.31-.91-.47-1.37s-.34-.91-.52-1.36-.36-.89-.55-1.33a1.33,1.33,0,0,0-.11-.24c-.35-.8-.73-1.59-1.12-2.37-.22-.43-.44-.85-.67-1.27a0,0,0,0,1,0,0q-.41-.73-.84-1.47c-.57-1-1.18-1.9-1.82-2.82s-1.32-1.82-2-2.69S411.74,64,411,63.23c-.38-.41-.77-.82-1.16-1.21A47,47,0,0,0,376.5,48.2V0A95.44,95.44,0,0,1,471.83,95.33Z"/><path class="cls-4" d="M416.8,119.77a44.87,44.87,0,0,1-2.54,3.75C415.16,122.31,416,121.06,416.8,119.77Z"/><path class="cls-4" d="M421.44,81.12a44.31,44.31,0,0,1,1.32,5.16A48.72,48.72,0,0,0,421.44,81.12Z"/><path class="cls-4" d="M420.67,111.79a47.34,47.34,0,0,0,2.09-25.51,47.05,47.05,0,0,1-2.09,25.51Z"/><path class="cls-3" d="M376.5,343.85v74.79a30,30,0,0,1-13.36,25l-98.82,65.88a15,15,0,0,1-16.64,0L135.5,434.7l.07-22L136,282.83a63.06,63.06,0,0,1,34.58,10.64l67,44.69a33.16,33.16,0,0,0,36.84,0l41.28-27.53a39.07,39.07,0,0,1,42.35-.67A39.79,39.79,0,0,1,376.5,343.85Z"/></g></g></svg>