<svg xmlns="http://www.w3.org/2000/svg" width="526.322" height="445.43" viewBox="0 0 526.322 445.43">
  <g id="Group_6" data-name="Group 6" transform="translate(-4776.925 -1340.996)">
    <path id="Path_67" data-name="Path 67" d="M1595.977,3854.693H1151.406a40.875,40.875,0,0,1-40.876-40.875v-363.68a40.876,40.876,0,0,1,40.876-40.875h444.571a40.875,40.875,0,0,1,40.875,40.875v363.68a40.875,40.875,0,0,1-40.875,40.875" transform="translate(3666.395 -2068.267)" fill="#adabab"/>
    <path id="Path_68" data-name="Path 68" d="M1636.852,3476.914H1110.53v-26.775a40.876,40.876,0,0,1,40.875-40.876h444.572a40.876,40.876,0,0,1,40.875,40.876Z" transform="translate(3666.395 -2068.267)" fill="#868585"/>
    <path id="Path_69" data-name="Path 69" d="M1305.832,3459.05h-101.3a3.035,3.035,0,0,1-3.035-3.034v-25.855a3.036,3.036,0,0,1,3.035-3.035h101.3a3.036,3.036,0,0,1,3.035,3.035v25.855a3.035,3.035,0,0,1-3.035,3.034" transform="translate(3666.395 -2068.267)" fill="#d9d8d7"/>
    <path id="Path_70" data-name="Path 70" d="M1424.121,3459.05H1323.262a3.254,3.254,0,0,1-3.254-3.254V3430.38a3.254,3.254,0,0,1,3.254-3.254h100.859a3.254,3.254,0,0,1,3.254,3.254V3455.8a3.254,3.254,0,0,1-3.254,3.254" transform="translate(3666.395 -2068.267)" fill="#d9d8d7"/>
    <path id="Path_71" data-name="Path 71" d="M1542.569,3459.05H1441.828a3.312,3.312,0,0,1-3.312-3.313v-25.3a3.314,3.314,0,0,1,3.312-3.313h100.741a3.314,3.314,0,0,1,3.313,3.313v25.3a3.312,3.312,0,0,1-3.313,3.313" transform="translate(3666.395 -2068.267)" fill="#d9d8d7"/>
  </g>
</svg>
