<svg xmlns="http://www.w3.org/2000/svg" width="526.826" height="476.502" viewBox="0 0 526.826 476.502">
  <g id="Group_12" data-name="Group 12" transform="translate(-3136.587 -1939.698)">
    <path id="Path_105" data-name="Path 105" d="M3285.6,1413.318H3125.181a40.874,40.874,0,0,1-40.875-40.875V1043.956a40.876,40.876,0,0,1,40.875-40.877H3285.6a40.876,40.876,0,0,1,40.875,40.877v328.487a40.874,40.874,0,0,1-40.875,40.875" transform="translate(52.281 936.62)" fill="#868585"/>
    <path id="Path_106" data-name="Path 106" d="M3570.257,1413.318H3409.836a40.874,40.874,0,0,1-40.875-40.875V1043.956a40.876,40.876,0,0,1,40.875-40.877h160.421a40.876,40.876,0,0,1,40.875,40.877v328.487a40.874,40.874,0,0,1-40.875,40.875" transform="translate(52.281 936.62)" fill="#d9d8d7"/>
    <path id="Path_107" data-name="Path 107" d="M3425.97,1479.581H3265.549a40.875,40.875,0,0,1-40.875-40.875V1110.217a40.875,40.875,0,0,1,40.875-40.875H3425.97a40.875,40.875,0,0,1,40.875,40.875v328.489a40.875,40.875,0,0,1-40.875,40.875" transform="translate(52.281 936.62)" fill="#adabab"/>
    <path id="Path_108" data-name="Path 108" d="M3345.76,1274.462a40,40,0,1,1,40-40,16,16,0,1,0,32,0,72.111,72.111,0,0,0-56-70.186v-17.814a16,16,0,0,0-32,0v17.814a71.992,71.992,0,0,0,16,142.186,40,40,0,1,1-40,40,16,16,0,0,0-32,0,72.111,72.111,0,0,0,56,70.186v17.814a16,16,0,1,0,32,0v-17.814a71.992,71.992,0,0,0-16-142.186" transform="translate(52.281 936.62)" fill="#d9d8d7"/>
  </g>
</svg>
