<svg xmlns="http://www.w3.org/2000/svg" width="526.322" height="445.43" viewBox="0 0 526.322 445.43">
  <g id="Group_10" data-name="Group 10" transform="translate(-3136.839 -4066.602)">
    <path id="Path_58" data-name="Path 58" d="M1595.977,3320.029H1151.406a40.875,40.875,0,0,1-40.876-40.875v-363.68a40.876,40.876,0,0,1,40.876-40.875h444.571a40.875,40.875,0,0,1,40.875,40.875v363.68a40.875,40.875,0,0,1-40.875,40.875" transform="translate(2026.309 1192.003)" fill="#868585"/>
    <path id="Path_59" data-name="Path 59" d="M1437.379,3176.669l-104.176-71.68-10.12,13.92,104.052,71.577a4.1,4.1,0,0,0,2.908.755,12.676,12.676,0,0,0,9.217-11.445,4.208,4.208,0,0,0-1.881-3.127" transform="translate(2026.309 1192.003)" fill="#dae0e4"/>
    <path id="Path_60" data-name="Path 60" d="M1366.979,3110.246a49.343,49.343,0,1,1-84.651-46.06,48.354,48.354,0,0,0-1.974,13.784,49.33,49.33,0,0,0,86.625,32.276" transform="translate(2026.309 1192.003)" fill="#d9d8d7"/>
    <path id="Path_61" data-name="Path 61" d="M1439.522,2991l-113.906,82.784a5.512,5.512,0,0,0-2.151,5.55,12.336,12.336,0,0,0,6.243,8.765,5.528,5.528,0,0,0,5.946-.341l113.968-82.842Z" transform="translate(2026.309 1192.003)" fill="#adabab"/>
    <path id="Path_62" data-name="Path 62" d="M1436.085,2965.019a35.44,35.44,0,1,1-29.312,40.654,35.439,35.439,0,0,1,29.312-40.654" transform="translate(2026.309 1192.003)" fill="#d9d8d7"/>
    <path id="Path_63" data-name="Path 63" d="M1475.86,3009.839a35.447,35.447,0,1,1-60.822-33.089,34.629,34.629,0,0,0-1.42,9.9,35.441,35.441,0,0,0,62.242,23.187Z" transform="translate(2026.309 1192.003)" fill="#d9d8d7"/>
    <path id="Path_64" data-name="Path 64" d="M1311.625,3047.809a49.331,49.331,0,1,1-40.8,56.589,49.331,49.331,0,0,1,40.8-56.589" transform="translate(2026.309 1192.003)" fill="#d9d8d7"/>
    <path id="Path_65" data-name="Path 65" d="M1436.051,3159.633a35.44,35.44,0,1,1-29.312,40.654,35.44,35.44,0,0,1,29.312-40.654" transform="translate(2026.309 1192.003)" fill="#adabab"/>
    <path id="Path_66" data-name="Path 66" d="M1475.86,3204.471a35.447,35.447,0,1,1-60.822-33.089,34.626,34.626,0,0,0-1.42,9.9,35.44,35.44,0,0,0,62.242,23.19" transform="translate(2026.309 1192.003)" fill="#adabab"/>
  </g>
</svg>
