<svg xmlns="http://www.w3.org/2000/svg" viewBox="0 0 526.32 415.7"><defs><style>.cls-1{fill:#989797;}.cls-2{fill:#bbbaba;}.cls-3{fill:#e0e0de;}</style></defs><g id="Layer_2" data-name="Layer 2"><g id="Layer_1-2" data-name="Layer 1"><rect class="cls-1" width="526.32" height="99.4" rx="21.23"/><path class="cls-2" d="M21.22,119.34H147.47v85.49H21.22A21.22,21.22,0,0,1,0,183.6v-43A21.22,21.22,0,0,1,21.22,119.34Z"/><rect class="cls-3" x="167.42" y="119.34" width="176.58" height="85.49"/><path class="cls-2" d="M526.32,140.56v43a21.22,21.22,0,0,1-21.23,21.23H364V119.34H505.09A21.22,21.22,0,0,1,526.32,140.56Z"/><path class="cls-2" d="M21.22,224.77H147.47v85.49H21.22A21.22,21.22,0,0,1,0,289V246A21.22,21.22,0,0,1,21.22,224.77Z"/><rect class="cls-3" x="167.42" y="224.77" width="176.58" height="85.49"/><path class="cls-2" d="M526.32,246v43a21.22,21.22,0,0,1-21.23,21.22H364V224.77H505.09A21.22,21.22,0,0,1,526.32,246Z"/><path class="cls-2" d="M21.22,330.21H147.47V415.7H21.22A21.22,21.22,0,0,1,0,394.47v-43A21.22,21.22,0,0,1,21.22,330.21Z"/><rect class="cls-3" x="167.42" y="330.21" width="176.58" height="85.49"/><path class="cls-2" d="M526.32,351.43v43a21.22,21.22,0,0,1-21.23,21.23H364V330.21H505.09A21.22,21.22,0,0,1,526.32,351.43Z"/></g></g></svg>