<svg xmlns="http://www.w3.org/2000/svg" width="526.322" height="432.567" viewBox="0 0 526.322 432.567">
  <g id="Group_8" data-name="Group 8" transform="translate(-4938.909 -4072.223)">
    <path id="Path_136" data-name="Path 136" d="M1595.977,3787.042H1151.406c-22.575,0-40.876-15.521-40.876-34.667V3443.93c0-19.146,18.3-34.667,40.876-34.667h444.571c22.575,0,40.875,15.521,40.875,34.667v308.445c0,19.146-18.3,34.667-40.875,34.667" transform="translate(3828.379 717.749)" fill="#adabab"/>
    <path id="Path_138" data-name="Path 138" d="M1305.832,3459.05h-101.3a3.035,3.035,0,0,1-3.035-3.034v-25.855a3.036,3.036,0,0,1,3.035-3.035h101.3a3.036,3.036,0,0,1,3.035,3.035v25.855a3.035,3.035,0,0,1-3.035,3.034" transform="translate(3743.085 645.097)" fill="#d9d8d7"/>
    <path id="Path_139" data-name="Path 139" d="M1424.121,3459.05H1323.262a3.254,3.254,0,0,1-3.254-3.254V3430.38a3.254,3.254,0,0,1,3.254-3.254h100.859a3.254,3.254,0,0,1,3.254,3.254V3455.8a3.254,3.254,0,0,1-3.254,3.254" transform="translate(3743.085 645.097)" fill="#d9d8d7"/>
    <path id="Path_140" data-name="Path 140" d="M1542.569,3459.05H1441.828a3.312,3.312,0,0,1-3.312-3.313v-25.3a3.314,3.314,0,0,1,3.312-3.313h100.741a3.314,3.314,0,0,1,3.313,3.313v25.3a3.312,3.312,0,0,1-3.313,3.313" transform="translate(3743.085 645.097)" fill="#d9d8d7"/>
  </g>
</svg>
