<svg xmlns="http://www.w3.org/2000/svg" viewBox="0 0 526.32 445.43"><defs><style>.cls-1{fill:#e0e0de;}.cls-2{fill:#989797;}</style></defs><g id="Layer_2" data-name="Layer 2"><g id="Layer_1-2" data-name="Layer 1"><rect class="cls-1" width="526.32" height="445.43" rx="40.88"/><path class="cls-2" d="M252.49,126.71a10.66,10.66,0,0,1-10.66-10.66V105.38H135.16v10.67a10.67,10.67,0,0,1-21.33,0V94.71a10.67,10.67,0,0,1,10.66-10.66h128a10.67,10.67,0,0,1,10.67,10.66v21.34A10.67,10.67,0,0,1,252.49,126.71Z"/><path class="cls-2" d="M188.49,233.38a10.67,10.67,0,0,1-10.66-10.67v-128a10.67,10.67,0,0,1,21.33,0v128A10.67,10.67,0,0,1,188.49,233.38Z"/><path class="cls-2" d="M209.83,233.38H167.16a10.67,10.67,0,1,1,0-21.33h42.67a10.67,10.67,0,0,1,0,21.33Z"/><path class="cls-2" d="M401.83,105.38H316.49a10.67,10.67,0,0,1,0-21.33h85.34a10.67,10.67,0,0,1,0,21.33Z"/><path class="cls-2" d="M401.83,169.38H316.49a10.67,10.67,0,0,1,0-21.33h85.34a10.67,10.67,0,0,1,0,21.33Z"/><path class="cls-2" d="M401.83,233.38H316.49a10.67,10.67,0,0,1,0-21.33h85.34a10.67,10.67,0,0,1,0,21.33Z"/><path class="cls-2" d="M401.83,297.38H124.49a10.67,10.67,0,0,1,0-21.33H401.83a10.67,10.67,0,0,1,0,21.33Z"/><path class="cls-2" d="M401.83,361.38H124.49a10.67,10.67,0,0,1,0-21.33H401.83a10.67,10.67,0,0,1,0,21.33Z"/></g></g></svg>