<svg xmlns="http://www.w3.org/2000/svg" width="526.322" height="445.43" viewBox="0 0 526.322 445.43">
  <g id="Group_3" data-name="Group 3" transform="translate(-1763.649 -4420.203)">
    <path id="Path_44" data-name="Path 44" d="M674.066,2349.63H229.555a40.905,40.905,0,0,1-40.906-40.9V1945.1a40.906,40.906,0,0,1,40.906-40.905H674.066a40.905,40.905,0,0,1,40.905,40.905v363.62a40.905,40.905,0,0,1-40.905,40.9" transform="translate(1575 2516.003)" fill="#868585"/>
    <path id="Path_45" data-name="Path 45" d="M425.923,2019.5H316.687c-7.57,0-14.085-6.741-14.209-15.363-.125-8.744,6.067-15.885,13.715-15.885H425.429c7.57,0,14.084,6.741,14.208,15.362.126,8.745-6.066,15.886-13.714,15.886" transform="translate(1575 2516.003)" fill="#d9d8d7"/>
    <path id="Path_46" data-name="Path 46" d="M590.477,2201.582H313.528a10.92,10.92,0,0,1-11.05-10.488,10.671,10.671,0,0,1,10.666-10.845H590.093a10.919,10.919,0,0,1,11.049,10.488,10.671,10.671,0,0,1-10.665,10.845" transform="translate(1575 2516.003)" fill="#adabab"/>
    <path id="Path_47" data-name="Path 47" d="M590.477,2265.582H313.528a10.92,10.92,0,0,1-11.05-10.488,10.671,10.671,0,0,1,10.666-10.845H590.093a10.919,10.919,0,0,1,11.049,10.488,10.671,10.671,0,0,1-10.665,10.845" transform="translate(1575 2516.003)" fill="#adabab"/>
    <path id="Path_48" data-name="Path 48" d="M590.477,2080.87H313.528a10.92,10.92,0,0,1-11.05-10.488,10.671,10.671,0,0,1,10.666-10.845H590.093a10.918,10.918,0,0,1,11.049,10.488,10.671,10.671,0,0,1-10.665,10.845" transform="translate(1575 2516.003)" fill="#adabab"/>
    <path id="Path_49" data-name="Path 49" d="M590.477,2144.87H313.528a10.92,10.92,0,0,1-11.05-10.488,10.671,10.671,0,0,1,10.666-10.845H590.093a10.918,10.918,0,0,1,11.049,10.488,10.671,10.671,0,0,1-10.665,10.845" transform="translate(1575 2516.003)" fill="#adabab"/>
  </g>
</svg>
