<svg xmlns="http://www.w3.org/2000/svg" viewBox="0 0 482.75 405.28"><defs><style>.cls-1{fill:#565555;}</style></defs><g id="Layer_2" data-name="Layer 2"><g id="Layer_1-2" data-name="Layer 1"><path class="cls-1" d="M482.75,202.64c0,111.73-90.88,202.64-202.63,202.64a35.76,35.76,0,0,1,0-71.52c72.28,0,131.12-58.84,131.12-131.12S352.4,71.52,280.12,71.52c-68.61,0-125,53-130.56,120.22l21.84-21.83A35.75,35.75,0,0,1,222,220.47L141.5,300.93a35.73,35.73,0,0,1-50.56,0L10.48,220.47a35.75,35.75,0,0,1,50.57-50.56l17.22,17.21C86.24,82.63,173.62,0,280.12,0,391.87,0,482.75,90.9,482.75,202.64Z"/></g></g></svg>