<svg xmlns="http://www.w3.org/2000/svg" width="301" height="219" viewBox="0 0 301 219">
  <g id="Group_1494" data-name="Group 1494" transform="translate(-984 -336)">
    <g id="Rectangle_333" data-name="Rectangle 333" transform="translate(984 517)" fill="none" stroke="#707070" stroke-width="2">
      <path d="M0,0H301a0,0,0,0,1,0,0V18a20,20,0,0,1-20,20H20A20,20,0,0,1,0,18V0A0,0,0,0,1,0,0Z" stroke="none"/>
      <path d="M2,1H299a1,1,0,0,1,1,1V18a19,19,0,0,1-19,19H20A19,19,0,0,1,1,18V2A1,1,0,0,1,2,1Z" fill="none"/>
    </g>
    <g id="Rectangle_334" data-name="Rectangle 334" transform="translate(999 336)" fill="#e1f4f8" stroke="#707070" stroke-width="2">
      <path d="M20,0H252a20,20,0,0,1,20,20V183a0,0,0,0,1,0,0H0a0,0,0,0,1,0,0V20A20,20,0,0,1,20,0Z" stroke="none"/>
      <path d="M20,1H252a19,19,0,0,1,19,19V181a1,1,0,0,1-1,1H2a1,1,0,0,1-1-1V20A19,19,0,0,1,20,1Z" fill="none"/>
    </g>
    <g id="Rectangle_336" data-name="Rectangle 336" transform="translate(1000 336)" fill="#5d6365" stroke="#707070" stroke-width="2">
      <path d="M20,0H252a20,20,0,0,1,20,20v5a0,0,0,0,1,0,0H0a0,0,0,0,1,0,0V20A20,20,0,0,1,20,0Z" stroke="none"/>
      <path d="M20,1H252a19,19,0,0,1,19,19v3a1,1,0,0,1-1,1H2a1,1,0,0,1-1-1V20A19,19,0,0,1,20,1Z" fill="none"/>
    </g>
    <g id="Rectangle_337" data-name="Rectangle 337" transform="translate(1114 345)" fill="#fff" stroke="#707070" stroke-width="1">
      <rect width="42" height="8" rx="4" stroke="none"/>
      <rect x="0.5" y="0.5" width="41" height="7" rx="3.5" fill="none"/>
    </g>
    <g id="Group_1493" data-name="Group 1493" transform="translate(-80 -248)">
      <path id="Path_513" data-name="Path 513" d="M12697.314-39.262l15.811-6.494,8.975-18.4,10.9,7.641,18.569-4.609,48.687,25.7s3.908,19.137,3.771,20.028-9.229,16.506-9.229,16.506-26.2-13.266-27.62-11.47-9.661,15.862-9.661,15.862" transform="translate(-11605 734)" fill="none" stroke="#707070" stroke-linecap="round" stroke-width="2"/>
      <path id="Path_514" data-name="Path 514" d="M12732.953-20s11.4-5.458,12.153-5.058S12760.569-20,12760.569-20l14.874-5.058,1.4,17.8" transform="translate(-11605 734)" fill="none" stroke="#707070" stroke-linecap="round" stroke-width="2"/>
      <path id="Path_515" data-name="Path 515" d="M12846.147-112.367l-7,7.745,11.778,7.069-28.768,37.68-20.828-9.912,2.445,16.256-42.124-2.252" transform="translate(-11605 734)" fill="none" stroke="#707070" stroke-linecap="round" stroke-width="2"/>
      <path id="Path_516" data-name="Path 516" d="M12838.749-82.948v35.066l18.619,2.855-13.352,8.971,18.175,27.348-35.9-23.245-22.247,16.863" transform="translate(-11605 734)" fill="none" stroke="#707070" stroke-linecap="round" stroke-width="2"/>
      <path id="Path_517" data-name="Path 517" d="M12930.426-87c-.615-1.066-20.673-5.323-20.673-5.323l-11.158,6.62v8.794l-3.809,10.148h-17.047l6.345,14.619-27.229,7.078" transform="translate(-11605 734)" fill="none" stroke="#707070" stroke-linecap="round" stroke-width="2"/>
      <path id="Path_518" data-name="Path 518" d="M12928.3-13.9l-13.037-2.43-6.548,6.613L12894.64-13.9l-24.024,23h-9.375V-9.718" transform="translate(-11605 734)" fill="none" stroke="#707070" stroke-linecap="round" stroke-width="2"/>
      <path id="Path_519" data-name="Path 519" d="M12774.668-93.82v12.309h11.035l7.433-7.432,7.876,18.912" transform="translate(-11605 734)" fill="none" stroke="#707070" stroke-linecap="round" stroke-width="2"/>
      <path id="Path_520" data-name="Path 520" d="M12720.135-93.82h5.614l8.363,11.084v26.453" transform="translate(-11605 734)" fill="none" stroke="#707070" stroke-linecap="round" stroke-width="2"/>
      <path id="Path_521" data-name="Path 521" d="M12873.9-103.582l-7.181,7.18v8.544l4.182,2.9-6.729,8.71v6.213l14.2,3.505" transform="translate(-11605 734)" fill="none" stroke="#707070" stroke-linecap="round" stroke-width="2"/>
    </g>
    <g id="Group_1495" data-name="Group 1495" transform="translate(-78 -246)" opacity="0.218">
      <path id="Path_513-2" data-name="Path 513" d="M12697.314-39.262l15.811-6.494,8.975-18.4,10.9,7.641,18.569-4.609,48.687,25.7s3.908,19.137,3.771,20.028-9.229,16.506-9.229,16.506-26.2-13.266-27.62-11.47-9.661,15.862-9.661,15.862" transform="translate(-11605 734)" fill="none" stroke="#707070" stroke-linecap="round" stroke-width="2"/>
      <path id="Path_514-2" data-name="Path 514" d="M12732.953-20s11.4-5.458,12.153-5.058S12760.569-20,12760.569-20l14.874-5.058,1.4,17.8" transform="translate(-11605 734)" fill="none" stroke="#707070" stroke-linecap="round" stroke-width="2"/>
      <path id="Path_515-2" data-name="Path 515" d="M12846.147-112.367l-7,7.745,11.778,7.069-28.768,37.68-20.828-9.912,2.445,16.256-42.124-2.252" transform="translate(-11605 734)" fill="none" stroke="#707070" stroke-linecap="round" stroke-width="2"/>
      <path id="Path_516-2" data-name="Path 516" d="M12838.749-82.948v35.066l18.619,2.855-13.352,8.971,18.175,27.348-35.9-23.245-22.247,16.863" transform="translate(-11605 734)" fill="none" stroke="#707070" stroke-linecap="round" stroke-width="2"/>
      <path id="Path_517-2" data-name="Path 517" d="M12930.426-87c-.615-1.066-20.673-5.323-20.673-5.323l-11.158,6.62v8.794l-3.809,10.148h-17.047l6.345,14.619-27.229,7.078" transform="translate(-11605 734)" fill="none" stroke="#707070" stroke-linecap="round" stroke-width="2"/>
      <path id="Path_518-2" data-name="Path 518" d="M12928.3-13.9l-13.037-2.43-6.548,6.613L12894.64-13.9l-24.024,23h-9.375V-9.718" transform="translate(-11605 734)" fill="none" stroke="#707070" stroke-linecap="round" stroke-width="2"/>
      <path id="Path_519-2" data-name="Path 519" d="M12774.668-93.82v12.309h11.035l7.433-7.432,7.876,18.912" transform="translate(-11605 734)" fill="none" stroke="#707070" stroke-linecap="round" stroke-width="2"/>
      <path id="Path_520-2" data-name="Path 520" d="M12720.135-93.82h5.614l8.363,11.084v26.453" transform="translate(-11605 734)" fill="none" stroke="#707070" stroke-linecap="round" stroke-width="2"/>
      <path id="Path_521-2" data-name="Path 521" d="M12873.9-103.582l-7.181,7.18v8.544l4.182,2.9-6.729,8.71v6.213l14.2,3.505" transform="translate(-11605 734)" fill="none" stroke="#707070" stroke-linecap="round" stroke-width="2"/>
    </g>
  </g>
</svg>
