<svg id="_1933704_american_express_amex_charge_credit_card_payment_icon" data-name="1933704_american express_amex_charge_credit card_payment_icon" xmlns="http://www.w3.org/2000/svg" xmlns:xlink="http://www.w3.org/1999/xlink" width="36.818" height="23.011" viewBox="0 0 36.818 23.011">
  <defs>
    <clipPath id="clip-path">
      <path id="Path_780" data-name="Path 780" d="M13.9,25.026A1.731,1.731,0,0,1,15.626,23.3H48.992a1.731,1.731,0,0,1,1.726,1.726V44.585a1.731,1.731,0,0,1-1.726,1.726H15.626A1.731,1.731,0,0,1,13.9,44.585V25.026Z" transform="translate(-13.9 -23.3)"/>
    </clipPath>
    <clipPath id="clip-path-2">
      <path id="Path_781" data-name="Path 781" d="M69.121,68.183H67.281c-.173,0-.316,0-.4.086-.115.058-.144.173-.144.316a.312.312,0,0,0,.23.316,1.457,1.457,0,0,0,.374.058h.547a1.711,1.711,0,0,1,1.151.345.4.4,0,0,1,.086.115V68.183Zm0,2.79a1.556,1.556,0,0,1-1.381.547H65.785V70.6h1.956a.52.52,0,0,0,.4-.115.383.383,0,0,0,.115-.288.439.439,0,0,0-.115-.288.553.553,0,0,0-.345-.086c-.949-.029-2.129.029-2.129-1.323a1.273,1.273,0,0,1,1.438-1.266h2.013V66.4h-1.87a2.142,2.142,0,0,0-1.266.345V66.4H63.225a2,2,0,0,0-1.208.345V66.4H57.069v.345a2.616,2.616,0,0,0-1.352-.345H52.438v.345A2.435,2.435,0,0,0,51,66.4H47.376l-.834.949-.777-.892H40.3v5.9h5.35l.863-.92.805.92h3.308V70.973h.316a3.494,3.494,0,0,0,1.409-.2v1.582h2.733V70.83h.144c.173,0,.173,0,.173.173v1.352h8.255a2.522,2.522,0,0,0,1.381-.374v.374h2.618a4.078,4.078,0,0,0,1.5-.259V70.973Zm-4.056-1.7a1.155,1.155,0,0,1,.316.892c0,.92-.575,1.323-1.582,1.323H61.815V70.6h1.956a.52.52,0,0,0,.4-.115.383.383,0,0,0,.115-.288.439.439,0,0,0-.115-.288.593.593,0,0,0-.374-.086c-.949-.029-2.129.029-2.129-1.323a1.258,1.258,0,0,1,1.438-1.266h2.013v.892H63.282c-.2,0-.316,0-.4.086-.115.058-.144.173-.144.316a.312.312,0,0,0,.23.316,1.5,1.5,0,0,0,.4.058h.547A1.8,1.8,0,0,1,65.066,69.276Zm-9.118-.259a.93.93,0,0,1-.489.086H54.222v-.949h1.237a.88.88,0,0,1,.489.086.365.365,0,0,1,.2.374A.386.386,0,0,1,55.948,69.018Zm.633.518a1.125,1.125,0,0,1,.489.345,1.2,1.2,0,0,1,.173.777v.834H56.235v-.518c0-.259.029-.633-.173-.834a1.014,1.014,0,0,0-.748-.2H54.222v1.553H53.215v-4.2h2.33a2.471,2.471,0,0,1,1.208.2,1.012,1.012,0,0,1,.518.949A1.122,1.122,0,0,1,56.58,69.535Zm1.266-2.244h3.365v.892H58.853v.777h2.3v.863h-2.3v.834h2.359v.892H57.846Zm-6.817,1.956H49.706V68.183h1.323c.374,0,.6.144.6.518C51.662,69.046,51.4,69.248,51.029,69.248Zm-2.33,1.9L47.146,69.42,48.7,67.752Zm-4-.518H42.227v-.834h2.215v-.863H42.227v-.777h2.531l1.093,1.237Zm8.025-1.956c0,1.179-.863,1.409-1.755,1.409H49.706v1.409H47.75l-1.237-1.409-1.294,1.409h-4v-4.2h4.056l1.237,1.381,1.294-1.381h3.222C51.834,67.292,52.726,67.522,52.726,68.672Z" transform="translate(-40.3 -66.4)"/>
    </clipPath>
    <clipPath id="clip-path-3">
      <path id="Path_782" data-name="Path 782" d="M18.65,44.522l-.69-1.7-.69,1.7ZM33.9,43.86a.93.93,0,0,1-.489.086H32.169V43h1.237a.88.88,0,0,1,.489.086.365.365,0,0,1,.2.374A.43.43,0,0,1,33.9,43.86Zm8.773.662-.69-1.7-.69,1.7ZM26.33,46.362H25.295V43.055l-1.467,3.308h-.892l-1.467-3.308v3.308H19.427l-.4-.949h-2.1l-.4.949H15.429l1.812-4.228h1.5l1.726,4v-4H22.1l1.323,2.876,1.208-2.876H26.3v4.228Zm4.113,0H27.078V42.134h3.365v.892H28.085v.748h2.3v.863h-2.3v.834h2.359Zm4.775-3.107a1.184,1.184,0,0,1-.719,1.122,1.125,1.125,0,0,1,.489.345,1.2,1.2,0,0,1,.173.777v.834H34.154v-.547c0-.259.029-.633-.173-.834-.144-.144-.374-.173-.748-.173H32.141V46.3H31.134V42.134h2.33a2.661,2.661,0,0,1,1.237.2A.967.967,0,0,1,35.218,43.256Zm.575,3.107h1.035V42.134H35.794Zm13,0H47.357L45.43,43.2v3.164H43.359l-.4-.949H40.885l-.374.949H39.332a2.247,2.247,0,0,1-1.467-3.711,1.988,1.988,0,0,1,1.524-.489h.978v.892h-.949a.949.949,0,0,0-.777.259,1.381,1.381,0,0,0-.288.949,1.452,1.452,0,0,0,.288,1.007.917.917,0,0,0,.69.23h.46l1.438-3.337h1.524l1.7,4V42.134H46l1.783,2.934V42.134h1.036v4.228ZM15.4,47.2h1.726l.4-.949h.863l.374.949h3.423v-.719l.316.719h1.755l.288-.719V47.2H33V45.643h.173c.115,0,.144.029.144.2V47.2h4.372v-.374A3.234,3.234,0,0,0,39.3,47.2h1.841l.4-.949h.863l.374.949h3.538V46.3l.547.892h2.848V41.3H46.9v.69l-.4-.69H43.617v.69l-.374-.69H39.36a3.445,3.445,0,0,0-1.7.345V41.3H34.988v.345a1.667,1.667,0,0,0-1.151-.345H24.029l-.662,1.524L22.706,41.3H19.6v.69l-.345-.69H16.608L15.4,44.09Z" transform="translate(-15.4 -41.3)"/>
    </clipPath>
  </defs>
  <g id="Group_2119" data-name="Group 2119" transform="translate(0 0)">
    <g id="Group_2118" data-name="Group 2118">
      <g id="Group_2117" data-name="Group 2117" clip-path="url(#clip-path)">
        <path id="Path_779" data-name="Path 779" d="M13.9,25.026A1.731,1.731,0,0,1,15.626,23.3H48.992a1.731,1.731,0,0,1,1.726,1.726V44.585a1.731,1.731,0,0,1-1.726,1.726H15.626A1.731,1.731,0,0,1,13.9,44.585V25.026Z" transform="translate(-13.9 -23.3)" fill="#246ea9"/>
      </g>
    </g>
  </g>
  <g id="Group_2121" data-name="Group 2121" transform="translate(7.594 12.397)">
    <g id="Group_2120" data-name="Group 2120" clip-path="url(#clip-path-2)">
      <rect id="Rectangle_772" data-name="Rectangle 772" width="31.698" height="8.773" transform="translate(-1.438 -1.381)" fill="#fffffe"/>
    </g>
  </g>
  <g id="Group_2124" data-name="Group 2124" transform="translate(0.431 5.178)">
    <g id="Group_2123" data-name="Group 2123">
      <g id="Group_2122" data-name="Group 2122" clip-path="url(#clip-path-3)">
        <rect id="Rectangle_773" data-name="Rectangle 773" width="37.163" height="8.773" transform="translate(-1.438 -1.438)" fill="#fffffe"/>
      </g>
    </g>
    <rect id="Rectangle_774" data-name="Rectangle 774" width="1.036" height="4.228" transform="translate(20.394 0.834)" fill="#246ea9"/>
  </g>
</svg>
