<svg id="Group_2103" data-name="Group 2103" xmlns="http://www.w3.org/2000/svg" width="31.16" height="8.294" viewBox="0 0 31.16 8.294">
  <path id="Path_724" data-name="Path 724" d="M343.406,219.57a8.317,8.317,0,0,0-1.868.3l-.145,1.185a5.086,5.086,0,0,1,1.6-.339c.617-.019.979.113.852.64-1.832,0-3.065.376-3.319,1.561-.363,2.032,1.868,1.975,2.757,1.091l-.109.489H344.8l.707-3.236C345.8,219.889,344.548,219.551,343.406,219.57Zm.109,3.311a.817.817,0,0,1-.852.64c-.363.019-.689-.3-.453-.677.182-.32.689-.4,1-.4h.4C343.569,222.6,343.55,222.73,343.514,222.88Z" transform="translate(-319.064 -218.263)" fill="#107db0"/>
  <path id="Path_725" data-name="Path 725" d="M412,201.88l-1.35,6.208h1.658l1.367-6.208Z" transform="translate(-384.158 -201.853)" fill="#107db0"/>
  <path id="Path_726" data-name="Path 726" d="M267.755,202.144H264.72l-1.345,6.189h1.763l.454-2.05h1.254a2.489,2.489,0,0,0,2.526-2.032A1.623,1.623,0,0,0,267.755,202.144Zm-.054,2.107a1.134,1.134,0,0,1-1.036.847h-.818l.364-1.693h.872A.637.637,0,0,1,267.7,204.251Z" transform="translate(-247.531 -202.097)" fill="#107db0"/>
  <path id="Path_727" data-name="Path 727" d="M124.217,219.57a7.775,7.775,0,0,0-1.827.3l-.143,1.185a4.725,4.725,0,0,1,1.558-.339c.609-.019.968.113.86.64-1.809,0-3.027.376-3.278,1.561-.358,2.032,1.845,1.975,2.7,1.091l-.107.489h1.63l.7-3.236C126.6,219.889,125.345,219.551,124.217,219.57Zm.125,3.311a.829.829,0,0,1-.86.64.435.435,0,0,1-.43-.677,1.144,1.144,0,0,1,.967-.4h.412A3.77,3.77,0,0,0,124.342,222.88Z" transform="translate(-115.771 -218.263)" fill="#1b557d"/>
  <path id="Path_728" data-name="Path 728" d="M193.108,220.809h1.63l.263,2.882,1.595-2.882h1.682l-3.873,6.9h-1.823l1.192-2.028Z" transform="translate(-181.856 -219.413)" fill="#1b557d"/>
  <path id="Path_729" data-name="Path 729" d="M48.6,202.144H45.556l-1.348,6.189h1.786l.437-2.05h1.275a2.488,2.488,0,0,0,2.515-2.032A1.617,1.617,0,0,0,48.6,202.144Zm-.055,2.107a1.114,1.114,0,0,1-1.02.847h-.838l.383-1.693h.875A.627.627,0,0,1,48.545,204.251Z" transform="translate(-44.208 -202.097)" fill="#1b557d"/>
  <path id="Path_730" data-name="Path 730" d="M453.938,202.33V201.6h-.273v-.1h.658v.1h-.275v.732Z" transform="translate(-424.064 -201.5)" fill="#1b557d"/>
  <path id="Path_731" data-name="Path 731" d="M464.27,202.33v-.83h.164l.2.587q.027.082.04.123.014-.045.044-.133l.2-.577h.148v.83h-.106v-.695l-.242.695h-.1l-.24-.706v.706Z" transform="translate(-433.902 -201.5)" fill="#1b557d"/>
</svg>
