<svg xmlns="http://www.w3.org/2000/svg" width="67.293" height="67.295" viewBox="0 0 67.293 67.295">
  <path id="Union_7" data-name="Union 7" d="M-3953.872,262.273V238.166h-24.109a4.021,4.021,0,0,1-4.017-4.017,4.022,4.022,0,0,1,4.017-4.021h24.109V206.021a4.023,4.023,0,0,1,4.017-4.021,4.023,4.023,0,0,1,4.021,4.021v24.107h24.108a4.024,4.024,0,0,1,4.021,4.021,4.023,4.023,0,0,1-4.021,4.017h-24.108v24.107a4.022,4.022,0,0,1-4.021,4.021A4.023,4.023,0,0,1-3953.872,262.273Z" transform="translate(3983.498 -200.5)" fill="#979797" stroke="#fff" stroke-width="3"/>
</svg>
