<svg xmlns="http://www.w3.org/2000/svg" width="24.029" height="22.077" viewBox="0 0 24.029 22.077">
  <g id="Group_34" data-name="Group 34" transform="translate(-4403.043 -5212.437)">
    <path id="Path_26" data-name="Path 26" d="M4594.521,5213.088a2.231,2.231,0,0,0-3.152,0l-11.948,11.948a5.619,5.619,0,0,1,1.785,1.157c.035.034.176.174.21.21a5.643,5.643,0,0,1,1.157,1.784l11.947-11.947a2.233,2.233,0,0,0,0-3.152Z" transform="translate(-168.101 0)" fill="#444"/>
    <path id="Path_27" data-name="Path 27" d="M4412.3,5503.7l-.165-.164a4.112,4.112,0,0,0-4.381-.884,4.246,4.246,0,0,0-2.757,3.6,5.1,5.1,0,0,1-1.789,3.931s-.009.006-.012.01a.357.357,0,0,0,.208.646h6.18a4.244,4.244,0,0,0,3.6-2.756,4.114,4.114,0,0,0-.883-4.382Z" transform="translate(0 -276.325)" fill="#444"/>
  </g>
</svg>
