<svg xmlns="http://www.w3.org/2000/svg" width="16.576" height="20.403" viewBox="0 0 16.576 20.403">
  <g id="Group_51" data-name="Group 51" transform="translate(-3528.687 -8461.167)">
    <path id="Path_33" data-name="Path 33" d="M3543.669,8463.718h-3.506v-.637a1.913,1.913,0,0,0-1.913-1.914h-2.55a1.913,1.913,0,0,0-1.912,1.914v.637h-3.507a1.594,1.594,0,0,0-1.594,1.593v1.276a.638.638,0,0,0,.637.637h15.3a.638.638,0,0,0,.637-.637v-1.276A1.594,1.594,0,0,0,3543.669,8463.718Zm-8.607-.637a.638.638,0,0,1,.637-.638h2.55a.638.638,0,0,1,.637.638v.637h-3.825Z" fill="#444"/>
    <path id="Path_34" data-name="Path 34" d="M3554.25,8645.167a.2.2,0,0,0-.2.21l.526,11.039a1.911,1.911,0,0,0,1.911,1.822h9.681a1.911,1.911,0,0,0,1.911-1.822l.526-11.039a.2.2,0,0,0-.2-.21Zm9.628,1.594a.637.637,0,1,1,1.275,0v8.288a.637.637,0,1,1-1.275,0Zm-3.188,0a.638.638,0,0,1,1.275,0v8.288a.638.638,0,1,1-1.275,0Zm-3.187,0a.637.637,0,1,1,1.275,0v8.288a.637.637,0,1,1-1.275,0Z" transform="translate(-24.353 -176.668)" fill="#444"/>
  </g>
</svg>
