<svg xmlns="http://www.w3.org/2000/svg" width="28.011" height="28.012" viewBox="0 0 28.011 28.012">
  <g id="Group_50" data-name="Group 50" transform="translate(0 0)" opacity="0.408">
    <path id="Path_30" data-name="Path 30" d="M5049.82,6648.821h-10.067v7a.912.912,0,0,0,.98.821h10.126a.821.821,0,0,0,.82-.821v-7Z" transform="translate(-5032.806 -6648.821)" fill="#868585"/>
    <path id="Path_31" data-name="Path 31" d="M4940.764,6655.744a.843.843,0,0,0-.181-.44c-.041-.05.376.371-6.236-6.241a.827.827,0,0,0-.581-.241h-.492v7a2.465,2.465,0,0,1-2.463,2.462h-10.286a2.464,2.464,0,0,1-2.461-2.462v-7h-2.844a2.464,2.464,0,0,0-2.462,2.461v23.089a2.464,2.464,0,0,0,2.462,2.462h2.844v-11.489a2.466,2.466,0,0,1,2.461-2.463h10.286a2.467,2.467,0,0,1,2.463,2.463v11.489h5.033a2.465,2.465,0,0,0,2.461-2.462c0-19.926,0-18.564,0-18.627Z" transform="translate(-4912.758 -6648.821)" fill="#444"/>
    <path id="Path_32" data-name="Path 32" d="M5050.86,6935.818h-10.285a.862.862,0,0,0-.821.9v11.411h11.926v-11.411A.861.861,0,0,0,5050.86,6935.818Z" transform="translate(-5032.806 -6920.116)" fill="#868585"/>
  </g>
</svg>
