<svg xmlns="http://www.w3.org/2000/svg" width="25.983" height="15.542" viewBox="0 0 25.983 15.542">
  <g id="Group_36" data-name="Group 36" transform="translate(-4772.707 -6211.72)">
    <g id="Group_35" data-name="Group 35" transform="translate(4772.707 6211.72)">
      <path id="Path_28" data-name="Path 28" d="M5064.462,6219.11a14.873,14.873,0,0,0-11.667-7.39,7.867,7.867,0,0,1,0,15.542,14.872,14.872,0,0,0,11.667-7.39.762.762,0,0,0,0-.762Z" transform="translate(-5038.581 -6211.72)" fill="#444"/>
      <path id="Path_29" data-name="Path 29" d="M4777.833,6219.492a7.879,7.879,0,0,1,6.644-7.771,14.872,14.872,0,0,0-11.667,7.391.759.759,0,0,0,0,.762,14.868,14.868,0,0,0,11.667,7.39,7.877,7.877,0,0,1-6.644-7.771Z" transform="translate(-4772.707 -6211.721)" fill="#444"/>
    </g>
    <circle id="Ellipse_26" data-name="Ellipse 26" cx="5.768" cy="5.768" r="5.768" transform="translate(4779.931 6213.723)" fill="#444"/>
  </g>
</svg>
