<svg xmlns="http://www.w3.org/2000/svg" width="21.338" height="16.061" viewBox="0 0 21.338 16.061">
  <g id="list_1_" data-name="list (1)" transform="translate(0 -7.434)">
    <path id="Path_46" data-name="Path 46" d="M29.253,48.022H14.985a1.065,1.065,0,1,1,0-2.129H29.253a1.065,1.065,0,0,1,0,2.129Z" transform="translate(-8.98 -24.81)"/>
    <path id="Path_47" data-name="Path 47" d="M29.253,29.191H14.985a1.065,1.065,0,0,1,0-2.129H29.253a1.065,1.065,0,0,1,0,2.129Z" transform="translate(-8.98 -12.662)"/>
    <path id="Path_48" data-name="Path 48" d="M29.253,10.36H14.985a1.065,1.065,0,0,1,0-2.129H29.253a1.065,1.065,0,0,1,0,2.129Z" transform="translate(-8.98 -0.514)"/>
    <circle id="Ellipse_60" data-name="Ellipse 60" cx="1.43" cy="1.43" r="1.43" transform="translate(0 7.434)"/>
    <circle id="Ellipse_61" data-name="Ellipse 61" cx="1.43" cy="1.43" r="1.43" transform="translate(0 14.035)"/>
    <circle id="Ellipse_62" data-name="Ellipse 62" cx="1.43" cy="1.43" r="1.43" transform="translate(0 20.636)"/>
  </g>
</svg>
