<svg xmlns="http://www.w3.org/2000/svg" width="16.2" height="16.2" viewBox="0 0 16.2 16.2">
  <path id="language_FILL0_wght100_GRAD0_opsz48" d="M140,244a7.753,7.753,0,0,1-3.115-.632,8.252,8.252,0,0,1-2.552-1.713,8.012,8.012,0,0,1,0-11.333,8.09,8.09,0,0,1,2.552-1.7,8.127,8.127,0,0,1,6.23,0,8.089,8.089,0,0,1,2.552,1.7,8.013,8.013,0,0,1,0,11.333,8.252,8.252,0,0,1-2.552,1.713A7.753,7.753,0,0,1,140,244Zm0-.46a11.243,11.243,0,0,0,1.517-2.184,11.905,11.905,0,0,0,.943-2.529h-4.92a12.088,12.088,0,0,0,.966,2.609A10.191,10.191,0,0,0,140,243.54Zm-.667-.046a8.093,8.093,0,0,1-1.391-2.057,11.555,11.555,0,0,1-.931-2.609h-4a7.64,7.64,0,0,0,6.322,4.667Zm1.356,0a7.412,7.412,0,0,0,3.724-1.448,8.072,8.072,0,0,0,2.575-3.218h-4a16.773,16.773,0,0,1-1.034,2.632A10.656,10.656,0,0,1,140.69,243.494Zm-7.816-5.172h4.046q-.115-.644-.161-1.23t-.046-1.115q0-.529.046-1.1a11.7,11.7,0,0,1,.161-1.2h-4.046a5.81,5.81,0,0,0-.276,1.1,7.852,7.852,0,0,0-.092,1.2,8,8,0,0,0,.092,1.218A6.371,6.371,0,0,0,132.874,238.322Zm4.552,0h5.149q.115-.667.161-1.218t.046-1.126q0-.552-.046-1.092t-.161-1.207h-5.149q-.115.667-.161,1.207t-.046,1.092q0,.575.046,1.126T137.425,238.322Zm5.655,0h4.046a6.37,6.37,0,0,0,.276-1.126,8,8,0,0,0,.092-1.218,7.85,7.85,0,0,0-.092-1.2,5.809,5.809,0,0,0-.276-1.1H143.1q.092.69.138,1.253t.046,1.046q0,.529-.046,1.1T143.08,238.322Zm-.092-5.149h4a7.917,7.917,0,0,0-2.517-3.253,7.566,7.566,0,0,0-3.8-1.437,10.467,10.467,0,0,1,1.368,2.126A13.212,13.212,0,0,1,142.988,233.172Zm-5.448,0h4.943a13.174,13.174,0,0,0-1-2.6A9.617,9.617,0,0,0,140,228.46a8.415,8.415,0,0,0-1.437,2A13.892,13.892,0,0,0,137.54,233.172Zm-4.529,0h4a13.391,13.391,0,0,1,.943-2.552,10.854,10.854,0,0,1,1.356-2.138,7.724,7.724,0,0,0-3.793,1.448A7.871,7.871,0,0,0,133.011,233.172Z" transform="translate(-131.9 -227.9)" fill="#404242" stroke="#404242" stroke-width="0.2"/>
</svg>
