<svg xmlns="http://www.w3.org/2000/svg" width="200.1" height="28.503" viewBox="0 0 200.1 28.503">
  <g id="XMLID_2_" transform="translate(-85.927 -28.889)">
    <g id="XMLID_27_" transform="translate(85.927 28.889)">
      <g id="XMLID_29_">
        <path id="XMLID_32_" d="M36.963,13.144H35.445A5.223,5.223,0,0,0,30.048,8H23.724a5.17,5.17,0,0,0-5.4,5.144H17.062A6.622,6.622,0,0,0,10.4,19.806V29.841A6.622,6.622,0,0,0,17.062,36.5h20.07a6.622,6.622,0,0,0,6.662-6.662V19.806A6.878,6.878,0,0,0,36.963,13.144ZM23.471,10.193h6.746a2.953,2.953,0,0,1,3.036,2.951H20.435A2.953,2.953,0,0,1,23.471,10.193Zm9.192,17.54,1.349,8.011-7.168-3.795-7.168,3.71,1.434-7.927-5.734-5.65,8.011-1.1,3.626-7.252,3.542,7.252,8.011,1.181Z" transform="translate(-10.4 -8)" fill="#666e72"/>
        <path id="XMLID_31_" d="M31.982,10.6H25.236A2.953,2.953,0,0,0,22.2,13.551H35.018A2.953,2.953,0,0,0,31.982,10.6Z" transform="translate(-12.249 -8.407)" fill="none"/>
        <path id="XMLID_30_" d="M27.937,14.7l-3.626,7.168L16.3,23.048l5.734,5.65L20.6,36.625l7.168-3.71,7.168,3.795-1.349-7.927,5.819-5.65-8.011-1.181Z" transform="translate(-11.325 -9.05)" fill="none"/>
      </g>
      <path id="XMLID_28_" d="M33.349,33.926,28.458,31.4l-4.807,2.53.928-5.4L20.7,24.65l5.4-.759L28.543,19l2.446,4.975,5.4.759-3.963,3.795Z" transform="translate(-12.014 -9.724)" fill="#f4821f"/>
    </g>
    <g id="XMLID_3_" transform="translate(124.542 34.547)">
      <path id="XMLID_25_" d="M10,65.4h1.078c.862,0,1.078-.216,1.078-1.078V52.257c0-.862-.216-1.078-1.078-1.078H10V47.3H27.457v6.25H23.362v-.862c0-1.078-.216-1.293-1.293-1.293H18.19v4.526H25.3v4.095H18.19V64.11c0,.862.216,1.078,1.078,1.078h2.155c1.293,0,1.94-.431,2.155-1.293v-.862h4.31L27.457,69.5H10Z" transform="translate(-10 -47.3)"/>
      <path id="XMLID_23_" d="M18.5,50.1h6.9a56.11,56.11,0,0,0,2.155,10.345A65.359,65.359,0,0,0,29.707,50.1h6.25v3.664h-.431c-.862,0-1.078.215-1.293,1.078a71.78,71.78,0,0,1-4.31,11.422H24.75a80.934,80.934,0,0,1-4.31-11.422c-.216-.862-.431-1.078-1.293-1.078h-.431V50.1Z" transform="translate(-0.181 -44.066)"/>
      <path id="XMLID_20_" d="M34.328,60.46c-.647.216-.862.431-.862,1.078,0,.431.431,1.078,1.509,1.078A23.41,23.41,0,0,0,42.3,61.107v4.526a15.524,15.524,0,0,1-7.327,1.509c-5.388,0-7.974-3.233-7.974-8.621S30.233,49.9,35.405,49.9c4.741,0,6.9,2.371,6.9,5.172,0,3.017-1.724,3.879-5.6,4.741Zm-1.509-3.233v.647c.216-.216.216-.216,1.078-.431l1.078-.216a1.717,1.717,0,0,0,1.509-1.94,1.242,1.242,0,0,0-1.293-1.293C33.681,53.995,32.819,55.5,32.819,57.227Z" transform="translate(9.637 -44.297)"/>
      <path id="XMLID_18_" d="M35.1,50.331H42a8.927,8.927,0,0,1,.216,2.155A5.133,5.133,0,0,1,46.953,49.9c3.017,0,4.526,1.078,5.172,2.8a12.591,12.591,0,0,1,.647,4.526v4.526c0,.862.216,1.078,1.078,1.078h.862v3.664H48.031c-.862,0-1.078-.216-1.078-1.078V58.09a7.489,7.489,0,0,0-.431-2.8,1.34,1.34,0,0,0-1.293-.862c-1.509,0-2.155.862-2.155,3.879v3.448c0,.862.216,1.078,1.078,1.078H44.8v3.664H35.316V62.831h1.078c.862,0,1.078-.216,1.078-1.078v-6.9c0-.862-.216-1.078-1.078-1.078H35.316V50.331Z" transform="translate(18.994 -44.297)"/>
      <path id="XMLID_16_" d="M46.155,56.421H44V52.757h2.155V49.309A19.069,19.069,0,0,1,51.974,47.8v4.741h3.448v3.664H51.974v6.681c0,1.509.862,1.724,1.509,1.724a8.84,8.84,0,0,0,2.371-.216V68.7a14.161,14.161,0,0,1-4.095.431c-4.31,0-5.819-1.94-5.819-5.6V56.421Z" transform="translate(29.275 -46.722)"/>
      <path id="XMLID_13_" d="M11.888,65.165a8.6,8.6,0,0,1,.2-.993.527.527,0,0,0-.6-.6H10.7l.6-3.178a12.963,12.963,0,0,1,3.377-.4c2.384,0,2.98.993,2.98,2.384a17.629,17.629,0,0,1-.4,2.98l-.795,2.582a4.566,4.566,0,0,1,3.774-1.788c3.178,0,4.37,2.185,4.37,5.165,0,5.761-2.781,10.528-8.741,10.528-4.37,0-5.761-2.185-5.761-5.165a22.12,22.12,0,0,1,.4-3.377Zm3.377,10.528c0,1.391.4,2.185,1.391,2.185,1.788,0,2.781-3.178,2.781-5.364,0-1.391-.4-2.185-1.391-2.185C16.059,70.33,15.265,73.508,15.265,75.693Z" transform="translate(77.183 -59.007)"/>
      <path id="XMLID_11_" d="M24.761,72.934c0,.795.2,1.589,1.192,1.589,1.192,0,2.185-.993,2.582-3.973L29.727,63.4h5.165L33.1,73.331c0,.2-.2.6-.2.795,0,.795.4.795.795.795h.795L33.9,78.1a10.353,10.353,0,0,1-2.781.4c-2.185,0-2.98-.4-2.98-2.185a5.689,5.689,0,0,1-4.569,2.384c-2.582,0-4.37-.993-4.37-3.774,0-2.384,1.391-5.959,1.391-7.35,0-.795-.4-.795-.795-.795H19l.6-3.178a12.963,12.963,0,0,1,3.377-.4c2.384,0,2.98.993,2.98,2.384C26.151,67.769,24.761,71.345,24.761,72.934Z" transform="translate(84.94 -55.85)"/>
      <path id="XMLID_8_" d="M30.391,72.015a8.6,8.6,0,0,1,.2-.993.527.527,0,0,0-.6-.6H29l.6-3.178a14.8,14.8,0,0,1,3.576-.4c2.384,0,2.98.993,2.98,2.384a17.628,17.628,0,0,1-.4,2.98l-.795,4.768c0,.2-.2.6-.2.795,0,.795.4.795.795.795h.795l-.6,3.178a10.354,10.354,0,0,1-2.781.4c-2.384,0-3.576-.795-3.576-2.98a27.208,27.208,0,0,1,.4-3.178ZM34.364,59.5a3.178,3.178,0,1,1-3.178,3.178A3.138,3.138,0,0,1,34.364,59.5Z" transform="translate(92.987 -59.5)"/>
      <path id="XMLID_6_" d="M34.695,74.623a62.148,62.148,0,0,0,8.343-7.747H40.654c-.993,0-1.192.2-1.391,1.192v.2H36.085L36.88,63.3H49l-.2,1.192a7.363,7.363,0,0,1-2.384,4.569,44.968,44.968,0,0,1-5.761,5.364h1.986a1.511,1.511,0,0,0,1.589-1.192l.2-.4h3.178C47.408,77.6,46.614,78,44.031,78H33.9Z" transform="translate(96.528 -55.751)"/>
      <path id="XMLID_4_" d="M43.195,74.623a62.147,62.147,0,0,0,8.343-7.747H49.154c-.993,0-1.192.2-1.391,1.192v.2H44.585L45.38,63.3H57.5l-.2,1.192a7.363,7.363,0,0,1-2.384,4.569,44.968,44.968,0,0,1-5.761,5.364h1.986a1.511,1.511,0,0,0,1.589-1.192l.2-.4h3.178C55.908,77.6,55.114,78,52.531,78H42.4Z" transform="translate(103.988 -55.751)"/>
    </g>
  </g>
</svg>
