<svg id="Group_2150" data-name="Group 2150" xmlns="http://www.w3.org/2000/svg" width="56.54" height="12.387" viewBox="0 0 56.54 12.387">
  <g id="Group_2148" data-name="Group 2148" transform="translate(42.45 0)">
    <path id="Path_667" data-name="Path 667" d="M612,108.112a.451.451,0,1,0,.9,0V96.767a.451.451,0,1,0-.9,0Z" transform="translate(-612 -96.3)" fill="#fff"/>
    <path id="Path_668" data-name="Path 668" d="M668.234,97.4h-2.761c-.723,0-1.073.381-1.073,1.159v9.775c0,.778.342,1.159,1.073,1.159h2.605c3.958,0,6.338-2.519,6.338-6.135S672.091,97.4,668.234,97.4Zm-.047,11.229h-2.434c-.342,0-.451-.14-.451-.521V98.776c0-.381.1-.521.451-.521h2.317c3.678,0,5.42,2.162,5.42,5.179C673.49,106.553,671.554,108.629,668.187,108.629Z" transform="translate(-660.325 -97.314)" fill="#fff"/>
  </g>
  <g id="Group_2149" data-name="Group 2149" transform="translate(0 0.016)">
    <path id="Path_669" data-name="Path 669" d="M66.971,97.954c0-.311.086-.381.21-.381s.226.187.28.257l6.687,10.14a1.155,1.155,0,0,0,1.019.607c.653,0,1-.467,1-1.174V96.967a.437.437,0,1,0-.871,0v10.311c0,.311-.086.381-.21.381s-.226-.187-.28-.257l-6.687-10.14a1.155,1.155,0,0,0-1.019-.607c-.653,0-1,.467-1,1.174V108.3a.437.437,0,1,0,.871,0Z" transform="translate(-66.1 -96.5)" fill="#fff"/>
    <path id="Path_670" data-name="Path 670" d="M356.8,109.034a.437.437,0,1,0,.871,0V98.6c0-.311.07-.381.187-.381s.241.187.3.257l3.733,5.249a.435.435,0,0,0,.762,0l3.764-5.249c.054-.07.171-.257.3-.257s.187.07.187.381v10.436a.436.436,0,1,0,.871,0V98.443c0-.708-.327-1.143-.988-1.143a1.151,1.151,0,0,0-1.034.607l-3.453,4.922-3.453-4.922a1.147,1.147,0,0,0-1.019-.607c-.653,0-1,.467-1,1.174v10.56Z" transform="translate(-334.195 -97.238)" fill="#fff"/>
    <path id="Path_671" data-name="Path 671" d="M236.875,102.947a.425.425,0,1,0,.568-.63l-3.406-3.624c-.187-.21-.257-.3-.257-.412s.086-.21.28-.21h5.288a.437.437,0,0,0,.467-.435.429.429,0,0,0-.467-.435h-5.529c-.607,0-1.019.311-1.019.848a1.914,1.914,0,0,0,.677,1.229Z" transform="translate(-219.837 -97.146)" fill="#fff"/>
    <path id="Path_672" data-name="Path 672" d="M235.947,168.219a.451.451,0,0,0-.117-.638.431.431,0,0,0-.614.156,3.665,3.665,0,0,1-3.064,1.5,2.983,2.983,0,0,1-3.25-2.885,3.078,3.078,0,0,1,1.991-2.628.413.413,0,0,0,.233-.591.432.432,0,0,0-.607-.179,3.68,3.68,0,0,0,1.524,7.154A4.458,4.458,0,0,0,235.947,168.219Z" transform="translate(-215.41 -157.736)" fill="#fff"/>
  </g>
</svg>
