<svg xmlns="http://www.w3.org/2000/svg" xmlns:xlink="http://www.w3.org/1999/xlink" width="150" height="23" viewBox="0 0 150 23">
  <defs>
    <linearGradient id="linear-gradient" x2="1" y2="1" gradientUnits="objectBoundingBox">
      <stop offset="0" stop-color="#74d5f2"/>
      <stop offset="1" stop-color="#4cbaea"/>
    </linearGradient>
    <linearGradient id="linear-gradient-2" x1="0.5" x2="0.5" y2="1" gradientUnits="objectBoundingBox">
      <stop offset="0" stop-color="#0f4a85"/>
      <stop offset="1" stop-color="#186ca1"/>
    </linearGradient>
  </defs>
  <g id="Group_641" data-name="Group 641" transform="translate(-5501 1164)">
    <g id="Group_637" data-name="Group 637">
      <g id="Group_633" data-name="Group 633" transform="translate(-4 -32)">
        <rect id="Rectangle_62" data-name="Rectangle 62" width="33" height="23" rx="2" transform="translate(5505 -1132)" fill="url(#linear-gradient)"/>
        <g id="Group_632" data-name="Group 632" transform="translate(0.457 1.453)">
          <g id="Group_631" data-name="Group 631">
            <path id="Path_70" data-name="Path 70" d="M335.955,63.069v-.694l-.059-.014-.32.7h-2.145l-.318-.7-.058.012v.681H328.9l-.463-1.081h-1.072L326.9,63.07h-3.767l3.139-6.951H329.5l.357.671.05,0v-.666h3.783l.819,1.772.8-1.773h9.415l.92,1.018,1.1-1.023h4.3l-3.146,3.5,3.132,3.448h-4.423l-.953-1.04-1.072,1.05Z" transform="translate(5184.411 -1181.568)" fill="#fefefe"/>
            <path id="Path_71" data-name="Path 71" d="M347.835,67.889h-1.2V64.127l-.065-.014-1.714,3.772h-1.108l-1.723-3.77-.052.008v3.759h-2.517L338.98,66.8h-2.566l-.476,1.092H334.6l2.192-4.967h1.856l2.008,4.536.063-.008V62.923h2.036l1.606,3.367,1.484-3.371h1.988Z" transform="translate(5174.618 -1187.377)" fill="#6ccff0"/>
            <path id="Path_72" data-name="Path 72" d="M439.5,66.25l-1.56,1.636h-4.882V62.918h4.956l1.505,1.621,1.549-1.62h1.513l-2.282,2.5,2.28,2.466H441l-1.5-1.634" transform="translate(5090.555 -1187.377)" fill="#59c2ec"/>
          </g>
          <path id="Path_73" data-name="Path 73" d="M350.9,68.61l.84,1.983h-1.675l.835-1.983" transform="translate(5161.418 -1192.237)" fill="#fcfdfe"/>
          <path id="Path_74" data-name="Path 74" d="M443.967,71.93a7.09,7.09,0,0,0,0-1.026H441.3a4.2,4.2,0,0,1-.013-.9h3.1l1.335,1.443L444.328,72.9H441.3V71.93Z" transform="translate(5083.541 -1193.427)" fill="#fefefe"/>
        </g>
      </g>
    </g>
    <g id="Group_638" data-name="Group 638">
      <g id="Rectangle_62-2" data-name="Rectangle 62" transform="translate(5540 -1164)" fill="#fefefe" stroke="#dcdcdc" stroke-width="0.5">
        <rect width="33" height="23" rx="2" stroke="none"/>
        <rect x="0.25" y="0.25" width="32.5" height="22.5" rx="1.75" fill="none"/>
      </g>
      <g id="Group_634" data-name="Group 634" transform="translate(-0.286 31.041)">
        <path id="Path_76" data-name="Path 76" d="M30.322,254.536c1.069,0,2.139,0,3.208,0a1.311,1.311,0,0,1,1.382,1.1c.223,1.059.463,2.115.638,3.184a7.052,7.052,0,0,0-1.831-2.358,3.657,3.657,0,0,0-.955-.674c-.042-.092-.134-.122-.212-.168a7.912,7.912,0,0,0-2.23-.93Z" transform="translate(5513.964 -1442.569)" fill="#edc65f"/>
        <path id="Path_77" data-name="Path 77" d="M150.65,262.635c-.251,0-.5-.013-.754,0-.168.011-.215-.064-.24-.207-.071-.4-.157-.8-.224-1.208-.025-.153-.088-.2-.244-.2q-1.018.013-2.035,0a.226.226,0,0,0-.254.177c-.148.417-.311.83-.46,1.247-.044.124-.1.188-.245.185-.586-.01-1.173-.015-1.759,0-.246.007-.205-.079-.138-.241q1.08-2.579,2.151-5.163c.26-.625.536-1.245.779-1.876a1.078,1.078,0,0,1,1.1-.746c.469,0,.938.008,1.407-.006.171-.005.23.058.262.215.283,1.384.572,2.767.858,4.151.239,1.154.472,2.31.72,3.462.039.182-.006.212-.17.205-.251-.01-.5,0-.754,0m-3.062-3.213c.412,0,.805-.01,1.2,0,.2.007.242-.043.191-.238-.164-.631-.312-1.266-.466-1.9q-.045-.184-.09-.368l-.049.005-.784,2.5" transform="translate(5418.411 -1442.628)" fill="#2494bc"/>
        <path id="Path_78" data-name="Path 78" d="M110.871,262.594a7.414,7.414,0,0,1-2.149-.312c-.184-.056-.274-.128-.226-.35.091-.425.15-.856.216-1.286.024-.157.069-.21.236-.128a4.361,4.361,0,0,0,1.987.455,1.875,1.875,0,0,0,.851-.184.605.605,0,0,0,.128-1.089,4.647,4.647,0,0,0-.911-.525,6.5,6.5,0,0,1-.736-.431,2.026,2.026,0,0,1-.113-3.354,3.972,3.972,0,0,1,2.324-.83,5.407,5.407,0,0,1,1.982.247c.146.045.2.112.172.269-.08.436-.15.874-.217,1.312-.023.146-.074.166-.209.106a3.435,3.435,0,0,0-2.084-.245,1.051,1.051,0,0,0-.238.078.537.537,0,0,0-.106,1.009,5.681,5.681,0,0,0,.853.478,7.1,7.1,0,0,1,.762.435,2.117,2.117,0,0,1,.314,3.325,3.526,3.526,0,0,1-2.106.963,4.193,4.193,0,0,1-.729.057" transform="translate(5448.406 -1442.581)" fill="#2494bc"/>
        <path id="Path_79" data-name="Path 79" d="M45.464,255.753a3.656,3.656,0,0,1,.955.674,7.051,7.051,0,0,1,1.831,2.358l.258,1.148c.184-.494.343-.917.5-1.341.476-1.285.955-2.569,1.424-3.857a.3.3,0,0,1,.336-.239c.552.016,1.105.005,1.658.006.285,0,.285,0,.179.264l-2.915,7.206c-.226.56-.227.559-.823.559-.461,0-.921-.005-1.382,0a.217.217,0,0,1-.259-.194q-.874-3.3-1.762-6.587" transform="translate(5501.264 -1442.537)" fill="#2494bc"/>
        <path id="Path_80" data-name="Path 80" d="M88.7,262.546c-.276,0-.553-.011-.829,0-.185.01-.207-.066-.182-.221q.334-2.054.662-4.108.271-1.683.541-3.366c.055-.348.051-.349.409-.349.5,0,1,0,1.507,0,.146,0,.213.02.185.191q-.624,3.822-1.233,7.647c-.028.179-.1.214-.256.207-.267-.012-.536,0-.8,0" transform="translate(5465.857 -1442.543)" fill="#2494bc"/>
      </g>
    </g>
    <g id="Group_639" data-name="Group 639" transform="translate(1)">
      <rect id="Rectangle_63" data-name="Rectangle 63" width="33" height="23" rx="2" transform="translate(5578 -1164)" fill="#15447b"/>
      <g id="Group_635" data-name="Group 635" transform="translate(32.498 -32.113)">
        <path id="Path_82" data-name="Path 82" d="M285.581,246.253c-.363.276-.707.576-1.1.818a7.671,7.671,0,0,1-6.057.843,7.754,7.754,0,0,1-2.456-1.225,7.254,7.254,0,0,1-2.89-4.524,7.4,7.4,0,0,1,.2-3.9,7.473,7.473,0,0,1,1.551-2.643,7.688,7.688,0,0,1,2.589-1.916,6.98,6.98,0,0,1,2.477-.614,8.264,8.264,0,0,1,2.361.177,7.441,7.441,0,0,1,3.267,1.706.718.718,0,0,0,.063.044c.14.189.369.3.505.533a6.777,6.777,0,0,1-.7,0,.542.542,0,0,0-.594.29c-.021.037-.084.061-.062.11s.092.029.139.029c.485,0,.97,0,1.455,0,.062,0,.136-.026.182.036a2.681,2.681,0,0,1,.3.44.352.352,0,0,1-.2.025q-1.019,0-2.039,0c-.271,0-.382.1-.437.4.882,0,1.762.013,2.642-.008a.43.43,0,0,1,.477.307c.082.2.093.2-.129.2q-1.573,0-3.146,0c-.065,0-.15-.036-.185.058a1.362,1.362,0,0,0-.142.366h3.582c.3,0,.3,0,.4.283.074.213.072.217-.149.217h-3.806a.737.737,0,0,0-.136,0c-.192.036-.171.212-.184.336s.117.057.174.058c1.321.005,2.641,0,3.962.005.392,0,.315-.078.413.358.023.1.005.144-.116.143q-2.253-.008-4.506-.007a4.674,4.674,0,0,0-.52-.019c-.145-.015-.2.036-.223.184-.077.5-.172.99-.258,1.485-.067.387-.139.773-.2,1.162-.046.317.036.43.336.5a1.552,1.552,0,0,0,.728-.019.171.171,0,0,0,.15-.133c.023-.13.043-.261.067-.409a.732.732,0,0,1-.365.039c-.128-.027-.208-.092-.179-.245.078-.411.156-.822.219-1.236.018-.119.059-.148.17-.145.3.006.3,0,.35-.3.043-.258.043-.266-.205-.259-.143,0-.188-.042-.147-.176,1.544,0,3.088,0,4.631,0,.133,0,.191.041.189.17a2.885,2.885,0,0,0-.366,1.084l-.8-.005a.553.553,0,0,1,.533-.372c.078-.007.186.029.213-.105a1.885,1.885,0,0,1,.232-.605.89.89,0,0,0-.852.4c-.08-.132.125-.3-.027-.377a1.155,1.155,0,0,0-.44-.029c-.013,0-.026,0-.039,0-.14-.015-.208.04-.231.187-.137.85-.283,1.7-.428,2.565h.371c.339,0,.339,0,.422-.312h.932c.369,0,.411.068.253.406a.114.114,0,0,1-.131.082c-.366-.032-.733,0-1.1,0l-3.047,0c-.049,0-.105-.034-.125.043a.349.349,0,0,0,.278.367h3.729l.155,0a.062.062,0,0,1,.069.052.453.453,0,0,1-.364.446h-3.34c-.045,0-.091,0-.136,0s-.064,0-.071.045a.488.488,0,0,0,.329.378h2.971l.155,0c.034,0,.06.008.062.053a.611.611,0,0,1-.424.445h-2.428c-.06,0-.121.006-.2.01.043.075.079.128.105.185a.322.322,0,0,0,.371.217,5.7,5.7,0,0,1,.645,0H286.7c-.171.336-.372.551-.785.5a8.975,8.975,0,0,0-1.092-.009c.194.256.341.5.693.429a2.437,2.437,0,0,1,.427,0l-.363.382m-2.153-4.95a1.1,1.1,0,0,0,.773,1.125,2.25,2.25,0,0,0,1.241.059c.088-.019.189-.051.21-.15.038-.176.056-.357.086-.56a1.6,1.6,0,0,1-.985.177.668.668,0,0,1-.561-.39c-.063-.155-.02-.212.144-.213.317,0,.634,0,.951,0,.627,0,.631,0,.62-.64a.881.881,0,0,0-.525-.873,1.41,1.41,0,0,0-1.861.826.539.539,0,0,1-.078.235c-.1-.007-.2-.016-.3-.02-.062,0-.109.012-.125.087-.054.249.007.331.26.333.051,0,.1,0,.153.006m-6.658-1.283c.014.038.023.049.021.059-.136.761-.27,1.522-.411,2.283-.023.125-.017.193.139.176a2.566,2.566,0,0,1,.407,0c.1.006.132-.034.146-.129.038-.255.088-.508.133-.762.133-.749.265-1.5.4-2.245.028-.153.023-.237-.177-.224-.29.019-.582.01-.873,0a.211.211,0,0,0-.247.153c-.1.26-.211.512-.319.768l-.423,1a.488.488,0,0,1-.047-.209c-.028-.516-.059-1.031-.081-1.547-.005-.119-.034-.172-.167-.168-.3.01-.608.007-.913,0-.112,0-.15.032-.17.148-.157.934-.323,1.867-.489,2.8-.073.409-.076.408.346.408.052,0,.1,0,.155,0,.092.008.138-.019.152-.123.044-.313.1-.624.153-.935.081-.477.164-.954.247-1.438.059.038.044.08.046.117.033.606.064,1.212.1,1.818.01.18-.031.412.064.523s.341.025.519.037c.032,0,.065,0,.1,0,.106.016.159-.026.2-.128.181-.455.37-.907.558-1.359.14-.337.282-.672.432-1.028m1.034.471a2.562,2.562,0,0,1,1.052-.128.43.43,0,0,1,.269.094.232.232,0,0,1,.074.263c-.03.1-.121.075-.2.071a3.212,3.212,0,0,0-.715.045,1.048,1.048,0,0,0-.8.553.769.769,0,0,0,.7,1.19,1.246,1.246,0,0,0,.809-.31c-.088.266.04.285.212.268a1.384,1.384,0,0,1,.252,0c.108.009.157-.02.178-.14.1-.572.21-1.141.31-1.712a.689.689,0,0,0-.534-.854,2.735,2.735,0,0,0-1.305,0,.229.229,0,0,0-.182.182c-.039.148-.08.3-.129.479m2.842,2.051a2.021,2.021,0,0,0,.67-.073.832.832,0,0,0,.643-.857c0-.376-.145-.549-.611-.706a.692.692,0,0,1-.316-.177c-.118-.132-.1-.248.06-.326a.8.8,0,0,1,.453-.067c.448.054.448.053.537-.391a.26.26,0,0,1,.01-.057c.028-.06,0-.08-.055-.089a2.57,2.57,0,0,0-1.412.056.81.81,0,0,0-.475.816.665.665,0,0,0,.5.659c.084.031.169.062.251.1.133.059.278.13.239.3a.336.336,0,0,1-.348.254,1.957,1.957,0,0,1-.537-.06c-.3-.069-.3-.068-.361.224a.747.747,0,0,1-.039.15c-.05.11,0,.146.1.173a2.677,2.677,0,0,0,.692.068" transform="translate(5276.591 -1360.954)" fill="#ec1b2e"/>
        <path id="Path_83" data-name="Path 83" d="M339.684,246.228l.363-.382a2.441,2.441,0,0,0-.427,0c-.352.068-.5-.174-.693-.429a8.962,8.962,0,0,1,1.092.009c.414.052.614-.163.785-.5h-1.386a5.7,5.7,0,0,0-.645,0,.322.322,0,0,1-.371-.217c-.026-.058-.062-.111-.105-.185.076,0,.136-.01.2-.01h2.427a.611.611,0,0,0,.424-.445c0-.045-.028-.052-.062-.053l-.155,0h-2.971a.488.488,0,0,1-.329-.378c.007-.045.039-.044.071-.045s.091,0,.136,0h3.34a.453.453,0,0,0,.364-.446.062.062,0,0,0-.069-.052l-.155,0h-3.729a.349.349,0,0,1-.278-.367c.02-.077.077-.043.125-.043l3.047,0c.367,0,.734-.029,1.1,0a.114.114,0,0,0,.131-.082c.158-.338.116-.406-.253-.406h-.932l.076-.426,1.114-.01a1.514,1.514,0,0,0,1.847.678.259.259,0,0,0,.211-.18c.04-.192.07-.387.107-.6-.1.048-.172.088-.248.121a.878.878,0,0,1-1.227-.534,1.5,1.5,0,0,1,.1-.833.962.962,0,0,1,.934-.673,1.273,1.273,0,0,1,.6.119c.108.054.158.032.177-.088s.048-.266.079-.4a.163.163,0,0,0-.14-.225,1.909,1.909,0,0,0-2.214.615c0-.129-.056-.17-.189-.17-1.544.005-3.088,0-4.631,0l.073-.431c1.5,0,3,0,4.505.007.122,0,.139-.04.116-.143-.1-.436-.02-.358-.413-.359-1.321,0-2.641,0-3.962-.005-.057,0-.187.07-.174-.058s-.009-.3.184-.335a.74.74,0,0,1,.136,0h3.807c.221,0,.223,0,.149-.217-.1-.283-.1-.283-.4-.283h-3.582a1.369,1.369,0,0,1,.142-.366c.036-.094.121-.058.185-.058q1.573,0,3.146,0c.222,0,.211,0,.129-.2a.43.43,0,0,0-.477-.307c-.88.02-1.76.008-2.642.008.055-.3.167-.4.437-.4q1.019,0,2.039,0a.351.351,0,0,0,.2-.025,2.692,2.692,0,0,0-.3-.44c-.047-.062-.121-.036-.182-.036-.485,0-.97,0-1.455,0-.047,0-.113.031-.139-.029s.041-.073.062-.11a.543.543,0,0,1,.594-.29,6.794,6.794,0,0,0,.7,0c-.136-.238-.366-.344-.505-.533a7.294,7.294,0,0,1,3.519-1.795,7.51,7.51,0,0,1,4.115.3,7.546,7.546,0,0,1-1.133,14.524,7.377,7.377,0,0,1-4.9-.692,8.492,8.492,0,0,1-1.609-1.1m10.333-4c-.036.278-.036.278.225.278a2.2,2.2,0,0,1,.291,0c.122.016.158-.047.175-.147.038-.222.078-.444.116-.665q.209-1.2.418-2.4c.017-.1,0-.139-.113-.133a3.032,3.032,0,0,1-.407,0c-.128-.009-.182.031-.2.164-.032.258-.085.513-.132.783a1.023,1.023,0,0,0-1.548.014,1.729,1.729,0,0,0-.492,1.521.956.956,0,0,0,1.665.577m-4.24.012c-.086.278.057.279.217.268a1.732,1.732,0,0,1,.272,0c.113.01.159-.036.179-.146.1-.57.213-1.138.318-1.707a.684.684,0,0,0-.484-.829,2.622,2.622,0,0,0-1.373-.023.176.176,0,0,0-.144.118c-.054.175-.1.353-.148.547a2.473,2.473,0,0,1,1.071-.133.325.325,0,0,1,.268.134.273.273,0,0,1,.029.242c-.025.088-.11.047-.168.046a4.427,4.427,0,0,0-.695.048,1.056,1.056,0,0,0-.906.787.7.7,0,0,0,.433.9,1.093,1.093,0,0,0,1.133-.25m2.063-2.091c.01-.056.016-.113.03-.168.042-.156.014-.245-.177-.224a1.324,1.324,0,0,1-.31-.006c-.175-.022-.241.061-.262.223-.1.779-.25,1.55-.4,2.321-.034.179.012.237.192.215a1.639,1.639,0,0,1,.349,0c.125.012.169-.039.188-.158q.108-.667.232-1.331c.051-.27.188-.529.465-.556.334-.032.413-.2.425-.477a.337.337,0,0,1,.019-.094c.049-.138-.016-.163-.132-.131a1.354,1.354,0,0,0-.626.386m4.038,2.038a.35.35,0,0,0-.358-.374.357.357,0,0,0-.366.367.37.37,0,0,0,.36.357.358.358,0,0,0,.363-.35" transform="translate(5222.488 -1360.928)" fill="#fcb230"/>
        <path id="Path_84" data-name="Path 84" d="M280.728,272.058c-.15.356-.292.692-.432,1.029-.188.452-.378.9-.558,1.359-.041.1-.094.144-.2.128-.032,0-.065,0-.1,0-.178-.012-.419.079-.519-.037s-.054-.344-.064-.523c-.035-.606-.065-1.212-.1-1.818,0-.036.014-.079-.046-.117-.083.485-.166.961-.247,1.438-.053.311-.109.622-.153.935-.015.1-.061.13-.153.122-.051,0-.1,0-.155,0-.422,0-.419,0-.346-.408.166-.933.332-1.866.489-2.8.02-.116.058-.15.17-.148.3.006.608.009.912,0,.133,0,.162.049.167.167.023.516.053,1.032.081,1.547a.487.487,0,0,0,.048.209l.423-1c.108-.255.224-.508.319-.768a.211.211,0,0,1,.247-.153c.291.008.583.017.873,0,.2-.013.205.071.177.224-.137.748-.269,1.5-.4,2.246-.045.254-.1.507-.133.762-.014.1-.046.135-.146.129a2.569,2.569,0,0,0-.407,0c-.156.016-.163-.051-.14-.176.14-.76.275-1.522.411-2.283,0-.01-.007-.021-.021-.059" transform="translate(5272.633 -1392.992)" fill="#fefdfc"/>
        <path id="Path_85" data-name="Path 85" d="M301.224,275.549c.049-.183.09-.331.129-.48a.229.229,0,0,1,.182-.181,2.736,2.736,0,0,1,1.3,0,.69.69,0,0,1,.534.854c-.1.571-.213,1.141-.31,1.712-.02.12-.07.149-.178.14a1.373,1.373,0,0,0-.252,0c-.172.017-.3,0-.212-.268a1.246,1.246,0,0,1-.809.31.769.769,0,0,1-.7-1.19,1.049,1.049,0,0,1,.8-.553,3.222,3.222,0,0,1,.715-.044c.075,0,.166.032.2-.071a.232.232,0,0,0-.073-.264.431.431,0,0,0-.269-.094,2.564,2.564,0,0,0-1.052.128m1.135.756a1.009,1.009,0,0,0-.654.232.3.3,0,0,0-.087.349c.058.136.184.152.31.143.311-.021.471-.185.564-.533.04-.151.007-.209-.133-.192" transform="translate(5253.17 -1396.011)" fill="#fefdfc"/>
        <path id="Path_86" data-name="Path 86" d="M365.419,271.264a1.909,1.909,0,0,1,2.214-.615.163.163,0,0,1,.14.225c-.032.131-.059.264-.079.4s-.069.142-.177.088a1.272,1.272,0,0,0-.6-.119.963.963,0,0,0-.935.673,1.5,1.5,0,0,0-.1.833.878.878,0,0,0,1.227.534c.077-.033.15-.073.248-.121-.037.213-.067.407-.107.6a.26.26,0,0,1-.211.18,1.514,1.514,0,0,1-1.847-.678,1.839,1.839,0,0,1-.143-.488,1.19,1.19,0,0,1,0-.425,2.883,2.883,0,0,1,.366-1.084" transform="translate(5199.21 -1392.427)" fill="#fefdfc"/>
        <path id="Path_87" data-name="Path 87" d="M338.655,275.885a.539.539,0,0,0,.078-.235,1.41,1.41,0,0,1,1.861-.826.881.881,0,0,1,.525.873c.012.64.007.64-.62.64-.317,0-.634,0-.951,0-.164,0-.207.058-.144.213a.667.667,0,0,0,.561.39,1.6,1.6,0,0,0,.985-.177c-.03.2-.047.384-.086.56-.021.1-.123.131-.21.15a2.248,2.248,0,0,1-1.241-.059,1.1,1.1,0,0,1-.773-1.125l.016-.405m1.3-.048c.116,0,.233,0,.349,0s.138-.034.121-.14a.436.436,0,0,0-.369-.392.489.489,0,0,0-.51.335c-.06.129-.079.221.119.2a2.535,2.535,0,0,1,.291,0" transform="translate(5221.379 -1395.941)" fill="#fefdfc"/>
        <path id="Path_88" data-name="Path 88" d="M316.993,277.5a2.673,2.673,0,0,1-.692-.067c-.1-.027-.15-.063-.1-.173a.739.739,0,0,0,.039-.15c.064-.291.064-.292.361-.224a1.955,1.955,0,0,0,.537.06.337.337,0,0,0,.348-.254c.04-.175-.106-.245-.239-.3-.082-.037-.167-.067-.251-.1a.665.665,0,0,1-.5-.659.81.81,0,0,1,.475-.816,2.57,2.57,0,0,1,1.412-.056c.054.008.083.029.055.089a.254.254,0,0,0-.01.057c-.089.444-.089.444-.537.391a.8.8,0,0,0-.453.067c-.159.077-.177.194-.06.326a.691.691,0,0,0,.317.177c.466.157.615.33.611.706a.833.833,0,0,1-.643.857,2.016,2.016,0,0,1-.67.073" transform="translate(5240.243 -1395.906)" fill="#fefdfc"/>
        <path id="Path_89" data-name="Path 89" d="M331.43,271.227l-.073.431c-.041.134,0,.18.147.176.248-.007.248,0,.205.259-.051.3-.051.306-.351.3-.111,0-.152.027-.17.146-.063.413-.142.825-.22,1.236-.029.152.052.217.179.245a.734.734,0,0,0,.365-.039c-.024.148-.044.279-.067.409a.171.171,0,0,1-.15.133,1.55,1.55,0,0,1-.728.019c-.3-.071-.382-.185-.336-.5.056-.389.128-.775.2-1.162.086-.5.181-.989.258-1.485.023-.148.078-.2.223-.184a4.773,4.773,0,0,1,.52.019" transform="translate(5228.45 -1392.985)" fill="#fefdfc"/>
        <path id="Path_90" data-name="Path 90" d="M354.521,276.984l-.076.426c-.082.312-.082.312-.422.312h-.371c.145-.866.291-1.715.428-2.565.024-.147.091-.2.231-.187.013,0,.026,0,.039,0a1.157,1.157,0,0,1,.44.03c.151.076-.053.245.027.377a.89.89,0,0,1,.852-.4,1.883,1.883,0,0,0-.231.606c-.027.135-.135.1-.213.105a.553.553,0,0,0-.533.372,1.04,1.04,0,0,0-.091.423,1.985,1.985,0,0,0-.08.5" transform="translate(5208.77 -1396.141)" fill="#fefdfc"/>
        <path id="Path_91" data-name="Path 91" d="M359.582,282.23a1.04,1.04,0,0,1,.09-.423l.8.005a1.189,1.189,0,0,0,0,.424l-.892-.007" transform="translate(5203.788 -1401.89)" fill="#fcb230"/>
        <path id="Path_92" data-name="Path 92" d="M336.386,281.87l-.016.405c-.051,0-.1-.006-.153-.006-.253,0-.315-.083-.261-.332.016-.075.063-.09.125-.087.1,0,.2.013.3.02" transform="translate(5223.648 -1401.926)" fill="#fcb230"/>
        <path id="Path_93" data-name="Path 93" d="M407.82,274.4a.956.956,0,0,1-1.665-.577,1.73,1.73,0,0,1,.492-1.521,1.023,1.023,0,0,1,1.548-.014c.047-.27.1-.525.132-.783.017-.134.071-.174.2-.165a3.048,3.048,0,0,0,.407,0c.108-.007.13.034.113.133q-.212,1.2-.418,2.4c-.039.222-.079.443-.116.665-.017.1-.053.163-.175.147a2.2,2.2,0,0,0-.291,0c-.261,0-.261,0-.225-.278m.2-1.245a.733.733,0,0,0-.066-.357.4.4,0,0,0-.538-.194.98.98,0,0,0-.316,1.314.3.3,0,0,0,.373.11.9.9,0,0,0,.547-.874" transform="translate(5164.685 -1393.097)" fill="#fefdfc"/>
        <path id="Path_94" data-name="Path 94" d="M381.773,277.33a1.093,1.093,0,0,1-1.133.25.7.7,0,0,1-.433-.9,1.056,1.056,0,0,1,.906-.787,4.417,4.417,0,0,1,.695-.048c.057,0,.142.042.168-.046a.272.272,0,0,0-.029-.242.325.325,0,0,0-.267-.134,2.473,2.473,0,0,0-1.071.133c.052-.194.094-.373.148-.547a.177.177,0,0,1,.144-.118,2.622,2.622,0,0,1,1.374.023.684.684,0,0,1,.484.829c-.1.569-.215,1.137-.317,1.707-.02.111-.065.157-.178.146a1.723,1.723,0,0,0-.272,0c-.16.011-.3.01-.217-.268m-.532-.3a.613.613,0,0,0,.648-.615c.008-.066-.034-.089-.089-.1a.883.883,0,0,0-.771.308.317.317,0,0,0-.011.314.207.207,0,0,0,.222.1" transform="translate(5186.493 -1396.015)" fill="#fefdfc"/>
        <path id="Path_95" data-name="Path 95" d="M397.161,275.371a1.354,1.354,0,0,1,.626-.386c.115-.033.18-.007.132.131a.333.333,0,0,0-.019.094c-.012.274-.092.444-.425.477-.278.027-.415.285-.465.556q-.124.664-.232,1.331c-.019.118-.063.169-.188.158a1.648,1.648,0,0,0-.349,0c-.18.022-.226-.036-.192-.215.146-.771.3-1.541.4-2.321.02-.162.086-.245.261-.223a1.314,1.314,0,0,0,.31.006c.19-.021.219.068.176.224-.015.055-.02.112-.03.168" transform="translate(5173.166 -1396.147)" fill="#fefdfc"/>
        <path id="Path_96" data-name="Path 96" d="M359.164,284.448l.892.007a1.839,1.839,0,0,0,.143.488l-1.114.01a1.979,1.979,0,0,1,.08-.5" transform="translate(5204.205 -1404.109)" fill="#ec1b2e"/>
        <path id="Path_97" data-name="Path 97" d="M424.494,288.248a.358.358,0,0,1-.363.35.37.37,0,0,1-.36-.357.357.357,0,0,1,.365-.367.351.351,0,0,1,.358.374m-.076,0a.287.287,0,0,0-.573-.032.287.287,0,1,0,.573.032" transform="translate(5149.87 -1406.986)" fill="#e6e6e5"/>
        <path id="Path_98" data-name="Path 98" d="M306.56,284.148c.139-.016.173.041.133.192-.093.348-.253.512-.564.533-.126.008-.252-.008-.31-.143a.3.3,0,0,1,.087-.349,1.009,1.009,0,0,1,.654-.232" transform="translate(5248.969 -1403.855)" fill="#ec1b2e"/>
        <path id="Path_99" data-name="Path 99" d="M344.5,278.872a2.448,2.448,0,0,0-.291,0c-.2.024-.178-.069-.119-.2a.489.489,0,0,1,.51-.335.435.435,0,0,1,.369.392c.017.106-.019.143-.121.14s-.233,0-.35,0" transform="translate(5216.84 -1398.976)" fill="#ec1b2e"/>
        <path id="Path_100" data-name="Path 100" d="M412.37,279.593a.9.9,0,0,1-.547.874.3.3,0,0,1-.373-.11.98.98,0,0,1,.316-1.314.4.4,0,0,1,.538.194.735.735,0,0,1,.066.357" transform="translate(5160.336 -1399.534)" fill="#fcb230"/>
        <path id="Path_101" data-name="Path 101" d="M385.493,284.816a.207.207,0,0,1-.222-.1.318.318,0,0,1,.011-.314.883.883,0,0,1,.771-.308c.055.015.1.038.089.1a.613.613,0,0,1-.648.615" transform="translate(5182.241 -1403.804)" fill="#fcb230"/>
        <path id="Path_102" data-name="Path 102" d="M424.81,288.636a.287.287,0,1,1-.573-.032.287.287,0,0,1,.573.032m-.409.169c.1-.161.1-.161.233-.046-.048-.077.011-.132.02-.2.014-.091-.167-.167-.234-.092s-.034.188-.02.334" transform="translate(5149.479 -1407.378)" fill="#fcb230"/>
        <path id="Path_103" data-name="Path 103" d="M425.144,289.331c-.014-.147-.053-.253.02-.334s.247,0,.234.092c-.01.064-.068.119-.02.2-.135-.115-.135-.115-.233.046" transform="translate(5148.737 -1407.904)" fill="#e6e6e5"/>
      </g>
    </g>
    <g id="Group_640" data-name="Group 640">
      <rect id="Rectangle_64" data-name="Rectangle 64" width="33" height="23" rx="2" transform="translate(5618 -1164)" fill="url(#linear-gradient-2)"/>
      <g id="Group_636" data-name="Group 636" transform="translate(-27.595 -18)">
        <path id="Exclusion_1" data-name="Exclusion 1" d="M1.152,4H0L1.138,1.866l0-.006L2.132,0H3.594L3.76,1.81l.2,2.178H2.875a.809.809,0,0,1-.053-.312.982.982,0,0,0-.029-.244H1.46a.942.942,0,0,0-.143.269.972.972,0,0,1-.165.3ZM2.66.808l-.376.845,0,.006-.008.019-.44.989A1.926,1.926,0,0,1,2.1,2.65c.057,0,.113,0,.162,0h0l.151,0a1.055,1.055,0,0,0,.359-.051c-.023-.274-.036-.549-.048-.814C2.71,1.469,2.7,1.135,2.66.808Z" transform="translate(5663.677 -1140.892)" fill="#fefefe" stroke="rgba(0,0,0,0)" stroke-miterlimit="10" stroke-width="1"/>
        <path id="Path_105" data-name="Path 105" d="M570.628,274.312a22.291,22.291,0,0,1,3.859-1.476,20.1,20.1,0,0,1,6.559-.691c.294.015.587.058.889.089v1.281a2.364,2.364,0,0,1-.786-.1,19.269,19.269,0,0,0-4.944-.249,18.387,18.387,0,0,0-5.3,1.2.64.64,0,0,1-.114.022c-.084.036-.167.07-.161-.078" transform="translate(5085.763 -1407.907)" fill="#faa928"/>
        <path id="Path_106" data-name="Path 106" d="M562.816,246.767h-1.1a7.863,7.863,0,0,1-.177-1.257c-.08-.575-.123-1.154-.184-1.731a2.243,2.243,0,0,0-.044-.228c-.1-.463-.2-.564-.762-.8.293,0,.586-.008.879-.01s.592,0,.913,0c.08.856.126,1.7.22,2.56l1.387-2.544h1.136l-2.27,4.006" transform="translate(5094.085 -1383.653)" fill="#fefefe"/>
        <path id="Path_107" data-name="Path 107" d="M593.336,245.979l.52-.786a3.1,3.1,0,0,0,.788.347,1.67,1.67,0,0,0,.462.031.444.444,0,0,0,.455-.391.665.665,0,0,0-.366-.382,3.964,3.964,0,0,1-.691-.5,1.112,1.112,0,0,1,.114-1.77,2.016,2.016,0,0,1,1.635-.257,1.9,1.9,0,0,1,.891.419,8.363,8.363,0,0,1-.559.692c-.341-.189-.65-.459-1.072-.325a.377.377,0,0,0-.3.321.625.625,0,0,0,.316.372c.2.139.416.263.609.414a1.166,1.166,0,0,1-.312,2.113,2.842,2.842,0,0,1-2.493-.3" transform="translate(5067.01 -1383.213)" fill="#fefefe"/>
        <path id="Path_108" data-name="Path 108" d="M537.351,293.147h2.608v.769h-1.607v.7c.518.059,1.044,0,1.595.037a4.132,4.132,0,0,1,.014.754h-1.614v.754h1.593v.775h-2.588Z" transform="translate(5113.245 -1425.277)" fill="#fefefe"/>
        <path id="Exclusion_2" data-name="Exclusion 2" d="M1.649,3.018l-.091,0a1.426,1.426,0,0,1-1.45-.889A1.6,1.6,0,0,1,.492.382,1.6,1.6,0,0,1,1.546,0a1.741,1.741,0,0,1,.967.289,1.341,1.341,0,0,1,.571.8,1.6,1.6,0,0,1-.243,1.394A1.474,1.474,0,0,1,1.649,3.018ZM1.576.758H1.555a.569.569,0,0,0-.52.4,1.049,1.049,0,0,0,.008.759.547.547,0,0,0,.494.378h.036a.56.56,0,0,0,.521-.346,1,1,0,0,0,.089-.424.875.875,0,0,0-.069-.369A.567.567,0,0,0,1.576.758Z" transform="translate(5666.463 -1131.24)" fill="#fefefe" stroke="rgba(0,0,0,0)" stroke-miterlimit="10" stroke-width="1"/>
        <path id="Path_110" data-name="Path 110" d="M649.532,301.333c0-.914,0-1.78,0-2.645a.881.881,0,0,1,.022-.128h.886c.076.041.016.144.086.2a.277.277,0,0,0,.1-.026,1.3,1.3,0,0,1,.9-.283.756.756,0,0,1,.729.583,1.434,1.434,0,0,1,.071.418c0,.607,0,1.214,0,1.842a3.706,3.706,0,0,1-.976.028c-.04-.646.03-1.277-.023-1.887-.326-.223-.41-.213-.826.106v1.762a5.681,5.681,0,0,1-.967.027" transform="translate(5020.601 -1429.656)" fill="#fefefe"/>
        <path id="Exclusion_3" data-name="Exclusion 3" d="M1.533,3.011a1.947,1.947,0,0,1-.664-.12,1.243,1.243,0,0,1-.556-.4A1.448,1.448,0,0,1,.033,1.88,1.589,1.589,0,0,1,.492.405,1.561,1.561,0,0,1,1.55,0a1.461,1.461,0,0,1,.606.129,1.1,1.1,0,0,1,.521.48,1.936,1.936,0,0,1,.2.68,1.544,1.544,0,0,1,.006.269c0,.05,0,.1,0,.157H.965c.123.4.33.581.653.581a2.012,2.012,0,0,0,.826-.247l.212.373.1.172A2.131,2.131,0,0,1,1.533,3.011ZM1.568.61c-.246,0-.434.175-.544.506a3.385,3.385,0,0,0,.454.026c.087,0,.174,0,.258,0h.019c.077,0,.157,0,.236,0H2C1.988.79,1.9.655,1.657.617A.575.575,0,0,0,1.568.61Z" transform="translate(5655.442 -1131.218)" fill="#fefefe" stroke="rgba(0,0,0,0)" stroke-miterlimit="10" stroke-width="1"/>
        <path id="Path_112" data-name="Path 112" d="M601.076,295.354l-.416-.037c-.052-.225.05-.425.012-.613.119-.128.266-.031.414-.114v-.872h.932v.912h.763v.7h-.769a5.723,5.723,0,0,0,.01,1.3c.206.195.389.05.567.006a2.341,2.341,0,0,1,.211.61,1.584,1.584,0,0,1-1.256.253.58.58,0,0,1-.465-.511,3.952,3.952,0,0,1-.037-1.081c.011-.167.02-.335.033-.549" transform="translate(5060.975 -1425.749)" fill="#fefefe"/>
        <path id="Path_113" data-name="Path 113" d="M586.58,301.154a1.954,1.954,0,0,1-1.6.2,1.256,1.256,0,0,1-.9-.966,1.514,1.514,0,0,1,1.512-1.934,1.658,1.658,0,0,1,.975.251l-.3.61a1.338,1.338,0,0,0-.607-.081.682.682,0,0,0-.636.806.674.674,0,0,0,.744.623,2.978,2.978,0,0,0,.463-.114,2.553,2.553,0,0,1,.353.6" transform="translate(5074.693 -1429.663)" fill="#fdfefe"/>
        <path id="Path_114" data-name="Path 114" d="M585.214,242.762,584,246.736a8.9,8.9,0,0,1-1.1.038l1.22-4.032a9,9,0,0,1,1.086.02" transform="translate(5075.622 -1383.644)" fill="#fefefe"/>
        <rect id="Rectangle_61" data-name="Rectangle 61" width="0.904" height="4.143" transform="translate(5653.931 -1132.472)" fill="#fefefe"/>
        <path id="Path_115" data-name="Path 115" d="M617.744,298.565a4.269,4.269,0,0,1-.09.932.82.82,0,0,0-.918.27v1.587a4.062,4.062,0,0,1-.981.028c-.039-.93.04-1.832.033-2.751a4.715,4.715,0,0,1,.905-.033c.076.1.029.2.072.309a.874.874,0,0,1,.978-.342" transform="translate(5048.503 -1429.711)" fill="#fdfefe"/>
        <path id="Path_116" data-name="Path 116" d="M567.474,284.732c.024.087.1.067.161.078a1.1,1.1,0,0,1-.826.2,5.7,5.7,0,0,1,.665-.278" transform="translate(5088.917 -1418.327)" fill="#cf9c3d"/>
      </g>
    </g>
  </g>
</svg>
