<svg xmlns="http://www.w3.org/2000/svg" width="25" height="24.999" viewBox="0 0 25 24.999">
  <path id="Exclusion_1" data-name="Exclusion 1" d="M-2027,25h-21a2,2,0,0,1-2-2V2a2,2,0,0,1,2-2h21a2,2,0,0,1,2,2V23A2,2,0,0,1-2027,25Zm-19.093-7.2h0a9.824,9.824,0,0,0,5.372,1.586,9.574,9.574,0,0,0,7.421-3.258,10.346,10.346,0,0,0,2.574-6.741c0-.159,0-.311-.012-.453a7.121,7.121,0,0,0,1.751-1.82,7.1,7.1,0,0,1-2.015.554,3.51,3.51,0,0,0,1.544-1.943,6.962,6.962,0,0,1-2.229.852,3.524,3.524,0,0,0-2.562-1.113,3.515,3.515,0,0,0-3.509,3.513,3.462,3.462,0,0,0,.09.8A9.973,9.973,0,0,1-2044.9,6.11a3.516,3.516,0,0,0-.475,1.766,3.516,3.516,0,0,0,1.566,2.925,3.446,3.446,0,0,1-1.595-.438v.043a3.521,3.521,0,0,0,2.816,3.444,3.548,3.548,0,0,1-.924.123,3.344,3.344,0,0,1-.66-.066,3.512,3.512,0,0,0,3.281,2.44,7,7,0,0,1-4.361,1.5A7.192,7.192,0,0,1-2046.093,17.8Z" transform="translate(2050)" fill="#1ca1c1"/>
</svg>
