<svg xmlns="http://www.w3.org/2000/svg" width="13.999" height="15.001" viewBox="0 0 13.999 15.001">
  <path id="Shape_764_copy_2" data-name="Shape 764 copy 2" d="M2070.745,295.745a4.747,4.747,0,0,0,2.159-3.962,4.906,4.906,0,0,0-9.809,0,4.746,4.746,0,0,0,2.159,3.962A6.827,6.827,0,0,0,2061,302h1.4a5.54,5.54,0,0,1,5.57-5.437h.063A5.538,5.538,0,0,1,2073.6,302h1.4A6.826,6.826,0,0,0,2070.745,295.745Zm-6.252-3.962a3.508,3.508,0,1,1,3.538,3.418h-.063A3.466,3.466,0,0,1,2064.493,291.783Z" transform="translate(-2061.001 -287)" fill="#6d6d6d"/>
</svg>
