<svg xmlns="http://www.w3.org/2000/svg" width="11.25" height="13.125" viewBox="0 0 11.25 13.125">
  <path id="Path_721" data-name="Path 721" d="M1.055,6.328,5.391,1.963a.317.317,0,0,1,.234-.088.428.428,0,0,1,.264.088l4.336,4.365a.4.4,0,0,1,0,.5l-.234.205a.278.278,0,0,1-.234.117.364.364,0,0,1-.264-.117l-3.369-3.4v9.141a.35.35,0,0,1-.352.352H5.479a.35.35,0,0,1-.352-.352V3.633l-3.369,3.4a.364.364,0,0,1-.264.117.278.278,0,0,1-.234-.117l-.205-.205a.35.35,0,0,1-.117-.249.408.408,0,0,1,.088-.249ZM0,.352A.339.339,0,0,1,.1.1.339.339,0,0,1,.352,0H10.9a.339.339,0,0,1,.249.1.339.339,0,0,1,.1.249V.586a.339.339,0,0,1-.1.249.339.339,0,0,1-.249.1H.352A.339.339,0,0,1,.1.835.339.339,0,0,1,0,.586Z" transform="translate(11.25 13.125) rotate(180)" fill="#0fa1c1"/>
</svg>
