<svg xmlns="http://www.w3.org/2000/svg" width="14.492" height="14.383" viewBox="0 0 14.492 14.383">
  <g id="paperclip" fill="none" stroke-linecap="round" stroke-linejoin="round">
    <path d="M13.432,6.889l-6,5.659a3.929,3.929,0,0,1-1.3.812,4.147,4.147,0,0,1-2.947,0,3.93,3.93,0,0,1-1.3-.812,3.676,3.676,0,0,1-.86-1.223,3.516,3.516,0,0,1,0-2.781A3.675,3.675,0,0,1,1.9,7.32L7.891,1.662a2.621,2.621,0,0,1,.864-.542,2.767,2.767,0,0,1,1.966,0,2.62,2.62,0,0,1,.864.541,2.45,2.45,0,0,1,.574.815,2.344,2.344,0,0,1,0,1.855,2.452,2.452,0,0,1-.574.815l-6,5.659a1.309,1.309,0,0,1-.432.271,1.382,1.382,0,0,1-.982,0,1.31,1.31,0,0,1-.432-.271,1.225,1.225,0,0,1-.287-.408,1.172,1.172,0,0,1,0-.927,1.225,1.225,0,0,1,.287-.408L9.274,3.841" stroke="none"/>
    <path d="M 4.664464473724365 14.37950134277344 C 4.354984760284424 14.37940406799316 4.050010681152344 14.35074710845947 3.752895593643188 14.29484462738037 C 3.455788135528564 14.2389440536499 3.166539669036865 14.15580177307129 2.888505697250366 14.04673290252686 C 2.610477924346924 13.93766689300537 2.343663215637207 13.80267715454102 2.091415166854858 13.64307880401611 C 1.839173197746277 13.48348617553711 1.601497292518616 13.29928493499756 1.381741046905518 13.09179401397705 C 1.15897536277771 12.8814640045166 0.961234450340271 12.65360546112061 0.7899290919303894 12.41144752502441 C 0.6186267733573914 12.1692943572998 0.4737583994865417 11.91283988952637 0.3567355275154114 11.64531230926514 C 0.2397137582302094 11.37778854370117 0.1505362391471863 11.09919166564941 0.09061428904533386 10.81274795532227 C 0.03069265745580196 10.52630615234375 2.586041409813333e-05 10.23201847076416 2.586041409813333e-05 9.933111190795898 C 2.586041409813333e-05 9.63420581817627 0.03069325350224972 9.339926719665527 0.09061560034751892 9.053501129150391 C 0.1505383849143982 8.767073631286621 0.2397168576717377 8.488496780395508 0.356739342212677 8.220999717712402 C 0.4737629294395447 7.953499794006348 0.6186315417289734 7.69707727432251 0.7899333834648132 7.45496129989624 C 0.9612382650375366 7.212841987609863 1.158977746963501 6.985028743743896 1.381741046905518 6.774747371673584 L 7.376268863677979 1.116172790527344 C 7.538986682891846 0.9625760316848755 7.714461326599121 0.8281676173210144 7.899506568908691 0.7129489779472351 C 8.084552764892578 0.5977282524108887 8.279170989990234 0.5016977190971375 8.480169296264648 0.4248584806919098 C 8.681173324584961 0.3480180203914642 8.888556480407715 0.2903694808483124 9.099133491516113 0.2519143521785736 C 9.309714317321777 0.213458389043808 9.52348804473877 0.1941966116428375 9.737265586853027 0.1941304504871368 C 9.951048851013184 0.1940642595291138 10.16483402252197 0.2131944596767426 10.37543296813965 0.2515225112438202 C 10.58603858947754 0.2898512184619904 10.79345703125 0.3473784029483795 10.99449920654297 0.4241056144237518 C 11.19554424285889 0.5008341670036316 11.39021492004395 0.5967634320259094 11.5753173828125 0.7118943333625793 C 11.760422706604 0.8270273208618164 11.93596076965332 0.9613624811172485 12.09874248504639 1.114901185035706 C 12.26004028320312 1.267041921615601 12.40322303771973 1.431941986083984 12.52726936340332 1.607261776924133 C 12.6513147354126 1.782583475112915 12.75622177124023 1.968324780464172 12.84096717834473 2.162145614624023 C 12.9257116317749 2.355967998504639 12.99029445648193 2.557869434356689 13.03369045257568 2.765510559082031 C 13.0770845413208 2.973151922225952 13.0992956161499 3.186532974243164 13.0992956161499 3.40331244468689 C 13.0992956161499 3.620089292526245 13.0770845413208 3.833474636077881 13.03369045257568 4.041130542755127 C 12.99029445648193 4.248785018920898 12.9257116317749 4.45070743560791 12.84096527099609 4.644558906555176 C 12.7562198638916 4.838408470153809 12.65131187438965 5.024185180664062 12.52726554870605 5.199550628662109 C 12.40321731567383 5.374913215637207 12.26003360748291 5.539864540100098 12.09873294830322 5.692062377929688 L 6.094909191131592 11.35088539123535 C 5.995888710021973 11.44431781768799 5.889098644256592 11.52606678009033 5.776480674743652 11.59613609313965 C 5.663863182067871 11.66620540618896 5.545418262481689 11.72459030151367 5.423089027404785 11.77129554748535 C 5.300760746002197 11.8179988861084 5.174548149108887 11.85302066802979 5.046394348144531 11.8763599395752 C 4.918241500854492 11.89969921112061 4.78814697265625 11.91135597229004 4.658052921295166 11.91133213043213 C 4.527929782867432 11.91130924224854 4.397806644439697 11.89959812164307 4.269625663757324 11.87620067596436 C 4.141447067260742 11.85280227661133 4.015209674835205 11.81771945953369 3.892855167388916 11.77094841003418 C 3.770502328872681 11.72417831420898 3.652032136917114 11.66572284698486 3.539385557174683 11.59558010101318 C 3.426739692687988 11.5254373550415 3.319917917251587 11.44360828399658 3.220860719680786 11.35009384155273 C 3.121315956115723 11.25612354278564 3.032952308654785 11.15419960021973 2.95640230178833 11.04577255249023 C 2.879852056503296 10.93734550476074 2.81511378288269 10.82241535186768 2.762819290161133 10.70242786407471 C 2.710524797439575 10.58244228363037 2.67067289352417 10.45739841461182 2.643894910812378 10.32874965667725 C 2.617116928100586 10.20009899139404 2.603412628173828 10.06784057617188 2.603412628173828 9.933422088623047 C 2.603412628173828 9.79900074005127 2.617116928100586 9.666744232177734 2.643894910812378 9.53809928894043 C 2.67067289352417 9.409453392028809 2.710524797439575 9.284420013427734 2.762819290161133 9.164444923400879 C 2.81511378288269 9.044469833374023 2.879852056503296 8.929553985595703 2.95640230178833 8.821145057678223 C 3.032952308654785 8.712734222412109 3.121315956115723 8.610832214355469 3.220860719680786 8.516881942749023 L 8.759894371032715 3.29526948928833 C 8.796088218688965 3.261149406433105 8.834781646728516 3.231329441070557 8.875343322753906 3.20579195022583 C 8.915903091430664 3.180254220962524 8.958332061767578 3.158998489379883 9.001998901367188 3.142007112503052 C 9.045663833618164 3.125015735626221 9.090567588806152 3.112288475036621 9.136075019836426 3.103806495666504 C 9.181583404541016 3.095324754714966 9.22769832611084 3.091089010238647 9.273788452148438 3.091080665588379 C 9.323637008666992 3.091071367263794 9.373456954956055 3.096005201339722 9.422451019287109 3.105858564376831 C 9.471445083618164 3.11571192741394 9.519615173339844 3.130485057830811 9.566164016723633 3.150155067443848 C 9.612711906433105 3.169825077056885 9.657639503479004 3.194391250610352 9.700149536132812 3.223830938339233 C 9.742659568786621 3.253270864486694 9.78275203704834 3.287584543228149 9.819632530212402 3.326748847961426 C 9.890613555908203 3.402120590209961 9.942963600158691 3.488319635391235 9.976851463317871 3.579661130905151 C 10.0107421875 3.671002864837646 10.02616882324219 3.767486810684204 10.02330684661865 3.86342716217041 C 10.02044296264648 3.959367275238037 9.999288558959961 4.054763317108154 9.960013389587402 4.14393138885498 C 9.920736312866211 4.233098030090332 9.863341331481934 4.316036224365234 9.787993431091309 4.387059211730957 L 4.248783111572266 9.608343124389648 C 4.22514820098877 9.630646705627441 4.204157829284668 9.654600143432617 4.185965538024902 9.679866790771484 C 4.167774677276611 9.705134391784668 4.152381896972656 9.731712341308594 4.139944076538086 9.759267807006836 C 4.127505779266357 9.786821365356445 4.11802339553833 9.815350532531738 4.111648559570312 9.844516754150391 C 4.105274677276611 9.873683929443359 4.102010250091553 9.903489112854004 4.102010250091553 9.933595657348633 C 4.102010250091553 9.963699340820312 4.105274677276611 9.993504524230957 4.111653327941895 10.02267646789551 C 4.118032932281494 10.05185031890869 4.127525806427002 10.08038997650146 4.139984130859375 10.10796642303467 C 4.15244197845459 10.13554096221924 4.167864799499512 10.16215229034424 4.186100959777832 10.18746280670166 C 4.204337596893311 10.21277523040771 4.225388526916504 10.23678970336914 4.24910306930542 10.25917148590088 C 4.27680492401123 10.28532123565674 4.306894302368164 10.30820274353027 4.338775157928467 10.32781600952148 C 4.370656967163086 10.34743022918701 4.404329299926758 10.3637752532959 4.43919563293457 10.37685298919678 C 4.474061965942383 10.38992977142334 4.510123252868652 10.39973926544189 4.546781539916992 10.40628147125244 C 4.583439826965332 10.41282272338867 4.620695114135742 10.41609668731689 4.657949447631836 10.41610145568848 C 4.695205211639404 10.41610717773438 4.732460021972656 10.41284465789795 4.769117832183838 10.40631294250488 C 4.805775165557861 10.39978122711182 4.841836452484131 10.38998317718506 4.876702308654785 10.37691402435303 C 4.911569118499756 10.36384677886963 4.945242881774902 10.34751224517822 4.977124214172363 10.32790756225586 C 5.009006500244141 10.3083028793335 5.039097309112549 10.28543090820312 5.066801071166992 10.2592887878418 L 11.07008457183838 4.600423812866211 C 11.15541172027588 4.519904136657715 11.23116302490234 4.432943344116211 11.29679679870605 4.340768337249756 C 11.36242961883545 4.248592376708984 11.41794300079346 4.151203155517578 11.46279048919678 4.049827575683594 C 11.50763893127441 3.948451995849609 11.54182147979736 3.843090295791626 11.56479072570801 3.734970092773438 C 11.58776187896729 3.626851081848145 11.59951877593994 3.515973329544067 11.59951877593994 3.403566122055054 C 11.59951877593994 3.291156530380249 11.58776187896729 3.180281400680542 11.56478595733643 3.072163581848145 C 11.5418119430542 2.964046478271484 11.5076208114624 2.858687162399292 11.46275329589844 2.757308721542358 C 11.41788673400879 2.655931234359741 11.36234474182129 2.558534622192383 11.29666996002197 2.466342926025391 C 11.23099422454834 2.374151706695557 11.15518665313721 2.287165880203247 11.06978607177734 2.206607818603516 C 10.97793674468994 2.119964838027954 10.87888622283936 2.044156789779663 10.77443981170654 1.979183554649353 C 10.66999435424805 1.91421115398407 10.56014823913574 1.860073328018188 10.44670295715332 1.816769361495972 C 10.33325958251953 1.773466348648071 10.21621704101562 1.740996718406677 10.09737586975098 1.719360113143921 C 9.978537559509277 1.697724342346191 9.85789966583252 1.686921358108521 9.737261772155762 1.686950445175171 C 9.616625785827637 1.686980009078979 9.495992660522461 1.697841763496399 9.377159118652344 1.71953547000885 C 9.258327484130859 1.741228342056274 9.141295433044434 1.773752927780151 9.027866363525391 1.817108154296875 C 8.914436340332031 1.86046302318573 8.804607391357422 1.914648294448853 8.700178146362305 1.979664087295532 C 8.59575080871582 2.044679403305054 8.496722221374512 2.120524168014526 8.40489387512207 2.207198619842529 L 2.409818172454834 7.865742683410645 C 2.262861013412476 8.004451751708984 2.132411241531372 8.154375076293945 2.019400358200073 8.313400268554688 C 1.906390190124512 8.472423553466797 1.810817956924438 8.640547752380371 1.733615398406982 8.815661430358887 C 1.656413435935974 8.99077320098877 1.597580075263977 9.172872543334961 1.558047413825989 9.359848022460938 C 1.51851487159729 9.546821594238281 1.498282790184021 9.73867130279541 1.498282790184021 9.933283805847168 C 1.498282790184021 10.12789916992188 1.51851487159729 10.3197546005249 1.558047413825989 10.50673961639404 C 1.597580075263977 10.6937255859375 1.656413435935974 10.87584018707275 1.733615398406982 11.05097007751465 C 1.810817956924438 11.22610092163086 1.906390190124512 11.39424705505371 2.019400358200073 11.553297996521 C 2.132411241531372 11.71234893798828 2.262861013412476 11.86230373382568 2.409818172454834 12.00104808807373 C 2.565205812454224 12.14774799346924 2.732776880264282 12.27611923217773 2.909486532211304 12.3861608505249 C 3.086198806762695 12.4962043762207 3.272049903869629 12.58791542053223 3.463994741439819 12.66129684448242 C 3.655942440032959 12.73468017578125 3.853985786437988 12.78973197937012 4.05507755279541 12.82645034790039 C 4.256172180175781 12.86316776275635 4.460317134857178 12.88155364990234 4.66446590423584 12.88160419464111 C 4.868618488311768 12.88165378570557 5.072772979736328 12.86336708068848 5.273886680603027 12.82674503326416 C 5.475003719329834 12.79012298583984 5.673078060150146 12.7351598739624 5.865063667297363 12.66186046600342 C 6.057053089141846 12.58856105804443 6.242953300476074 12.49692153930664 6.419717788696289 12.38694381713867 C 6.596485137939453 12.27696132659912 6.764116287231445 12.14863967895508 6.919564247131348 12.00197601318359 L 12.91699123382568 6.343391418457031 C 12.95320606231689 6.309221744537354 12.99192905426025 6.279358863830566 13.03252792358398 6.253784656524658 C 13.07312488555908 6.228209972381592 13.11559772491455 6.206924438476562 13.15931034088135 6.189908981323242 C 13.20302391052246 6.17289400100708 13.24797630310059 6.160149097442627 13.29353713989258 6.15165901184082 C 13.33909702301025 6.143167495727539 13.38526439666748 6.138929843902588 13.43140602111816 6.138927459716797 C 13.48123741149902 6.138925075531006 13.53104114532471 6.143858909606934 13.5800199508667 6.153705596923828 C 13.62899589538574 6.163551807403564 13.67714977264404 6.1783127784729 13.72368621826172 6.197964191436768 C 13.77022457122803 6.217615604400635 13.81514358520508 6.24215841293335 13.85764980316162 6.27156925201416 C 13.9001579284668 6.300981044769287 13.94025325775146 6.335260391235352 13.97714424133301 6.374386310577393 C 14.04819202423096 6.449741840362549 14.10060882568359 6.535933971405029 14.13456249237061 6.627277374267578 C 14.16851711273193 6.718622207641602 14.18400764465332 6.815117359161377 14.1811990737915 6.91107702255249 C 14.17838859558105 7.007036209106445 14.15728378295898 7.102460861206055 14.11804580688477 7.191661834716797 C 14.07880783081055 7.280864715576172 14.02143955230713 7.363844394683838 13.9461030960083 7.434915065765381 L 7.948138236999512 13.0934591293335 C 7.72826099395752 13.30089378356934 7.490462779998779 13.48501491546631 7.238101005554199 13.64450836181641 C 6.985744953155518 13.80399799346924 6.718828201293945 13.93886089324951 6.440706729888916 14.0477819442749 C 6.16259241104126 14.15669918060303 5.873274326324463 14.23967838287354 5.576111316680908 14.29540348052979 C 5.278955459594727 14.35112571716309 4.973953723907471 14.37959671020508 4.664464473724365 14.37950134277344 Z" stroke="none" fill="#0fa1c1"/>
  </g>
</svg>
