<svg xmlns="http://www.w3.org/2000/svg" width="18" height="19" viewBox="0 0 18 19">
  <path id="add_attendee" d="M4960,14.5a3.5,3.5,0,1,1,3.5,3.5A3.5,3.5,0,0,1,4960,14.5Zm1,.5h2v2h1V15h2V14h-2V12h-1v2h-2Zm-9.6,0H4950a6.817,6.817,0,0,1,4.253-6.254,4.749,4.749,0,0,1-2.159-3.963,4.905,4.905,0,0,1,9.808,0,4.746,4.746,0,0,1-2.159,3.963,7.017,7.017,0,0,1,1.4.782,5.478,5.478,0,0,0-1.255.821,5.691,5.691,0,0,0-2.861-.785h-.062A5.55,5.55,0,0,0,4951.4,15h0Zm2.1-10.217a3.471,3.471,0,0,0,3.475,3.418h.063a3.473,3.473,0,0,0,3.477-3.418,3.508,3.508,0,0,0-7.014,0Z" transform="translate(-4949.499 0.5)" fill="#fff" stroke="rgba(0,0,0,0)" stroke-width="1"/>
</svg>
