<svg xmlns="http://www.w3.org/2000/svg" width="14.351" height="14.297" viewBox="0 0 14.351 14.297">
  <path id="Path_45" data-name="Path 45" d="M13.918,4.036l-10.055,10-2.533.28A1.157,1.157,0,0,1,.053,13.038l.28-2.533,10.055-10a1.635,1.635,0,0,1,2.317,0l1.21,1.21a1.641,1.641,0,0,1,0,2.32ZM11.15,4.9,9.522,3.274l-7.9,7.85-.2,1.829,1.829-.2Zm1.815-2.233-1.21-1.21a.293.293,0,0,0-.415,0l-.866.866L12.1,3.952l.866-.866A.3.3,0,0,0,12.965,2.669Z" transform="translate(-0.045 -0.025)" fill="#0fa1c1"/>
</svg>
