<svg xmlns="http://www.w3.org/2000/svg" width="12.25" height="14" viewBox="0 0 12.25 14">
  <path id="delete" d="M5.25-7.109a.316.316,0,0,0-.1-.232.316.316,0,0,0-.232-.1H4.266a.316.316,0,0,0-.232.1.316.316,0,0,0-.1.232V-1.2a.316.316,0,0,0,.1.232.316.316,0,0,0,.232.1h.656a.316.316,0,0,0,.232-.1.316.316,0,0,0,.1-.232Zm2.078-.328a.316.316,0,0,0-.232.1.316.316,0,0,0-.1.232V-1.2a.316.316,0,0,0,.1.232.316.316,0,0,0,.232.1h.656a.316.316,0,0,0,.232-.1.316.316,0,0,0,.1-.232V-7.109a.316.316,0,0,0-.1-.232.316.316,0,0,0-.232-.1Zm4.266-2.625H9.57l-.93-1.559a1.335,1.335,0,0,0-.492-.465,1.348,1.348,0,0,0-.656-.164H4.758a1.348,1.348,0,0,0-.656.164,1.335,1.335,0,0,0-.492.465l-.93,1.559H.656a.633.633,0,0,0-.465.191A.633.633,0,0,0,0-9.406v.328a.316.316,0,0,0,.1.232.316.316,0,0,0,.232.1H.875V.437a1.266,1.266,0,0,0,.383.93,1.266,1.266,0,0,0,.93.383h7.875a1.266,1.266,0,0,0,.93-.383,1.266,1.266,0,0,0,.383-.93V-8.75h.547a.316.316,0,0,0,.232-.1.316.316,0,0,0,.1-.232v-.328a.633.633,0,0,0-.191-.465A.633.633,0,0,0,11.594-10.062Zm-7.383,0,.492-.793a.161.161,0,0,1,.137-.082H7.41a.161.161,0,0,1,.137.082l.492.793ZM10.062-8.75V.273a.158.158,0,0,1-.055.109A.158.158,0,0,1,9.9.437H2.352A.158.158,0,0,1,2.242.383.158.158,0,0,1,2.187.273V-8.75Z" transform="translate(0 12.25)" fill="#0fa1c1"/>
</svg>
