<svg xmlns="http://www.w3.org/2000/svg" width="16.999" height="13" viewBox="0 0 16.999 13">
  <path id="Shape_773" data-name="Shape 773" d="M2076.277,334.906v-4.992a.949.949,0,0,0-.974-.915H2061.7a.948.948,0,0,0-.973.915v5A3.633,3.633,0,0,0,2060,337.2V342h1.56v-3.551h13.881V342H2077v-4.8A3.63,3.63,0,0,0,2076.277,334.906Zm-13.854.443a6.817,6.817,0,0,1,3.524-.96c.622-.037,1.6-.06,2.623-.06h0c1,0,1.9.021,2.471.059a7.512,7.512,0,0,1,3.343.831,2.046,2.046,0,0,1,1.048,1.766h-13.866A2.053,2.053,0,0,1,2062.423,335.349Zm12.294-4.885v3.25a10.175,10.175,0,0,0-3.566-.787c-.646-.043-1.611-.063-2.582-.063-1.019,0-2.044.022-2.722.063a9.828,9.828,0,0,0-3.566.784v-3.247Z" transform="translate(-2059.999 -329)" fill="#6d6d6d"/>
</svg>
