<svg xmlns="http://www.w3.org/2000/svg" width="12.2" height="12.338" viewBox="0 0 12.2 12.338">
  <path id="publish_FILL0_wght300_GRAD0_opsz48" d="M186-774.784a.432.432,0,0,1-.323-.13.444.444,0,0,1-.128-.323v-6.928l-1.888,1.9a.424.424,0,0,1-.316.132.455.455,0,0,1-.324-.144.452.452,0,0,1-.142-.33.428.428,0,0,1,.142-.322l2.578-2.578a.631.631,0,0,1,.191-.135.532.532,0,0,1,.216-.044.507.507,0,0,1,.212.044.649.649,0,0,1,.187.135l2.591,2.591a.446.446,0,0,1,.138.316.432.432,0,0,1-.138.324.434.434,0,0,1-.326.138.463.463,0,0,1-.326-.145l-1.888-1.875v6.928a.437.437,0,0,1-.131.323A.444.444,0,0,1,186-774.784Zm-5.546-8.494a.432.432,0,0,1-.323-.13.444.444,0,0,1-.128-.323v-2.037a1.109,1.109,0,0,1,.342-.812,1.109,1.109,0,0,1,.812-.342h9.692a1.109,1.109,0,0,1,.812.342,1.109,1.109,0,0,1,.342.812v2.037a.437.437,0,0,1-.131.323.445.445,0,0,1-.326.13.432.432,0,0,1-.323-.13.444.444,0,0,1-.128-.323v-2.037a.235.235,0,0,0-.077-.169.235.235,0,0,0-.169-.077h-9.692a.235.235,0,0,0-.169.077.235.235,0,0,0-.077.169v2.037a.437.437,0,0,1-.131.323A.444.444,0,0,1,180.451-783.277Z" transform="translate(-179.901 787.022)" fill="#fff" stroke="#fff" stroke-width="0.2"/>
</svg>
