<svg xmlns="http://www.w3.org/2000/svg" xmlns:xlink="http://www.w3.org/1999/xlink" width="150" height="32.118" viewBox="0 0 150 32.118">
  <defs>
    <clipPath id="clip-path">
      <rect id="Rectangle_1012" data-name="Rectangle 1012" width="150" height="32.118" transform="translate(0)" fill="none"/>
    </clipPath>
  </defs>
  <g id="Group_2562" data-name="Group 2562" transform="translate(-0.001)">
    <g id="Group_277" data-name="Group 277" transform="translate(0.001)" clip-path="url(#clip-path)">
      <path id="Path_587" data-name="Path 587" d="M9.468,26.914a.486.486,0,0,1,.55.55v1.5c0,.367-.183.514-.55.514H2.789v8.881H8.4c.367,0,.55.147.55.514v1.5c0,.367-.183.514-.55.514H2.789v9.138H9.468a.486.486,0,0,1,.55.55v1.5c0,.367-.183.514-.55.514H.55A.487.487,0,0,1,0,52.051V27.464a.486.486,0,0,1,.55-.55Z" transform="translate(0 -20.851)" fill="#192f38"/>
      <path id="Path_588" data-name="Path 588" d="M53.588,77.842c-.22,0-.33-.147-.44-.33-1.321-2.2-3.486-6.055-3.486-9.431V59.934a.4.4,0,0,1,.4-.44h1.945a.4.4,0,0,1,.4.44v8.477c0,2.5,1.8,5.945,2.606,7.449h.037c.771-1.5,2.606-4.954,2.606-7.449V59.934a.4.4,0,0,1,.4-.44h1.908a.4.4,0,0,1,.4.44v8.147c0,3.376-2.165,7.229-3.486,9.431-.11.183-.22.33-.44.33Z" transform="translate(-38.474 -46.092)" fill="#192f38"/>
      <path id="Path_589" data-name="Path 589" d="M115.405,71.846v-.4a.5.5,0,0,1,.551-.551h1.651a.5.5,0,0,1,.551.551v.22c0,3.266-1.872,5.284-5.725,5.284-3.743,0-5.688-2.165-5.688-6.312V64.25c0-4.147,1.982-6.385,5.725-6.385,4.147,0,5.761,2.5,5.761,6.972V67.7a.486.486,0,0,1-.55.55H109.5v2.605c0,2.459.807,3.633,2.936,3.633,2.349,0,2.972-.991,2.972-2.642m.073-7.926c0-2.459-.7-3.6-3.009-3.6-2.165,0-2.972,1.321-2.972,3.743v1.908h5.982Z" transform="translate(-82.699 -44.83)" fill="#192f38"/>
      <path id="Path_590" data-name="Path 590" d="M173.139,60.249a5.472,5.472,0,0,1,4.551-2.385c2.936,0,4.33,1.945,4.33,4.991V76.029a.487.487,0,0,1-.551.55h-1.651a.487.487,0,0,1-.551-.55v-13.1c0-1.688-.661-2.642-2.385-2.642a3.231,3.231,0,0,0-3.45,3.56V76.029a.486.486,0,0,1-.55.55H171.23a.486.486,0,0,1-.55-.55V58.782a.5.5,0,0,1,.55-.551h1.395c.367,0,.514.22.514.551Z" transform="translate(-132.231 -44.829)" fill="#192f38"/>
      <path id="Path_591" data-name="Path 591" d="M235.616,63.584a.545.545,0,0,1-.33.587,6.153,6.153,0,0,1-2.826.661c-2.973,0-4.22-1.651-4.22-4.881V48.391h-2.165a.449.449,0,0,1-.514-.514V46.63a.449.449,0,0,1,.514-.514h2.275l.22-3.376c.037-.33.184-.514.514-.514h1.284c.367,0,.514.22.514.551v3.339h4.073a.449.449,0,0,1,.514.514v1.248a.449.449,0,0,1-.514.514h-3.963v11.67c0,1.431.44,2.312,1.688,2.312a4.9,4.9,0,0,0,2.459-.624c.257-.147.477-.037.477.33Z" transform="translate(-174.749 -32.714)" fill="#192f38"/>
      <path id="Path_592" data-name="Path 592" d="M282.244,27.464a.5.5,0,0,1,.55-.55h4.917c3.67,0,5.8,2.165,5.8,6.568V34.4a5.737,5.737,0,0,1-2.569,5.138c2.018.917,2.789,2.862,2.789,5.211v1.284c0,4.4-2.312,6.569-5.982,6.569h-4.954a.486.486,0,0,1-.55-.55ZM285,38.363h2.826c1.8-.036,2.9-1.358,2.9-3.817V33.3c0-2.532-1.174-3.853-3.156-3.853H285Zm0,11.706h2.752c1.982,0,3.193-1.284,3.193-3.816V44.418c0-2.532-1.211-3.743-3.193-3.743H285Z" transform="translate(-218.662 -20.851)" fill="#192f38"/>
      <path id="Path_593" data-name="Path 593" d="M352.189,75.824a4.649,4.649,0,0,1-4.184,2.385c-2.826,0-4.7-1.982-4.7-5.138V60.044a.5.5,0,0,1,.551-.55h1.651a.5.5,0,0,1,.55.55V72.962c0,1.835.918,2.826,2.532,2.826,2.092,0,3.3-1.431,3.3-3.6V60.044a.5.5,0,0,1,.55-.55H354.1a.5.5,0,0,1,.55.55V77.292a.487.487,0,0,1-.55.551H352.7c-.367,0-.514-.184-.514-.551Z" transform="translate(-265.97 -46.092)" fill="#192f38"/>
      <path id="Path_594" data-name="Path 594" d="M409.208,40.571a.524.524,0,0,1-.588.587h-1.871a.524.524,0,0,1-.587-.587v-1.5a.524.524,0,0,1,.587-.587h1.871a.524.524,0,0,1,.588.587Zm-.147,20.44a.486.486,0,0,1-.55.55h-1.651a.486.486,0,0,1-.551-.55V43.763a.5.5,0,0,1,.551-.551h1.651a.5.5,0,0,1,.55.551Z" transform="translate(-314.665 -29.811)" fill="#192f38"/>
      <path id="Path_595" data-name="Path 595" d="M427.866,60.007a.449.449,0,0,1,.514-.514H438.1a.449.449,0,0,1,.514.514v1.651a.9.9,0,0,1-.147.44l-8.184,13.358H438.1a.449.449,0,0,1,.514.514v1.358a.449.449,0,0,1-.514.514H427.829a.449.449,0,0,1-.514-.514V75.787a1.024,1.024,0,0,1,.184-.624l8.147-13.248h-7.266a.449.449,0,0,1-.514-.514Z" transform="translate(-331.053 -46.091)" fill="#192f38"/>
      <path id="Path_596" data-name="Path 596" d="M486.184,60.007a.449.449,0,0,1,.514-.514h9.725a.449.449,0,0,1,.514.514v1.651a.9.9,0,0,1-.147.44l-8.184,13.358h7.816a.449.449,0,0,1,.514.514v1.358a.449.449,0,0,1-.514.514H486.147a.449.449,0,0,1-.514-.514V75.787a1.025,1.025,0,0,1,.184-.624l8.147-13.248H486.7a.449.449,0,0,1-.514-.514Z" transform="translate(-376.234 -46.091)" fill="#192f38"/>
      <path id="Path_597" data-name="Path 597" d="M557.85,15.795l-.107.245A8.341,8.341,0,0,1,553.98,20.2a8.639,8.639,0,0,1-2.964.922l.5-3.249a3.773,3.773,0,0,1,2.311-2.689,6.189,6.189,0,0,1,3.2-.633l.848.131.059-.885c.013-.138.03-.279.046-.419l-2.384-.367c-5.54-.854-5.3-5.241-5.1-6.565l.735-4.766a14.671,14.671,0,0,1,3.934,2.182A8.973,8.973,0,0,1,558.713,9.7l.027.183a14.054,14.054,0,0,1,.616-1.528c.08-.17.165-.334.25-.5a10.634,10.634,0,0,0-3.653-5.036A15.667,15.667,0,0,0,550.876.19l-.7-.19-.963,6.249a6.689,6.689,0,0,0,1.462,5.7,7.1,7.1,0,0,0,2.948,1.909,5.122,5.122,0,0,0-3.391,3.819l-.736,4.774.734.026h.089a9.616,9.616,0,0,0,4.235-1.1,9.31,9.31,0,0,0,3.489-3.185c-.038-.24-.07-.486-.1-.738-.058-.54-.087-1.1-.092-1.657" transform="translate(-425.404)" fill="#d97594"/>
      <path id="Path_598" data-name="Path 598" d="M608.119,4.812c-.026,0-.164-.005-.4-.005l-.259,0c-.1,0-.2.005-.315.01s-.236.011-.367.019c-.288.018-.583.043-.874.074-.16.017-.327.037-.5.059l-.263.036c-.38.055-.761.121-1.132.2q-.3.06-.606.133t-.628.159c-.444.121-.882.258-1.3.407q-.166.059-.333.122a12.959,12.959,0,0,0-7.31,6.486,14.146,14.146,0,0,0-1.177,3.916c-.062.4-.111.8-.15,1.191l-.074,1.127a16.342,16.342,0,0,0,.079,2.321,12.048,12.048,0,0,0,3.376,7.362,11.687,11.687,0,0,0,4.685,2.905l.825.229.9-5.871c.32-2.072-.649-4.168-2.669-5.824a8.811,8.811,0,0,0,4.308-1.155,7.39,7.39,0,0,0,2.771-2.89,8.96,8.96,0,0,0,.578-1.3,10.6,10.6,0,0,0,.4-1.455c.034-.17.064-.342.091-.517l1.187-7.7ZM600.8,25.462l-.632,4.1a10.741,10.741,0,0,1-3.2-2.2,10.887,10.887,0,0,1-3.026-8.188l1.535.246a7.735,7.735,0,0,1,3.578,1.958,4.727,4.727,0,0,1,1.746,4.089m6.4-19.118-.921,5.974A7.986,7.986,0,0,1,604.5,16.3c-1.528,1.732-3.806,2.379-6.769,1.922l-3.7-.586c.034-.319.076-.646.127-.977a13.582,13.582,0,0,1,.582-2.376c.086-.247.18-.491.279-.725a10.939,10.939,0,0,1,.684-1.349c.127-.213.263-.423.4-.625a10.25,10.25,0,0,1,.686-.875c.162-.185.334-.368.51-.542s.362-.345.552-.508a11.347,11.347,0,0,1,1.231-.917c.218-.141.446-.278.678-.408q.175-.1.355-.192c.238-.124.488-.244.742-.358s.52-.223.785-.324A18.293,18.293,0,0,1,607.2,6.345" transform="translate(-458.967 -3.724)" fill="#d34f72"/>
    </g>
  </g>
</svg>
