<svg xmlns="http://www.w3.org/2000/svg" width="13.26" height="15.99" viewBox="0 0 13.26 15.99">
  <g id="Group_2207" data-name="Group 2207" transform="translate(-16 -961.362)">
    <path id="Path_843" data-name="Path 843" d="M22.63,961.362a4.289,4.289,0,0,0-4.29,4.29v2.34H17.17a1.176,1.176,0,0,0-1.17,1.17v7.02a1.176,1.176,0,0,0,1.17,1.17H28.09a1.176,1.176,0,0,0,1.17-1.17v-7.02a1.176,1.176,0,0,0-1.17-1.17H26.92v-2.34A4.289,4.289,0,0,0,22.63,961.362Zm0,.78a3.494,3.494,0,0,1,3.51,3.51v2.34H19.12v-2.34A3.494,3.494,0,0,1,22.63,962.142Zm-5.46,6.63H28.09a.381.381,0,0,1,.39.39v7.02a.381.381,0,0,1-.39.39H17.17a.381.381,0,0,1-.39-.39v-7.02A.381.381,0,0,1,17.17,968.772Zm5.46,1.56a1.566,1.566,0,0,0-1.56,1.56,1.521,1.521,0,0,0,.39.987v.963a1.17,1.17,0,0,0,2.34,0v-.963a1.521,1.521,0,0,0,.39-.987A1.566,1.566,0,0,0,22.63,970.332Zm0,.78a.777.777,0,0,1,.518,1.359.39.39,0,0,0-.128.293v1.079a.39.39,0,0,1-.78,0v-1.079a.39.39,0,0,0-.128-.293.777.777,0,0,1,.518-1.359Z" transform="translate(0 0)" fill="#fff"/>
  </g>
</svg>