<svg xmlns="http://www.w3.org/2000/svg" width="40.465" height="35.535" viewBox="0 0 40.465 35.535">
  <g id="noun_Video_2567853" transform="translate(0.5)">
    <rect id="Rectangle_759" data-name="Rectangle 759" width="31.484" height="24.679" rx="2" transform="translate(0 10.356)" fill="none" stroke="#fff" stroke-width="1"/>
    <path id="Path_50" data-name="Path 50" d="M81.67,31.122V42.08L89.651,46.6v-20Z" transform="translate(-50.185 -13.904)" fill="none" stroke="#fff" stroke-width="1"/>
    <path id="Path_51" data-name="Path 51" d="M1.316,10.756A11.606,11.606,0,0,1,6.271,1.015L5.425,0A13.176,13.176,0,0,0,0,10.756,13.229,13.229,0,0,0,5.309,21.4l.633-1.31A11.025,11.025,0,0,1,1.316,10.756Z" transform="translate(26.683 0) rotate(90)" fill="#fff"/>
    <path id="Path_52" data-name="Path 52" d="M1.263,7.293A7.061,7.061,0,0,1,4.414,1.1L3.77,0A9.039,9.039,0,0,0,0,7.293a9.288,9.288,0,0,0,3.578,7.254l.54-.992A7.462,7.462,0,0,1,1.263,7.293Z" transform="translate(22.534 4.249) rotate(90)" fill="#fff"/>
  </g>
</svg>