<svg id="Group_2042" data-name="Group 2042" xmlns="http://www.w3.org/2000/svg" width="12.438" height="14" viewBox="0 0 12.438 14">
  <path id="Path_686" data-name="Path 686" d="M28.69,11.539H25.2v-.628A1.05,1.05,0,0,0,24.114,9.9H21.705a1.05,1.05,0,0,0-1.083,1.011v.628H17.13a.4.4,0,1,0,0,.8h.728v9.8A1.833,1.833,0,0,0,19.744,23.9h6.387a1.834,1.834,0,0,0,1.886-1.761V12.323h.691a.395.395,0,1,0-.019-.785Zm-7.227-.628a.228.228,0,0,1,.243-.227h2.409a.228.228,0,0,1,.243.227v.628H21.462Zm5.659,11.21a.973.973,0,0,1-1.008.941H19.707a.973.973,0,0,1-1.008-.941v-9.8h8.423Z" transform="translate(-16.7 -9.9)" fill="#646c70"/>
  <path id="Path_687" data-name="Path 687" d="M48.03,40.987a.407.407,0,0,0,.411-.43V33.33a.419.419,0,0,0-.411-.43.434.434,0,0,0-.43.43v7.227A.423.423,0,0,0,48.03,40.987Z" transform="translate(-41.829 -29.224)" fill="#646c70"/>
  <path id="Path_688" data-name="Path 688" d="M60.93,40.987a.423.423,0,0,0,.43-.43V33.33a.43.43,0,0,0-.859,0v7.227A.434.434,0,0,0,60.93,40.987Z" transform="translate(-52.32 -29.224)" fill="#646c70"/>
  <path id="Path_689" data-name="Path 689" d="M35.13,40.987a.423.423,0,0,0,.43-.43V33.33a.43.43,0,0,0-.859,0v7.227A.434.434,0,0,0,35.13,40.987Z" transform="translate(-31.338 -29.224)" fill="#646c70"/>
</svg>
