<svg xmlns="http://www.w3.org/2000/svg" width="12" height="12" viewBox="0 0 12 12">
  <path id="edit" d="M.3-5.307,0-2.635a.564.564,0,0,0,.164.469A.564.564,0,0,0,.632-2l2.671-.3,8.248-8.248A1.455,1.455,0,0,0,12-11.622a1.455,1.455,0,0,0-.445-1.066l-.867-.867A1.455,1.455,0,0,0,9.618-14a1.455,1.455,0,0,0-1.066.445Zm2.648,2.3L.772-2.776l.234-2.179L7.38-11.329,9.325-9.384Zm8.084-8.084L9.864-9.923,7.919-11.868l1.172-1.172a.715.715,0,0,1,.527-.211.715.715,0,0,1,.527.211l.89.89a.715.715,0,0,1,.211.527A.715.715,0,0,1,11.036-11.094Z" transform="translate(0.003 14)" fill="#646c70"/>
</svg>
