<svg xmlns="http://www.w3.org/2000/svg" width="15.665" height="11.739" viewBox="0 0 15.665 11.739">
  <g id="Group_30" data-name="Group 30" transform="translate(-652.386 -323.63)">
    <path id="Path_91" data-name="Path 91" d="M733.954,6.111a.37.37,0,0,0-.016.126,6.947,6.947,0,0,1-.474,2.367,7.6,7.6,0,0,1-1.779,2.785.976.976,0,0,1-1.576-.094.769.769,0,0,1-.121-.351.959.959,0,0,1,.23-.816,7.917,7.917,0,0,0,.717-.857,5.886,5.886,0,0,0-.327-7.207c-.139-.168-.288-.328-.428-.5a.966.966,0,0,1,.3-1.453.9.9,0,0,1,1.009.08,4.4,4.4,0,0,1,.748.785,7.806,7.806,0,0,1,1.6,3.533,5.01,5.01,0,0,1,.1.951.656.656,0,0,0,.017.2Z" transform="translate(-65.903 323.631)" fill="#d3d3d3"/>
    <path id="Path_92" data-name="Path 92" d="M0,6.327a7.724,7.724,0,0,1,1.807-4.95A6.126,6.126,0,0,1,2.418.735a.956.956,0,0,1,1.547.523.934.934,0,0,1-.219.855,9.6,9.6,0,0,0-.642.754A5.721,5.721,0,0,0,2,5.571a5.85,5.85,0,0,0,1.618,4.923.521.521,0,0,0,.039.04,1.017,1.017,0,0,1,.306,1,.765.765,0,0,1-.236.409.892.892,0,0,1-.652.288.958.958,0,0,1-.711-.266,7.345,7.345,0,0,1-1.4-1.817,8.177,8.177,0,0,1-.9-2.7C.01,7.1.024,6.733,0,6.327" transform="translate(652.386 323.132)" fill="#d3d3d3"/>
    <path id="Path_93" data-name="Path 93" d="M183.991,126.64a4.854,4.854,0,0,1,1.158-3.173,4.281,4.281,0,0,1,.558-.545.87.87,0,0,1,.94-.12.9.9,0,0,1,.583.741.945.945,0,0,1-.281.845c-.1.1-.2.2-.289.309a2.936,2.936,0,0,0,.109,3.992,4.253,4.253,0,0,1,.318.358.632.632,0,0,1,.141.422,1.18,1.18,0,0,0,0,.168.905.905,0,0,1-.7.871,1.012,1.012,0,0,1-.937-.257,5.417,5.417,0,0,1-.778-.9,4.777,4.777,0,0,1-.794-2.159c-.011-.093-.011-.186-.017-.279s-.01-.186-.014-.279" transform="translate(471.339 202.875)" fill="#d3d3d3"/>
    <path id="Path_94" data-name="Path 94" d="M595.212,126.807a4.625,4.625,0,0,1-1.128,3.15,5.031,5.031,0,0,1-.519.53.974.974,0,0,1-1.482-.3,1.016,1.016,0,0,1,.12-1.045c.171-.2.364-.381.518-.6a2.787,2.787,0,0,0,.523-1.189,2.946,2.946,0,0,0-.685-2.5c-.11-.127-.226-.248-.337-.373a.96.96,0,0,1,.419-1.539.921.921,0,0,1,.928.188,4.738,4.738,0,0,1,1.279,1.752,4.639,4.639,0,0,1,.363,1.4c.015.172,0,.346,0,.519" transform="translate(69.875 202.7)" fill="#d3d3d3"/>
    <path id="Path_95" data-name="Path 95" d="M371.787,247.437a1.946,1.946,0,1,1-1.963-1.95,1.955,1.955,0,0,1,1.963,1.95" transform="translate(290.377 82.071)" fill="#d3d3d3"/>
  </g>
</svg>
