<svg id="Group_16" data-name="Group 16" xmlns="http://www.w3.org/2000/svg" xmlns:xlink="http://www.w3.org/1999/xlink" width="136.521" height="28.501" viewBox="0 0 136.521 28.501">
  <defs>
    <clipPath id="clip-path">
      <rect id="Rectangle_13" data-name="Rectangle 13" width="136.521" height="28.501" fill="none"/>
    </clipPath>
  </defs>
  <path id="Path_54" data-name="Path 54" d="M106.878,109.912l.729,4.422-3.952-2.11-3.982,2.058.786-4.412-3.191-3.15,4.443-.615,2.007-4.008,1.96,4.034,4.432.672Z" transform="translate(-92.36 -97.265)" fill="#ed6b14"/>
  <g id="Group_11" data-name="Group 11">
    <g id="Group_10" data-name="Group 10" clip-path="url(#clip-path)">
      <path id="Path_55" data-name="Path 55" d="M17.07,3.149l-.995,0A2.988,2.988,0,0,0,15.06.885,3.662,3.662,0,0,0,12.616,0s-.8,0-2,0S8.549,0,8.549,0A3.25,3.25,0,0,0,5.086,3.153l-.817,0A4.193,4.193,0,0,0,0,7.261v6.174a4.2,4.2,0,0,0,4.268,4.116h12.8a4.2,4.2,0,0,0,4.268-4.116V7.261A4.193,4.193,0,0,0,17.07,3.149M8.452,1.339s1.2-.008,1.929,0l.524.008c.733,0,1.832,0,1.832,0a1.859,1.859,0,0,1,1.945,1.813H6.507A1.859,1.859,0,0,1,8.452,1.339m5.891,10.8.838,4.912-4.554-2.345L6.044,17l.906-4.9L3.274,8.6l5.114-.687L10.7,3.467l2.255,4.477,5.1.746Z" transform="translate(0 0)" fill="#545b5f"/>
      <path id="Path_56" data-name="Path 56" d="M70.951,66.907l-5.1-.745-2.255-4.477L61.278,66.13l-5.114.687,3.677,3.495-.906,4.9,4.583-2.287,4.554,2.345-.838-4.912Zm-7.417,4.652-3.1,1.545.612-3.312L58.56,67.427l3.459-.462,1.562-3.009,1.526,3.029,3.451.5-2.517,2.334.568,3.32Z" transform="translate(-52.89 -58.217)" fill="#fff"/>
      <path id="Path_57" data-name="Path 57" d="M443.543,71.874h.638c.494,0,.659-.159.659-.635v-7.62c0-.476-.165-.635-.659-.635h-.638V60.5h11.339v3.949h-2.716V63.9c0-.635-.165-.794-.823-.794h-2.511V65.96h4.692v2.6h-4.692v2.56c0,.476.165.635.659.635h1.461c.864,0,1.3-.318,1.358-.873l.062-.6h2.758l-.247,4.068H443.543Z" transform="translate(-417.689 -57.102)" fill="#1a1818"/>
      <path id="Path_58" data-name="Path 58" d="M655.932,126.878h4.528a40.493,40.493,0,0,0,1.358,6.549,40.839,40.839,0,0,0,1.338-6.549h4.116v2.282h-.329c-.494,0-.659.159-.8.635a48.9,48.9,0,0,1-2.861,7.2h-3.354a48.914,48.914,0,0,1-2.861-7.2c-.144-.476-.309-.635-.8-.635h-.329Z" transform="translate(-617.698 -119.746)" fill="#1a1818"/>
      <path id="Path_59" data-name="Path 59" d="M863.879,128.522a.612.612,0,0,0-.576.635c0,.318.268.655.967.655a16.036,16.036,0,0,0,4.774-1.012v2.858a10.533,10.533,0,0,1-4.774.953c-3.5,0-5.124-2.084-5.124-5.338a5.045,5.045,0,0,1,5.433-5.338c3.046,0,4.527,1.468,4.527,3.254,0,1.905-1.132,2.461-3.643,3Zm-.947-1.965v.437c.082-.079.185-.139.658-.258l.761-.179c.741-.179,1.05-.5,1.05-1.171a.8.8,0,0,0-.844-.794c-1.07,0-1.626.853-1.626,1.965" transform="translate(-809.066 -115.08)" fill="#1a1818"/>
      <path id="Path_60" data-name="Path 60" d="M1055.076,122.213h4.425a5.161,5.161,0,0,1,.206,1.389,3.5,3.5,0,0,1,3.108-1.667c1.976,0,2.881.635,3.334,1.786a7.908,7.908,0,0,1,.371,2.818v2.877c0,.476.165.635.658.635h.515v2.282h-4.3c-.494,0-.659-.2-.659-.675v-4.564a4.965,4.965,0,0,0-.227-1.766.858.858,0,0,0-.905-.556c-.947,0-1.441.575-1.441,2.441v2.2c0,.476.164.635.658.635h.432v2.282h-6.174v-2.282h.638c.494,0,.658-.159.658-.635V125.13c0-.476-.165-.635-.658-.635h-.638Z" transform="translate(-993.575 -115.081)" fill="#1a1818"/>
      <path id="Path_61" data-name="Path 61" d="M1283.163,78.239h-1.441V75.9h1.441V73.774a10.817,10.817,0,0,1,3.786-.913V75.9h2.264v2.342h-2.264v4.147c0,.933.494,1.052.988,1.052a5.927,5.927,0,0,0,1.605-.2V86a10.969,10.969,0,0,1-2.593.3c-2.778,0-3.786-1.191-3.786-3.552Z" transform="translate(-1207.01 -68.766)" fill="#1a1818"/>
      <path id="Path_62" data-name="Path 62" d="M1441.823,52.678a3.408,3.408,0,0,0,.082-.635.414.414,0,0,0-.411-.437,4,4,0,0,0-.556.04l.391-2.183a9.462,9.462,0,0,1,2.326-.258c1.646,0,2.078.635,2.078,1.588a13.451,13.451,0,0,1-.308,2.064l-.309,1.667a3.355,3.355,0,0,1,2.593-1.23c2.182,0,3.108,1.548,3.108,3.552,0,3.929-1.955,7.124-6.112,7.124-3.107,0-4.116-1.548-4.116-3.572a14.128,14.128,0,0,1,.247-2.3Zm2.387,7.124c0,.953.288,1.429.988,1.429,1.276,0,1.935-2.2,1.935-3.671,0-.953-.288-1.469-.988-1.469-1.276,0-1.935,2.242-1.935,3.711" transform="translate(-1356.616 -46.439)" fill="#1a1818"/>
      <path id="Path_63" data-name="Path 63" d="M1645.317,131.407c0,.516.165,1.032.823,1.032.906,0,1.5-.695,1.852-2.639l.885-4.921h3.643l-1.235,6.767a3.363,3.363,0,0,0-.082.536c0,.476.288.536.617.536h.514l-.391,2.143a7.773,7.773,0,0,1-2,.258c-1.585,0-2.058-.218-2.12-1.468a4.279,4.279,0,0,1-3.272,1.627c-1.811,0-3.066-.675-3.066-2.619,0-1.588.967-4.088.967-4.961,0-.476-.288-.536-.617-.536h-.515l.391-2.143a10.709,10.709,0,0,1,2.449-.258c1.646,0,2.078.635,2.078,1.588,0,1.468-.926,3.87-.926,5.06" transform="translate(-1545.652 -117.747)" fill="#1a1818"/>
      <path id="Path_64" data-name="Path 64" d="M1869.4,43.264a3.4,3.4,0,0,0,.083-.635.414.414,0,0,0-.412-.437c-.329,0-.494.02-.741.04l.391-2.183a11.358,11.358,0,0,1,2.51-.258c1.646,0,2.079.635,2.079,1.587a13.44,13.44,0,0,1-.308,2.064l-.6,3.235a3.341,3.341,0,0,0-.083.536c0,.476.288.536.618.536h.514l-.391,2.143a7.775,7.775,0,0,1-2,.258c-1.708,0-2.47-.516-2.47-2.044a13.5,13.5,0,0,1,.288-2.1Zm2.778-8.533a2.164,2.164,0,1,1-2.243,2.163,2.21,2.21,0,0,1,2.243-2.163" transform="translate(-1759.422 -32.779)" fill="#1a1818"/>
      <path id="Path_65" data-name="Path 65" d="M1976.781,134.6a41.114,41.114,0,0,0,5.927-5.318h-1.749c-.638,0-.823.159-.946.794l-.021.139h-2.2l.6-3.334h8.52l-.144.873a5.858,5.858,0,0,1-1.646,3.135,43.638,43.638,0,0,1-4.1,3.711h1.461a1.043,1.043,0,0,0,1.173-.774l.082-.318h2.223c-.165,3.175-.679,3.493-2.49,3.493h-7.121Z" transform="translate(-1861.147 -119.746)" fill="#1a1818"/>
      <path id="Path_66" data-name="Path 66" d="M2161.413,134.6a41.114,41.114,0,0,0,5.927-5.318h-1.749c-.638,0-.823.159-.947.794l-.021.139h-2.2l.6-3.334h8.52l-.144.873a5.86,5.86,0,0,1-1.646,3.135,43.669,43.669,0,0,1-4.1,3.711h1.461a1.043,1.043,0,0,0,1.173-.774l.082-.318h2.223c-.165,3.175-.679,3.493-2.49,3.493h-7.121Z" transform="translate(-2035.017 -119.746)" fill="#1a1818"/>
      <path id="Path_67" data-name="Path 67" d="M868.238,385.448a1.889,1.889,0,0,1-2.038-2.058c0-1.895,1.031-3.564,2.939-3.564a1.886,1.886,0,0,1,2.038,2.058c0,1.895-1.031,3.564-2.939,3.564m.8-4.76c-1.167,0-1.659,1.537-1.659,2.64,0,.683.249,1.258.967,1.258,1.167,0,1.659-1.538,1.659-2.64,0-.684-.25-1.258-.967-1.258" transform="translate(-815.709 -358.477)" fill="#040506"/>
      <path id="Path_68" data-name="Path 68" d="M964.137,407.191c0-.28-.1-.5-.451-.5-.5.008-.846.365-1.006,1.273l-.339,1.895h-1.088l.483-2.687a2.732,2.732,0,0,0,.065-.4.163.163,0,0,0-.161-.171c-.129,0-.242.008-.338.015l.121-.691a5.314,5.314,0,0,1,.9-.077c.338,0,.532.132.532.427v.2a1.532,1.532,0,0,1,1.272-.683c.685,0,1.152.326,1.152,1.025s-.386,1.739-.386,2.081c0,.2.1.256.281.256h.234l-.121.676a3.032,3.032,0,0,1-.628.062c-.579,0-.87-.21-.87-.8,0-.466.347-1.367.347-1.91" transform="translate(-905.222 -382.992)" fill="#040506"/>
      <path id="Path_69" data-name="Path 69" d="M1045.4,408.34c-.217.046-.355.163-.355.365,0,.163.138.4.524.4a4.213,4.213,0,0,0,1.708-.443l-.161.916a3.377,3.377,0,0,1-1.627.388,1.506,1.506,0,0,1-1.61-1.6c0-1.429.765-2.562,2.2-2.562,1.063,0,1.563.512,1.563,1.071,0,.854-.564,1.1-1.538,1.313Zm-.37-.5a.993.993,0,0,1,.362-.148l.507-.124c.419-.1.628-.225.628-.559a.4.4,0,0,0-.443-.4c-.547,0-.934.466-1.039,1.126Z" transform="translate(-983.032 -382.992)" fill="#040506"/>
      <path id="Path_70" data-name="Path 70" d="M1149.566,408.635a1.557,1.557,0,0,0-.032.272c0,.2.1.256.282.256h.2l-.121.676a2.679,2.679,0,0,1-.6.062c-.515,0-.717-.124-.757-.559a1.663,1.663,0,0,1-1.191.621c-.9,0-1.369-.637-1.369-1.576,0-1.429.684-2.586,1.981-2.586a1,1,0,0,1,1.007.582,1.465,1.465,0,0,1,.145-.481h.95Zm-1.474-1.98c-.684,0-1.006.87-1.006,1.662,0,.489.169.808.588.808.692,0,1-.878,1-1.662,0-.482-.161-.807-.58-.807" transform="translate(-1079.183 -382.992)" fill="#040506"/>
      <path id="Path_71" data-name="Path 71" d="M1215.918,405.933a5.309,5.309,0,0,1,.9-.077c.33,0,.532.124.532.427v.132a1.328,1.328,0,0,1,1.1-.613c.9,0,1.376.637,1.376,1.576,0,1.429-.684,2.578-1.973,2.578a1,1,0,0,1-.967-.5l-.153.877a1.3,1.3,0,0,0-.024.21c0,.117.057.156.209.156h.291l-.121.7h-2.158l.12-.7h.29c.194,0,.258-.062.29-.249l.6-3.277a2.743,2.743,0,0,0,.065-.4.163.163,0,0,0-.161-.171c-.129,0-.242.008-.338.015Zm1.216,2.376c0,.481.169.808.588.808.684,0,1-.878,1-1.67,0-.489-.161-.807-.58-.807-.692,0-1.006.885-1.006,1.669" transform="translate(-1144.117 -382.992)" fill="#040506"/>
      <path id="Path_72" data-name="Path 72" d="M1297.839,405.933a5.306,5.306,0,0,1,.9-.077c.33,0,.532.124.532.427v.132a1.327,1.327,0,0,1,1.1-.613c.9,0,1.377.637,1.377,1.576,0,1.429-.685,2.578-1.973,2.578a1,1,0,0,1-.967-.5l-.152.877a1.223,1.223,0,0,0-.025.21c0,.117.057.156.209.156h.291l-.121.7h-2.159l.121-.7h.29c.194,0,.258-.062.29-.249l.6-3.277a2.714,2.714,0,0,0,.065-.4.163.163,0,0,0-.161-.171c-.129,0-.242.008-.338.015Zm1.216,2.376c0,.481.169.808.588.808.684,0,1-.878,1-1.67,0-.489-.161-.807-.581-.807-.692,0-1.006.885-1.006,1.669" transform="translate(-1221.262 -382.992)" fill="#040506"/>
      <path id="Path_73" data-name="Path 73" d="M1405.3,378.725l-.636,3.455c-.185,1-.669,1.406-1.538,1.406a2.929,2.929,0,0,1-.709-.07l.169-.885a1.335,1.335,0,0,0,.451.078c.242,0,.467-.109.556-.583l.62-3.4h-.539l.128-.73h.54l.128-.66c.137-.7.556-1.1,1.49-1.1a3.462,3.462,0,0,1,.854.109l-.161.87a2.143,2.143,0,0,0-.588-.1.544.544,0,0,0-.564.5l-.072.388h.877l-.128.73Z" transform="translate(-1320.671 -355.085)" fill="#040506"/>
      <path id="Path_74" data-name="Path 74" d="M1471.175,409.963a1.506,1.506,0,0,1-1.61-1.6c0-1.429.765-2.562,2.2-2.562a1.51,1.51,0,0,1,1.611,1.6c0,1.429-.766,2.562-2.2,2.562m.492-3.323c-.693,0-.99.9-.99,1.662,0,.466.193.823.6.823.693,0,.991-.9.991-1.662,0-.466-.194-.823-.6-.823" transform="translate(-1383.904 -382.992)" fill="#040506"/>
      <path id="Path_75" data-name="Path 75" d="M1546.824,406.192a5.309,5.309,0,0,1,.9-.077c.33,0,.524.132.524.427v.147a1.2,1.2,0,0,1,1.039-.613,2.617,2.617,0,0,1,.411.039l-.185,1.04a1.211,1.211,0,0,0-.491-.1c-.516,0-.781.31-.9.978l-.379,2.089h-1.088l.483-2.687a2.724,2.724,0,0,0,.065-.4.163.163,0,0,0-.161-.171c-.129,0-.242.008-.338.015Z" transform="translate(-1456.499 -383.251)" fill="#040506"/>
      <path id="Path_76" data-name="Path 76" d="M1633.7,408.34c-.217.046-.355.163-.355.365,0,.163.137.4.524.4a4.213,4.213,0,0,0,1.708-.443l-.161.916a3.377,3.377,0,0,1-1.627.388,1.506,1.506,0,0,1-1.61-1.6c0-1.429.765-2.562,2.2-2.562,1.063,0,1.563.512,1.563,1.071,0,.854-.564,1.1-1.538,1.313Zm-.37-.5a.994.994,0,0,1,.362-.148l.507-.124c.419-.1.628-.225.628-.559a.4.4,0,0,0-.443-.4c-.548,0-.935.466-1.039,1.126Z" transform="translate(-1537.035 -382.992)" fill="#040506"/>
      <path id="Path_77" data-name="Path 77" d="M1702.986,407.918c-.08-.357-.241-.4-.483-.4h-.145l.121-.676a3.183,3.183,0,0,1,.62-.077c.588,0,.766.046.886.722a13.914,13.914,0,0,1,.258,2.166,12.3,12.3,0,0,0,1.216-2.842h1.144a14.344,14.344,0,0,1-2.126,3.96h-1.007a22.492,22.492,0,0,0-.483-2.858" transform="translate(-1603.127 -383.905)" fill="#040506"/>
      <path id="Path_78" data-name="Path 78" d="M1777.945,408.34c-.217.046-.355.163-.355.365,0,.163.137.4.524.4a4.213,4.213,0,0,0,1.708-.443l-.161.916a3.377,3.377,0,0,1-1.627.388,1.506,1.506,0,0,1-1.61-1.6c0-1.429.765-2.562,2.2-2.562,1.063,0,1.563.512,1.563,1.071,0,.854-.564,1.1-1.538,1.313Zm-.37-.5a.992.992,0,0,1,.362-.148l.507-.124c.419-.1.628-.225.628-.559a.4.4,0,0,0-.443-.4c-.547,0-.934.466-1.039,1.126Z" transform="translate(-1672.875 -382.992)" fill="#040506"/>
      <path id="Path_79" data-name="Path 79" d="M1851.2,406.192a5.308,5.308,0,0,1,.9-.077c.33,0,.524.132.524.427v.147a1.2,1.2,0,0,1,1.039-.613,2.623,2.623,0,0,1,.411.039l-.185,1.04a1.212,1.212,0,0,0-.491-.1c-.515,0-.781.31-.9.978l-.379,2.089h-1.088l.483-2.687a2.713,2.713,0,0,0,.065-.4.163.163,0,0,0-.161-.171c-.129,0-.242.008-.338.015Z" transform="translate(-1743.13 -383.251)" fill="#040506"/>
      <path id="Path_80" data-name="Path 80" d="M1898.737,411.528a1.084,1.084,0,0,0,1.063-1.2,8.669,8.669,0,0,0-.443-2.415c-.1-.357-.241-.4-.483-.4h-.145l.121-.676a3.27,3.27,0,0,1,.628-.077c.6,0,.717.07.878.722a8.53,8.53,0,0,1,.266,1.98c0,.132,0,.264-.008.389a14.356,14.356,0,0,0,1.192-3.044h1.127a17.582,17.582,0,0,1-2.062,4.2,2.6,2.6,0,0,1-2.094,1.39,2.54,2.54,0,0,1-.773-.109l.169-.885a1.6,1.6,0,0,0,.564.117" transform="translate(-1787.369 -383.904)" fill="#040506"/>
      <path id="Path_81" data-name="Path 81" d="M1988.519,388.769h-.572l.137-.73h.563l.17-.893a3.577,3.577,0,0,1,1.135-.272l-.218,1.165h.91l-.129.73h-.911l-.337,1.848a1.5,1.5,0,0,0-.033.287c0,.249.138.3.379.3a1.925,1.925,0,0,0,.6-.109l-.153.885a3.481,3.481,0,0,1-.845.1c-.773,0-1.1-.3-1.1-.909a4.173,4.173,0,0,1,.073-.567Z" transform="translate(-1872.069 -365.128)" fill="#040506"/>
      <path id="Path_82" data-name="Path 82" d="M2039.409,377.277a5.708,5.708,0,0,1,.934-.078c.443,0,.6.2.6.5a3.458,3.458,0,0,1-.081.575l-.209,1.118a1.452,1.452,0,0,1,1.167-.582c.684,0,1.143.326,1.143,1.025s-.387,1.739-.387,2.081c0,.2.1.256.282.256h.233l-.12.676a3.038,3.038,0,0,1-.628.062c-.58,0-.87-.21-.87-.8,0-.466.355-1.367.355-1.91,0-.28-.1-.5-.451-.5-.524,0-.862.435-1.039,1.429l-.313,1.739h-1.088l.822-4.5a1.353,1.353,0,0,0,.032-.249.162.162,0,0,0-.161-.171c-.128,0-.241.008-.338.015Z" transform="translate(-1920.084 -355.997)" fill="#040506"/>
      <path id="Path_83" data-name="Path 83" d="M2123.4,377.3a1.314,1.314,0,0,0,.033-.248.163.163,0,0,0-.161-.171c-.129,0-.242.008-.338.016l.121-.691a5.736,5.736,0,0,1,.934-.077c.443,0,.6.2.6.5a3.458,3.458,0,0,1-.081.574l-.314,1.709a1.548,1.548,0,0,0-.032.272c0,.2.1.256.282.256h.234l-.121.676a3.023,3.023,0,0,1-.628.062c-.58,0-.869-.21-.869-.8a4.883,4.883,0,0,1,.1-.722Zm.854-3a.692.692,0,1,1-.716.691.706.706,0,0,1,.716-.691" transform="translate(-1999.184 -353.265)" fill="#040506"/>
      <path id="Path_84" data-name="Path 84" d="M2169.738,407.191c0-.28-.1-.5-.451-.5-.5.008-.846.365-1.006,1.273l-.338,1.895h-1.087l.483-2.687a2.738,2.738,0,0,0,.065-.4.163.163,0,0,0-.161-.171c-.129,0-.242.008-.339.015l.121-.691a5.317,5.317,0,0,1,.9-.077c.339,0,.532.132.532.427v.2a1.532,1.532,0,0,1,1.272-.683c.685,0,1.152.326,1.152,1.025s-.386,1.739-.386,2.081c0,.2.1.256.282.256h.233l-.121.676a3.028,3.028,0,0,1-.628.062c-.58,0-.87-.21-.87-.8,0-.466.347-1.367.347-1.91" transform="translate(-2040.548 -382.992)" fill="#040506"/>
      <path id="Path_85" data-name="Path 85" d="M2249.388,406.608a.253.253,0,0,0-.3.248l-.475,2.633a2.174,2.174,0,0,1-2.368,2,2.38,2.38,0,0,1-1.329-.334l.169-.932a1.962,1.962,0,0,0,1.191.365,1.2,1.2,0,0,0,1.232-1.009l.056-.3a1.354,1.354,0,0,1-1.046.458,1.268,1.268,0,0,1-1.313-1.444c0-1.328.645-2.492,1.989-2.492a1.047,1.047,0,0,1,1.039.582c.073-.349.226-.536.58-.536.282,0,.741.031.934.054l-.129.707Zm-2.094.047c-.677,0-.975.815-.975,1.53,0,.419.177.683.588.683.692,0,.958-.784.975-1.5,0-.419-.17-.714-.588-.714" transform="translate(-2114.061 -382.992)" fill="#040506"/>
    </g>
  </g>
</svg>
