<svg xmlns="http://www.w3.org/2000/svg" width="37" height="23" viewBox="0 0 37 23">
  <g id="Group_2107" data-name="Group 2107" transform="translate(-1049 -828)">
    <rect id="Rectangle_770" data-name="Rectangle 770" width="37" height="23" rx="2" transform="translate(1049 828)" fill="#fff"/>
    <g id="dankort-logo-dk" transform="translate(1051.699 826.373)">
      <path id="Path_735" data-name="Path 735" d="M12.147,7.309a7.107,7.107,0,1,0,0,14.213h9.571a7.109,7.109,0,1,0,0-14.218H12.147Z" transform="translate(-1.592 -1.537)" fill="#fff"/>
      <path id="Path_736" data-name="Path 736" d="M20.126,20.13H10.555a7.252,7.252,0,1,1,0-14.5h9.571a7.252,7.252,0,0,1,0,14.5M10.555,5.772a7.107,7.107,0,1,0,0,14.213h9.571a7.109,7.109,0,1,0,0-14.218H10.555Z" transform="translate(0)" fill="#fff"/>
      <path id="Path_737" data-name="Path 737" d="M224.875,53.587l3.182,3.787a5.886,5.886,0,0,0-.115-6.859Z" transform="translate(-203.078 -41.141)" fill="#e31f28"/>
      <path id="Path_738" data-name="Path 738" d="M43.151,23.821c2.376,0,4.167.6,4.352,2.606L50,23.821h4.983A5.886,5.886,0,0,0,50.5,21.744H40.93a5.878,5.878,0,0,0-4.488,2.077h6.709Z" transform="translate(-30.375 -14.772)" fill="#e31f28"/>
      <path id="Path_739" data-name="Path 739" d="M60.608,76.886l-.85,2.331h3.427a1.368,1.368,0,0,0,1.546-1.226c.225-.8-.34-1.106-1.031-1.106Z" transform="translate(-51.744 -65.311)" fill="#e31f28"/>
      <path id="Path_740" data-name="Path 740" d="M48.548,99.766,45.9,96.424c-.49,2.281-2.091,3.342-5.093,3.342H34.825A5.889,5.889,0,0,0,39.448,102h9.571a5.9,5.9,0,0,0,4.618-2.231Z" transform="translate(-28.893 -83.218)" fill="#e31f28"/>
    </g>
  </g>
</svg>
