<svg xmlns="http://www.w3.org/2000/svg" xmlns:xlink="http://www.w3.org/1999/xlink" width="37" height="23" viewBox="0 0 37 23">
  <defs>
    <clipPath id="clip-path">
      <path id="Path_764" data-name="Path 764" d="M288,338h4.774v4.579H288Zm0,0" transform="translate(-288 -338)"/>
    </clipPath>
    <clipPath id="clip-path-2">
      <path id="Path_763" data-name="Path 763" d="M290.192,339.2l-.379.165a4.559,4.559,0,0,0-1.626,1.21c.2.5.409.989.612,1.484.167.406.338.812.5,1.219l.018-2.747a5.452,5.452,0,0,1,3.575-.353c-.186-.44-.364-.883-.55-1.323a3.413,3.413,0,0,0-.588-.02A5.212,5.212,0,0,0,290.192,339.2Zm0,0" transform="translate(-288.188 -338.834)"/>
    </clipPath>
    <clipPath id="clip-path-3">
      <path id="Path_762" data-name="Path 762" d="M290.192,339.2l-.379.165a4.559,4.559,0,0,0-1.626,1.21c.2.5.409.989.612,1.484.167.406.338.812.5,1.219l.018-2.747a5.452,5.452,0,0,1,3.575-.353c-.186-.44-.364-.883-.55-1.323a3.413,3.413,0,0,0-.588-.02,5.212,5.212,0,0,0-1.567.366" transform="translate(-288.188 -338.834)"/>
    </clipPath>
    <linearGradient id="linear-gradient" x1="0.206" y1="1.498" x2="0.234" y2="2.528" gradientUnits="objectBoundingBox">
      <stop offset="0" stop-color="#3b4ec8"/>
      <stop offset="0.03" stop-color="#3b4ec8"/>
      <stop offset="0.5" stop-color="#3b4ec8"/>
      <stop offset="0.531" stop-color="#3b4ec8"/>
      <stop offset="0.547" stop-color="#3b4ec8"/>
      <stop offset="0.551" stop-color="#3c4fca"/>
      <stop offset="0.555" stop-color="#3c50ca"/>
      <stop offset="0.559" stop-color="#3d50cb"/>
      <stop offset="0.563" stop-color="#3d51cc"/>
      <stop offset="0.566" stop-color="#3d51cc"/>
      <stop offset="0.57" stop-color="#3e52cd"/>
      <stop offset="0.574" stop-color="#3e52ce"/>
      <stop offset="0.578" stop-color="#3f53ce"/>
      <stop offset="0.582" stop-color="#3f54cf"/>
      <stop offset="0.586" stop-color="#4054d0"/>
      <stop offset="0.59" stop-color="#4055d0"/>
      <stop offset="0.594" stop-color="#4055d1"/>
      <stop offset="0.598" stop-color="#4156d2"/>
      <stop offset="0.602" stop-color="#4156d3"/>
      <stop offset="0.605" stop-color="#4257d3"/>
      <stop offset="0.609" stop-color="#4257d4"/>
      <stop offset="0.613" stop-color="#4258d5"/>
      <stop offset="0.617" stop-color="#4358d5"/>
      <stop offset="0.621" stop-color="#4359d6"/>
      <stop offset="0.625" stop-color="#445ad7"/>
      <stop offset="0.629" stop-color="#445ad7"/>
      <stop offset="0.633" stop-color="#445bd8"/>
      <stop offset="0.637" stop-color="#455bd9"/>
      <stop offset="0.641" stop-color="#455cda"/>
      <stop offset="0.645" stop-color="#465cda"/>
      <stop offset="0.648" stop-color="#465ddb"/>
      <stop offset="0.652" stop-color="#465ddc"/>
      <stop offset="0.656" stop-color="#475edc"/>
      <stop offset="0.66" stop-color="#475edd"/>
      <stop offset="0.664" stop-color="#485fde"/>
      <stop offset="0.668" stop-color="#485fde"/>
      <stop offset="0.672" stop-color="#4860df"/>
      <stop offset="0.676" stop-color="#4961e0"/>
      <stop offset="0.68" stop-color="#4961e1"/>
      <stop offset="0.684" stop-color="#4a62e1"/>
      <stop offset="0.688" stop-color="#4a62e2"/>
      <stop offset="0.691" stop-color="#4a63e3"/>
      <stop offset="0.695" stop-color="#4b63e3"/>
      <stop offset="0.699" stop-color="#4b64e4"/>
      <stop offset="0.703" stop-color="#4c64e5"/>
      <stop offset="0.707" stop-color="#4c65e5"/>
      <stop offset="0.711" stop-color="#4c65e6"/>
      <stop offset="0.715" stop-color="#4d66e7"/>
      <stop offset="0.719" stop-color="#4d67e8"/>
      <stop offset="0.723" stop-color="#4e67e8"/>
      <stop offset="0.727" stop-color="#4e68e9"/>
      <stop offset="0.73" stop-color="#4e68ea"/>
      <stop offset="0.734" stop-color="#4f69ea"/>
      <stop offset="0.738" stop-color="#4f69eb"/>
      <stop offset="0.742" stop-color="#506aec"/>
      <stop offset="0.746" stop-color="#506aec"/>
      <stop offset="0.75" stop-color="#516bed"/>
      <stop offset="0.754" stop-color="#516bee"/>
      <stop offset="0.758" stop-color="#516cee"/>
      <stop offset="0.762" stop-color="#526def"/>
      <stop offset="0.766" stop-color="#526df0"/>
      <stop offset="0.77" stop-color="#536ef1"/>
      <stop offset="0.773" stop-color="#536ef1"/>
      <stop offset="0.777" stop-color="#536ff2"/>
      <stop offset="0.781" stop-color="#546ff3"/>
      <stop offset="0.785" stop-color="#5470f3"/>
      <stop offset="0.789" stop-color="#5570f4"/>
      <stop offset="0.793" stop-color="#5571f5"/>
      <stop offset="0.797" stop-color="#5571f5"/>
      <stop offset="0.801" stop-color="#5672f6"/>
      <stop offset="0.805" stop-color="#5673f7"/>
      <stop offset="0.809" stop-color="#5773f8"/>
      <stop offset="0.813" stop-color="#5774f8"/>
      <stop offset="0.816" stop-color="#5774f9"/>
      <stop offset="0.82" stop-color="#5875fa"/>
      <stop offset="0.828" stop-color="#5875fa"/>
      <stop offset="0.836" stop-color="#5875fb"/>
      <stop offset="0.844" stop-color="#5876fc"/>
      <stop offset="0.852" stop-color="#5876fc"/>
      <stop offset="0.859" stop-color="#5977fd"/>
      <stop offset="0.867" stop-color="#5977fe"/>
      <stop offset="0.875" stop-color="#5978fe"/>
      <stop offset="0.97" stop-color="#5978ff"/>
      <stop offset="1" stop-color="#5978ff"/>
    </linearGradient>
  </defs>
  <g id="Group_2247" data-name="Group 2247" transform="translate(-1135 -828)">
    <rect id="Rectangle_770" data-name="Rectangle 770" width="37" height="23" rx="2" transform="translate(1135 828)" fill="#fff"/>
    <g id="Group_2116" data-name="Group 2116" transform="translate(55 -46)">
      <path id="Path_750" data-name="Path 750" d="M296.729,437.589a.353.353,0,1,1-.278.361.357.357,0,0,1,.278-.361" transform="translate(801.076 451.583)" fill="#5975f9" fill-rule="evenodd"/>
      <g id="Group_2114" data-name="Group 2114" transform="translate(1.493)">
        <path id="Path_751" data-name="Path 751" d="M216.943,438.689c.012-.038.041-.08.086-.078.16,0,.32,0,.479,0,.055,0,.084.054.1.1q.358.918.716,1.835c0,.031.049.048.058.011.243-.622.482-1.244.724-1.865.017-.04.051-.083.1-.079.16,0,.319,0,.479,0,.05,0,.073.053.085.095l.9,2.92c.009.03.019.072-.008.1s-.065.021-.1.023c-.177,0-.355,0-.533,0a.077.077,0,0,1-.071-.062c-.2-.65-.4-1.3-.606-1.951a.05.05,0,0,0-.053.041q-.288.778-.572,1.558c-.044.114-.083.231-.129.345a.1.1,0,0,1-.108.07c-.111,0-.223,0-.334,0-.044,0-.069-.04-.082-.076-.241-.633-.48-1.267-.722-1.9,0-.03-.044-.052-.054-.015-.206.641-.406,1.284-.611,1.925a.085.085,0,0,1-.092.067c-.178,0-.355,0-.532,0a.07.07,0,0,1-.065-.1q.467-1.477.935-2.955" transform="translate(869.506 450.908)" fill="#5975f9" fill-rule="evenodd"/>
        <path id="Path_752" data-name="Path 752" d="M274.933,438.62a.18.18,0,0,1,.081-.01c.143,0,.285,0,.428,0a.082.082,0,0,1,.074.091c0,.271,0,.544,0,.816,0,.031.005.083.048.08.068-.025.12-.079.185-.109a1.037,1.037,0,0,1,.973,0,1.122,1.122,0,0,1,.457.452,1.359,1.359,0,0,1,.113,1.009,1.167,1.167,0,0,1-.636.761.991.991,0,0,1-.9-.029c-.075-.041-.137-.1-.21-.145-.06-.01-.05.07-.051.108a.088.088,0,0,1-.087.1h-.427a.092.092,0,0,1-.093-.1q0-1.471,0-2.942A.087.087,0,0,1,274.933,438.62ZM276,439.954a.6.6,0,0,0-.4.273.677.677,0,0,0,.054.791.577.577,0,0,0,.439.2.587.587,0,0,0,.412-.161.662.662,0,0,0,.143-.753.6.6,0,0,0-.652-.355" transform="translate(818.357 450.908)" fill="#5975f9" fill-rule="evenodd"/>
        <path id="Path_753" data-name="Path 753" d="M305.4,438.609c.162-.017.327,0,.49-.007a.1.1,0,0,1,.1.111v2.161a.43.43,0,0,0,.039.253.217.217,0,0,0,.181.082.084.084,0,0,1,.09.089c0,.125,0,.25,0,.375a.083.083,0,0,1-.087.087,1.346,1.346,0,0,1-.47-.064.515.515,0,0,1-.3-.254,1.121,1.121,0,0,1-.091-.5v-2.233a.1.1,0,0,1,.046-.1" transform="translate(791.891 450.916)" fill="#5975f9" fill-rule="evenodd"/>
        <path id="Path_754" data-name="Path 754" d="M334.955,438.62a.178.178,0,0,1,.083-.01h1.471a1.124,1.124,0,0,1,.8.322,1.059,1.059,0,0,1,.25.866.985.985,0,0,1-.408.68,1.256,1.256,0,0,1-.713.222c-.265,0-.531,0-.8,0a.069.069,0,0,0-.07.074c0,.289,0,.579,0,.869a.093.093,0,0,1-.089.1H335a.089.089,0,0,1-.086-.1q0-1.436,0-2.872C334.913,438.72,334.9,438.652,334.955,438.62Zm.652.548a.079.079,0,0,0-.039.085c0,.278,0,.555,0,.834a.064.064,0,0,0,.07.074h.779a.461.461,0,0,0,.264-.078.531.531,0,0,0,.192-.616.458.458,0,0,0-.383-.3c-.166-.014-.332,0-.5-.007-.129,0-.259-.009-.386.008" transform="translate(766.219 450.908)" fill="#5975f9" fill-rule="evenodd"/>
        <path id="Path_755" data-name="Path 755" d="M253.959,444.4a1.317,1.317,0,0,1,.906.175,1.17,1.17,0,0,1,.492.643,1.269,1.269,0,0,1-.181,1.122,1.2,1.2,0,0,1-.763.461,1.309,1.309,0,0,1-.923-.174,1.185,1.185,0,0,1-.508-.7,1.263,1.263,0,0,1,.168-1.027A1.2,1.2,0,0,1,253.959,444.4Zm.123.567a.632.632,0,0,0-.5.539.655.655,0,0,0,.373.69.572.572,0,0,0,.548-.052.667.667,0,0,0,.233-.8.6.6,0,0,0-.65-.376" transform="translate(837.42 445.892)" fill="#5975f9" fill-rule="evenodd"/>
        <path id="Path_756" data-name="Path 756" d="M314.773,444.4a1.213,1.213,0,0,1,.944.226,1.242,1.242,0,0,1,.458,1.039c0,.052-.037.113-.1.108h-1.472a.73.73,0,0,0-.142.005c-.028.006-.035.04-.027.064a.509.509,0,0,0,.272.376.614.614,0,0,0,.51.025.7.7,0,0,0,.241-.182.192.192,0,0,1,.157-.045c.141,0,.282,0,.423,0,.054.01.066.077.047.121a1.034,1.034,0,0,1-.5.539,1.359,1.359,0,0,1-.952.1,1.125,1.125,0,0,1-.658-.474,1.32,1.32,0,0,1-.1-1.178A1.169,1.169,0,0,1,314.773,444.4Zm-.322.963c0,.025.026.035.048.032h.942a.079.079,0,0,0,.066-.025.535.535,0,0,0-1.056-.008" transform="translate(784.578 445.895)" fill="#5975f9" fill-rule="evenodd"/>
        <path id="Path_757" data-name="Path 757" d="M357.67,444.4a.962.962,0,0,1,.51.039,1.1,1.1,0,0,1,.3.18c.02.016.056.038.074.007.02-.048-.007-.107.024-.152a.1.1,0,0,1,.094-.03c.136,0,.273,0,.41,0a.086.086,0,0,1,.087.088V446a.3.3,0,0,0,.033.181c.037.061.146.023.164.1.005.135,0,.272,0,.408a.079.079,0,0,1-.074.088.655.655,0,0,1-.556-.205c-.031-.032-.045-.1-.1-.1-.081.056-.147.131-.232.181a1.036,1.036,0,0,1-.764.138,1.119,1.119,0,0,1-.688-.445,1.3,1.3,0,0,1,.1-1.62A1.124,1.124,0,0,1,357.67,444.4Zm.162.573a.6.6,0,0,0-.237.113.668.668,0,0,0-.207.728.616.616,0,0,0,.489.424.585.585,0,0,0,.544-.223.685.685,0,0,0,.017-.806.588.588,0,0,0-.606-.237" transform="translate(747.279 445.893)" fill="#5975f9" fill-rule="evenodd"/>
        <path id="Path_758" data-name="Path 758" d="M296.74,444.844c.156-.016.316,0,.474-.007a.09.09,0,0,1,.106.088c0,.709,0,1.419,0,2.128a.09.09,0,0,1-.089.1c-.154,0-.309,0-.462,0a.088.088,0,0,1-.078-.1q0-1.062,0-2.125a.088.088,0,0,1,.049-.083" transform="translate(799.42 445.5)" fill="#5975f9" fill-rule="evenodd"/>
        <path id="Path_759" data-name="Path 759" d="M377.633,444.847c.163-.01.328,0,.492,0,.048,0,.076.043.092.082.175.4.351.808.524,1.213.016.031.03.078.071.083s.056-.052.072-.086l.5-1.217c.014-.035.039-.076.082-.075.154,0,.308,0,.463,0a.08.08,0,0,1,.062.116q-.4.949-.8,1.9a3.89,3.89,0,0,1-.307.631,1.227,1.227,0,0,1-.427.425,1.351,1.351,0,0,1-.656.147.089.089,0,0,1-.1-.081c0-.129,0-.259,0-.389a.085.085,0,0,1,.1-.08.711.711,0,0,0,.582-.279.355.355,0,0,0,.057-.332c-.282-.64-.567-1.28-.848-1.92a.094.094,0,0,1,.038-.132" transform="translate(729.156 445.495)" fill="#5975f9" fill-rule="evenodd"/>
      </g>
    </g>
    <g id="Group_2115" data-name="Group 2115" transform="translate(54.018 -48.528)">
      <path id="Path_760" data-name="Path 760" d="M262.226,322.737a.767.767,0,0,1,.612.012.757.757,0,0,1,.333.3,1.331,1.331,0,0,1,.092.2c.19.46.382.92.57,1.381a5.211,5.211,0,0,1,1.567-.366,3.409,3.409,0,0,1,.588.02c.187.444.366.891.555,1.334.089.032.183.05.273.081a3.237,3.237,0,0,1,.631.276q0,1.366,0,2.731a4.7,4.7,0,0,0-2.134-.505l.5,1.207a1.4,1.4,0,0,1,.1.293.766.766,0,0,1-.206.667.754.754,0,0,1-.26.175c-.935.386-1.869.776-2.8,1.161a.764.764,0,0,1-.96-.429l-2.6-6.269a1.089,1.089,0,0,1-.1-.321.767.767,0,0,1,.324-.716,1.332,1.332,0,0,1,.266-.129Zm.148.384-2.62,1.085c-.058.026-.119.046-.175.075a.355.355,0,0,0-.182.344.779.779,0,0,0,.069.205q1.3,3.145,2.605,6.289a.355.355,0,0,0,.465.178l2.759-1.143a.355.355,0,0,0,.2-.448c-.205-.5-.416-1-.619-1.5-.126,0-.252.016-.378.029a4.182,4.182,0,0,0-1.553.467c-.165-.407-.336-.812-.5-1.219-.2-.495-.412-.988-.612-1.484a4.559,4.559,0,0,1,1.626-1.21c0-.014-.009-.029-.014-.042l-.6-1.449a.355.355,0,0,0-.466-.177" transform="translate(835.998 556.289)" fill="#5975f9" fill-rule="evenodd"/>
      <g id="Group_2112" data-name="Group 2112" transform="translate(1097.809 880.461)" clip-path="url(#clip-path)">
        <g id="Group_2111" data-name="Group 2111" transform="translate(0.018 0.081)" clip-path="url(#clip-path-2)">
          <g id="Group_2110" data-name="Group 2110" clip-path="url(#clip-path-3)">
            <path id="Path_761" data-name="Path 761" d="M288.188,343.241v-4.452H292.9v4.452Zm0,0" transform="translate(-288.188 -338.793)" fill="url(#linear-gradient)"/>
          </g>
        </g>
      </g>
    </g>
  </g>
</svg>
