<svg id="round-rect" xmlns="http://www.w3.org/2000/svg" width="36.801" height="23.011" viewBox="0 0 36.801 23.011">
  <g id="maestro_card_payment" transform="translate(0 0)">
    <path id="Rectangle-1" d="M34.041,0H1.84A1.979,1.979,0,0,0,0,1.841C0,7.375,0,18.409,0,20.25a2.44,2.44,0,0,0,2.76,2.761H34.041A2.44,2.44,0,0,0,36.8,20.25V2.761A2.44,2.44,0,0,0,34.041,0Z" transform="translate(0 0)" fill="#fff" fill-rule="evenodd"/>
    <g id="logo-2" transform="translate(2.379 1.892)">
      <path id="path618" d="M16.072,16.413A9.6,9.6,0,1,0,9.635,18.9a9.579,9.579,0,0,0,6.436-2.486" transform="translate(-0.031 0.317)" fill="#4186cd" fill-rule="evenodd"/>
      <path id="path620" d="M209.257,46.354a9.618,9.618,0,0,0,0-14.244Z" transform="translate(-193.216 -29.624)" fill="#4487ca" fill-rule="evenodd"/>
      <path id="path624" d="M180.3-.314a9.558,9.558,0,0,0-6.451,2.486,10.427,10.427,0,0,0-.97,1.019h1.941a7.922,7.922,0,0,1,.728,1.017h-3.4q-.3.489-.557,1.017h4.51a8.532,8.532,0,0,1,.4,1.019H171.2a8.088,8.088,0,0,0-.285,1.017h5.88A9.552,9.552,0,0,1,177,9.293a9.4,9.4,0,0,1-.5,3.052H171.2a8.534,8.534,0,0,0,.4,1.018h4.51a9.024,9.024,0,0,1-.557,1.017h-3.4a9.65,9.65,0,0,0,.728,1.017h1.941a10.449,10.449,0,0,1-.97,1.018A9.6,9.6,0,1,0,180.3-.314" transform="translate(-157.809 0.314)" fill="#ca4638" fill-rule="evenodd"/>
      <path id="path626" d="M402,191.106h.043c.015,0,.028,0,.028,0s.029-.019.029-.031-.014-.024-.029-.029-.028,0-.028,0H402v.069Zm0,.156h-.057v-.273h.114a.133.133,0,0,1,.071.014.106.106,0,0,1,.028.069.071.071,0,0,1-.043.07l.043.121h-.071l-.028-.109H402v.109Zm.043.1a.236.236,0,1,0,0-.473.236.236,0,0,0,0,.473Zm-.314-.236a.314.314,0,1,1,.314.31.313.313,0,0,1-.314-.31Z" transform="translate(-370.932 -176.161)" fill="#231f20" fill-rule="evenodd"/>
      <path id="path628" d="M42.679,101.205H41.466l.713-3.745-1.641,3.745h-1l-.2-3.724-.8,3.724h-1.1l.928-4.871h1.9l.028,3.015,1.313-3.015H43.62l-.942,4.871" transform="translate(-34.573 -88.924)" fill="#231f20" fill-rule="evenodd"/>
      <path id="path630" d="M258.145,101.15a3.109,3.109,0,0,1-.856.129c-.614,0-.942-.306-.942-.87a1.565,1.565,0,0,1,.028-.355l.071-.388.057-.312.557-3.025h1.185l-.171.909h.614l-.171.962H257.9l-.314,1.653a.8.8,0,0,0-.014.164c0,.2.114.295.4.295a1.132,1.132,0,0,0,.328-.037l-.157.876" transform="translate(-236.695 -88.918)" fill="#231f20" fill-rule="evenodd"/>
      <path id="path632" d="M212.506,108.387c0,.5.271.845.913,1.1.485.2.571.258.571.437,0,.248-.214.359-.7.359a3.858,3.858,0,0,1-1.085-.158l-.157.915.043.008.228.041c.071.012.171.024.314.035.285.021.514.034.671.034,1.27,0,1.856-.42,1.856-1.323a1.093,1.093,0,0,0-.842-1.1c-.514-.2-.571-.244-.571-.429,0-.215.2-.324.585-.324a7.671,7.671,0,0,1,.87.061l.171-.917a9.414,9.414,0,0,0-1.056-.078c-1.356,0-1.827.609-1.812,1.339" transform="translate(-195.794 -98.816)" fill="#231f20" fill-rule="evenodd"/>
      <path id="path634" d="M115.341,109.308a2.2,2.2,0,0,0-.271-.017c-.671,0-1.013.2-1.013.6a.392.392,0,0,0,.428.4.907.907,0,0,0,.856-.989Zm.813,1.764h-1l.029-.412a1.63,1.63,0,0,1-1.256.48,1.036,1.036,0,0,1-1.1-1.081c0-.966.771-1.528,2.1-1.528a4.013,4.013,0,0,1,.485.031.786.786,0,0,0,.057-.258c0-.263-.214-.361-.771-.361a4.452,4.452,0,0,0-1,.111l-.157.041-.114.025.171-.89a5.4,5.4,0,0,1,1.427-.211c1.027,0,1.57.4,1.57,1.163a3.659,3.659,0,0,1-.1.785l-.243,1.4-.043.252-.029.2-.029.139v.108Z" transform="translate(-104.18 -98.792)" fill="#231f20" fill-rule="evenodd"/>
      <path id="path636" d="M167.621,108.512c0-.082.014-.15.014-.2,0-.322-.214-.511-.571-.511a.776.776,0,0,0-.756.71l1.313,0Zm.585,2.358a4.64,4.64,0,0,1-1.227.16c-1.341,0-2.026-.609-2.026-1.774a2.171,2.171,0,0,1,2.084-2.361,1.431,1.431,0,0,1,1.613,1.44,3.411,3.411,0,0,1-.157.978h-2.369a.448.448,0,0,0-.014.125c0,.459.357.693,1.056.693a3.168,3.168,0,0,0,1.242-.25l-.2.99Z" transform="translate(-152.308 -98.675)" fill="#231f20" fill-rule="evenodd"/>
      <path id="path638" d="M321.706,108.523c0-.414-.171-.806-.656-.806-.614,0-.984.722-.984,1.358,0,.537.257.9.685.89a1.169,1.169,0,0,0,.913-.97,2.444,2.444,0,0,0,.042-.472Zm1.213.474a2.1,2.1,0,0,1-2.326,1.9,1.69,1.69,0,0,1-1.884-1.825,2.211,2.211,0,0,1,2.341-2.355,1.725,1.725,0,0,1,1.9,1.788,2.779,2.779,0,0,1-.029.491Z" transform="translate(-294.277 -98.512)" fill="#231f20" fill-rule="evenodd"/>
      <path id="path640" d="M375.569,148.422h.043a.084.084,0,0,0,.029-.006c.014-.006.014-.019.014-.031s0-.021-.014-.027-.029-.006-.043-.006h-.029v.07Zm0,.154h-.057V148.3h.114a.167.167,0,0,1,.071.016.1.1,0,0,1,.028.068.073.073,0,0,1-.043.07l.043.119h-.071l-.043-.107h-.042v.107Zm.043.1a.235.235,0,0,0,0-.471.235.235,0,1,0,0,.471Zm-.314-.236a.314.314,0,1,1,.314.31.313.313,0,0,1-.314-.31Z" transform="translate(-346.527 -136.75)" fill="#fff" fill-rule="evenodd"/>
      <path id="path642" d="M46.932,97.536h-1.2l.713-3.745-1.641,3.745H43.72l-.2-3.721-.713,3.721H41.723l.928-4.871h1.869l.086,3.017,1.327-3.017h1.941l-.942,4.871" transform="translate(-38.526 -85.537)" fill="#fff" fill-rule="evenodd"/>
      <path id="path644" d="M262.053,97.49a3.118,3.118,0,0,1-.857.129c-.614,0-.942-.308-.942-.87a3.212,3.212,0,0,1,.029-.355l.071-.389.057-.314.557-3.025h1.185l-.171.909h.614l-.171.964h-.614l-.314,1.653a.786.786,0,0,0-.014.164c0,.205.128.293.414.293a1.089,1.089,0,0,0,.314-.037l-.157.878" transform="translate(-240.304 -85.537)" fill="#fff" fill-rule="evenodd"/>
      <path id="path646" d="M287.813,109.123l-.028-.125.243-.621a.338.338,0,0,1-.086-.011c-.071-.014-.1-.021-.114-.021a.476.476,0,0,0-.114-.01c-.4,0-.671.174-1.042.642l.129-.7h-1.242l-.728,3.956h1.185c.157-.908.228-1.424.328-1.854.157-.712.685-1.036,1.07-.964a.572.572,0,0,1,.128.029l.071.027.2-.343" transform="translate(-262.996 -99.947)" fill="#231f20" fill-rule="evenodd"/>
      <path id="path648" d="M291.833,104.042A.723.723,0,0,0,291.7,104c-.057-.014-.1-.021-.1-.024a.942.942,0,0,0-.128-.01c-.385,0-.671.176-1.042.644l.114-.6h-1.085l-.728,3.961h1.2c.428-2.422.614-2.847,1.184-2.847a1.384,1.384,0,0,1,.143.01l.143.029.428-1.12" transform="translate(-266.601 -95.971)" fill="#fff" fill-rule="evenodd"/>
      <path id="path650" d="M216.414,104.72c0,.5.285.845.928,1.1.485.2.557.256.557.437,0,.246-.214.357-.685.357a3.855,3.855,0,0,1-1.085-.156l-.171.913.057.009.214.039a3.012,3.012,0,0,0,.328.036c.285.021.5.033.656.033,1.284,0,1.869-.418,1.869-1.321,0-.544-.242-.863-.856-1.1-.5-.2-.557-.246-.557-.431,0-.213.2-.322.585-.322a7.857,7.857,0,0,1,.871.059l.171-.917a9.413,9.413,0,0,0-1.07-.078c-1.341,0-1.812.609-1.812,1.341" transform="translate(-199.402 -95.429)" fill="#fff" fill-rule="evenodd"/>
      <path id="path652" d="M119.551,105.667a2.191,2.191,0,0,0-.271-.016c-.671,0-1.013.2-1.013.6a.385.385,0,0,0,.428.4c.485,0,.828-.406.857-.991Zm.87,1.764h-1l.029-.41a1.609,1.609,0,0,1-1.256.478,1.032,1.032,0,0,1-1.085-1.081c0-.964.771-1.528,2.1-1.528.128,0,.3.012.485.031a1.185,1.185,0,0,0,.043-.258c0-.262-.214-.359-.771-.359a4.232,4.232,0,0,0-.985.109l-.171.043-.1.026.157-.892a5.4,5.4,0,0,1,1.427-.209c1.027,0,1.57.4,1.57,1.161a4.434,4.434,0,0,1-.086.784l-.257,1.407-.043.252-.029.2-.014.136-.014.107Z" transform="translate(-108.134 -95.432)" fill="#fff" fill-rule="evenodd"/>
      <path id="path654" d="M171.487,104.873v-.2a.486.486,0,0,0-.557-.509c-.385,0-.657.252-.771.71l1.327,0Zm.628,2.357a4.628,4.628,0,0,1-1.213.16c-1.341,0-2.041-.609-2.041-1.776a2.171,2.171,0,0,1,2.083-2.359,1.431,1.431,0,0,1,1.613,1.438,3.9,3.9,0,0,1-.143.979h-2.369a.45.45,0,0,0-.014.125c0,.459.357.693,1.042.693a3.173,3.173,0,0,0,1.241-.252l-.2.991Z" transform="translate(-155.917 -95.315)" fill="#fff" fill-rule="evenodd"/>
      <path id="path656" d="M325.6,104.824c0-.414-.171-.806-.656-.806-.614,0-.985.722-.985,1.358,0,.539.257.9.685.892a1.168,1.168,0,0,0,.913-.97,2.462,2.462,0,0,0,.042-.474Zm1.242.508a2.108,2.108,0,0,1-2.326,1.9,1.7,1.7,0,0,1-1.9-1.827,2.223,2.223,0,0,1,2.355-2.355,1.725,1.725,0,0,1,1.9,1.788,2.758,2.758,0,0,1-.029.492Z" transform="translate(-297.885 -95.127)" fill="#fff" fill-rule="evenodd"/>
    </g>
  </g>
</svg>
