<svg id="Page-1" xmlns="http://www.w3.org/2000/svg" width="36.805" height="23.003" viewBox="0 0 36.805 23.003">
  <g id="Master" transform="translate(0 0)">
    <path id="Rectangle-1" d="M35.045,0H2.84A1.979,1.979,0,0,0,1,1.84v18.4A2.44,2.44,0,0,0,3.76,23H35.045a2.44,2.44,0,0,0,2.76-2.76V2.76A2.44,2.44,0,0,0,35.045,0Zm0,0" transform="translate(-1 0)" fill="#265697" fill-rule="evenodd"/>
    <path id="path2268" d="M86.443,18.1a9.576,9.576,0,1,1-19.151,0v0a9.576,9.576,0,1,1,19.151,0v0Zm0,0" transform="translate(-52.043 -6.479)" fill="#dfac16" fill-rule="evenodd"/>
    <path id="path1350" d="M20.968,8.425a9.68,9.68,0,0,0,.062,19.357,9.483,9.483,0,0,0,6.443-2.522h0a9.726,9.726,0,0,0,.972-1.036H26.485a9.45,9.45,0,0,1-.714-1h3.383a9.728,9.728,0,0,0,.557-1.036h-4.5a9.607,9.607,0,0,1-.4-1.017h5.3a9.822,9.822,0,0,0,.272-5.142H24.531a9.734,9.734,0,0,1,.273-1.017h5.3a9.741,9.741,0,0,0-.413-1.036H25.212a9.317,9.317,0,0,1,.549-1.017h3.381a9.7,9.7,0,0,0-.743-1.036H26.514a8.937,8.937,0,0,1,.961-.978A9.485,9.485,0,0,0,21.03,8.425Zm0,0" transform="translate(-9.049 -6.487)" fill="#bf3126" fill-rule="evenodd"/>
    <path id="path4157" d="M62.772,46.029l.128-.876c-.07,0-.172.03-.263.03-.355,0-.394-.191-.371-.332l.287-1.787h.539l.13-.969h-.509l.1-.6H61.8c-.022.023-.6,3.389-.6,3.8a.761.761,0,0,0,.812.873,2.656,2.656,0,0,0,.764-.135Zm0,0" transform="translate(-47.349 -31.948)" fill="#fff" fill-rule="evenodd"/>
    <path id="path4155" d="M69.454,45.991a1.608,1.608,0,0,0,1.761,1.8,2.571,2.571,0,0,0,1.077-.169l.18-.994a3.147,3.147,0,0,1-1.083.253c-1.095,0-.9-.825-.9-.825h2.072a7.487,7.487,0,0,0,.134-.94,1.375,1.375,0,0,0-1.454-1.506c-1.025,0-1.784,1.117-1.784,2.378Zm1.788-1.456c.575,0,.469.654.469.706H70.579c0-.068.107-.706.663-.706Zm0,0" transform="translate(-53.707 -33.58)" fill="#fff" fill-rule="evenodd"/>
    <path id="path4151" d="M96.165,44.6l.182-1.123a2.434,2.434,0,0,1-.844.254c-.723,0-1.013-.558-1.013-1.158,0-1.217.622-1.886,1.315-1.886a1.8,1.8,0,0,1,.936.295l.166-1.092a3.629,3.629,0,0,0-1.148-.253c-1.177,0-2.322,1.032-2.322,2.97,0,1.285.618,2.134,1.835,2.134a4.656,4.656,0,0,0,.892-.141Zm0,0" transform="translate(-72.174 -30.517)" fill="#fff" fill-rule="evenodd"/>
    <path id="path4149" d="M37.331,43.682a3.489,3.489,0,0,0-1.235.227l-.148.888a3.188,3.188,0,0,1,1.111-.182c.38,0,.657.043.657.355a.665.665,0,0,1-.034.259s-.3-.025-.438-.025c-.882,0-1.808.38-1.808,1.527a.973.973,0,0,0,.984,1.111,1.322,1.322,0,0,0,1.046-.473l-.034.394h.9l.4-2.838a1.209,1.209,0,0,0-1.4-1.243Zm.218,2.311c.019.173-.108.986-.721.986a.374.374,0,0,1-.4-.389c0-.282.152-.621.9-.621a.642.642,0,0,1,.222.024Zm0,0" transform="translate(-27.515 -33.634)" fill="#fff" fill-rule="evenodd"/>
    <path id="path4145" d="M50.078,47.843c.23,0,1.542.059,1.542-1.31,0-1.28-1.215-1.027-1.215-1.542,0-.256.2-.337.56-.337.144,0,.7.046.7.046l.129-.91a4.707,4.707,0,0,0-.941-.081c-.754,0-1.52.3-1.52,1.346,0,1.18,1.277,1.061,1.277,1.558,0,.332-.357.359-.631.359a3.3,3.3,0,0,1-.905-.157l-.136.9a3.2,3.2,0,0,0,1.144.127Zm0,0" transform="translate(-37.908 -33.655)" fill="#fff" fill-rule="evenodd"/>
    <path id="path4139" d="M132.24,40.127l-.22,1.379a1.345,1.345,0,0,0-.985-.536c-.934,0-1.713,1.138-1.713,2.446,0,.844.415,1.672,1.264,1.672a1.27,1.27,0,0,0,.949-.43l-.045.368h.992l.779-4.9-1.022,0Zm-.473,2.689c0,.544-.267,1.271-.819,1.271-.367,0-.539-.311-.539-.8,0-.8.355-1.326.8-1.326.367,0,.555.255.555.855Zm0,0" transform="translate(-99.804 -30.896)" fill="#fff" fill-rule="evenodd"/>
    <path id="path4133" d="M16.385,45.023l.621-3.7.091,3.7h.7l1.31-3.7-.58,3.7h1.044l.8-4.907H18.763l-1.005,3.011-.052-3.011H16.217L15.4,45.023Zm0,0" transform="translate(-12.089 -30.888)" fill="#fff" fill-rule="evenodd"/>
    <path id="path4131" d="M84.457,47.935c.3-1.706.352-3.091,1.06-2.837a3.994,3.994,0,0,1,.379-1.2,1.064,1.064,0,0,0-.2-.013c-.457,0-.795.63-.795.63L85,43.941h-.949l-.636,3.994Zm0,0" transform="translate(-64.453 -33.793)" fill="#fff" fill-rule="evenodd"/>
    <path id="path4149_1_" d="M109.177,43.682a3.489,3.489,0,0,0-1.235.227l-.148.888a3.188,3.188,0,0,1,1.111-.182c.38,0,.657.043.657.355a.669.669,0,0,1-.034.259s-.3-.025-.438-.025c-.882,0-1.808.38-1.808,1.527a.973.973,0,0,0,.984,1.111,1.322,1.322,0,0,0,1.046-.473l-.033.394h.9l.4-2.838a1.209,1.209,0,0,0-1.4-1.243Zm.219,2.311c.019.173-.108.986-.722.986a.373.373,0,0,1-.4-.389c0-.282.152-.621.9-.621a.646.646,0,0,1,.222.024Zm0,0" transform="translate(-82.834 -33.634)" fill="#fff" fill-rule="evenodd"/>
    <path id="path4131_1_" d="M121.668,47.935c.3-1.706.352-3.091,1.06-2.837a4,4,0,0,1,.379-1.2,1.064,1.064,0,0,0-.2-.013c-.457,0-.795.63-.795.63l.091-.579h-.949l-.636,3.994Zm0,0" transform="translate(-93.104 -33.793)" fill="#fff" fill-rule="evenodd"/>
  </g>
</svg>
