<svg xmlns="http://www.w3.org/2000/svg" width="36.655" height="22.914" viewBox="0 0 36.655 22.914">
  <g id="cover_x2C__credit_x2C__card_x2C__visa_x2C__electron" transform="translate(-16.049 -105.997)">
    <g id="Group_2113" data-name="Group 2113" transform="translate(16.049 105.997)">
      <path id="Path_765" data-name="Path 765" d="M52.7,127.685a1.222,1.222,0,0,1-1.219,1.226H17.268a1.222,1.222,0,0,1-1.219-1.226V107.216A1.217,1.217,0,0,1,17.268,106H51.485a1.217,1.217,0,0,1,1.219,1.219v20.469Z" transform="translate(-16.049 -105.997)" fill="#075fa0" fill-rule="evenodd"/>
      <path id="Path_766" data-name="Path 766" d="M177.639,243.3a19.029,19.029,0,0,1,11.826-1.185l.048-1.308a20.756,20.756,0,0,0-11.874,2.369v.124Z" transform="translate(-165.297 -230.395)" fill="#fbaa28" fill-rule="evenodd"/>
      <path id="Path_767" data-name="Path 767" d="M112.081,287.521H114.7v.785h-1.626l-.007.73h1.618v.751h-1.625l.007.73h1.6v.785h-2.576Z" transform="translate(-104.746 -273.656)" fill="#fff" fill-rule="evenodd"/>
      <path id="Path_768" data-name="Path 768" d="M154.914,283.368h.951l.007,4.1h-.951Z" transform="translate(-144.308 -269.821)" fill="#fff" fill-rule="evenodd"/>
      <path id="Path_769" data-name="Path 769" d="M177.551,302.231a2.017,2.017,0,0,1-1.253.413,1.362,1.362,0,0,1-1.453-1.419,1.491,1.491,0,0,1,1.481-1.536c1.047,0,1.377.744,1.377,1.688h-1.908a.588.588,0,0,0,.661.578,1.26,1.26,0,0,0,.778-.276l.317.551Zm-.7-1.412c0-.282-.138-.537-.455-.537a.659.659,0,0,0-.592.537Z" transform="translate(-162.715 -284.896)" fill="#fff" fill-rule="evenodd"/>
      <path id="Path_770" data-name="Path 770" d="M219.649,302.356a2.156,2.156,0,0,1-1.012.289,1.359,1.359,0,0,1-1.5-1.412,1.462,1.462,0,0,1,1.563-1.543,1.947,1.947,0,0,1,.937.241l-.31.62a1.241,1.241,0,0,0-.448-.1.717.717,0,0,0-.792.737.7.7,0,0,0,.709.7,1.224,1.224,0,0,0,.516-.159l.337.627Z" transform="translate(-201.776 -284.896)" fill="#fff" fill-rule="evenodd"/>
      <path id="Path_771" data-name="Path 771" d="M254.395,289.707h.434l-.007-.93h.916l-.021.93h.785l-.021.689H255.7c0,.386-.027.792-.027,1.026s.062.351.275.351a.624.624,0,0,0,.344-.131l.214.648a1.854,1.854,0,0,1-.944.275c-.771,0-.813-.489-.813-1.122,0-.337.028-.675.028-1.047h-.406l.021-.689Z" transform="translate(-236.171 -274.816)" fill="#fff" fill-rule="evenodd"/>
      <path id="Path_772" data-name="Path 772" d="M288.313,300.037h.951v.393h.007a.8.8,0,0,1,.7-.468,1.525,1.525,0,0,1,.31.034l-.124.944a1.145,1.145,0,0,0-.337-.055.676.676,0,0,0-.565.317l-.021,1.591h-.95l.027-2.755Z" transform="translate(-267.493 -285.146)" fill="#fff" fill-rule="evenodd"/>
      <path id="Path_773" data-name="Path 773" d="M318.319,299.689a1.479,1.479,0,1,1-1.543,1.474,1.407,1.407,0,0,1,1.543-1.474Zm0,2.232c.455,0,.593-.393.593-.758s-.138-.751-.593-.751-.585.393-.585.751.131.758.585.758Z" transform="translate(-293.807 -284.895)" fill="#fff" fill-rule="evenodd"/>
      <path id="Path_774" data-name="Path 774" d="M363.688,299.786h.951v.3a1.364,1.364,0,0,1,.9-.4c.585,0,.9.324.9,1.074,0,.565-.007,1.171-.014,1.777h-.951c.007-.53.014-1.061.014-1.633,0-.227-.062-.4-.344-.4a.882.882,0,0,0-.5.255v1.777h-.971l.021-2.755Z" transform="translate(-337.116 -284.896)" fill="#fff" fill-rule="evenodd"/>
      <path id="Path_775" data-name="Path 775" d="M214.611,178.759l1.2-3.96h1.075l-1.205,3.96Z" transform="translate(-199.445 -169.544)" fill="#fff" fill-rule="evenodd"/>
      <path id="Path_776" data-name="Path 776" d="M167.155,174.8l-1.419,2.617h-.021c.021-.351-.027-.785-.034-1.026l-.1-1.591h-1.8l-.021.1a.749.749,0,0,1,.813.709l.351,3.148h1.116l2.245-3.96Z" transform="translate(-152.471 -169.544)" fill="#fff" fill-rule="evenodd"/>
      <path id="Path_777" data-name="Path 777" d="M283.6,178.843l-.027-.592H282.23l-.269.592H280.8l2.108-3.953h1.433l.358,3.953Zm-.124-2.335c-.007-.3-.021-.7,0-.937h-.014c-.069.2-.344.792-.468,1.081l-.4.868h.937l-.055-1.012Z" transform="translate(-260.576 -169.628)" fill="#fff" fill-rule="evenodd"/>
      <path id="Path_778" data-name="Path 778" d="M239.582,177.788a2.942,2.942,0,0,1-1.618-.455l.51-.778a1.964,1.964,0,0,0,1.157.386.5.5,0,0,0,.468-.22c.152-.262-.035-.4-.455-.634l-.207-.137c-.62-.427-.889-.826-.6-1.529a1.483,1.483,0,0,1,1.495-.792,2.389,2.389,0,0,1,1.4.482l-.593.689a1.294,1.294,0,0,0-.826-.365.5.5,0,0,0-.461.207c-.11.221.035.372.365.572l.248.159c.751.475.93.971.744,1.439a1.556,1.556,0,0,1-1.626.978Z" transform="translate(-221.014 -168.462)" fill="#fff" fill-rule="evenodd"/>
    </g>
  </g>
</svg>
