<svg xmlns="http://www.w3.org/2000/svg" width="50" height="50" viewBox="0 0 50 50">
  <g id="Group_648" data-name="Group 648" transform="translate(-708.562 -2710)">
    <rect id="Rectangle_38" data-name="Rectangle 38" width="50" height="50" rx="5" transform="translate(708.562 2710)" fill="#606060"/>
    <g id="Group_630" data-name="Group 630" transform="translate(366.562 106.145)">
      <path id="Path_386" data-name="Path 386" d="M.051,20.053l11.361-6.7L0,6.625v13.02a1.8,1.8,0,0,0,.051.408" transform="translate(354 2615.674)" fill="#fff"/>
      <path id="Path_387" data-name="Path 387" d="M12.328,25.673.656,32.554a1.791,1.791,0,0,0,1.556.913H24.561a1.8,1.8,0,0,0,1.632-1.054L14.76,25.673l-1.216.717Z" transform="translate(353.586 2603.65)" fill="#fff"/>
      <path id="Path_388" data-name="Path 388" d="M51.361,19.965V7.131l-11.1,6.541L51.336,20.2a1.761,1.761,0,0,0,.024-.239" transform="translate(328.584 2615.354)" fill="#fff"/>
      <path id="Path_389" data-name="Path 389" d="M1.8,0A1.8,1.8,0,0,0,0,1.8v.055l13.13,7.74L25.945,2.036V1.8a1.8,1.8,0,0,0-1.8-1.8Z" transform="translate(354 2619.855)" fill="#fff"/>
      <rect id="Rectangle_40" data-name="Rectangle 40" width="25.945" height="17.263" transform="translate(354 2619.855)" fill="none"/>
    </g>
  </g>
</svg>
