<svg xmlns="http://www.w3.org/2000/svg" width="50" height="50" viewBox="0 0 50 50">
  <g id="Group_649" data-name="Group 649" transform="translate(-708.562 -2771)">
    <rect id="Rectangle_39" data-name="Rectangle 39" width="50" height="50" rx="5" transform="translate(708.562 2771)" fill="#606060"/>
    <g id="Group_629" data-name="Group 629" transform="translate(365.562 163.103)">
      <path id="Path_366" data-name="Path 366" d="M15.86,4.051a12.216,12.216,0,0,0-1.011,1.561,13.651,13.651,0,0,0,3.162,1.372c.036-.194.072-.389.112-.579A15.262,15.262,0,0,1,19.76,1.8,5.918,5.918,0,0,1,20.534.753a7.655,7.655,0,0,0-1.707.693,9.666,9.666,0,0,0-2.967,2.6" transform="translate(345.156 2620.398)" fill="#fff"/>
      <path id="Path_367" data-name="Path 367" d="M25.179,21.56a32.01,32.01,0,0,0-.373,4.63h8.439a31.767,31.767,0,0,0-.373-4.63,16.619,16.619,0,0,1-7.693,0" transform="translate(338.554 2606.603)" fill="#fff"/>
      <path id="Path_368" data-name="Path 368" d="M28.906,41.5a16.392,16.392,0,0,1,3.972.483,31.647,31.647,0,0,0,.372-4.625H24.811a32.055,32.055,0,0,0,.362,4.568,16.413,16.413,0,0,1,3.733-.426" transform="translate(338.551 2596.132)" fill="#fff"/>
      <path id="Path_369" data-name="Path 369" d="M9.678,23.017h4.408a32.3,32.3,0,0,1,.395-4.809,14.6,14.6,0,0,1-2.663-1.056c-.231-.12-.456-.246-.676-.378a14.984,14.984,0,0,0-1.463,6.243" transform="translate(348.584 2609.776)" fill="#fff"/>
      <path id="Path_370" data-name="Path 370" d="M11.094,43.514a14.434,14.434,0,0,1,3.367-1.421,33.108,33.108,0,0,1-.381-4.739H9.672a15.01,15.01,0,0,0,1.422,6.16" transform="translate(348.588 2596.132)" fill="#fff"/>
      <path id="Path_371" data-name="Path 371" d="M30.715.211a1.446,1.446,0,0,0-1.5,0,3,3,0,0,0-.766.658A8.488,8.488,0,0,0,27.058,3.46a19.944,19.944,0,0,0-.838,3.207,15.786,15.786,0,0,0,3.743.445,15.867,15.867,0,0,0,3.746-.445c-.038-.21-.079-.417-.12-.619a14.659,14.659,0,0,0-1.555-4.394A3.917,3.917,0,0,0,30.715.211" transform="translate(337.617 2620.896)" fill="#fff"/>
      <path id="Path_372" data-name="Path 372" d="M26.313,52.544a14.665,14.665,0,0,0,1.552,4.394,3.942,3.942,0,0,0,1.323,1.443,1.441,1.441,0,0,0,1.5,0,2.957,2.957,0,0,0,.765-.658,8.491,8.491,0,0,0,1.39-2.591,19.952,19.952,0,0,0,.839-3.211,15.938,15.938,0,0,0-7.5-.059c.042.232.086.46.132.682" transform="translate(337.643 2586.791)" fill="#fff"/>
      <path id="Path_373" data-name="Path 373" d="M11.681,60.024a12.79,12.79,0,0,1-1.1-1.7,11.367,11.367,0,0,0-1.213.932,12.593,12.593,0,0,0,5.783,3.707c-.1-.049-.2-.1-.292-.149a10.339,10.339,0,0,1-3.182-2.791" transform="translate(348.787 2582.229)" fill="#fff"/>
      <path id="Path_374" data-name="Path 374" d="M43.717,58.6a6.073,6.073,0,0,1-.775,1.046,7.763,7.763,0,0,0,1.705-.693,9.631,9.631,0,0,0,2.967-2.606,11.886,11.886,0,0,0,1-1.534,13.621,13.621,0,0,0-3.146-1.4c-.035.2-.073.389-.113.579A15.362,15.362,0,0,1,43.717,58.6" transform="translate(326.531 2585.486)" fill="#fff"/>
      <path id="Path_375" data-name="Path 375" d="M10.22,4.714c.179.138.365.269.555.4a11.015,11.015,0,0,1,4.231-4.4c.1-.053.194-.1.292-.15a12.6,12.6,0,0,0-5.71,3.623c.2.181.411.358.632.527" transform="translate(348.643 2620.523)" fill="#fff"/>
      <path id="Path_376" data-name="Path 376" d="M2.768,44.891c.194-.171.395-.339.6-.5.232-.178.475-.346.723-.51A15.684,15.684,0,0,1,2.57,37.354H0a12.53,12.53,0,0,0,2.768,7.537" transform="translate(355 2596.132)" fill="#fff"/>
      <path id="Path_377" data-name="Path 377" d="M48.421.714A10.334,10.334,0,0,1,51.6,3.5a12.872,12.872,0,0,1,1.046,1.61,11.393,11.393,0,0,0,1.19-.926A12.584,12.584,0,0,0,48.129.564c.1.05.2.1.292.15" transform="translate(323.092 2620.523)" fill="#fff"/>
      <path id="Path_378" data-name="Path 378" d="M17.905,53.205a13.977,13.977,0,0,0-2.594,1.025c-.2.105-.4.218-.6.333a10.394,10.394,0,0,0,4.024,4.251,7.659,7.659,0,0,0,1.71.694c-.051-.054-.1-.107-.153-.165a9.123,9.123,0,0,1-1.514-2.806,20.8,20.8,0,0,1-.873-3.331" transform="translate(345.247 2585.624)" fill="#fff"/>
      <path id="Path_379" data-name="Path 379" d="M62.375,13.685A15.645,15.645,0,0,1,63.944,20.3h2.571a12.548,12.548,0,0,0-2.836-7.624c-.213.189-.43.373-.658.549-.208.158-.423.309-.646.458" transform="translate(313.647 2612.492)" fill="#fff"/>
      <path id="Path_380" data-name="Path 380" d="M63.618,45.019a12.541,12.541,0,0,0,2.869-7.665H63.919A15.653,15.653,0,0,1,62.334,44a11.75,11.75,0,0,1,1.284,1.014" transform="translate(313.675 2596.132)" fill="#fff"/>
      <path id="Path_381" data-name="Path 381" d="M2.568,20.3a15.666,15.666,0,0,1,1.568-6.615,12.1,12.1,0,0,1-1.3-1.007A12.532,12.532,0,0,0,0,20.3Z" transform="translate(355 2612.49)" fill="#fff"/>
      <path id="Path_382" data-name="Path 382" d="M53.27,43.183c.27.139.534.287.787.442a15,15,0,0,0,1.478-6.27H51.125a32.366,32.366,0,0,1-.392,4.808,14.31,14.31,0,0,1,2.537,1.02" transform="translate(321.366 2596.132)" fill="#fff"/>
      <path id="Path_383" data-name="Path 383" d="M48.421,63.056c-.1.052-.193.1-.292.149A12.6,12.6,0,0,0,53.8,59.623c-.23-.209-.469-.412-.72-.606-.146-.111-.3-.221-.45-.327a11.016,11.016,0,0,1-4.213,4.366" transform="translate(323.092 2581.987)" fill="#fff"/>
      <path id="Path_384" data-name="Path 384" d="M42.936.75c.05.054.1.108.151.165A9.1,9.1,0,0,1,44.6,3.721a20.67,20.67,0,0,1,.859,3.262,14.032,14.032,0,0,0,2.483-.992q.348-.182.68-.38a10.361,10.361,0,0,0-3.981-4.167A7.7,7.7,0,0,0,42.936.75" transform="translate(326.535 2620.399)" fill="#fff"/>
      <path id="Path_385" data-name="Path 385" d="M51.13,23.013h4.409a15,15,0,0,0-1.465-6.246A14.241,14.241,0,0,1,50.737,18.2a32.6,32.6,0,0,1,.393,4.81" transform="translate(321.363 2609.781)" fill="#fff"/>
    </g>
  </g>
</svg>
