<svg xmlns="http://www.w3.org/2000/svg" xmlns:xlink="http://www.w3.org/1999/xlink" width="50" height="50" viewBox="0 0 50 50">
  <defs>
    <linearGradient id="linear-gradient" x1="0.146" y1="0.854" x2="1.994" y2="0.705" gradientUnits="objectBoundingBox">
      <stop offset="0" stop-color="#4676ed"/>
      <stop offset="0.185" stop-color="#436de4"/>
      <stop offset="0.484" stop-color="#3b55cd"/>
      <stop offset="0.858" stop-color="#302ea8"/>
      <stop offset="1" stop-color="#2b1e99"/>
    </linearGradient>
    <clipPath id="clip-path">
      <rect id="Rectangle_27" data-name="Rectangle 27" width="50" height="50" fill="none"/>
    </clipPath>
  </defs>
  <g id="Group_613" data-name="Group 613" transform="translate(-406 -724)">
    <rect id="Rectangle_26" data-name="Rectangle 26" width="50" height="50" rx="8" transform="translate(406 724)" fill="url(#linear-gradient)"/>
    <path id="Path_363" data-name="Path 363" d="M13.078,0A13.119,13.119,0,0,0,0,13.078V36.922A13.119,13.119,0,0,0,13.078,50h8.016l3.615-1.022L28.906,50h8.016A13.119,13.119,0,0,0,50,36.922V13.078A13.119,13.119,0,0,0,36.922,0Z" transform="translate(406 724)" fill="none"/>
    <g id="Group_606" data-name="Group 606" transform="translate(406 724)">
      <g id="Group_605" data-name="Group 605" clip-path="url(#clip-path)">
        <path id="Path_364" data-name="Path 364" d="M28.609,28.652l1.108-7.227H22.784V16.736c0-1.978.969-3.905,4.074-3.905h3.153V6.679a38.543,38.543,0,0,0-5.6-.487c-5.711,0-9.443,3.461-9.443,9.725v5.507H8.625v7.227h6.347V45.6h7.812V28.652Z" transform="translate(6.122 4.396)" fill="#fff"/>
      </g>
    </g>
  </g>
</svg>
