<svg xmlns="http://www.w3.org/2000/svg" width="20.878" height="18.268" viewBox="0 0 20.878 18.268">
  <g id="Group_632" data-name="Group 632" transform="translate(-1116.438 -611.834)">
    <path id="Vector" d="M10.152,11.932a2.621,2.621,0,0,0,1.861-.777,2.666,2.666,0,0,0,.771-1.877c0-.078,0-.155-.01-.231L9.923,11.922C10,11.928,10.075,11.932,10.152,11.932ZM18.865,1.067l-1-1.011a.187.187,0,0,0-.266,0L15.026,2.647a10.279,10.279,0,0,0-4.78-1.1Q3.471,1.551.136,8.668a1.44,1.44,0,0,0,0,1.221,14.225,14.225,0,0,0,3.209,4.537L.859,16.932a.191.191,0,0,0,0,.268l1,1.012a.187.187,0,0,0,.266,0L18.865,1.335a.191.191,0,0,0,0-.268ZM6.016,9.277a4.2,4.2,0,0,1,.537-2.056A4.155,4.155,0,0,1,8.025,5.7,4.106,4.106,0,0,1,12.1,5.6L10.957,6.75A2.619,2.619,0,0,0,8.292,7.4a2.672,2.672,0,0,0-.646,2.688L6.5,11.242a4.177,4.177,0,0,1-.487-1.964Z" transform="translate(1116.438 611.834)" fill="#2da4d3" opacity="0.856"/>
    <path id="Vector-2" data-name="Vector" d="M14.867,4.216A14.271,14.271,0,0,0,11.85,0L8.391,3.352a3.974,3.974,0,0,1,.186,2.316A4.058,4.058,0,0,1,7.432,7.709,4.268,4.268,0,0,1,5.325,8.818a4.354,4.354,0,0,1-2.391-.18L0,11.481a10.981,10.981,0,0,0,4.542.915q6.919,0,10.325-6.982a1.362,1.362,0,0,0,0-1.2Z" transform="translate(1122.31 616.401)" fill="#2da4d3" opacity="0.856"/>
  </g>
</svg>
