<svg xmlns="http://www.w3.org/2000/svg" width="526.453" height="445.43" viewBox="0 0 526.453 445.43">
  <g id="Group_3" data-name="Group 3" transform="translate(-3081.681 -5411.248)">
    <path id="Path_26" data-name="Path 26" d="M1579.764,1545.441h-57.8c-17.092,0-30.948-18.3-30.948-40.875v-363.68c0-22.574,13.857-40.875,30.948-40.875h57.8c17.093,0,30.948,18.3,30.948,40.875v363.68c0,22.574-13.856,40.875-30.948,40.875" transform="translate(1861.584 4311.237)" fill="#868585"/>
    <path id="Path_150" data-name="Path 150" d="M1579.764,1545.441h-57.8c-17.092,0-30.948-18.3-30.948-40.875v-363.68c0-22.574,13.857-40.875,30.948-40.875h57.8c17.093,0,30.948,18.3,30.948,40.875v363.68c0,22.574-13.856,40.875-30.948,40.875" transform="translate(1997.421 4311.237)" fill="#adabab"/>
    <path id="Path_151" data-name="Path 151" d="M1528.4,2091.415H1337.94c-16.672,0-30.186-18.3-30.186-40.875V1686.861c0-22.575,13.515-40.876,30.186-40.876H1528.4c16.672,0,30.187,18.3,30.187,40.876V2050.54c0,22.575-13.515,40.875-30.187,40.875" transform="translate(1773.927 3765.263)" fill="#adabab"/>
  </g>
</svg>
