<svg id="Group_69" data-name="Group 69" xmlns="http://www.w3.org/2000/svg" xmlns:xlink="http://www.w3.org/1999/xlink" width="526.322" height="445.43" viewBox="0 0 526.322 445.43">
  <defs>
    <clipPath id="clip-path">
      <rect id="Rectangle_155" data-name="Rectangle 155" width="526.322" height="445.43" fill="none"/>
    </clipPath>
  </defs>
  <g id="Group_68" data-name="Group 68" clip-path="url(#clip-path)">
    <path id="Path_466" data-name="Path 466" d="M485.417,445.43H40.906A40.905,40.905,0,0,1,0,404.525V40.9A40.905,40.905,0,0,1,40.906,0H485.417a40.905,40.905,0,0,1,40.905,40.9v363.62a40.905,40.905,0,0,1-40.905,40.9" fill="#868585"/>
    <path id="Path_467" data-name="Path 467" d="M362.991,141.177H156.852c-7.648,0-13.84,7.143-13.715,15.887.124,8.621,6.639,15.362,14.209,15.362H363.485c7.648,0,13.84-7.141,13.714-15.886-.123-8.621-6.638-15.363-14.208-15.363" fill="#d9d8d7"/>
    <path id="Path_468" data-name="Path 468" d="M362.991,210.084H156.852c-7.648,0-13.84,7.142-13.715,15.886.124,8.621,6.639,15.362,14.209,15.362H363.485c7.648,0,13.84-7.141,13.714-15.885-.123-8.622-6.638-15.363-14.208-15.363" fill="#d9d8d7"/>
    <path id="Path_469" data-name="Path 469" d="M362.991,278.99H156.852c-7.648,0-13.84,7.142-13.715,15.886.124,8.621,6.639,15.362,14.209,15.362H363.485c7.648,0,13.84-7.141,13.714-15.885-.123-8.622-6.638-15.363-14.208-15.363" fill="#d9d8d7"/>
    <path id="Path_470" data-name="Path 470" d="M401.428,143.75h29.418a5.377,5.377,0,0,1,3.8,9.18l-15.426,15.426a5.378,5.378,0,0,1-7.786-.19L397.445,152.74a5.377,5.377,0,0,1,3.983-8.99" fill="#adabab"/>
  </g>
</svg>
