<svg xmlns="http://www.w3.org/2000/svg" width="526.322" height="445.43" viewBox="0 0 526.322 445.43">
  <g id="Group_9" data-name="Group 9" transform="translate(-3136.839 -3281.778)">
    <path id="Path_55" data-name="Path 55" d="M1563.565,2748.715H1119.054a40.906,40.906,0,0,1-40.906-40.905V2344.19a40.906,40.906,0,0,1,40.906-40.905h444.511a40.905,40.905,0,0,1,40.905,40.905v363.62a40.905,40.905,0,0,1-40.905,40.905" transform="translate(2058.691 978.493)" fill="#adabab"/>
    <path id="Path_56" data-name="Path 56" d="M1317.112,2555.929H1177.954a12.89,12.89,0,0,1-12.891-12.891v-34.075a12.89,12.89,0,0,1,12.891-12.891h139.158A12.89,12.89,0,0,1,1330,2508.963v34.075a12.89,12.89,0,0,1-12.891,12.891" transform="translate(2058.691 978.493)" fill="#868585"/>
    <path id="Path_57" data-name="Path 57" d="M1504.665,2555.929H1365.507a12.89,12.89,0,0,1-12.891-12.891v-34.075a12.89,12.89,0,0,1,12.891-12.891h139.158a12.89,12.89,0,0,1,12.891,12.891v34.075a12.89,12.89,0,0,1-12.891,12.891" transform="translate(2058.691 978.493)" fill="#d9d8d7"/>
  </g>
</svg>
