<svg xmlns="http://www.w3.org/2000/svg" width="526.322" height="445.429" viewBox="0 0 526.322 445.429">
  <g id="Group_15" data-name="Group 15" transform="translate(-4856.283 -1946.36)">
    <path id="Path_131" data-name="Path 131" d="M3280.7,2718.786H2836.189a40.9,40.9,0,0,1-40.906-40.9v-363.62a40.905,40.905,0,0,1,40.906-40.905H3280.7a40.905,40.905,0,0,1,40.905,40.905v363.62a40.9,40.9,0,0,1-40.905,40.9" transform="translate(2061 -326.997)" fill="#adabab"/>
    <path id="Path_132" data-name="Path 132" d="M2954.289,2554.268H2845.625a16.045,16.045,0,0,1-16.045-16.045v-84.3a16.045,16.045,0,0,1,16.045-16.044h108.664a16.045,16.045,0,0,1,16.045,16.044v84.3a16.045,16.045,0,0,1-16.045,16.045" transform="translate(2061 -326.997)" fill="#d9d8d7"/>
    <path id="Path_133" data-name="Path 133" d="M3276.642,2506.6h-276.95a10.918,10.918,0,0,1-11.049-10.488,10.67,10.67,0,0,1,10.666-10.845h276.949a10.918,10.918,0,0,1,11.048,10.488,10.668,10.668,0,0,1-10.664,10.845" transform="translate(2061 -326.997)" fill="#868585"/>
    <path id="Path_134" data-name="Path 134" d="M3276.642,2468.6h-276.95a10.918,10.918,0,0,1-11.049-10.488,10.67,10.67,0,0,1,10.666-10.845h276.949a10.918,10.918,0,0,1,11.048,10.488,10.668,10.668,0,0,1-10.664,10.845" transform="translate(2061 -326.997)" fill="#868585"/>
    <path id="Path_135" data-name="Path 135" d="M3276.642,2544.6h-276.95a10.918,10.918,0,0,1-11.049-10.488,10.67,10.67,0,0,1,10.666-10.845h276.949a10.918,10.918,0,0,1,11.048,10.488,10.668,10.668,0,0,1-10.664,10.845" transform="translate(2061 -326.997)" fill="#868585"/>
  </g>
</svg>
