<svg xmlns="http://www.w3.org/2000/svg" width="526.322" height="445.429" viewBox="0 0 526.322 445.429">
  <g id="Group_17" data-name="Group 17" transform="translate(-4876.647 -4591.036)">
    <path id="Path_141" data-name="Path 141" d="M3280.7,2718.786H2836.189a40.9,40.9,0,0,1-40.906-40.9v-363.62a40.905,40.905,0,0,1,40.906-40.905H3280.7a40.905,40.905,0,0,1,40.905,40.905v363.62a40.9,40.9,0,0,1-40.905,40.9" transform="translate(2081.364 2317.679)" fill="#adabab"/>
    <path id="Union_1" data-name="Union 1" d="M206.977,116.393H17.024C7.622,116.393,0,109.211,0,100.348v-84.3C0,7.183,7.622,0,17.024,0h270.3c9.4,0,17.023,7.183,17.023,16.044v84.3c0,8.862-7.622,16.045-17.023,16.045Z" transform="translate(4984.799 4659.22)" fill="#d9d8d7" stroke="rgba(0,0,0,0)" stroke-miterlimit="10" stroke-width="1"/>
    <path id="Path_143" data-name="Path 143" d="M3276.642,2506.6h-276.95a10.918,10.918,0,0,1-11.049-10.488,10.67,10.67,0,0,1,10.666-10.845h276.949a10.918,10.918,0,0,1,11.048,10.488,10.668,10.668,0,0,1-10.664,10.845" transform="translate(2001.834 2357.678)" fill="#868585"/>
    <path id="Path_144" data-name="Path 144" d="M3276.642,2468.6h-276.95a10.918,10.918,0,0,1-11.049-10.488,10.67,10.67,0,0,1,10.666-10.845h276.949a10.918,10.918,0,0,1,11.048,10.488,10.668,10.668,0,0,1-10.664,10.845" transform="translate(2001.834 2357.678)" fill="#868585"/>
    <path id="Path_145" data-name="Path 145" d="M3276.642,2544.6h-276.95a10.918,10.918,0,0,1-11.049-10.488,10.67,10.67,0,0,1,10.666-10.845h276.949a10.918,10.918,0,0,1,11.048,10.488,10.668,10.668,0,0,1-10.664,10.845" transform="translate(2001.834 2357.678)" fill="#868585"/>
  </g>
</svg>
