<svg xmlns="http://www.w3.org/2000/svg" width="526.322" height="445.43" viewBox="0 0 526.322 445.43">
  <g id="Group_7" data-name="Group 7" transform="translate(-3136.839 -4761.468)">
    <path id="Path_122" data-name="Path 122" d="M2211.987,3323.9H1767.416a40.875,40.875,0,0,1-40.876-40.875V2919.34a40.876,40.876,0,0,1,40.876-40.875h444.571a40.875,40.875,0,0,1,40.875,40.875v363.68a40.875,40.875,0,0,1-40.875,40.875" transform="translate(1410.299 1883.003)" fill="#868585"/>
    <path id="Path_123" data-name="Path 123" d="M2146.361,3096.416l-80.968-80.968a6.907,6.907,0,0,0-9.49,0L2038.35,3033a6.713,6.713,0,0,0,0,9.494l58.67,58.663-58.667,58.674a6.712,6.712,0,0,0,0,9.494l17.554,17.554a6.7,6.7,0,0,0,9.493,0l80.961-80.965a6.72,6.72,0,0,0,0-9.5" transform="translate(1410.299 1883.003)" fill="#adabab"/>
    <path id="Path_124" data-name="Path 124" d="M1941.05,3159.833l-58.66-58.666,58.67-58.664a6.71,6.71,0,0,0,0-9.493l-17.554-17.554a6.71,6.71,0,0,0-9.493,0l-80.971,80.961a6.717,6.717,0,0,0,0,9.5l80.967,80.964a6.7,6.7,0,0,0,9.494,0l17.554-17.554a6.7,6.7,0,0,0-.007-9.491" transform="translate(1410.299 1883.003)" fill="#adabab"/>
    <path id="Path_125" data-name="Path 125" d="M2035.744,2988.21a6.716,6.716,0,0,0-3.995-3.229l-14.23-4.2a6.712,6.712,0,0,0-8.339,4.539l-66.062,223.72a6.714,6.714,0,0,0,4.535,8.339l14.23,4.2a6.7,6.7,0,0,0,8.339-4.539l66.063-223.724a6.7,6.7,0,0,0-.541-5.106" transform="translate(1410.299 1883.003)" fill="#d9d8d7"/>
  </g>
</svg>
