<svg xmlns="http://www.w3.org/2000/svg" viewBox="0 0 494.8 501.32"><defs><style>.cls-1{fill:#565555;}</style></defs><g id="Layer_2" data-name="Layer 2"><g id="Layer_1-2" data-name="Layer 1"><path class="cls-1" d="M439.8,190.89a10.11,10.11,0,0,0,7.19,3h37.62a10.17,10.17,0,0,0,10.18-10.17V10.18A10.18,10.18,0,0,0,484.62,0H311.1a10.17,10.17,0,0,0-10.17,10.18V47.8A10.16,10.16,0,0,0,311.11,58h99.4L250,218.48,89.48,58h95.88A10.17,10.17,0,0,0,195.53,47.8V10.18A10.17,10.17,0,0,0,185.36,0H11.84A10.18,10.18,0,0,0,1.66,10.18V183.7a10.14,10.14,0,0,0,10.17,10.17H49.46A10.15,10.15,0,0,0,59.62,183.7V94.35L216.87,251.6,58,410.51V317.62A10.17,10.17,0,0,0,47.8,307.44H10.18A10.17,10.17,0,0,0,0,317.62V491.14a10.18,10.18,0,0,0,10.18,10.18H183.69a10.16,10.16,0,0,0,10.18-10.17V453.52a10.15,10.15,0,0,0-10.18-10.16H91.37L250,284.72,408.61,443.34H309.44a10.17,10.17,0,0,0-10.17,10.17v37.62a10.17,10.17,0,0,0,10.17,10.18H483a10.19,10.19,0,0,0,10.18-10.18V317.62A10.16,10.16,0,0,0,483,307.44H445.34a10.15,10.15,0,0,0-10.16,10.18v86.05L283.11,251.6,436.83,97.88V183.7A10.16,10.16,0,0,0,439.8,190.89Z"/></g></g></svg>