<svg xmlns="http://www.w3.org/2000/svg" viewBox="0 0 512 512"><defs><style>.cls-1{fill:#bbbaba;}.cls-2{fill:#989797;}</style></defs><g id="Layer_2" data-name="Layer 2"><g id="Layer_1-2" data-name="Layer 1"><path class="cls-1" d="M476.85,35.15a120,120,0,0,0-169.7,0L206.85,135.44c-48.47,48.48-44,125.72,0,169.71A114.53,114.53,0,0,0,231,323.45l18.31-18.3c12-12,7.78-26,7.56-36.18a57.5,57.5,0,0,1-7.56-6.25c-22.57-22.57-23.59-61.26,0-84.85L349.57,77.58a60,60,0,0,1,84.85,84.85l-66.29,66.29c1.92,10.61,13.42,35.73,7.51,77.18.28-.28.63-.46.92-.75l100.29-100.3A120,120,0,0,0,476.85,35.15Z"/><path class="cls-2" d="M312.92,199.08a114.53,114.53,0,0,0-24.12-18.3l-18.31,18.3c-12,12-7.78,26-7.56,36.17a57.72,57.72,0,0,1,7.56,6.26c22.58,22.57,23.59,61.26,0,84.85L162.43,434.43a60,60,0,0,1-84.86-84.86l74.07-74.06c-1.92-10.61-13.42-35.74-7.5-77.19-.29.29-.64.47-.93.76L35.15,307.15a120,120,0,0,0,169.7,169.7L312.92,368.79C360.49,321.21,357.89,244.06,312.92,199.08Z"/></g></g></svg>