<svg xmlns="http://www.w3.org/2000/svg" width="526.322" height="445.43" viewBox="0 0 526.322 445.43">
  <g id="Group_18" data-name="Group 18" transform="translate(-4792.716 -3350.554)">
    <path id="Path_126" data-name="Path 126" d="M3290.094,3859.32H2845.523a40.875,40.875,0,0,1-40.876-40.875v-363.68a40.876,40.876,0,0,1,40.876-40.875h444.571a40.875,40.875,0,0,1,40.875,40.875v363.68a40.875,40.875,0,0,1-40.875,40.875" transform="translate(1988.069 -63.336)" fill="#868585"/>
    <path id="Path_127" data-name="Path 127" d="M2937.463,3671.6h-88.385a8.31,8.31,0,0,1-8.31-8.31v-53.365a8.31,8.31,0,0,1,8.31-8.309h88.385a8.309,8.309,0,0,1,8.309,8.309v53.365a8.309,8.309,0,0,1-8.309,8.31" transform="translate(1988.069 -63.336)" fill="#d9d8d7"/>
    <path id="Path_128" data-name="Path 128" d="M3053.822,3671.6h-88.385a8.31,8.31,0,0,1-8.31-8.31v-53.365a8.31,8.31,0,0,1,8.31-8.309h88.385a8.31,8.31,0,0,1,8.31,8.309v53.365a8.31,8.31,0,0,1-8.31,8.31" transform="translate(1988.069 -63.336)" fill="#d9d8d7"/>
    <path id="Path_129" data-name="Path 129" d="M3170.181,3671.6H3081.8a8.31,8.31,0,0,1-8.31-8.31v-53.365a8.31,8.31,0,0,1,8.31-8.309h88.385a8.309,8.309,0,0,1,8.309,8.309v53.365a8.309,8.309,0,0,1-8.309,8.31" transform="translate(1988.069 -63.336)" fill="#d9d8d7"/>
    <path id="Path_130" data-name="Path 130" d="M3286.54,3671.6h-88.385a8.31,8.31,0,0,1-8.31-8.31v-53.365a8.31,8.31,0,0,1,8.31-8.309h88.385a8.31,8.31,0,0,1,8.31,8.309v53.365a8.31,8.31,0,0,1-8.31,8.31" transform="translate(1988.069 -63.336)" fill="#d9d8d7"/>
  </g>
</svg>
