<?xml version="1.0" encoding="UTF-8"?>
<!-- Generator: Adobe Illustrator 19.0.0, SVG Export Plug-In . SVG Version: 6.00 Build 0)  -->
<svg version="1.1" id="Layer_1" xmlns="http://www.w3.org/2000/svg" xmlns:xlink="http://www.w3.org/1999/xlink" x="0px" y="0px" width="59px" height="130px" viewBox="0 0 59 130" style="enable-background:new 0 0 59 130;" xml:space="preserve">
<style type="text/css">
	.st0{fill:#FFFFFF;}
	.st1{fill:#666E72;}
	.st2{fill:none;}
	.st3{fill:#F4821F;}
	.st4{fill:#231F20;}
</style>
<rect id="XMLID_45_" class="st0" width="59" height="130"/>
<g id="XMLID_2_">
	<g id="XMLID_27_">
		<g id="XMLID_29_">
			<path id="XMLID_32_" class="st1" d="M41.9,14.1l-1.8,0h0c0-3.5-2.9-6.1-6.4-6.1c0,0-1.5,0-3.7,0c-2.2,0-3.8,0-3.8,0     c-3.5,0-6.4,2.5-6.4,6.1h0h0l-1.5,0c-4.4,0-7.9,3.5-7.9,7.9v11.9c0,4.4,3.5,7.9,7.9,7.9h23.8c4.4,0,7.9-3.5,7.9-7.9V22     C49.8,17.6,46.3,14.1,41.9,14.1z M25.9,10.6c0,0,2.2,0,3.6,0l1,0c1.4,0,3.4,0,3.4,0c2,0,3.6,1.5,3.6,3.5H22.3     C22.3,12.1,23.9,10.6,25.9,10.6z M36.8,31.4l1.6,9.5l-8.5-4.5l-8.5,4.4l1.7-9.4l-6.8-6.7l9.5-1.3l4.3-8.6l4.2,8.6l9.5,1.4     L36.8,31.4z"/>
			<path id="XMLID_31_" class="st2" d="M33.8,10.6c0,0-2,0-3.4,0l-1,0c-1.4,0-3.6,0-3.6,0c-2,0-3.6,1.5-3.6,3.5h15.2     C37.4,12.1,35.8,10.6,33.8,10.6z"/>
			<polygon id="XMLID_30_" class="st2" points="30.1,14.7 25.8,23.2 16.3,24.6 23.1,31.3 21.4,40.7 29.9,36.3 38.4,40.8 36.8,31.4      43.7,24.7 34.2,23.3    "/>
		</g>
		<polygon id="XMLID_28_" class="st3" points="35.7,36.7 29.9,33.7 24.2,36.7 25.3,30.3 20.7,25.7 27.1,24.8 30,19 32.9,24.9     39.3,25.8 34.6,30.3   "/>
	</g>
	<g id="XMLID_36_">
		<g id="XMLID_38_">
			<path id="XMLID_41_" class="st1" d="M41.9,90.3l-1.8,0h0c0-3.5-2.9-6.1-6.4-6.1c0,0-1.5,0-3.7,0c-2.2,0-3.8,0-3.8,0     c-3.5,0-6.4,2.5-6.4,6.1h0h0l-1.5,0c-4.4,0-7.9,3.5-7.9,7.9v11.9c0,4.4,3.5,7.9,7.9,7.9h23.8c4.4,0,7.9-3.5,7.9-7.9V98.2     C49.8,93.8,46.3,90.3,41.9,90.3z M25.9,86.8c0,0,2.2,0,3.6,0l1,0c1.4,0,3.4,0,3.4,0c2,0,3.6,1.5,3.6,3.5H22.3     C22.3,88.3,23.9,86.8,25.9,86.8z M36.8,107.6l1.6,9.5l-8.5-4.5l-8.5,4.4l1.7-9.4l-6.8-6.7l9.5-1.3l4.3-8.6l4.2,8.6l9.5,1.4     L36.8,107.6z"/>
			<path id="XMLID_40_" class="st2" d="M33.8,86.8c0,0-2,0-3.4,0l-1,0c-1.4,0-3.6,0-3.6,0c-2,0-3.6,1.5-3.6,3.5h15.2     C37.4,88.3,35.8,86.8,33.8,86.8z"/>
			<polygon id="XMLID_39_" class="st2" points="30.1,90.9 25.8,99.5 16.3,100.8 23.1,107.5 21.4,116.9 29.9,112.5 38.4,117      36.8,107.6 43.7,101 34.2,99.5    "/>
		</g>
		<polygon id="XMLID_37_" class="st3" points="35.7,113 29.9,109.9 24.2,112.9 25.3,106.5 20.7,101.9 27.1,101.1 30,95.3     32.9,101.1 39.3,102.1 34.6,106.6   "/>
	</g>
	<g id="XMLID_3_">
		<path id="XMLID_25_" class="st4" d="M10,55.7h0.5c0.4,0,0.5-0.1,0.5-0.5v-5.6c0-0.4-0.1-0.5-0.5-0.5H10v-1.8h8.1v2.9h-1.9v-0.4    c0-0.5-0.1-0.6-0.6-0.6h-1.8v2.1h3.3v1.9h-3.3v1.9c0,0.4,0.1,0.5,0.5,0.5h1c0.6,0,0.9-0.2,1-0.6l0-0.4h2l-0.2,3H10V55.7z"/>
		<path id="XMLID_23_" class="st4" d="M18.5,50.1h3.2c0.3,2.1,0.6,3.7,1,4.8c0.4-1.2,0.7-2.8,1-4.8h2.9v1.7h-0.2    c-0.4,0-0.5,0.1-0.6,0.5c-0.6,2.1-1.4,4.1-2,5.3h-2.4c-0.6-1.3-1.4-3.2-2-5.3c-0.1-0.4-0.2-0.5-0.6-0.5h-0.2V50.1z"/>
		<path id="XMLID_20_" class="st4" d="M30.4,54.8c-0.3,0.1-0.4,0.2-0.4,0.5c0,0.2,0.2,0.5,0.7,0.5c0.9,0,2.4-0.3,3.4-0.7v2.1    c-0.7,0.4-1.9,0.7-3.4,0.7c-2.5,0-3.7-1.5-3.7-4s1.5-4,3.9-4c2.2,0,3.2,1.1,3.2,2.4c0,1.4-0.8,1.8-2.6,2.2L30.4,54.8z M29.7,53.3    v0.3c0.1-0.1,0.1-0.1,0.5-0.2l0.5-0.1c0.5-0.1,0.7-0.4,0.7-0.9c0-0.3-0.2-0.6-0.6-0.6C30.1,51.8,29.7,52.5,29.7,53.3z"/>
		<path id="XMLID_18_" class="st4" d="M35.1,50.1h3.2c0.1,0.3,0.1,0.9,0.1,1c0.2-0.5,1-1.2,2.2-1.2c1.4,0,2.1,0.5,2.4,1.3    c0.2,0.5,0.3,1.2,0.3,2.1v2.1c0,0.4,0.1,0.5,0.5,0.5h0.4v1.7h-3.1c-0.4,0-0.5-0.1-0.5-0.5v-3.4c0-0.6-0.1-1.1-0.2-1.3    c-0.1-0.3-0.4-0.4-0.6-0.4c-0.7,0-1,0.4-1,1.8v1.6c0,0.4,0.1,0.5,0.5,0.5h0.3v1.7h-4.4v-1.7h0.5c0.4,0,0.5-0.1,0.5-0.5v-3.2    c0-0.4-0.1-0.5-0.5-0.5h-0.5V50.1z"/>
		<path id="XMLID_16_" class="st4" d="M45,51.8h-1v-1.7h1v-1.6c0.2-0.1,1.1-0.5,2.7-0.7v2.2h1.6v1.7h-1.6v3.1c0,0.7,0.4,0.8,0.7,0.8    c0.4,0,0.7,0,1.1-0.1v2c-0.2,0.1-1,0.2-1.9,0.2c-2,0-2.7-0.9-2.7-2.6V51.8z"/>
		<path id="XMLID_13_" class="st4" d="M11,62.6c0-0.2,0.1-0.4,0.1-0.5c0-0.2-0.1-0.3-0.3-0.3c-0.1,0-0.3,0-0.4,0l0.3-1.6    c0.3-0.1,1-0.2,1.7-0.2c1.2,0,1.5,0.5,1.5,1.2c0,0.4-0.1,1-0.2,1.5L13.3,64c0.3-0.4,0.9-0.9,1.9-0.9c1.6,0,2.2,1.1,2.2,2.6    c0,2.9-1.4,5.3-4.4,5.3c-2.2,0-2.9-1.1-2.9-2.6c0-0.5,0.1-1.1,0.2-1.7L11,62.6z M12.7,67.9c0,0.7,0.2,1.1,0.7,1.1    c0.9,0,1.4-1.6,1.4-2.7c0-0.7-0.2-1.1-0.7-1.1C13.1,65.2,12.7,66.8,12.7,67.9z"/>
		<path id="XMLID_11_" class="st4" d="M21.9,68.1c0,0.4,0.1,0.8,0.6,0.8c0.6,0,1.1-0.5,1.3-2l0.6-3.6h2.6l-0.9,5    c0,0.1-0.1,0.3-0.1,0.4c0,0.4,0.2,0.4,0.4,0.4h0.4l-0.3,1.6c-0.3,0.1-0.9,0.2-1.4,0.2c-1.1,0-1.5-0.2-1.5-1.1    c-0.3,0.5-1.2,1.2-2.3,1.2c-1.3,0-2.2-0.5-2.2-1.9c0-1.2,0.7-3,0.7-3.7c0-0.4-0.2-0.4-0.4-0.4h-0.4l0.3-1.6c0.3-0.1,1-0.2,1.7-0.2    c1.2,0,1.5,0.5,1.5,1.2C22.6,65.5,21.9,67.3,21.9,68.1z"/>
		<path id="XMLID_8_" class="st4" d="M29.7,65.8c0-0.2,0.1-0.4,0.1-0.5c0-0.2-0.1-0.3-0.3-0.3c-0.2,0-0.4,0-0.5,0l0.3-1.6    c0.3-0.1,1.1-0.2,1.8-0.2c1.2,0,1.5,0.5,1.5,1.2c0,0.4-0.1,1-0.2,1.5l-0.4,2.4c0,0.1-0.1,0.3-0.1,0.4c0,0.4,0.2,0.4,0.4,0.4h0.4    l-0.3,1.6c-0.3,0.1-0.9,0.2-1.4,0.2c-1.2,0-1.8-0.4-1.8-1.5c0-0.4,0.1-0.9,0.2-1.6L29.7,65.8z M31.7,59.5c0.9,0,1.6,0.7,1.6,1.6    c0,0.9-0.7,1.6-1.6,1.6c-0.9,0-1.6-0.7-1.6-1.6C30.1,60.2,30.8,59.5,31.7,59.5z"/>
		<path id="XMLID_6_" class="st4" d="M34.3,69c1.4-1.1,3.1-2.6,4.2-3.9h-1.2c-0.5,0-0.6,0.1-0.7,0.6l0,0.1H35l0.4-2.5h6.1l-0.1,0.6    c-0.1,0.9-0.5,1.6-1.2,2.3c-0.9,1-2.2,2.2-2.9,2.7h1c0.4,0,0.7-0.2,0.8-0.6l0.1-0.2h1.6c-0.1,2.4-0.5,2.6-1.8,2.6h-5.1L34.3,69z"/>
		<path id="XMLID_4_" class="st4" d="M42.8,69c1.4-1.1,3.1-2.6,4.2-3.9h-1.2c-0.5,0-0.6,0.1-0.7,0.6l0,0.1h-1.6l0.4-2.5H50l-0.1,0.6    c-0.1,0.9-0.5,1.6-1.2,2.3c-0.9,1-2.2,2.2-2.9,2.7h1c0.4,0,0.7-0.2,0.8-0.6l0.1-0.2h1.6c-0.1,2.4-0.5,2.6-1.8,2.6h-5.1L42.8,69z"/>
	</g>
</g>
</svg>