<svg xmlns="http://www.w3.org/2000/svg" viewBox="0 0 242.98 417.93"><defs><style>.cls-1{fill:#565555;}.cls-2{fill:#8f8f8b;}.cls-3{fill:#adaca7;}.cls-4{fill:#989797;}.cls-5{fill:#e0e0de;}</style></defs><g id="Layer_2" data-name="Layer 2"><g id="Layer_1-2" data-name="Layer 1"><path class="cls-1" d="M220.89,0H22.09C9.89,0,0,11.29,0,25.23V392.7c0,13.93,9.89,25.23,22.09,25.23h198.8c12.2,0,22.09-11.3,22.09-25.23V25.23C243,11.29,233.09,0,220.89,0ZM154.62,183.74,198.8,78.06V289.41Z"/><path class="cls-2" d="M148,367.47H122.77V392.7H148a12.62,12.62,0,0,0,0-25.23Z"/><path class="cls-3" d="M135.39,380.09a12.62,12.62,0,0,0-12.62-12.62H97.55a12.62,12.62,0,1,0,0,25.23h25.22A12.62,12.62,0,0,0,135.39,380.09Z"/><circle class="cls-4" cx="121.49" cy="13.8" r="5.05"/><polygon class="cls-5" points="198.34 25.23 165.43 25.23 152.26 25.23 89.79 25.23 82.91 25.23 21.62 25.23 21.62 342.25 198.34 342.25 220.43 342.25 220.43 25.23 198.34 25.23"/></g></g></svg>