<svg xmlns="http://www.w3.org/2000/svg" viewBox="0 0 511.99 511.99"><defs><style>.cls-1{fill:#989797;}.cls-2{fill:#565555;}</style></defs><g id="Layer_2" data-name="Layer 2"><g id="Layer_1-2" data-name="Layer 1"><path class="cls-1" d="M311,0H127V128c0,8.27,8,15,17.92,15H330a15,15,0,0,0,15-15V0Z"/><path class="cls-2" d="M511.91,126.53a15,15,0,0,0-3.32-8c-.75-.92,6.89,6.78-114-114.12A15.11,15.11,0,0,0,384,0h-9V128a45,45,0,0,1-45,45H142a45,45,0,0,1-45-45V0H45A45.05,45.05,0,0,0,0,45V467a45,45,0,0,0,45,45H97V302a45,45,0,0,1,45-45H330a45,45,0,0,1,45,45V512h92a45,45,0,0,0,45-45c0-364.18,0-339.31-.07-340.46Z"/><path class="cls-1" d="M330,287H142c-8.27,0-15,7.36-15,16.4V512H345V303.4C345,294.36,338.26,287,330,287Z"/></g></g></svg>