<svg xmlns="http://www.w3.org/2000/svg" width="533.013" height="272.447" viewBox="0 0 533.013 272.447">
  <g id="Group_4" data-name="Group 4" transform="translate(-1789.007 -3181.482)">
    <path id="Path_50" data-name="Path 50" d="M1450.271,272.445H1170.882a40.875,40.875,0,0,1-40.875-40.875V40.873A40.876,40.876,0,0,1,1170.882,0h279.389a40.875,40.875,0,0,1,40.875,40.875v190.7a40.875,40.875,0,0,1-40.875,40.875" transform="translate(746.647 3181.484)" fill="#868585"/>
    <path id="Path_51" data-name="Path 51" d="M1573.021,128.561l-32.513-47.929c-7.547-11.127-24.939-5.785-24.939,7.66v95.859c0,13.444,17.392,18.786,24.939,7.66l32.513-47.929a13.651,13.651,0,0,0,0-15.321" transform="translate(746.647 3181.484)" fill="#adabab"/>
    <path id="Path_52" data-name="Path 52" d="M1044.713,143.882l32.512,47.929c7.548,11.127,24.939,5.785,24.939-7.66V88.292c0-13.444-17.391-18.786-24.939-7.66l-32.512,47.929a13.648,13.648,0,0,0,0,15.321" transform="translate(746.647 3181.484)" fill="#adabab"/>
  </g>
</svg>
