<svg xmlns="http://www.w3.org/2000/svg" viewBox="0 0 387.22 493.18"><defs><style>.cls-1{fill:#565555;}.cls-2{fill:#70716f;}.cls-3{fill:#989797;}.cls-4{fill:#404243;}.cls-5{fill:#e0e0de;}</style></defs><g id="Layer_2" data-name="Layer 2"><g id="Layer_1-2" data-name="Layer 1"><path class="cls-1" d="M357.45,0H29.77A29.77,29.77,0,0,0,0,29.77V463.41a29.77,29.77,0,0,0,29.77,29.77H357.45a29.77,29.77,0,0,0,29.77-29.77V29.77A29.77,29.77,0,0,0,357.45,0ZM268,246.59,327.5,122.06V371.12Z"/><path class="cls-2" d="M192.73,471H135.27a7.44,7.44,0,0,1-7.56-7,7.22,7.22,0,0,1,7.22-7.41h57.46a7.44,7.44,0,0,1,7.56,7A7.22,7.22,0,0,1,192.73,471Z"/><circle class="cls-3" cx="193.6" cy="33.01" r="14.88"/><circle class="cls-4" cx="223.37" cy="463.33" r="7.44"/><circle class="cls-4" cx="253.14" cy="463.33" r="7.44"/><polygon class="cls-5" points="327.62 59.72 327.5 59.94 327.5 59.72 277.13 59.72 241.81 59.72 145.31 59.72 116.98 59.72 29.86 59.72 29.86 433.46 327.5 433.46 327.5 433.24 327.62 433.46 357.36 433.46 357.36 59.72 327.62 59.72"/></g></g></svg>