<svg xmlns="http://www.w3.org/2000/svg" width="526.322" height="445.429" viewBox="0 0 526.322 445.429">
  <g id="Group_14" data-name="Group 14" transform="translate(-4843.226 -428.36)">
    <path id="Path_109" data-name="Path 109" d="M2195.643,2718.786H1751.132a40.9,40.9,0,0,1-40.906-40.9v-363.62a40.906,40.906,0,0,1,40.906-40.905h444.511a40.905,40.905,0,0,1,40.905,40.905v363.62a40.9,40.9,0,0,1-40.905,40.9" transform="translate(3133 -1844.997)" fill="#adabab"/>
    <path id="Path_110" data-name="Path 110" d="M1872.316,2489.018h-94.484a16.044,16.044,0,0,1-16.044-16.044V2400.4a16.045,16.045,0,0,1,16.044-16.045h94.484a16.045,16.045,0,0,1,16.045,16.045v72.578a16.045,16.045,0,0,1-16.045,16.044" transform="translate(3133 -1844.997)" fill="#d9d8d7"/>
    <path id="Path_111" data-name="Path 111" d="M1877.694,2540.312h-105.24a10.667,10.667,0,0,1,0-21.333h105.24a10.667,10.667,0,1,1,0,21.333" transform="translate(3133 -1844.997)" fill="#868585"/>
    <path id="Path_112" data-name="Path 112" d="M1877.694,2569.576h-105.24a10.667,10.667,0,0,1,0-21.333h105.24a10.667,10.667,0,1,1,0,21.333" transform="translate(3133 -1844.997)" fill="#868585"/>
    <path id="Path_113" data-name="Path 113" d="M1877.694,2598.839h-105.24a10.666,10.666,0,1,1,0-21.332h105.24a10.666,10.666,0,1,1,0,21.332" transform="translate(3133 -1844.997)" fill="#868585"/>
    <path id="Path_114" data-name="Path 114" d="M2020.629,2489.018h-94.484a16.044,16.044,0,0,1-16.044-16.044V2400.4a16.045,16.045,0,0,1,16.044-16.045h94.484a16.045,16.045,0,0,1,16.045,16.045v72.578a16.045,16.045,0,0,1-16.045,16.044" transform="translate(3133 -1844.997)" fill="#d9d8d7"/>
    <path id="Path_115" data-name="Path 115" d="M2026.007,2540.312h-105.24a10.667,10.667,0,0,1,0-21.333h105.24a10.667,10.667,0,1,1,0,21.333" transform="translate(3133 -1844.997)" fill="#868585"/>
    <path id="Path_116" data-name="Path 116" d="M2026.007,2569.576h-105.24a10.667,10.667,0,0,1,0-21.333h105.24a10.667,10.667,0,1,1,0,21.333" transform="translate(3133 -1844.997)" fill="#868585"/>
    <path id="Path_117" data-name="Path 117" d="M2026.007,2598.839h-105.24a10.666,10.666,0,1,1,0-21.332h105.24a10.666,10.666,0,1,1,0,21.332" transform="translate(3133 -1844.997)" fill="#868585"/>
    <path id="Path_118" data-name="Path 118" d="M2168.942,2489.018h-94.484a16.044,16.044,0,0,1-16.044-16.044V2400.4a16.044,16.044,0,0,1,16.044-16.045h94.484a16.045,16.045,0,0,1,16.045,16.045v72.578a16.045,16.045,0,0,1-16.045,16.044" transform="translate(3133 -1844.997)" fill="#d9d8d7"/>
    <path id="Path_119" data-name="Path 119" d="M2174.321,2540.312H2069.08a10.667,10.667,0,0,1,0-21.333h105.241a10.667,10.667,0,1,1,0,21.333" transform="translate(3133 -1844.997)" fill="#868585"/>
    <path id="Path_120" data-name="Path 120" d="M2174.321,2569.576H2069.08a10.667,10.667,0,0,1,0-21.333h105.241a10.667,10.667,0,1,1,0,21.333" transform="translate(3133 -1844.997)" fill="#868585"/>
    <path id="Path_121" data-name="Path 121" d="M2174.321,2598.839H2069.08a10.666,10.666,0,0,1,0-21.332h105.241a10.666,10.666,0,1,1,0,21.332" transform="translate(3133 -1844.997)" fill="#868585"/>
  </g>
</svg>
