<svg id="Group_67" data-name="Group 67" xmlns="http://www.w3.org/2000/svg" xmlns:xlink="http://www.w3.org/1999/xlink" width="526.322" height="445.43" viewBox="0 0 526.322 445.43">
  <defs>
    <clipPath id="clip-path">
      <rect id="Rectangle_154" data-name="Rectangle 154" width="526.322" height="445.43" fill="none"/>
    </clipPath>
  </defs>
  <g id="Group_66" data-name="Group 66" clip-path="url(#clip-path)">
    <path id="Path_459" data-name="Path 459" d="M485.417,445.43H40.906A40.905,40.905,0,0,1,0,404.525V40.9A40.905,40.905,0,0,1,40.906,0H485.417a40.905,40.905,0,0,1,40.905,40.9v363.62a40.905,40.905,0,0,1-40.905,40.9" fill="#d9d8d7"/>
    <path id="Path_460" data-name="Path 460" d="M243.957,194.81a10.919,10.919,0,0,1-10.488-11.05V173.508a.031.031,0,0,0-.03-.03H126.832a.031.031,0,0,0-.03.03V183.76a10.919,10.919,0,0,1-10.488,11.05,10.67,10.67,0,0,1-10.845-10.665v-21.3a10.7,10.7,0,0,1,10.7-10.7H244.106a10.7,10.7,0,0,1,10.7,10.7v21.3a10.67,10.67,0,0,1-10.845,10.665" fill="#868585"/>
    <path id="Path_461" data-name="Path 461" d="M179.957,301.477a10.919,10.919,0,0,1-10.488-11.05V163.2a10.918,10.918,0,0,1,10.488-11.049A10.669,10.669,0,0,1,190.8,162.812v128a10.67,10.67,0,0,1-10.845,10.665" fill="#868585"/>
    <path id="Path_462" data-name="Path 462" d="M201.469,301.478H159.187a10.919,10.919,0,0,1-11.05-10.488A10.67,10.67,0,0,1,158.8,280.145h42.283a10.919,10.919,0,0,1,11.049,10.488,10.671,10.671,0,0,1-10.665,10.845" fill="#868585"/>
    <path id="Path_463" data-name="Path 463" d="M269.146,287.757c0-7.774,5.253-13.237,12.606-13.237s12.4,5.463,12.4,13.237c0,7.563-4.833,13.237-12.608,13.237-7.353,0-12.4-5.674-12.4-13.237" fill="#868585"/>
    <path id="Path_464" data-name="Path 464" d="M312.641,287.757c0-7.774,5.253-13.237,12.607-13.237s12.4,5.463,12.4,13.237c0,7.563-4.833,13.237-12.608,13.237-7.353,0-12.4-5.674-12.4-13.237" fill="#868585"/>
    <path id="Path_465" data-name="Path 465" d="M356.136,287.757c0-7.774,5.253-13.237,12.606-13.237s12.4,5.463,12.4,13.237c0,7.563-4.833,13.237-12.608,13.237-7.353,0-12.4-5.674-12.4-13.237" fill="#868585"/>
    <rect id="Rectangle_153" data-name="Rectangle 153" width="14.078" height="163.235" transform="translate(406.775 141.098)" fill="#868585"/>
  </g>
</svg>
