<svg xmlns="http://www.w3.org/2000/svg" width="533.25" height="445.431" viewBox="0 0 533.25 445.431">
  <g id="Group_1" data-name="Group 1" transform="translate(-1657 -2429.171)">
    <path id="Path_53" data-name="Path 53" d="M322.63,1317.172a15.574,15.574,0,0,1-7.69,6.83l-72.16,41.72c-12.22,7.36-22.68,2.5-22.68-10.64l-.02.08v-88.24c0-13.12,10.5-17.97,22.85-10.78l72.01,41.71c8.12,3.45,11.56,12.1,7.69,19.32" transform="translate(1657 1340.87)" fill="#d9d8d7"/>
    <path id="Path_54" data-name="Path 54" d="M490.31,1088.3H42.94C19.22,1088.3,0,1105.392,0,1126.472v369.089c0,21.081,19.22,38.171,42.94,38.171H490.31c23.72,0,42.94-17.09,42.94-38.171V1126.472c0-21.08-19.22-38.171-42.94-38.171M109.15,1486H53.69v-54.08h55.46Zm-55.46-349.97h55.46v54.15H53.69Zm261.25,161.82c8.12,3.45,11.56,12.1,7.69,19.321a15.573,15.573,0,0,1-7.69,6.829l-72.16,41.721c-12.22,7.359-22.68,2.5-22.68-10.641l-.02.081v-88.24c0-13.121,10.5-17.97,22.85-10.78Zm-21.48-161.82h76.93v54.15H293.46ZM370.39,1486H293.46v-54.08h76.93Zm-130.62-295.97H162.83v-54.08h76.94Zm0,295.97H162.83v-54.08h76.94Zm184.31-54.079h55.46V1486H424.08Zm55.46-241.74H424.08v-54.15h55.46Z" transform="translate(1657 1340.87)" fill="#868585"/>
    <rect id="Rectangle_7" data-name="Rectangle 7" width="55.46" height="54.15" transform="translate(1710.69 2476.902)" fill="#adabab"/>
    <rect id="Rectangle_8" data-name="Rectangle 8" width="76.94" height="54.08" transform="translate(1819.83 2476.821)" fill="#adabab"/>
    <rect id="Rectangle_9" data-name="Rectangle 9" width="76.93" height="54.15" transform="translate(1950.46 2476.902)" fill="#adabab"/>
    <rect id="Rectangle_10" data-name="Rectangle 10" width="55.46" height="54.15" transform="translate(2081.08 2476.902)" fill="#adabab"/>
    <rect id="Rectangle_11" data-name="Rectangle 11" width="55.46" height="54.08" transform="translate(2081.08 2772.791)" fill="#adabab"/>
    <rect id="Rectangle_12" data-name="Rectangle 12" width="76.93" height="54.08" transform="translate(1950.46 2772.791)" fill="#adabab"/>
    <rect id="Rectangle_13" data-name="Rectangle 13" width="55.46" height="54.08" transform="translate(1710.69 2772.791)" fill="#adabab"/>
    <rect id="Rectangle_14" data-name="Rectangle 14" width="76.94" height="54.08" transform="translate(1819.83 2772.791)" fill="#adabab"/>
  </g>
</svg>
