<svg xmlns="http://www.w3.org/2000/svg" width="13.002" height="13.999" viewBox="0 0 13.002 13.999">
  <path id="Shape_1_copy_5" data-name="Shape 1 copy 5" d="M4008.495,54H4008v-.5a1.5,1.5,0,1,0-3,0V54h-3v-.5a1.5,1.5,0,0,0-3,0V54h-.5a1.505,1.505,0,0,0-1.5,1.5V64.5a1.5,1.5,0,0,0,1.5,1.5h9.992A1.506,1.506,0,0,0,4010,64.5V55.5A1.506,1.506,0,0,0,4008.495,54ZM4006,53.5a.5.5,0,1,1,1,0v2a.5.5,0,1,1-1,0Zm0,3.5v2h-2V57Zm-2,3h2v2h-2Zm-1,2h-2V60h2Zm0-5v2h-2V57Zm-3-3.5a.5.5,0,1,1,1,0v2a.5.5,0,0,1-1,0Zm-2,3.5h2v2h-2Zm0,3h2v2h-2Zm.5,5a.505.505,0,0,1-.5-.5V63h2v2Zm2.5,0V63h2v2Zm3,0V63h2v2Zm5-.5a.505.505,0,0,1-.506.5H4007V63h2Zm0-2.5h-2V60h2Zm0-3h-2V57h2Z" transform="translate(-3997 -52.001)" fill="#a6aaaf"/>
</svg>
