<svg xmlns="http://www.w3.org/2000/svg" xmlns:xlink="http://www.w3.org/1999/xlink" width="100" height="100.297" viewBox="0 0 100 100.297">
  <defs>
    <linearGradient id="linear-gradient" x1="0.5" x2="0.5" y2="1.032" gradientUnits="objectBoundingBox">
      <stop offset="0" stop-color="#fff"/>
      <stop offset="1" stop-color="#ecf1f5"/>
    </linearGradient>
    <linearGradient id="linear-gradient-2" y2="0.804" xlink:href="#linear-gradient"/>
  </defs>
  <g id="Group_3637" data-name="Group 3637" transform="translate(-735 -450)">
    <path id="Rectangle_3897" data-name="Rectangle 3897" d="M8,0H82a8,8,0,0,1,8,8V92a8,8,0,0,1-8,8H14A14,14,0,0,1,0,86V8A8,8,0,0,1,8,0Z" transform="translate(735 450)" fill="url(#linear-gradient)"/>
    <path id="Rectangle_3897_-_Outline" data-name="Rectangle 3897 - Outline" d="M8.188,1.023A7.172,7.172,0,0,0,1.023,8.188V85.969a13.3,13.3,0,0,0,13.3,13.3H81.875a7.172,7.172,0,0,0,7.164-7.164V8.188a7.172,7.172,0,0,0-7.164-7.164H8.188M8.188,0H81.875a8.188,8.188,0,0,1,8.188,8.188V92.11a8.188,8.188,0,0,1-8.188,8.188H14.328A14.328,14.328,0,0,1,0,85.969V8.188A8.188,8.188,0,0,1,8.188,0Z" transform="translate(735 450)" fill="#ecf1f5"/>
    <g id="Group_3636" data-name="Group 3636" transform="translate(747.004 462.003)">
      <rect id="Rectangle_3901" data-name="Rectangle 3901" width="31" height="6" rx="3" transform="translate(-0.004 44.996)" fill="#e1e5ea"/>
      <rect id="Rectangle_3902" data-name="Rectangle 3902" width="51" height="6" rx="3" transform="translate(-0.004 33.996)" fill="#e1e5ea"/>
      <rect id="Rectangle_3900" data-name="Rectangle 3900" width="31" height="6" rx="3" transform="translate(-0.004 22.996)" fill="#e1e5ea"/>
      <rect id="Rectangle_3899" data-name="Rectangle 3899" width="51" height="7" rx="3.5" transform="translate(-0.004 10.996)" fill="#e1e5ea"/>
      <rect id="Rectangle_3898" data-name="Rectangle 3898" width="21" height="6" rx="3" transform="translate(-0.004 -0.004)" fill="#e1e5ea"/>
    </g>
    <path id="Union_1" data-name="Union 1" d="M77.746,22H0V0H78.77V.045A11.1,11.1,0,0,1,89,11,11.1,11.1,0,0,1,78.77,21.955V22Z" transform="translate(746 528)" fill="url(#linear-gradient-2)"/>
    <circle id="Ellipse_115" data-name="Ellipse 115" cx="11" cy="11" r="11" transform="translate(735 528)" fill="#ecf1f5"/>
  </g>
</svg>