<svg xmlns="http://www.w3.org/2000/svg" viewBox="0 0 382.05 780.8"><defs><style>.cls-1{fill:#dfe0de;}.cls-2{fill:#3b3c53;}.cls-3{fill:#fafafa;}.cls-4{fill:#959494;}</style></defs><title>mobile-frame-02</title><g id="Layer_2" data-name="Layer 2"><g id="Layer_1-2" data-name="Layer 1"><g id="mobile"><g id="Group_1510" data-name="Group 1510"><g id="_mobile" data-name=" mobile"><g id="Path_524" data-name="Path 524"><path class="cls-1" d="M334.29,775.8H47.76A42.72,42.72,0,0,1,5,733.05V47.76A42.72,42.72,0,0,1,47.76,5H334.29a42.72,42.72,0,0,1,42.76,42.76V733.05a42.7,42.7,0,0,1-42.76,42.75Z"/><path class="cls-2" d="M47.76,10A37.8,37.8,0,0,0,10,47.76V733.05A37.8,37.8,0,0,0,47.76,770.8H334.29a37.8,37.8,0,0,0,37.76-37.75V47.76A37.8,37.8,0,0,0,334.29,10H47.76m0-10H334.29a47.76,47.76,0,0,1,47.76,47.76V733.05a47.76,47.76,0,0,1-47.76,47.75H47.76A47.75,47.75,0,0,1,0,733.05V47.76A47.76,47.76,0,0,1,47.76,0Z"/></g><path id="Rectangle_730" data-name="Rectangle 730" class="cls-3" d="M46.73,8h288a37,37,0,0,1,37,37V56H9.73V45A37,37,0,0,1,46.73,8Z"/><rect id="Rectangle_728" data-name="Rectangle 728" class="cls-2" x="106.73" width="169" height="34" rx="12"/><ellipse id="Ellipse_176" data-name="Ellipse 176" class="cls-4" cx="245.73" cy="18.5" rx="4" ry="4.5"/><rect id="Rectangle_729" data-name="Rectangle 729" class="cls-4" x="139.73" y="14" width="79" height="9" rx="4"/></g></g><path id="Icon_awesome-battery-three-quarters" data-name="Icon awesome-battery-three-quarters" d="M352.75,31.77v1.85h.92v1.85h-.92v1.85H338.87V31.77h13.88m.46-1.85h-14.8A1.38,1.38,0,0,0,337,31.31v6.47a1.37,1.37,0,0,0,1.38,1.39h14.8a1.39,1.39,0,0,0,1.39-1.39v-.46h.23a.69.69,0,0,0,.69-.7h0V32.46a.69.69,0,0,0-.69-.69h-.23v-.46a1.39,1.39,0,0,0-1.39-1.39Zm-4.16,2.77H339.8v3.7h9.25Z"/><path id="Icon_awesome-wifi" data-name="Icon awesome-wifi" d="M330.3,31.62a13.42,13.42,0,0,0-18.2,0,.47.47,0,0,0,0,.65h0l1,1a.48.48,0,0,0,.65,0,11.08,11.08,0,0,1,14.95,0,.47.47,0,0,0,.64,0l1-1a.46.46,0,0,0,0-.65Zm-9.1,5.7a1.85,1.85,0,1,0,1.86,1.85,1.84,1.84,0,0,0-1.86-1.85Zm5.86-2.42a8.89,8.89,0,0,0-11.72,0,.47.47,0,0,0,0,.65l0,0,1,1a.46.46,0,0,0,.63,0,6.52,6.52,0,0,1,8.48,0,.48.48,0,0,0,.64,0l1-1a.46.46,0,0,0,0-.65Z"/><path id="Icon_awesome-signal" data-name="Icon awesome-signal" d="M293.94,35.47h-1.39a.46.46,0,0,0-.46.46v5.55a.47.47,0,0,0,.46.46h1.39a.47.47,0,0,0,.46-.46V35.93A.46.46,0,0,0,293.94,35.47Zm-3.7,2.78h-1.39a.46.46,0,0,0-.46.46v2.77a.46.46,0,0,0,.46.46h1.39a.46.46,0,0,0,.46-.46h0V38.7A.45.45,0,0,0,290.24,38.25Zm7.4-5.55h-1.39a.45.45,0,0,0-.46.46v8.32a.45.45,0,0,0,.46.46h1.39a.46.46,0,0,0,.46-.46V33.16a.47.47,0,0,0-.46-.47h0Zm3.7-2.78H300a.46.46,0,0,0-.46.47h0v11.1A.46.46,0,0,0,300,42h1.39a.47.47,0,0,0,.46-.46V30.38a.47.47,0,0,0-.46-.46Zm3.7-2.77h-1.39a.45.45,0,0,0-.46.46V41.48a.46.46,0,0,0,.46.46H305a.47.47,0,0,0,.46-.46V27.61A.46.46,0,0,0,305,27.15Z"/></g></g></g></svg>