<svg xmlns="http://www.w3.org/2000/svg" width="29" height="28" viewBox="0 0 29 28">
  <g id="Group_2060" data-name="Group 2060" transform="translate(17879.856 9908)">
    <path id="Path_723" data-name="Path 723" d="M32.185,31.55l-8.171-7.968H30.18a.51.51,0,0,0,0-1.02H22.654a.51.51,0,0,0-.51.51V30.6a.51.51,0,0,0,1.02,0v-6.42l8.307,8.1a.51.51,0,1,0,.715-.728Z" transform="translate(-17902 -9930.562)" fill="#117093"/>
    <path id="Path_724" data-name="Path 724" d="M56.1,32.272a.51.51,0,0,0,.722.007l8.307-8.1V30.6a.51.51,0,0,0,1.02,0V23.072a.51.51,0,0,0-.51-.51H58.115a.51.51,0,0,0,0,1.02H64.28L56.109,31.55a.51.51,0,0,0-.007.722Z" transform="translate(-17917.008 -9930.562)" fill="#117093"/>
    <path id="Path_725" data-name="Path 725" d="M56.109,57.062,64.28,65.03H58.115a.51.51,0,0,0,0,1.02h7.526a.51.51,0,0,0,.51-.51V58.015a.51.51,0,1,0-1.02,0v6.42l-8.307-8.1a.51.51,0,0,0-.715.728Z" transform="translate(-17917.008 -9946.051)" fill="#117093"/>
    <path id="Path_726" data-name="Path 726" d="M32.192,56.34a.51.51,0,0,0-.722-.007l-8.307,8.1v-6.42a.51.51,0,0,0-1.02,0V65.54a.51.51,0,0,0,.51.51H30.18a.51.51,0,1,0,0-1.02H24.014l8.171-7.968a.51.51,0,0,0,.007-.722Z" transform="translate(-17902 -9946.051)" fill="#117093"/>
  </g>
</svg>
