<svg xmlns="http://www.w3.org/2000/svg" width="16.307" height="10.192" viewBox="0 0 16.307 10.192">
  <path id="Path_266" data-name="Path 266" d="M10.257-6.134H5.446v1.752H8.338a2.76,2.76,0,0,1-2.892,2.2A3.19,3.19,0,0,1,2.29-5.4,3.19,3.19,0,0,1,5.446-8.623a2.861,2.861,0,0,1,2.03.786L8.86-9.165A4.868,4.868,0,0,0,5.446-10.5,5.094,5.094,0,0,0,.35-5.4a5.094,5.094,0,0,0,5.1,5.1A4.7,4.7,0,0,0,10.34-5.286,4.323,4.323,0,0,0,10.257-6.134Zm4.921.171V-7.442H13.692v1.479H12.212v1.486h1.479V-3h1.486V-4.477h1.479V-5.963Z" transform="translate(-0.35 10.5)" fill="#fb4a38"/>
</svg>
