<svg xmlns="http://www.w3.org/2000/svg" width="20.323" height="15.25" viewBox="0 0 20.323 15.25">
  <path id="Path_627" data-name="Path 627" d="M18.417-8.708H10.8L8.256-11.25H1.905a1.837,1.837,0,0,0-1.35.556A1.839,1.839,0,0,0,0-9.344V2.094a1.839,1.839,0,0,0,.556,1.35A1.837,1.837,0,0,0,1.905,4H18.417a1.837,1.837,0,0,0,1.35-.556,1.839,1.839,0,0,0,.556-1.35V-6.8a1.839,1.839,0,0,0-.556-1.35A1.837,1.837,0,0,0,18.417-8.708Zm.635,10.8a.612.612,0,0,1-.635.635H1.905a.612.612,0,0,1-.635-.635V-9.344A.619.619,0,0,1,1.449-9.8a.618.618,0,0,1,.456-.179H7.74l2.54,2.542h8.137a.618.618,0,0,1,.456.179.619.619,0,0,1,.179.457Z" transform="translate(0 11.25)" fill="#117093"/>
</svg>
