<svg xmlns="http://www.w3.org/2000/svg" width="12" height="13.714" viewBox="0 0 12 13.714">
  <path id="Path_585" data-name="Path 585" d="M9-12.286l-.911-1.205A1.2,1.2,0,0,0,7.071-14H4.929a1.2,1.2,0,0,0-1.018.509L3-12.286H.643a.62.62,0,0,0-.455.187A.62.62,0,0,0,0-11.643v.054a.154.154,0,0,0,.054.107.154.154,0,0,0,.107.054h.7v9.857a1.24,1.24,0,0,0,.375.911,1.24,1.24,0,0,0,.911.375H9.857a1.24,1.24,0,0,0,.911-.375,1.24,1.24,0,0,0,.375-.911v-9.857h.7a.154.154,0,0,0,.107-.054A.154.154,0,0,0,12-11.589v-.054a.62.62,0,0,0-.187-.455.62.62,0,0,0-.455-.187Zm-4.071-.857H7.071a.432.432,0,0,1,.348.161l.509.7H4.071l.509-.7A.432.432,0,0,1,4.929-13.143ZM10.286-1.571a.417.417,0,0,1-.121.308.417.417,0,0,1-.308.121H2.143a.417.417,0,0,1-.308-.121.417.417,0,0,1-.121-.308v-9.857h8.571ZM5.571-2.75a.31.31,0,0,0,.094.228.31.31,0,0,0,.228.094h.214a.31.31,0,0,0,.228-.094.31.31,0,0,0,.094-.228V-9.821a.31.31,0,0,0-.094-.228.31.31,0,0,0-.228-.094H5.893a.31.31,0,0,0-.228.094.31.31,0,0,0-.094.228Zm-2.143,0a.31.31,0,0,0,.094.228.31.31,0,0,0,.228.094h.214a.31.31,0,0,0,.228-.094.31.31,0,0,0,.094-.228V-9.821a.31.31,0,0,0-.094-.228.31.31,0,0,0-.228-.094H3.75a.31.31,0,0,0-.228.094.31.31,0,0,0-.094.228Zm4.286,0a.31.31,0,0,0,.094.228.31.31,0,0,0,.228.094H8.25a.31.31,0,0,0,.228-.094.31.31,0,0,0,.094-.228V-9.821a.31.31,0,0,0-.094-.228.31.31,0,0,0-.228-.094H8.036a.31.31,0,0,0-.228.094.31.31,0,0,0-.094.228Z" transform="translate(0 14)" fill="#1fa8e5"/>
</svg>
