<svg xmlns="http://www.w3.org/2000/svg" width="30" height="30" viewBox="0 0 30 30">
  <g id="copy_rul" data-name="copy rul" transform="translate(6.65 7.707)">
    <g id="Path_687" data-name="Path 687" transform="translate(-6.65 -7.707)" fill="#fff">
      <path d="M 21 24.5 L 4 24.5 C 2.070090055465698 24.5 0.5 22.92991065979004 0.5 21 L 0.5 4 C 0.5 2.070090055465698 2.070090055465698 0.5 4 0.5 L 21 0.5 C 22.92991065979004 0.5 24.5 2.070090055465698 24.5 4 L 24.5 21 C 24.5 22.92991065979004 22.92991065979004 24.5 21 24.5 Z" stroke="none"/>
      <path d="M 4 1 C 2.345790863037109 1 1 2.345790863037109 1 4 L 1 21 C 1 22.65420913696289 2.345790863037109 24 4 24 L 21 24 C 22.65420913696289 24 24 22.65420913696289 24 21 L 24 4 C 24 2.345790863037109 22.65420913696289 1 21 1 L 4 1 M 4 0 L 21 0 C 23.20914077758789 0 25 1.790859222412109 25 4 L 25 21 C 25 23.20914077758789 23.20914077758789 25 21 25 L 4 25 C 1.790859222412109 25 0 23.20914077758789 0 21 L 0 4 C 0 1.790859222412109 1.790859222412109 0 4 0 Z" stroke="none" fill="#117093"/>
    </g>
    <g id="Path_686" data-name="Path 686" transform="translate(-1.65 -2.707)" fill="#fff">
      <path d="M 21 24.5 L 4 24.5 C 2.070090055465698 24.5 0.5 22.92991065979004 0.5 21 L 0.5 4 C 0.5 2.070090055465698 2.070090055465698 0.5 4 0.5 L 21 0.5 C 22.92991065979004 0.5 24.5 2.070090055465698 24.5 4 L 24.5 21 C 24.5 22.92991065979004 22.92991065979004 24.5 21 24.5 Z" stroke="none"/>
      <path d="M 4 1 C 2.345790863037109 1 1 2.345790863037109 1 4 L 1 21 C 1 22.65420913696289 2.345790863037109 24 4 24 L 21 24 C 22.65420913696289 24 24 22.65420913696289 24 21 L 24 4 C 24 2.345790863037109 22.65420913696289 1 21 1 L 4 1 M 4 0 L 21 0 C 23.20914077758789 0 25 1.790859222412109 25 4 L 25 21 C 25 23.20914077758789 23.20914077758789 25 21 25 L 4 25 C 1.790859222412109 25 0 23.20914077758789 0 21 L 0 4 C 0 1.790859222412109 1.790859222412109 0 4 0 Z" stroke="none" fill="#117093"/>
    </g>
    <path id="Path_679" data-name="Path 679" d="M15,10.326a3.328,3.328,0,0,0,5.019.359l2-2a3.328,3.328,0,1,0-4.707-4.707L16.165,5.121" transform="translate(-5.712 -0.049)" fill="none" stroke="#117093" stroke-linecap="round" stroke-linejoin="round" stroke-width="1"/>
    <path id="Path_680" data-name="Path 680" d="M10.984,14.827a3.328,3.328,0,0,0-5.019-.359l-2,2a3.328,3.328,0,1,0,4.707,4.707l1.138-1.139" transform="translate(0.967 -5.881)" fill="none" stroke="#117093" stroke-linecap="round" stroke-linejoin="round" stroke-width="1"/>
  </g>
</svg>
