<svg xmlns="http://www.w3.org/2000/svg" width="17.693" height="15.842" viewBox="0 0 17.693 15.842">
  <g id="Group_1871" data-name="Group 1871" transform="translate(-512.999 -364.658)">
    <path id="Path_678" data-name="Path 678" d="M518.094,398.158h9.758V413h-9.758" transform="translate(2.341 -33)" fill="none" stroke="#117093" stroke-linecap="round" stroke-width="1"/>
    <path id="Icon_ionic-ios-arrow-round-back" data-name="Icon ionic-ios-arrow-round-back" d="M12.8,11.425a.616.616,0,0,1,0,.867l-2.86,2.87h10.9a.613.613,0,0,1,0,1.225H9.941l2.865,2.87a.62.62,0,0,1,0,.867.61.61,0,0,1-.862,0L8.056,16.208h0a.688.688,0,0,1-.127-.193.585.585,0,0,1-.047-.236.614.614,0,0,1,.174-.429l3.883-3.911A.6.6,0,0,1,12.8,11.425Z" transform="translate(505.117 356.481)" fill="#117093"/>
  </g>
</svg>
