<svg xmlns="http://www.w3.org/2000/svg" width="13.401" height="16.2" viewBox="0 0 13.401 16.2">
  <g id="Group_1897" data-name="Group 1897" transform="translate(0.1 0.1)">
    <path id="Path_692" data-name="Path 692" d="M17.817,33.305v7.847a.406.406,0,0,0,.4.409h10.8a.4.4,0,0,0,.4-.409V33.306a.406.406,0,0,0-.4-.409h-10.8a.4.4,0,0,0-.4.409Zm-.8,0a1.253,1.253,0,0,1,.352-.874,1.178,1.178,0,0,1,.849-.36h10.8a1.22,1.22,0,0,1,1.2,1.234v7.847a1.252,1.252,0,0,1-.352.874,1.176,1.176,0,0,1-.849.36h-10.8a1.219,1.219,0,0,1-1.2-1.234V33.306Z" transform="translate(-17.017 -26.386)" fill="#117093" stroke="#117093" stroke-width="0.2" fill-rule="evenodd"/>
    <path id="Path_693" data-name="Path 693" d="M27.317,11.792a2.621,2.621,0,0,1,2.55-2.682h1.373a2.619,2.619,0,0,1,2.55,2.682v1.475a.461.461,0,0,0,.417.283.368.368,0,0,0,.367-.283V11.792a3.425,3.425,0,0,0-3.335-3.507H29.868a3.427,3.427,0,0,0-3.335,3.507v3.095l.785-.158V11.792Z" transform="translate(-24.057 -8.285)" fill="#117093" stroke="#117093" stroke-width="0.2" fill-rule="evenodd"/>
    <path id="Path_694" data-name="Path 694" d="M42.445,42.844V46.73a.413.413,0,1,0,.825,0V42.844a.413.413,0,1,0-.825,0Z" transform="translate(-36.044 -33.926)" fill="#117093" stroke="#117093" stroke-width="0.2" fill-rule="evenodd"/>
  </g>
</svg>
