<svg xmlns="http://www.w3.org/2000/svg" width="16.003" height="16.003" viewBox="0 0 16.003 16.003">
  <path id="edit" d="M.406-2.406,0,1.156A.763.763,0,0,0,.844,2l3.563-.406,11-11A1.94,1.94,0,0,0,16-10.828a1.94,1.94,0,0,0-.594-1.422L14.25-13.406A1.94,1.94,0,0,0,12.828-14a1.94,1.94,0,0,0-1.422.594ZM3.938.656,1.031.969l.313-2.906,8.5-8.5,2.594,2.594ZM14.719-10.125,13.156-8.562l-2.594-2.594,1.563-1.562a.954.954,0,0,1,.7-.281.954.954,0,0,1,.7.281l1.188,1.188a.954.954,0,0,1,.281.7A.954.954,0,0,1,14.719-10.125Z" transform="translate(0.003 14)" fill="#a6aaaf"/>
</svg>
