
<svg  id="Capa_1" xmlns="http://www.w3.org/2000/svg" width="512" height="512" viewBox="0 0 512 512">
<g>
	<g>
		<path d="M481,358.7l-57.9-57.9c-15.5-15.5-42.5-15.5-57.9,0l-9.7,9.7l115.9,115.9l9.7-9.7C497.1,400.6,497,374.7,481,358.7z" style="fill: rgb(204,204,204);"/>
	</g>
</g>
<g>
	<g>
		<path d="M327.7,336.2c-12.2,9.4-29.6,9.1-40.7-2.1L172.4,219.5c-11.2-11.2-11.5-28.6-2.1-40.7L54.7,63.1
			C5,121.1,6.9,208.5,61.8,263.4l181.3,181.3c52.7,52.7,139,59.7,200.2,7.1L327.7,336.2z" style="fill: rgb(204,204,204);"/>
	</g>
</g>
<g>
	<g>
		<path d="M206.7,84.3l-57.9-57.9c-15.5-15.5-42.5-15.5-57.9,0L81.2,36l115.9,115.9l9.7-9.7C222.8,126.2,222.7,100.3,206.7,84.3z" style="fill: rgb(204,204,204);"/>
	</g>
</g>
</svg>


