<svg xmlns="http://www.w3.org/2000/svg" width="11.25" height="15" viewBox="0 0 11.25 15">
  <path id="Path_332" data-name="Path 332" d="M10.84-10.254,8.379-12.715a1.356,1.356,0,0,0-1-.41H1.406a1.356,1.356,0,0,0-1,.41,1.356,1.356,0,0,0-.41,1V.469a1.356,1.356,0,0,0,.41,1,1.356,1.356,0,0,0,1,.41H9.844a1.356,1.356,0,0,0,1-.41,1.356,1.356,0,0,0,.41-1V-9.258A1.356,1.356,0,0,0,10.84-10.254Zm-.674.674a.782.782,0,0,1,.146.205H7.5v-2.812a.782.782,0,0,1,.205.146ZM9.844.938H1.406A.451.451,0,0,1,.938.469V-11.719a.456.456,0,0,1,.132-.337.456.456,0,0,1,.337-.132H6.563v3.047a.678.678,0,0,0,.205.5.678.678,0,0,0,.5.205h3.047V.469a.451.451,0,0,1-.469.469ZM8.438-6.211a.339.339,0,0,0-.1-.249.339.339,0,0,0-.249-.1H3.164a.339.339,0,0,0-.249.1.339.339,0,0,0-.1.249v.234a.339.339,0,0,0,.1.249.339.339,0,0,0,.249.1H8.086a.339.339,0,0,0,.249-.1.339.339,0,0,0,.1-.249Zm0,1.875a.339.339,0,0,0-.1-.249.339.339,0,0,0-.249-.1H3.164a.339.339,0,0,0-.249.1.339.339,0,0,0-.1.249V-4.1a.339.339,0,0,0,.1.249.339.339,0,0,0,.249.1H8.086a.339.339,0,0,0,.249-.1.339.339,0,0,0,.1-.249Zm0,1.875a.339.339,0,0,0-.1-.249.339.339,0,0,0-.249-.1H3.164a.339.339,0,0,0-.249.1.339.339,0,0,0-.1.249v.234a.339.339,0,0,0,.1.249.339.339,0,0,0,.249.1H8.086a.339.339,0,0,0,.249-.1.339.339,0,0,0,.1-.249Z" transform="translate(0 13.125)" fill="#fff"/>
</svg>
