<svg xmlns="http://www.w3.org/2000/svg" width="16" height="16" viewBox="0 0 12 12">
  <g id="Group_2057" data-name="Group 2057" transform="translate(-521 -4614)">
    <circle id="Ellipse_199" data-name="Ellipse 199" cx="6" cy="6" r="6" transform="translate(521 4614)" fill="#03c500"/>
    <path id="Path_700" data-name="Path 700" d="M9.9-8.413,9.66-8.625a.251.251,0,0,0-.211-.106.329.329,0,0,0-.238.106L4.9-4.344,3.081-6.194a.386.386,0,0,0-.238-.079.286.286,0,0,0-.211.079l-.238.238a.286.286,0,0,0-.079.211.386.386,0,0,0,.079.238L4.666-3.235a.329.329,0,0,0,.238.106.251.251,0,0,0,.211-.106L9.9-7.964a.286.286,0,0,0,.079-.211A.386.386,0,0,0,9.9-8.413Z" transform="translate(520.686 4625.73)" fill="#fff"/>
  </g>
</svg>
