<svg xmlns="http://www.w3.org/2000/svg" width="10.203" height="13.392" viewBox="0 0 10.203 13.392">
  <path id="Icon_ionic-md-lock" data-name="Icon ionic-md-lock" d="M15.678,7.7H15.04V6.423a3.188,3.188,0,1,0-6.377,0V7.7H8.025A1.279,1.279,0,0,0,6.75,8.974v6.377a1.279,1.279,0,0,0,1.275,1.275h7.652a1.279,1.279,0,0,0,1.275-1.275V8.974A1.279,1.279,0,0,0,15.678,7.7Zm-3.826,5.8a1.275,1.275,0,1,1,1.275-1.275A1.279,1.279,0,0,1,11.852,13.5Zm1.977-5.8H9.875V6.423a1.977,1.977,0,1,1,3.954,0Z" transform="translate(-6.75 -3.234)" fill="#117093"/>
</svg>
