<svg xmlns="http://www.w3.org/2000/svg" width="18.857" height="16.5" viewBox="0 0 18.857 16.5">
  <path id="sms" d="M9.429,2.25C4.221,2.25,0,5.679,0,9.911a6.8,6.8,0,0,0,2.1,4.814A9.37,9.37,0,0,1,.081,18.253a.293.293,0,0,0-.055.32.288.288,0,0,0,.269.177,8.423,8.423,0,0,0,5.178-1.893,11.232,11.232,0,0,0,3.956.715c5.208,0,9.429-3.429,9.429-7.661S14.636,2.25,9.429,2.25ZM4.722,12.268H4.272a.3.3,0,0,1-.295-.295v-.589a.3.3,0,0,1,.295-.295h.453c.221,0,.383-.129.383-.243a.2.2,0,0,0-.077-.14l-.807-.692a1.361,1.361,0,0,1-.49-1.035A1.5,1.5,0,0,1,5.3,7.557h.449a.3.3,0,0,1,.295.295v.589a.3.3,0,0,1-.295.295H5.293c-.221,0-.383.129-.383.243a.2.2,0,0,0,.077.14l.807.692a1.361,1.361,0,0,1,.49,1.035A1.5,1.5,0,0,1,4.722,12.268Zm7.064-.295a.3.3,0,0,1-.295.295H10.9a.3.3,0,0,1-.295-.295V9.461l-.913,2.055a.294.294,0,0,1-.527,0L8.25,9.461v2.512a.3.3,0,0,1-.295.295H7.366a.3.3,0,0,1-.295-.295V8.143a.591.591,0,0,1,.589-.589H8.25a.586.586,0,0,1,.527.324l.652,1.3.652-1.3a.591.591,0,0,1,.527-.324H11.2a.591.591,0,0,1,.589.589Zm1.779.295h-.453a.3.3,0,0,1-.295-.295v-.589a.3.3,0,0,1,.295-.295h.453c.221,0,.383-.129.383-.243a.2.2,0,0,0-.077-.14l-.807-.692a1.361,1.361,0,0,1-.49-1.035,1.5,1.5,0,0,1,1.562-1.422h.449a.3.3,0,0,1,.295.295v.589a.3.3,0,0,1-.295.295h-.453c-.221,0-.383.129-.383.243a.2.2,0,0,0,.077.14l.807.692a1.361,1.361,0,0,1,.49,1.035A1.492,1.492,0,0,1,13.565,12.268Z" transform="translate(0 -2.25)" fill="#a6aaaf"/>
</svg>
