<svg xmlns="http://www.w3.org/2000/svg" width="10.78" height="14.38" viewBox="0 0 10.78 14.38">
  <path id="Path_318" data-name="Path 318" d="M5.39-10.5a5.2,5.2,0,0,0-2.695.73A5.493,5.493,0,0,0,.73-7.805,5.2,5.2,0,0,0,0-5.11,5.01,5.01,0,0,0,.2-3.65,9.077,9.077,0,0,0,.954-1.994q.393.646,1.628,2.611L4.239,3.227a1.286,1.286,0,0,0,.7.575,1.345,1.345,0,0,0,.9,0,1.286,1.286,0,0,0,.7-.575L8.2.617Q9.432-1.349,9.825-2.022a8.432,8.432,0,0,0,.758-1.628,5.01,5.01,0,0,0,.2-1.46,5.2,5.2,0,0,0-.73-2.695A5.493,5.493,0,0,0,8.085-9.77,5.2,5.2,0,0,0,5.39-10.5Zm0,13.025Q4.688,1.4,3.621-.254,2.5-2.05,2.162-2.64A6.811,6.811,0,0,1,1.5-3.973,3.8,3.8,0,0,1,1.347-5.11a3.9,3.9,0,0,1,.547-2.021A4.12,4.12,0,0,1,3.369-8.605,3.9,3.9,0,0,1,5.39-9.153a3.9,3.9,0,0,1,2.021.547A4.12,4.12,0,0,1,8.885-7.131,3.9,3.9,0,0,1,9.432-5.11a3.659,3.659,0,0,1-.154,1.123,7.82,7.82,0,0,1-.632,1.319q-.365.59-1.488,2.386ZM3.144-5.11A2.163,2.163,0,0,0,3.8-3.524a2.163,2.163,0,0,0,1.586.66,2.163,2.163,0,0,0,1.586-.66,2.163,2.163,0,0,0,.66-1.586A2.163,2.163,0,0,0,6.976-6.7a2.163,2.163,0,0,0-1.586-.66A2.163,2.163,0,0,0,3.8-6.7,2.163,2.163,0,0,0,3.144-5.11Z" transform="translate(0 10.5)" fill="#a6aaaf"/>
</svg>
