<svg id="Icon_ionic-ios-close-circle-outline" data-name="Icon ionic-ios-close-circle-outline" xmlns="http://www.w3.org/2000/svg" width="18.611" height="18.611" viewBox="0 0 18.611 18.611">
  <path id="Path_680" data-name="Path 680" d="M19.317,18.3,16.96,15.947l2.358-2.358a.715.715,0,1,0-1.011-1.011l-2.358,2.358-2.358-2.358a.715.715,0,1,0-1.011,1.011l2.358,2.358L12.58,18.3a.691.691,0,0,0,0,1.011.71.71,0,0,0,1.011,0l2.358-2.358,2.358,2.358a.718.718,0,0,0,1.011,0A.71.71,0,0,0,19.317,18.3Z" transform="translate(-6.643 -6.641)" fill="#1fa8e5"/>
  <path id="Path_681" data-name="Path 681" d="M12.681,4.628a8.05,8.05,0,1,1-5.7,2.358,8,8,0,0,1,5.7-2.358m0-1.253a9.306,9.306,0,1,0,9.306,9.306,9.3,9.3,0,0,0-9.306-9.306Z" transform="translate(-3.375 -3.375)" fill="#1fa8e5"/>
</svg>
