<svg xmlns="http://www.w3.org/2000/svg" width="69.553" height="34.477" viewBox="0 0 69.553 34.477">
  <g id="Group_1799" data-name="Group 1799" transform="translate(-236.5 -344)">
    <g id="envelop" transform="translate(241.062 371.525)">
      <path id="Path_680" data-name="Path 680" d="M0,0H26.493" transform="translate(-4.062 -17.41)" fill="none" stroke="#117093" stroke-linecap="round" stroke-width="1"/>
      <g id="envelop-2" data-name="envelop" transform="translate(0)">
        <path id="Path_648" data-name="Path 648" d="M424.154,441.056v-3.22a3.558,3.558,0,0,1,3.3-3.772h40.221a3.558,3.558,0,0,1,3.3,3.772v26.217s0,3.893-3.3,3.893l-40.221.595c-3.138,0-3.3-2.444-3.3-3.631v-2.883" transform="translate(-406.216 -461.589)" fill="#117093"/>
        <path id="Path_649" data-name="Path 649" d="M657.075,283.419l19.75,16.417a3.876,3.876,0,0,0,5.056-.154l19.651-16.519" transform="translate(-638.009 -310.017)" fill="none" stroke="#fff" stroke-miterlimit="10" stroke-width="1"/>
        <line id="Line_191" data-name="Line 191" x2="19.227" y2="16.574" transform="translate(45.438 -12.025)" fill="none" stroke="#fff" stroke-width="1"/>
        <line id="Line_192" data-name="Line 192" x1="18" y2="18" transform="translate(18.438 -12.025)" fill="none" stroke="#fff" stroke-width="1"/>
      </g>
      <path id="Path_684" data-name="Path 684" d="M0,0H3.949" transform="translate(18.482 -17.41)" fill="none" stroke="#fff" stroke-linecap="square" stroke-width="1"/>
      <path id="Path_681" data-name="Path 681" d="M0,0H17.265" transform="translate(5.166 -9.887)" fill="none" stroke="#117093" stroke-linecap="round" stroke-width="1"/>
      <path id="Path_685" data-name="Path 685" d="M0,0H3.949" transform="translate(18.482 -9.887)" fill="none" stroke="#fff" stroke-linecap="square" stroke-width="1"/>
      <path id="Path_682" data-name="Path 682" d="M0,0H12.116" transform="translate(10.316 -2.365)" fill="none" stroke="#117093" stroke-linecap="round" stroke-width="1"/>
      <path id="Path_686" data-name="Path 686" d="M0,0H3.949" transform="translate(18.482 -2.365)" fill="none" stroke="#fff" stroke-linecap="square" stroke-width="1"/>
    </g>
  </g>
</svg>
