<svg xmlns="http://www.w3.org/2000/svg" xmlns:xlink="http://www.w3.org/1999/xlink" width="205.061" height="266.383" viewBox="0 0 205.061 266.383">
  <defs>
    <radialGradient id="radial-gradient" cx="0.5" cy="0.5" r="0.477" gradientTransform="matrix(1.761, -0.24, 0.436, 0.971, -0.598, 0.135)" gradientUnits="objectBoundingBox">
      <stop offset="0" stop-color="#c2e8f8"/>
      <stop offset="0.054" stop-color="#b3def2"/>
      <stop offset="0.306" stop-color="#74b7d9"/>
      <stop offset="0.535" stop-color="#4297c5"/>
      <stop offset="0.734" stop-color="#1e80b6"/>
      <stop offset="0.896" stop-color="#0873ae"/>
      <stop offset="1" stop-color="#006eab"/>
    </radialGradient>
    <linearGradient id="linear-gradient" x1="0.704" y1="0.221" x2="0.253" y2="0.779" gradientUnits="objectBoundingBox">
      <stop offset="0" stop-color="#40457f"/>
      <stop offset="1" stop-color="#1e2353"/>
    </linearGradient>
    <linearGradient id="linear-gradient-2" x1="0.644" y1="0.321" x2="0.217" y2="0.982" gradientUnits="objectBoundingBox">
      <stop offset="0" stop-color="#3773b9"/>
      <stop offset="1" stop-color="#003c76"/>
    </linearGradient>
    <linearGradient id="linear-gradient-3" x1="0.851" y1="0.22" x2="-0.056" y2="0.742" xlink:href="#linear-gradient"/>
    <linearGradient id="linear-gradient-4" x1="0.587" y1="0.35" x2="0.051" y2="0.693" xlink:href="#linear-gradient-2"/>
    <linearGradient id="linear-gradient-5" x1="0.201" y1="0.854" x2="0.66" y2="0.351" gradientUnits="objectBoundingBox">
      <stop offset="0" stop-color="#ff8a78"/>
      <stop offset="1" stop-color="#ffa799"/>
    </linearGradient>
    <linearGradient id="linear-gradient-6" x1="0.603" y1="0.301" x2="0.48" y2="0.661" xlink:href="#linear-gradient-5"/>
    <linearGradient id="linear-gradient-7" x1="0.555" y1="0.429" x2="0.25" y2="0.705" gradientUnits="objectBoundingBox">
      <stop offset="0" stop-color="#ffb89e"/>
      <stop offset="1" stop-color="#ffa799"/>
    </linearGradient>
    <linearGradient id="linear-gradient-8" x1="1.001" y1="0.119" x2="0.284" y2="0.728" gradientUnits="objectBoundingBox">
      <stop offset="0" stop-color="#8a4791"/>
      <stop offset="1" stop-color="#562e65"/>
    </linearGradient>
    <linearGradient id="linear-gradient-9" x1="0.288" y1="0.705" x2="0.792" y2="0.272" xlink:href="#linear-gradient-5"/>
  </defs>
  <g id="illustration" transform="translate(1.325 -26.987)">
    <g id="Group_32" data-name="Group 32" transform="translate(138.417 44.922)">
      <rect id="Rectangle_13" data-name="Rectangle 13" width="29.401" height="20.228" transform="translate(0 8.57) rotate(-16.946)" fill="#2ea7cc"/>
      <path id="Path_65" data-name="Path 65" d="M209.912,154.019l-.761.232-10.5,13.206-16.082-5.105-.779.237.164.536,13.794,4.365L187.5,181.35l.179.589.64-.2,8.319-13.978,2.322.73,1.52-1.9,14.683,6.969.64-.2-.174-.571-14.575-6.926,9.017-11.316Z" transform="translate(-181.787 -154.019)" fill="#d2d3d4"/>
    </g>
    <g id="Group_67" data-name="Group 67" transform="translate(23.439 56.816)" opacity="0.42">
      <g id="Group_66" data-name="Group 66">
        <path id="Path_158" data-name="Path 158" d="M3641.08,1123.162l-49.667-12.3c-14.021-3.473-25.285-16.573-21.812-30.595L3610,917.195c3.474-14.021,15.609-13.861,29.631-10.387l54.063,13.392c14.021,3.473,24.829,9,21.356,23.018l-40.4,163.069C3671.177,1120.307,3655.1,1126.635,3641.08,1123.162Z" transform="translate(-3568.965 -904.841)" fill="#dbdada"/>
        <rect id="Rectangle_52" data-name="Rectangle 52" width="92.376" height="167.545" transform="translate(47.96 17.336) rotate(13.913)" fill="url(#radial-gradient)"/>
        <rect id="Rectangle_53" data-name="Rectangle 53" width="33.509" height="3.623" rx="1.811" transform="translate(79.252 13.425) rotate(13.913)" fill="#2d2d2d"/>
      </g>
    </g>
    <g id="Group_64" data-name="Group 64" transform="translate(12.274 51.849)">
      <g id="Group_59" data-name="Group 59" transform="translate(0 32.796)">
        <path id="Path_135" data-name="Path 135" d="M1675.269,1491.148a1.6,1.6,0,0,1-1.936,1.162l-72.562-18.19a1.6,1.6,0,0,1-1.159-1.939l17.65-70.407a1.6,1.6,0,0,1,1.936-1.163l72.562,18.19a1.6,1.6,0,0,1,1.159,1.939Z" transform="translate(-1599.563 -1400.435)" fill="#fff"/>
        <path id="Path_136" data-name="Path 136" d="M1973.881,1433.892l4-15.951a1.6,1.6,0,0,0-1.162-1.94l-72.711-18.227a1.6,1.6,0,0,0-1.94,1.162l-4,15.951Z" transform="translate(-1884.432 -1397.726)" fill="#1f6fa0"/>
        <rect id="Rectangle_14" data-name="Rectangle 14" width="3.243" height="20.876" transform="translate(15.613 26.181) rotate(-75.927)" fill="#1f6fa0"/>
        <rect id="Rectangle_15" data-name="Rectangle 15" width="0.731" height="70.21" transform="translate(14.436 31.066) rotate(-75.927)" fill="#9ad1e2"/>
        <rect id="Rectangle_16" data-name="Rectangle 16" width="0.731" height="70.21" transform="translate(12.036 40.637) rotate(-75.927)" fill="#9ad1e2"/>
        <rect id="Rectangle_17" data-name="Rectangle 17" width="0.731" height="70.21" transform="matrix(0.243, -0.97, 0.97, 0.243, 9.704, 49.942)" fill="#9ad1e2"/>
        <rect id="Rectangle_18" data-name="Rectangle 18" width="0.731" height="70.21" transform="translate(7.371 59.247) rotate(-75.927)" fill="#9ad1e2"/>
        <rect id="Rectangle_19" data-name="Rectangle 19" width="0.731" height="70.21" transform="matrix(0.243, -0.97, 0.97, 0.243, 4.928, 68.995)" fill="#9ad1e2"/>
        <rect id="Rectangle_20" data-name="Rectangle 20" width="39.833" height="0.731" transform="translate(4.573 68.906) rotate(-75.927)" fill="#9ad1e2"/>
        <rect id="Rectangle_21" data-name="Rectangle 21" width="39.833" height="0.731" transform="matrix(0.243, -0.97, 0.97, 0.243, 18.309, 72.349)" fill="#9ad1e2"/>
        <rect id="Rectangle_22" data-name="Rectangle 22" width="39.833" height="0.731" transform="translate(31.601 75.681) rotate(-75.927)" fill="#9ad1e2"/>
        <rect id="Rectangle_23" data-name="Rectangle 23" width="39.833" height="0.731" transform="translate(44.894 79.014) rotate(-75.927)" fill="#9ad1e2"/>
        <rect id="Rectangle_24" data-name="Rectangle 24" width="39.833" height="0.731" transform="translate(58.187 82.346) rotate(-75.927)" fill="#9ad1e2"/>
        <rect id="Rectangle_25" data-name="Rectangle 25" width="39.833" height="0.731" transform="translate(72.366 85.9) rotate(-75.927)" fill="#9ad1e2"/>
        <rect id="Rectangle_26" data-name="Rectangle 26" width="10.004" height="13.339" transform="matrix(0.243, -0.97, 0.97, 0.243, 39.397, 47.025)" fill="#9ad1e2"/>
        <rect id="Rectangle_27" data-name="Rectangle 27" width="10.004" height="13.339" transform="matrix(0.243, -0.97, 0.97, 0.243, 21.107, 62.69)" fill="#9ad1e2"/>
        <rect id="Rectangle_28" data-name="Rectangle 28" width="1.736" height="1.553" transform="matrix(0.243, -0.97, 0.97, 0.243, 15.187, 33.892)" fill="#1f6fa0"/>
        <rect id="Rectangle_29" data-name="Rectangle 29" width="1.736" height="1.553" transform="translate(12.755 43.596) rotate(-75.927)" fill="#1f6fa0"/>
        <rect id="Rectangle_30" data-name="Rectangle 30" width="1.736" height="1.553" transform="matrix(0.243, -0.97, 0.97, 0.243, 10.411, 52.945)" fill="#1f6fa0"/>
        <rect id="Rectangle_31" data-name="Rectangle 31" width="1.736" height="1.553" transform="translate(8.012 62.516) rotate(-75.928)" fill="#1f6fa0"/>
        <rect id="Rectangle_32" data-name="Rectangle 32" width="1.736" height="1.553" transform="matrix(0.243, -0.97, 0.97, 0.243, 28.923, 37.335)" fill="#1f6fa0"/>
        <rect id="Rectangle_33" data-name="Rectangle 33" width="1.736" height="1.553" transform="matrix(0.243, -0.97, 0.97, 0.243, 26.49, 47.039)" fill="#1f6fa0"/>
        <rect id="Rectangle_34" data-name="Rectangle 34" width="1.736" height="1.553" transform="matrix(0.243, -0.97, 0.97, 0.243, 24.147, 56.388)" fill="#fff"/>
        <rect id="Rectangle_35" data-name="Rectangle 35" width="1.736" height="1.553" transform="translate(21.747 65.959) rotate(-75.927)" fill="#1f6fa0"/>
        <rect id="Rectangle_36" data-name="Rectangle 36" width="1.736" height="1.553" transform="translate(42.216 40.668) rotate(-75.927)" fill="#fff"/>
        <rect id="Rectangle_37" data-name="Rectangle 37" width="1.736" height="1.553" transform="matrix(0.243, -0.97, 0.97, 0.243, 39.783, 50.371)" fill="#1f6fa0"/>
        <rect id="Rectangle_38" data-name="Rectangle 38" width="1.736" height="1.553" transform="matrix(0.243, -0.97, 0.97, 0.243, 37.439, 59.72)" fill="#1f6fa0"/>
        <rect id="Rectangle_39" data-name="Rectangle 39" width="1.736" height="1.553" transform="matrix(0.243, -0.97, 0.97, 0.243, 35.04, 69.291)" fill="#1f6fa0"/>
        <rect id="Rectangle_40" data-name="Rectangle 40" width="1.736" height="1.553" transform="translate(55.597 44.022) rotate(-75.927)" fill="#1f6fa0"/>
        <rect id="Rectangle_41" data-name="Rectangle 41" width="1.736" height="1.553" transform="translate(53.164 53.726) rotate(-75.927)" fill="#1f6fa0"/>
        <rect id="Rectangle_42" data-name="Rectangle 42" width="1.736" height="1.553" transform="matrix(0.243, -0.97, 0.97, 0.243, 50.821, 63.075)" fill="#1f6fa0"/>
        <rect id="Rectangle_43" data-name="Rectangle 43" width="1.736" height="1.553" transform="matrix(0.243, -0.97, 0.97, 0.243, 48.421, 72.646)" fill="#1f6fa0"/>
        <rect id="Rectangle_44" data-name="Rectangle 44" width="1.736" height="1.553" transform="matrix(0.243, -0.97, 0.97, 0.243, 68.89, 47.354)" fill="#1f6fa0"/>
        <rect id="Rectangle_45" data-name="Rectangle 45" width="1.736" height="1.553" transform="translate(66.457 57.058) rotate(-75.927)" fill="#1f6fa0"/>
        <rect id="Rectangle_46" data-name="Rectangle 46" width="1.736" height="1.553" transform="translate(64.113 66.407) rotate(-75.927)" fill="#1f6fa0"/>
        <rect id="Rectangle_47" data-name="Rectangle 47" width="1.736" height="1.553" transform="matrix(0.243, -0.97, 0.97, 0.243, 61.714, 75.978)" fill="#1f6fa0"/>
        <g id="Group_58" data-name="Group 58" transform="translate(26.072 4.195)">
          <path id="Path_137" data-name="Path 137" d="M2174.157,1491.983a1.947,1.947,0,1,1-1.415-2.362A1.947,1.947,0,0,1,2174.157,1491.983Z" transform="translate(-2170.321 -1489.562)" fill="#00446d"/>
          <path id="Path_138" data-name="Path 138" d="M2339.056,1533.32a1.947,1.947,0,1,1-1.415-2.362A1.947,1.947,0,0,1,2339.056,1533.32Z" transform="translate(-2327.687 -1529.011)" fill="#00446d"/>
          <path id="Path_139" data-name="Path 139" d="M2513.653,1577.089a1.947,1.947,0,1,1-1.415-2.362A1.947,1.947,0,0,1,2513.653,1577.089Z" transform="translate(-2494.309 -1570.781)" fill="#00446d"/>
          <path id="Path_140" data-name="Path 140" d="M2678.55,1618.426a1.947,1.947,0,1,1-1.415-2.362A1.947,1.947,0,0,1,2678.55,1618.426Z" transform="translate(-2651.674 -1610.229)" fill="#00446d"/>
          <path id="Path_141" data-name="Path 141" d="M2853.148,1662.195a1.947,1.947,0,1,1-1.416-2.362A1.948,1.948,0,0,1,2853.148,1662.195Z" transform="translate(-2818.296 -1651.999)" fill="#00446d"/>
          <path id="Path_142" data-name="Path 142" d="M3018.047,1703.531a1.947,1.947,0,1,1-1.416-2.362A1.948,1.948,0,0,1,3018.047,1703.531Z" transform="translate(-2975.661 -1691.447)" fill="#00446d"/>
          <path id="Path_143" data-name="Path 143" d="M3192.644,1747.3a1.947,1.947,0,1,1-1.416-2.362A1.947,1.947,0,0,1,3192.644,1747.3Z" transform="translate(-3142.283 -1733.216)" fill="#00446d"/>
          <path id="Path_144" data-name="Path 144" d="M3357.541,1788.638a1.947,1.947,0,1,1-1.416-2.362A1.947,1.947,0,0,1,3357.541,1788.638Z" transform="translate(-3299.647 -1772.666)" fill="#00446d"/>
        </g>
      </g>
      <g id="Group_63" data-name="Group 63" transform="translate(19.141 0)">
        <g id="Group_62" data-name="Group 62" transform="translate(1.354 2.284)">
          <g id="Group_61" data-name="Group 61" transform="translate(16.35 27.575)">
            <g id="Group_60" data-name="Group 60">
              <path id="Path_145" data-name="Path 145" d="M2850.336,1954.948l-.694-10.479-7.893,4.68Z" transform="translate(-2821.851 -1916.557)" fill="#333"/>
              <path id="Path_146" data-name="Path 146" d="M2426.205,1366.125l-.146-.1,7.892-4.68-.978-14.779-7.784-13.133-19.027,11.282,7.787,13.131,12.257,8.278Z" transform="translate(-2406.161 -1333.434)" fill="#e8c27e"/>
            </g>
          </g>
          <rect id="Rectangle_48" data-name="Rectangle 48" width="22.12" height="46.895" transform="matrix(0.86, -0.51, 0.51, 0.86, 0, 11.281)" fill="#f48221"/>
          <rect id="Rectangle_49" data-name="Rectangle 49" width="10.617" height="46.895" transform="translate(4.567 8.573) rotate(-30.662)" fill="#f2501d"/>
        </g>
        <rect id="Rectangle_50" data-name="Rectangle 50" width="22.12" height="6.194" transform="translate(0 11.282) rotate(-30.665)" fill="#2ea7cc"/>
        <rect id="Rectangle_51" data-name="Rectangle 51" width="22.12" height="1.903" transform="matrix(0.86, -0.51, 0.51, 0.86, 4.103, 18.202)" fill="#0fb4db"/>
      </g>
    </g>
    <g id="Group_65" data-name="Group 65" transform="translate(122.368 98.995)" opacity="0.53">
      <path id="Path_147" data-name="Path 147" d="M3876.311,2959.636a13.276,13.276,0,0,0-6.372,1.906,12.013,12.013,0,0,0-4.078,4.318,15.414,15.414,0,0,0-1.105,11.9,13.636,13.636,0,0,0,8.133,8.885,14.862,14.862,0,0,0,7.1.814,12.71,12.71,0,0,0,6.083-2.562,15.794,15.794,0,0,0,5.767-11.359,13.744,13.744,0,0,0-7.947-14.056,12.5,12.5,0,0,0-5.081-1.091,16.48,16.48,0,0,0-10.41,3.815c-.375.3-.087,1.394.411,1a15.868,15.868,0,0,1,10.472-3.633,11.855,11.855,0,0,1,4.846,1.243,13.237,13.237,0,0,1,2.943,2.023,12.364,12.364,0,0,1,3.432,5.421,14.115,14.115,0,0,1,.469,6.153,14.288,14.288,0,0,1-6.552,10.33,13.51,13.51,0,0,1-13.14-.046,13.034,13.034,0,0,1-6.322-9.558,14.192,14.192,0,0,1,.314-5.609,11.483,11.483,0,0,1,11.063-8.72c.521-.028.487-1.193-.029-1.166Z" transform="translate(-3861.96 -2955.855)" fill="#fff"/>
      <path id="Path_148" data-name="Path 148" d="M3974.574,3088.05a2.5,2.5,0,0,0-2.645-.362,3,3,0,0,0-1.351,2.166,3.406,3.406,0,0,0,.634,2.682,3.215,3.215,0,0,0,5.549-2.533,3.752,3.752,0,0,0-1.1-2.332A4.152,4.152,0,0,0,3973,3086.6c-.507-.036-.5,1.129.029,1.166a3.273,3.273,0,0,1,2.733,1.543,1.964,1.964,0,0,1-.1,2.112,2.714,2.714,0,0,1-2.669.927,2.189,2.189,0,0,1-1.172-.554,1.721,1.721,0,0,1-.317-.415c.052.088-.025-.05-.028-.057-.021-.044-.04-.089-.058-.134s-.035-.091-.051-.137c.041.119-.018-.073-.023-.1-.011-.044-.054-.32-.039-.182a3.194,3.194,0,0,1-.015-.342c0-.022.01-.186,0-.04,0-.048.009-.1.015-.146s.014-.1.022-.144c0-.022.048-.221.017-.1a2.519,2.519,0,0,1,.087-.274,1.033,1.033,0,0,1,.1-.225,1.7,1.7,0,0,1,.33-.458,1.8,1.8,0,0,1,2.348.022c.528.359.758-.747.361-1.016Z" transform="translate(-3958.927 -3072.62)" fill="#fff"/>
      <path id="Path_149" data-name="Path 149" d="M3990.247,3018.661a58.723,58.723,0,0,1,.266-6.735l-.7.156c1,2.332.909,4.978,1.336,7.441.036.209.229.509.482.4s.291-.484.25-.724c-.445-2.569-.376-5.284-1.42-7.718-.19-.442-.647-.274-.7.156a61.091,61.091,0,0,0-.286,7.045c0,.219.123.58.4.574s.368-.374.368-.593Z" transform="translate(-3976.189 -3003.973)" fill="#fff"/>
      <path id="Path_150" data-name="Path 150" d="M4010.244,3138.531c2.113,1.69,4.215,3.4,6.2,5.236q.083-.546.167-1.091a11.241,11.241,0,0,1-4.187-1.583c-1.339-.754-2.6-1.64-3.887-2.476-.536-.348-.763.756-.361,1.016,1.35.876,2.673,1.792,4.072,2.589a11.562,11.562,0,0,0,4.392,1.62c.213.023.333-.277.358-.437a.741.741,0,0,0-.192-.654c-1.985-1.84-4.088-3.546-6.2-5.237-.493-.394-.735.718-.362,1.017Z" transform="translate(-3993.029 -3118.915)" fill="#fff"/>
      <path id="Path_151" data-name="Path 151" d="M3884.867,3136.071h2.481c.518,0,.494-1.072-.029-1.072h-2.481c-.517,0-.494,1.072.029,1.072Z" transform="translate(-3880.547 -3116.701)" fill="#fff"/>
      <path id="Path_152" data-name="Path 152" d="M4110.283,3117.054a15.887,15.887,0,0,0,2.481.137c.517,0,.494-1.166-.029-1.167a15.822,15.822,0,0,1-2.48-.138c-.489-.077-.494,1.084.028,1.167Z" transform="translate(-4085.844 -3099.292)" fill="#fff"/>
      <path id="Path_153" data-name="Path 153" d="M4087.267,3022.71l1.377-1.378a.762.762,0,0,0,.118-.8c-.084-.205-.33-.4-.529-.2l-1.377,1.378a.764.764,0,0,0-.118.8c.085.2.33.4.529.2Z" transform="translate(-4064.703 -3012.198)" fill="#fff"/>
      <path id="Path_154" data-name="Path 154" d="M3909.418,3045.99a16.812,16.812,0,0,0,1.654,1.516c.5.385.742-.726.361-1.016a16.749,16.749,0,0,1-1.653-1.516c-.2-.2-.448.024-.519.222a.773.773,0,0,0,.157.795Z" transform="translate(-3903.089 -3034.642)" fill="#fff"/>
      <path id="Path_155" data-name="Path 155" d="M3945.387,3205.778c.155-.294.4-.532.551-.827a.81.81,0,0,0-.021-.825.306.306,0,0,0-.541.014c-.156.294-.4.532-.552.827a.809.809,0,0,0,.02.824.307.307,0,0,0,.542-.013Z" transform="translate(-3935.426 -3179.512)" fill="#fff"/>
      <path id="Path_156" data-name="Path 156" d="M4008.938,3213.377a18.576,18.576,0,0,0-.155-2.91c-.034-.211-.23-.508-.481-.4s-.288.482-.25.723a16.652,16.652,0,0,1,.121,2.6c0,.219.123.58.4.573s.369-.374.369-.592Z" transform="translate(-3993.087 -3185.046)" fill="#fff"/>
      <path id="Path_157" data-name="Path 157" d="M3847.976,2933.471a14.8,14.8,0,0,0-5.228,4.964,14.494,14.494,0,0,0-2.062,6.3,18.527,18.527,0,0,0,3.72,12.666,14.705,14.705,0,0,0,11.134,6.123,15.6,15.6,0,0,0,7.362-1.806,18.232,18.232,0,0,0,7.271-6.585,15.94,15.94,0,0,0,2.429-9.441,18.75,18.75,0,0,0-3.8-9.842,21.3,21.3,0,0,0-3.769-3.955,8.247,8.247,0,0,0-4.553-1.8,21.976,21.976,0,0,0-5.034.556c-1.679.27-3.375.432-5.027.853a9.834,9.834,0,0,0-5.012,2.985.774.774,0,0,0-.118.8c.08.193.339.41.529.2a9.246,9.246,0,0,1,4.356-2.73,35.637,35.637,0,0,1,4.99-.89,28.386,28.386,0,0,1,5.065-.618,7.65,7.65,0,0,1,4.535,1.734,20.314,20.314,0,0,1,3.7,3.958,18.159,18.159,0,0,1,2.465,4.656,14.438,14.438,0,0,1,.136,9.7,16.593,16.593,0,0,1-5.766,7.677,16.827,16.827,0,0,1-7.792,3.281,13.529,13.529,0,0,1-11.659-4.575,17.212,17.212,0,0,1-4.468-11.769,13.407,13.407,0,0,1,1.558-6.037,13.555,13.555,0,0,1,4.792-5.007c.156-.1.314-.191.473-.283.426-.247.24-1.392-.231-1.12Z" transform="translate(-3840.616 -2930.082)" fill="#fff"/>
    </g>
    <g id="Group_75" data-name="Group 75" transform="translate(147.251 77.14)">
      <g id="Group_68" data-name="Group 68" transform="translate(0 166.352)" opacity="0.6">
        <path id="Path_160" data-name="Path 160" d="M3833.618,3448.246c2.048,9.151,3.515,18.476,6.578,27.367.063.185.284.4.495.291a15.24,15.24,0,0,1,4.733-1.35c1.758-.271,3.534-.4,5.3-.542,2.077-.168,4.129-.567,6.195-.838a53.244,53.244,0,0,1,6.821-.51c.584,0,.557-1.317-.032-1.316a53.966,53.966,0,0,0-6.821.51c-2.1.272-4.187.675-6.3.847-1.776.144-3.554.279-5.317.551a15.7,15.7,0,0,0-4.844,1.384l.5.291c-3.025-8.785-4.46-18.013-6.483-27.055-.052-.233-.25-.578-.542-.447s-.341.55-.282.817Z" transform="translate(-3833.597 -3443.356)" fill="#cbc4c4"/>
        <path id="Path_161" data-name="Path 161" d="M3834.047,3412.165c8.03.918,15.654-2.466,23.479-3.577l-.437-.822c-.6,9.263,3.187,18.048,5.134,26.939q.169.775.317,1.555c.045.235.255.575.542.446s.333-.547.282-.816c-.861-4.511-2.252-8.9-3.419-13.333a49.263,49.263,0,0,1-2.056-13.452c.007-.337.02-.673.042-1.009.016-.241-.042-.879-.437-.822-7.826,1.109-15.45,4.494-23.479,3.576-.562-.064-.56,1.248.032,1.316Z" transform="translate(-3833.598 -3407.27)" fill="#cbc4c4"/>
        <path id="Path_162" data-name="Path 162" d="M3898.865,3494.255c3.143-.463,6.327-.467,9.484-.777.591-.058.543-1.373-.032-1.316-3.158.312-6.341.314-9.484.778-.59.086-.532,1.4.032,1.315Z" transform="translate(-3891.884 -3483.606)" fill="#cbc4c4"/>
        <path id="Path_163" data-name="Path 163" d="M3909.656,3521.21c3.479-.472,6.987-.782,10.418-1.555.583-.131.509-1.437-.032-1.316-3.432.773-6.939,1.083-10.419,1.555-.589.08-.533,1.393.033,1.316Z" transform="translate(-3901.587 -3507.141)" fill="#cbc4c4"/>
        <path id="Path_164" data-name="Path 164" d="M3914.338,3549.944a60.288,60.288,0,0,1,12.014-2.462c.59-.068.538-1.382-.033-1.315a61.477,61.477,0,0,0-12.243,2.514c-.522.173-.352,1.466.261,1.263Z" transform="translate(-3905.689 -3532.17)" fill="#cbc4c4"/>
        <path id="Path_165" data-name="Path 165" d="M3937.438,3592.354a81.332,81.332,0,0,1,8.283-1.684c.588-.1.526-1.409-.033-1.316a83.591,83.591,0,0,0-8.51,1.736c-.526.145-.366,1.436.26,1.263Z" transform="translate(-3926.457 -3571.004)" fill="#cbc4c4"/>
        <path id="Path_166" data-name="Path 166" d="M3952.956,3630.226a32.611,32.611,0,0,1,6.687-.933c.585,0,.557-1.319-.032-1.316a32.655,32.655,0,0,0-6.686.933c-.583.125-.513,1.433.032,1.316Z" transform="translate(-3940.533 -3605.738)" fill="#cbc4c4"/>
      </g>
      <g id="Group_69" data-name="Group 69" transform="translate(26.528 0)" opacity="0.6">
        <path id="Path_167" data-name="Path 167" d="M4099.614,1759.654a135.593,135.593,0,0,0,18.139-2.267c.476-.086.424-1.147-.026-1.066a135.587,135.587,0,0,1-18.14,2.267c-.477.021-.447,1.087.027,1.066Z" transform="translate(-4099.004 -1756.317)" fill="#cbc4c4"/>
        <path id="Path_168" data-name="Path 168" d="M4266.883,1764.7a67.5,67.5,0,0,0,2.267,6.55c.082.165.205.3.4.236a60.616,60.616,0,0,1,7.213-1.49c.474-.094.419-1.154-.027-1.066a62.275,62.275,0,0,0-7.4,1.533l.4.235a67.423,67.423,0,0,1-2.268-6.551c-.074-.2-.3-.35-.484-.179a.7.7,0,0,0-.107.732Z" transform="translate(-4249.704 -1763.128)" fill="#cbc4c4"/>
        <path id="Path_169" data-name="Path 169" d="M4282.31,1764.782c2.654,1.336,5.1,3.043,7.811,4.283.459.21.57-.844.161-1.032-2.707-1.24-5.156-2.947-7.811-4.283-.446-.225-.563.83-.161,1.032Z" transform="translate(-4263.402 -1762.973)" fill="#cbc4c4"/>
        <path id="Path_170" data-name="Path 170" d="M4096.918,1794.756a81.079,81.079,0,0,1,4.862,14.635c.575,2.346,1.188,4.718,1.572,7.1a40.465,40.465,0,0,0,.528,4.019,2.346,2.346,0,0,0,2.07,1.893,7.958,7.958,0,0,0,2.362-.141c1.238-.205,2.475-.385,3.7-.643,1.282-.269,2.536-.626,3.838-.771q2.021-.225,4.04-.461a21.178,21.178,0,0,0,4.977-.943,2.905,2.905,0,0,0,1.841-2.368,10.629,10.629,0,0,0,.091-2.35q-.068-1.715-.238-3.423a108.967,108.967,0,0,0-2.631-14.679q-.215-.9-.438-1.793c-.171-.683-.808-.257-.668.3a123.865,123.865,0,0,1,2.861,14.594,37.65,37.65,0,0,1,.419,6.433,2.236,2.236,0,0,1-1.388,2.239,9.428,9.428,0,0,1-1.878.482c-1.04.195-2.078.337-3.128.461-1.349.16-2.7.31-4.05.461-1.295.144-2.55.517-3.825.785-1.218.256-2.445.427-3.672.631a7.742,7.742,0,0,1-2.311.111c-1.051-.146-1.307-.9-1.447-1.8-.215-1.39-.264-2.794-.541-4.177-.482-2.4-1.048-4.787-1.644-7.16a79.8,79.8,0,0,0-4.717-13.986c-.292-.636-.8.1-.59.553Z" transform="translate(-4096.869 -1790.163)" fill="#cbc4c4"/>
        <path id="Path_171" data-name="Path 171" d="M4159.665,1830.7a14.71,14.71,0,0,0,6.642-.777c.42-.155.278-1.2-.211-1.024a14.281,14.281,0,0,1-6.458.735c-.458-.048-.455,1.015.026,1.066Z" transform="translate(-4153.009 -1821.565)" fill="#cbc4c4"/>
        <path id="Path_172" data-name="Path 172" d="M4179.7,1851.279c2.794-.5,5.652-.544,8.406-1.281.426-.114.3-1.159-.211-1.023-2.688.719-5.492.751-8.222,1.238-.476.085-.424,1.146.026,1.066Z" transform="translate(-4171.032 -1839.628)" fill="#cbc4c4"/>
        <path id="Path_173" data-name="Path 173" d="M4187.123,1876.447c3.834-.018,7.527-1.244,11.337-1.512.479-.034.444-1.1-.026-1.066-3.811.268-7.5,1.494-11.337,1.512-.474,0-.45,1.068.026,1.066Z" transform="translate(-4177.697 -1862.024)" fill="#cbc4c4"/>
        <path id="Path_174" data-name="Path 174" d="M4199.669,1901.953c3.807-.518,7.494-1.745,11.337-2.015.478-.034.443-1.1-.026-1.066-3.844.27-7.531,1.5-11.337,2.015-.479.065-.433,1.129.025,1.066Z" transform="translate(-4188.983 -1884.508)" fill="#cbc4c4"/>
        <path id="Path_175" data-name="Path 175" d="M4207.242,1941.2a77.4,77.4,0,0,1,10.582-1.26c.478-.034.443-1.1-.027-1.066a77.364,77.364,0,0,0-10.581,1.26c-.473.1-.415,1.159.025,1.066Z" transform="translate(-4195.801 -1920.482)" fill="#cbc4c4"/>
        <path id="Path_176" data-name="Path 176" d="M4219.669,1963.941l11.338-1.511c.478-.063.433-1.127-.026-1.066l-11.337,1.512c-.478.064-.433,1.127.025,1.066Z" transform="translate(-4206.968 -1940.7)" fill="#cbc4c4"/>
      </g>
      <g id="Group_70" data-name="Group 70" transform="translate(5.909 103.345)" opacity="0.6">
        <path id="Path_177" data-name="Path 177" d="M4155.8,2568.192a13.21,13.21,0,0,1,2.954-3.442l-.352.009a9.064,9.064,0,0,0,2.85,2.291c1.3.511,2.375-.387,3.114-1.377a.711.711,0,0,0-.019-.754c-.793-1.066-1.475-2.208-2.267-3.275q-.026.42-.05.839a9.412,9.412,0,0,1,3.451-2.505c1.155-.51,2.541-.713,3.276.522.517.87.507,1.958,1.006,2.842.649,1.149,1.906,1.046,3.017.709.143-.043.217-.25.236-.378.115-.832.18-1.67.287-2.5a6.1,6.1,0,0,1,.637-2.3l-.337.146c1.459.355,2.979.352,4.417.82a3.542,3.542,0,0,1,1.8,1.165,2.191,2.191,0,0,1,.247.439,1.888,1.888,0,0,1,.084.233c-.035-.123,0-.011,0,.028a.555.555,0,0,1-.012.191c-.016.125-.042.25-.069.374-.354,1.621-1.946,4.971.727,5.573a4.454,4.454,0,0,0,2.367-.1,2.975,2.975,0,0,0,1.276-1.377c.339-.544.895-1.169,1.626-1.03a4.846,4.846,0,0,1,2.492,1.676,7.7,7.7,0,0,1,1.6,2.482,1.234,1.234,0,0,1-.292,1.372,12.3,12.3,0,0,1-1.7,1.354c-.344.26-.676.533-.994.824s-.913.746-.982,1.193a2.914,2.914,0,0,0,.459,1.487,2.615,2.615,0,0,0,.7.909,1.641,1.641,0,0,0,1.584.142c1.094-.357,2.406-1.349,3.445-.329a4.07,4.07,0,0,1,.925,2.024,4.81,4.81,0,0,1,.017,2.293,4.214,4.214,0,0,1-1.048,1.783,2.676,2.676,0,0,1-1.513.67c-1.229.169-2.479-.163-3.7.118-1.653.381-2.319,1.987-2.631,3.5-.038.183.022.6.26.65a8.982,8.982,0,0,1,3.57,1.276,1.7,1.7,0,0,1,.6.735.711.711,0,0,1,.043.3,1.041,1.041,0,0,1-.018.186,1.449,1.449,0,0,1-.047.211,7.28,7.28,0,0,1-1.4,2.322c-.752.963-1.569,1.874-2.348,2.817l.354-.008c-2.038-1.385-3.811-4.779-6.714-3.621a3.084,3.084,0,0,0-1.632,1.343,2.642,2.642,0,0,0-.154,1.794c.282,1.276,1.161,2.392,1.182,3.729.083-.174.164-.347.245-.521a21.183,21.183,0,0,1-4.394,1.469c-1.431.268-3.169.275-3.754-1.331-.39-1.073.414-2.313.527-3.375a2.416,2.416,0,0,0-.461-1.8,4.482,4.482,0,0,0-2.313-1.27.258.258,0,0,0-.269.061,19.264,19.264,0,0,0-1.714,2.047,9.331,9.331,0,0,1-1.371,1.622c-1.314,1.109-3.1-.555-4.018-1.437a2.684,2.684,0,0,1-.981-1.658,2.166,2.166,0,0,1,.612-1.292c.916-1.126,2.058-2.031,2.877-3.242a.712.712,0,0,0,.039-.647,3.534,3.534,0,0,0-1.571-1.633,3.884,3.884,0,0,0-2.087-.279,14.4,14.4,0,0,0-4.3,1.425l.344.129c-.4-.734-.852-1.441-1.24-2.183a2.969,2.969,0,0,1-.483-1.715,2.847,2.847,0,0,1,1.237-1.615,4.1,4.1,0,0,1,1.457-.642,4.632,4.632,0,0,0,2.311-.808c.894-.9.564-2.547.34-3.638a.425.425,0,0,0-.347-.383,17.2,17.2,0,0,1-3.58-.364,1.762,1.762,0,0,1-1.354-1.744,8.328,8.328,0,0,1,.849-4.271,8.83,8.83,0,0,1,2.943-3.661c.379-.242.2-1.287-.21-1.023a10.632,10.632,0,0,0-4.276,9.063,2.78,2.78,0,0,0,1.634,2.584,13.472,13.472,0,0,0,4.02.482l-.346-.383c.182.887.554,2.268-.483,2.709-.864.368-1.833.349-2.692.768a3.674,3.674,0,0,0-2.212,3.307c.09,1.556,1.233,2.966,1.956,4.281a.281.281,0,0,0,.344.129c2.013-.9,5.741-2.716,7.157.017q.019-.324.039-.647c-.889,1.313-2.2,2.254-3.106,3.551a3.057,3.057,0,0,0,.433,3.947,8.956,8.956,0,0,0,2.582,2.009,2.227,2.227,0,0,0,2.027.089,5.032,5.032,0,0,0,1.576-1.576,23.5,23.5,0,0,1,1.972-2.407l-.268.06a3.579,3.579,0,0,1,2.157,1.231,1.724,1.724,0,0,1-.059,1.289c-.387,1.375-.761,2.681-.01,4.013.826,1.463,2.509,1.537,4,1.29a20.237,20.237,0,0,0,4.564-1.478l.118-.05a.549.549,0,0,0,.245-.52,10.043,10.043,0,0,0-1.032-3.443,1.993,1.993,0,0,1-.192-1.28c.189-.589.92-.935,1.445-1.144a3.049,3.049,0,0,1,3.175.936,30.766,30.766,0,0,0,2.89,2.633.257.257,0,0,0,.354-.008c.862-1.045,1.764-2.057,2.595-3.127a7.365,7.365,0,0,0,1.478-2.7c.658-2.7-2.75-3.57-4.684-3.963l.261.65c.283-1.366.907-2.573,2.4-2.779,1.156-.16,2.327.126,3.482-.072a3.856,3.856,0,0,0,2.8-2.58,6.421,6.421,0,0,0-.251-4.867,3.107,3.107,0,0,0-1.465-1.722,2.763,2.763,0,0,0-2.06.128,6.645,6.645,0,0,1-1.765.642c-.851.068-1.191-.988-1.386-1.631q-.073.3-.146.606a12.171,12.171,0,0,1,2.063-1.875,8.865,8.865,0,0,0,1.6-1.336c1.166-1.4.292-3.135-.588-4.431-.912-1.341-2.725-3.36-4.539-2.8a2.826,2.826,0,0,0-1.412,1.368,4.028,4.028,0,0,1-.5.7,1.433,1.433,0,0,1-.971.374,3.285,3.285,0,0,1-1.99-.224.854.854,0,0,1-.424-.864,14.483,14.483,0,0,1,.749-3.037,2.808,2.808,0,0,0,.045-1.549,3.361,3.361,0,0,0-1.344-1.764,10.4,10.4,0,0,0-4.471-1.2,11.727,11.727,0,0,1-1.175-.206.288.288,0,0,0-.337.145c-.907,1.575-.849,3.526-1.092,5.276.079-.127.158-.252.235-.379a2.643,2.643,0,0,1-1.827.074,1.428,1.428,0,0,1-.659-.916,8.073,8.073,0,0,0-1.163-2.882c-.98-1.112-2.417-.875-3.651-.349a9.723,9.723,0,0,0-3.615,2.617.707.707,0,0,0-.051.839c.793,1.066,1.475,2.209,2.267,3.275,0-.251-.012-.5-.019-.753-.66.884-1.52,1.489-2.616,1.013a9.07,9.07,0,0,1-2.5-2.114.255.255,0,0,0-.353.009,13.876,13.876,0,0,0-3.093,3.612.732.732,0,0,0,.018.754.281.281,0,0,0,.5-.012Z" transform="translate(-4152.846 -2557.973)" fill="#cbc4c4"/>
        <path id="Path_178" data-name="Path 178" d="M4289.331,2675.189a5.683,5.683,0,0,0-5.489.751,8.543,8.543,0,0,0-2.809,5c-.87,4,.373,8.984,4.33,10.862a9.387,9.387,0,0,0,7.443-.037,6.883,6.883,0,0,0,3.976-5.251c.792-4.5-1.866-9.984-6.29-11.544a7.665,7.665,0,0,0-5.883.478c-.407.2-.248,1.245.211,1.023a7.086,7.086,0,0,1,6.888.18,9.831,9.831,0,0,1,4.044,5.409,7.858,7.858,0,0,1-.358,6.205c-1.259,2.24-3.806,3.113-6.25,3.194a7.132,7.132,0,0,1-5.8-2.372,8.715,8.715,0,0,1-1.865-5.458c-.066-3.412,1.792-7.941,5.924-7.768a6.25,6.25,0,0,1,1.77.363c.489.169.585-.886.161-1.033Z" transform="translate(-4267.661 -2662.834)" fill="#cbc4c4"/>
        <path id="Path_179" data-name="Path 179" d="M4169.609,2630.228c.763-2.474,2.489-4.443,4.162-6.355a.711.711,0,0,0,.108-.733c-.073-.174-.312-.376-.484-.179-1.774,2.028-3.595,4.12-4.4,6.745a.7.7,0,0,0,.143.726c.19.161.412,0,.475-.2Z" transform="translate(-4167.109 -2616.339)" fill="#cbc4c4"/>
        <path id="Path_180" data-name="Path 180" d="M4161.853,2690.495a1.419,1.419,0,0,0-.414.968c0,.2.114.53.363.524s.334-.341.336-.542c0-.053-.016.191-.006.107,0-.013,0-.027.007-.04.014-.078-.039.14-.014.056.007-.023.016-.045.024-.066-.052.129-.02.04,0,.01s.036-.054.055-.081c-.059.081.016-.015.027-.026a.7.7,0,0,0,.107-.732c-.076-.184-.3-.366-.483-.179Z" transform="translate(-4160.354 -2677.071)" fill="#cbc4c4"/>
        <path id="Path_181" data-name="Path 181" d="M4176.913,2693.85a16.82,16.82,0,0,1,2.324,1.293,2.6,2.6,0,0,1,.537.491,1.291,1.291,0,0,1,.124.192.572.572,0,0,1,.084.241,5.5,5.5,0,0,1-.053,1.551c-.112,1.008-.211,2.016-.263,3.03-.01.2.12.53.363.524.265-.006.327-.342.336-.542.05-1.017.168-2.026.276-3.038a5.306,5.306,0,0,0-.025-1.953,2.611,2.611,0,0,0-1-1.39,15.962,15.962,0,0,0-2.543-1.433c-.447-.224-.563.83-.161,1.032Z" transform="translate(-4174.047 -2679.202)" fill="#cbc4c4"/>
        <path id="Path_182" data-name="Path 182" d="M4229.269,2591.245c.551,1.36,1.215,2.67,1.764,4.031q.054-.367.107-.732a19.605,19.605,0,0,1-2.941,1.708l.271.048a4.753,4.753,0,0,1-1.381-1.576c-.074-.2-.3-.351-.483-.179a.7.7,0,0,0-.107.732,5.689,5.689,0,0,0,1.642,1.951.249.249,0,0,0,.271.047,20.725,20.725,0,0,0,3.1-1.819.683.683,0,0,0,.107-.733c-.549-1.36-1.214-2.67-1.763-4.031-.08-.195-.3-.354-.483-.179a.7.7,0,0,0-.109.732Z" transform="translate(-4218.809 -2587.167)" fill="#cbc4c4"/>
        <path id="Path_183" data-name="Path 183" d="M4324.482,2601.712a3.971,3.971,0,0,1,1.671-.231c.473,0,.451-1.066-.026-1.066a4.43,4.43,0,0,0-1.857.273c-.41.188-.254,1.237.211,1.023Z" transform="translate(-4306.565 -2596.139)" fill="#cbc4c4"/>
        <path id="Path_184" data-name="Path 184" d="M4344.677,2571.23c1.879-1.122,1.738-3.259,2-5.165.03-.22-.021-.556-.261-.65s-.395.191-.421.383c-.21,1.541.009,3.491-1.528,4.408-.387.231-.214,1.278.211,1.023Z" transform="translate(-4324.746 -2564.649)" fill="#cbc4c4"/>
        <path id="Path_185" data-name="Path 185" d="M4419.177,2639.013a3.082,3.082,0,0,1,1.857,1.379.28.28,0,0,0,.5-.012.728.728,0,0,0-.019-.754,3.711,3.711,0,0,0-2.173-1.645c-.506-.135-.591.918-.161,1.032Z" transform="translate(-4391.874 -2629.908)" fill="#cbc4c4"/>
        <path id="Path_186" data-name="Path 186" d="M4419.47,2631.33a5.039,5.039,0,0,1,2.3,2.531c.08.193.3.355.484.179a.692.692,0,0,0,.107-.732,5.946,5.946,0,0,0-2.735-3.011c-.442-.229-.561.825-.16,1.032Z" transform="translate(-4392.166 -2622.981)" fill="#cbc4c4"/>
        <path id="Path_187" data-name="Path 187" d="M4434.794,2616.529l2.771-2.771c.307-.307.027-1.314-.376-.912l-2.771,2.771c-.307.307-.027,1.315.376.911Z" transform="translate(-4405.711 -2607.232)" fill="#cbc4c4"/>
        <path id="Path_188" data-name="Path 188" d="M4469.274,2616.438a4.084,4.084,0,0,1,1.857,1.63.28.28,0,0,0,.5-.012.729.729,0,0,0-.019-.754,4.8,4.8,0,0,0-2.174-1.9c-.484-.177-.583.877-.16,1.032Z" transform="translate(-4436.932 -2609.601)" fill="#cbc4c4"/>
        <path id="Path_189" data-name="Path 189" d="M4447.294,2626.7a30.233,30.233,0,0,1,3.023-2.771c.349-.264.089-1.264-.376-.912a30.234,30.234,0,0,0-3.023,2.771c-.307.307-.026,1.315.376.912Z" transform="translate(-4416.951 -2616.398)" fill="#cbc4c4"/>
        <path id="Path_190" data-name="Path 190" d="M4489.073,2716.408a3.345,3.345,0,0,1,.644,1.641c.005.2.109.53.363.524s.343-.341.337-.542a4.752,4.752,0,0,0-.867-2.39.281.281,0,0,0-.5.012.734.734,0,0,0,.019.754Z" transform="translate(-4454.873 -2699.626)" fill="#cbc4c4"/>
        <path id="Path_191" data-name="Path 191" d="M4481.48,2725.973a2.077,2.077,0,0,0,.436,1.464c.177.195.413-.031.474-.2a.713.713,0,0,0-.142-.726c-.018-.018-.015-.038-.031-.078.021.053-.022-.114-.026-.139.016.093-.007-.1-.008-.119,0-.072,0-.144,0-.217,0-.2-.114-.53-.363-.524s-.338.341-.337.541Z" transform="translate(-4448.148 -2708.558)" fill="#cbc4c4"/>
        <path id="Path_192" data-name="Path 192" d="M4494.745,2718.9c.927-.584,2.195-1.312,3.341-1.04,1.309.311,1.3,2,1.241,3.056-.009.2.12.53.363.525.265-.007.326-.342.337-.542.072-1.39-.058-3.338-1.534-3.989-1.288-.568-2.9.3-3.961.967-.38.24-.2,1.285.212,1.023Z" transform="translate(-4459.697 -2700.725)" fill="#cbc4c4"/>
        <path id="Path_193" data-name="Path 193" d="M4466.991,2818.369c-.255.563-.249,1.2-.5,1.763-.095.21-.046.7.229.778,1.061.288,1.961.972,3.022,1.26.505.137.591-.915.162-1.032-1.062-.288-1.962-.971-3.024-1.259l.228.778c.256-.563.249-1.2.5-1.763.207-.455-.329-1.16-.618-.523Z" transform="translate(-4434.625 -2791.903)" fill="#cbc4c4"/>
        <path id="Path_194" data-name="Path 194" d="M4476.824,2829a2.9,2.9,0,0,1,2.412,1.372,2.99,2.99,0,0,1-.414,2.763.732.732,0,0,0,.018.754.281.281,0,0,0,.5-.012,4.52,4.52,0,0,0,.529-3.976,3.5,3.5,0,0,0-3.066-1.967c-.458-.047-.454,1.016.026,1.065Z" transform="translate(-4443.634 -2800.729)" fill="#cbc4c4"/>
        <path id="Path_195" data-name="Path 195" d="M4394.316,2892.638a8.487,8.487,0,0,0,2.52-1.26.621.621,0,0,0,.229-.662c-.032-.155-.222-.507-.439-.362a8.508,8.508,0,0,1-2.52,1.26c-.426.113-.3,1.158.211,1.023Z" transform="translate(-4369.346 -2856.833)" fill="#cbc4c4"/>
        <path id="Path_196" data-name="Path 196" d="M4391.568,2900.276a7.255,7.255,0,0,1,1.148,3.657c0,.23.253.743.538.447,1.59-1.652,1.3-4.114.36-6.023-.245-.5-.646-.133-.646.285a13.7,13.7,0,0,0,.268,3.165l.629-.427a21.264,21.264,0,0,0-1.26-2.519c-.284-.562-.741-.017-.629.426a8.954,8.954,0,0,0,1.1,2.753c.223.342.53.027.579-.25a4.422,4.422,0,0,0-.027-1.718c-.114-.542-.344-1.054-.483-1.589-.178-.68-.814-.256-.668.3a6.207,6.207,0,0,1,.5,2.74l.579-.25a7.422,7.422,0,0,1-.912-2.287l-.63.426a21.126,21.126,0,0,1,1.26,2.52c.055.157.226.314.4.235a.6.6,0,0,0,.229-.661,12.482,12.482,0,0,1-.236-2.882l-.645.285c.71,1.447,1.089,3.277-.145,4.559l.538.447a8.748,8.748,0,0,0-1.372-4.406.279.279,0,0,0-.494.012.739.739,0,0,0,.018.754Z" transform="translate(-4367.194 -2863.844)" fill="#cbc4c4"/>
        <path id="Path_197" data-name="Path 197" d="M4259.3,2895.53c2.139-.567,3.468-2.467,4.687-4.172.261-.366-.136-1.271-.513-.742-1.149,1.607-2.372,3.357-4.384,3.89-.426.113-.3,1.158.21,1.023Z" transform="translate(-4247.932 -2856.953)" fill="#cbc4c4"/>
        <path id="Path_198" data-name="Path 198" d="M4209.646,2840.856a7.283,7.283,0,0,1,2.87-4.465c.336-.282.068-1.284-.375-.912a8.25,8.25,0,0,0-3.177,5.109c-.03.22.02.556.26.649s.4-.19.422-.382Z" transform="translate(-4203.083 -2807.444)" fill="#cbc4c4"/>
        <path id="Path_199" data-name="Path 199" d="M4164.81,2701.96a4.192,4.192,0,0,1,3.974,2.262c.126-.264.252-.528.376-.792-1.561-.808-2.6-2.426-4.283-3.023-.487-.172-.519.761-.246.981a10.416,10.416,0,0,1,2.893,3.339l.534-.659a6.592,6.592,0,0,0-3.686-2.4c-.531-.113-.544.838-.161,1.032a21.818,21.818,0,0,1,3.191,1.963q.123-.49.246-.98a20.9,20.9,0,0,1-3.19-1.712c-.082.326-.165.654-.247.98a5.448,5.448,0,0,1,2.356,1.2,3.874,3.874,0,0,1,1.17,2.468c.021.166.158.387.347.383.254-.006.34-.342.337-.542a9.575,9.575,0,0,0-.558-2.787c-.053-.159-.228-.313-.4-.236a.549.549,0,0,0-.244.52,19.442,19.442,0,0,0,.52,3.669l.629-.427a10.576,10.576,0,0,1-.7-3.763c0-.2-.111-.531-.362-.524s-.338.341-.337.541a12.093,12.093,0,0,0,.81,4.3c.061.155.223.316.4.235.233-.1.272-.444.229-.662a17.962,17.962,0,0,1-.488-3.385l-.645.285a7.789,7.789,0,0,1,.449,2.252l.684-.159a5.136,5.136,0,0,0-1.29-2.881,5.538,5.538,0,0,0-2.743-1.516c-.485-.126-.548.758-.245.98a22.038,22.038,0,0,0,3.36,1.815c.445.221.532-.768.246-.981a23.021,23.021,0,0,0-3.361-2.067q-.079.516-.161,1.032a5.962,5.962,0,0,1,3.37,2.134c.387.474.711-.31.534-.659a11.442,11.442,0,0,0-3.153-3.715q-.123.49-.246.981c1.666.59,2.727,2.218,4.282,3.023.4.208.467-.59.377-.792a4.862,4.862,0,0,0-4.592-2.776c-.472,0-.452,1.062.026,1.066Z" transform="translate(-4162.606 -2686.036)" fill="#cbc4c4"/>
        <path id="Path_200" data-name="Path 200" d="M4224.214,2845.31c.027-.105.053-.21.08-.316l.244-.162h-.009l.179.068a.453.453,0,0,1,.146.319c-.011-.1-.011.018.01-.113a1.264,1.264,0,0,1,.209-.442c.135-.215.142-.953-.27-.9a.97.97,0,0,0-.832.9.676.676,0,0,0,.175.6.273.273,0,0,0,.423-.094c.2-.41.308-.851.5-1.26a.751.751,0,0,0-.018-.753.28.28,0,0,0-.5.012c-.2.409-.308.851-.5,1.259l.6.5c.009-.074.118-.1.177-.1q-.135-.453-.27-.9a2.161,2.161,0,0,0-.378,1.537c.036.184.16.45.383.439.29-.015.337-.388.35-.606.012-.2-.12-.53-.362-.524-.266.007-.327.342-.337.542Z" transform="translate(-4216.579 -2814.29)" fill="#cbc4c4"/>
        <path id="Path_201" data-name="Path 201" d="M4153.223,2775.342c.883-.237,1.637-.772,2.52-1.008.394-.105.312-1.045-.119-1.044a19.986,19.986,0,0,0-3.779.252q.059.522.119,1.044c.914-.22,1.855-.284,2.771-.5q-.106-.512-.213-1.023c-.954.252-1.815.755-2.77,1.007q.1.513.211,1.023a6.353,6.353,0,0,1,1.922-.482c.45-.01.439-.919.067-1.05-1.058-.37-2.307-.431-2.919.681a4.737,4.737,0,0,0,.023,3.639.3.3,0,0,0,.483.179.7.7,0,0,0,.108-.733,3.332,3.332,0,0,1-.1-2.344c.422-.855,1.516-.645,2.246-.39q.033-.524.067-1.049a7.022,7.022,0,0,0-2.107.525c-.424.144-.3,1.158.211,1.023.955-.252,1.816-.755,2.771-1.007.426-.113.3-1.146-.213-1.023-.912.22-1.855.284-2.77.5-.391.094-.3,1.125.118,1.045a19.98,19.98,0,0,1,3.779-.252c-.04-.349-.078-.7-.118-1.045-.882.236-1.637.771-2.52,1.008-.426.114-.3,1.16.211,1.023Z" transform="translate(-4150.675 -2751.377)" fill="#cbc4c4"/>
        <path id="Path_202" data-name="Path 202" d="M4314.369,2691.3a21.891,21.891,0,0,1,3.262,5.431,5.561,5.561,0,0,1-.795,5.746,7.8,7.8,0,0,1-4.039,2.111,6.462,6.462,0,0,1-4.514-.444,3.388,3.388,0,0,1-1.248-1.264.28.28,0,0,0-.495.012.742.742,0,0,0,.018.754c1.693,2.882,5.766,2.51,8.386,1.312a6.356,6.356,0,0,0,3.4-3.411,7.961,7.961,0,0,0-.464-6.208,25.422,25.422,0,0,0-3.035-4.8c-.39-.52-.746.407-.476.766Z" transform="translate(-4290.75 -2677.041)" fill="#cbc4c4"/>
      </g>
      <g id="Group_74" data-name="Group 74" transform="translate(19.55 43.884)" opacity="0.6">
        <g id="Group_73" data-name="Group 73" transform="translate(0)">
          <path id="Path_206" data-name="Path 206" d="M4029.708,2205.113c1.578,3.183,2.251,6.842,4.366,9.755a4.412,4.412,0,0,0,1.6,1.445,4.361,4.361,0,0,0,2,.371,13.285,13.285,0,0,0,4.667-1.222c1.516-.621,2.969-1.4,4.5-1.974l-.495-.291c.957,2.9,1.436,5.95,2.8,8.708.178.359.615.438.746-.019.608-2.127.521-4.357.844-6.53a8.626,8.626,0,0,1,.874-2.9,3.259,3.259,0,0,1,1.434-1.313,40.414,40.414,0,0,1,4.62-1.805,10.031,10.031,0,0,0,3.8-2.059,4.3,4.3,0,0,0,.945-4.11c-.187-.8-.528-1.566-.782-2.347-.249-.762-.484-1.528-.74-2.288a16.667,16.667,0,0,0-2.1-4.49,5.585,5.585,0,0,0-1.563-1.512,4.982,4.982,0,0,0-2.183-.665,14.3,14.3,0,0,0-5.454.859,50.881,50.881,0,0,0-5.106,1.916c-2.3.993-4.6,2.015-6.883,3.043-1.479.664-2.972,1.259-4.469,1.877a9.78,9.78,0,0,0-4.169,2.632,2.688,2.688,0,0,0-.495,2.118,4.083,4.083,0,0,0,1.567,2.271c.545.455.822-.8.408-1.147a5.181,5.181,0,0,1-.788-.783,2.558,2.558,0,0,1-.216-.317c-.033-.061-.059-.124-.086-.187a.43.43,0,0,1-.049-.147c0-.019-.034-.215-.018-.062-.005-.058-.005-.115-.005-.174,0,.188.063-.26.021-.113a1.424,1.424,0,0,1,.288-.539,8.356,8.356,0,0,1,3.248-2.054c1.348-.59,2.733-1.082,4.076-1.686,2.278-1.025,4.559-2.045,6.849-3.042,1.748-.761,3.514-1.482,5.321-2.094a16.625,16.625,0,0,1,5.489-1.082,4.819,4.819,0,0,1,2.21.506,4.533,4.533,0,0,1,1.473,1.4,16.219,16.219,0,0,1,2,4.439c.249.749.48,1.5.727,2.255a14.725,14.725,0,0,1,.7,2.268,2.816,2.816,0,0,1-1.56,2.827,21.881,21.881,0,0,1-4.294,1.788c-.808.291-1.6.618-2.4.947a5.588,5.588,0,0,0-1.8,1.094,4.87,4.87,0,0,0-1.1,1.847,13.6,13.6,0,0,0-.691,2.894,40.291,40.291,0,0,1-.708,5.813l.746-.018c-1.361-2.755-1.841-5.81-2.8-8.708a.4.4,0,0,0-.5-.291c-2.861,1.065-5.566,2.906-8.684,3.131a4.113,4.113,0,0,1-1.955-.285,3.634,3.634,0,0,1-1.447-1.384,22.463,22.463,0,0,1-2.31-4.915c-.553-1.457-1.054-2.944-1.747-4.342-.384-.774-1,.131-.73.682Z" transform="translate(-4028.333 -2191.836)" fill="#cbc4c4"/>
          <path id="Path_207" data-name="Path 207" d="M4027.693,2326.5a8.645,8.645,0,0,0,.495,3.974,20.567,20.567,0,0,0,2.04,4.415,15.687,15.687,0,0,0,2.873,3.607,5.178,5.178,0,0,0,3.513,1.476,5.35,5.35,0,0,0,3.361-1.763c.751-.691,1.589-1.647,2.708-1.563,1.236.093,1.808,1.433,2.182,2.432.491,1.313.764,2.715,1.384,3.978a4.566,4.566,0,0,0,.542.875.345.345,0,0,0,.526.09,5.048,5.048,0,0,0,1.755-3.994c0-.247-.141-.655-.447-.647s-.413.422-.417.669a3.615,3.615,0,0,1-1.354,2.847l.525.09a10.746,10.746,0,0,1-1.448-3.6,7.014,7.014,0,0,0-1.932-3.534c-2.32-1.832-4.214,1.416-5.994,2.4-2.644,1.456-5.064-1.2-6.442-3.16a20.144,20.144,0,0,1-2.277-4.257,13.618,13.618,0,0,1-.629-2.045c-.058-.265-.12-.634-.139-.821-.015-.141-.023-.283-.028-.425,0-.068,0-.135,0-.2,0-.024.012-.281,0-.148.009-.121.025-.242.046-.361.047-.269-.031-.688-.322-.8s-.479.238-.52.472Z" transform="translate(-4027.617 -2312.482)" fill="#cbc4c4"/>
          <path id="Path_208" data-name="Path 208" d="M4241.853,2325.16c1.985-1.965,4.76-2.806,7.155-4.134a10.158,10.158,0,0,0,3.13-2.523,7.271,7.271,0,0,0,1.421-4.179c.014-.246-.148-.654-.448-.647-.326.008-.4.422-.416.669a5.647,5.647,0,0,1-1.358,3.44A10.307,10.307,0,0,1,4248.3,2320c-2.35,1.243-4.987,2.125-6.914,4.031a.856.856,0,0,0-.133.9c.1.233.37.445.6.222Z" transform="translate(-4219.667 -2301.4)" fill="#cbc4c4"/>
        </g>
      </g>
    </g>
    <g id="Group_80" data-name="Group 80" transform="translate(-1.325 26.987)">
      <g id="Group_76" data-name="Group 76" transform="translate(6.247 178.981)" opacity="0.6">
        <path id="Path_209" data-name="Path 209" d="M1044.369,2634.505a32.151,32.151,0,0,0-.977-6.289,24.524,24.524,0,0,0-2.336-6.124,23.292,23.292,0,0,0-1.8-2.523c-.7-.925-1.38-1.865-1.995-2.85a11.189,11.189,0,0,1-1.945-6.284,7.392,7.392,0,0,1,2.2-5.055,9.4,9.4,0,0,1,4.7-2.4c3.361-.685,7.816.231,9.354,3.651a8.454,8.454,0,0,1,.373,4.9,17.708,17.708,0,0,1-2.014,5.435c-1.131,2.068-2.481,4.01-3.526,6.126a21.873,21.873,0,0,0-2.006,7.2,50.083,50.083,0,0,0-.311,5.843c0,.285.161.754.516.746s.479-.486.479-.771a39.826,39.826,0,0,1,.673-7.894,20.957,20.957,0,0,1,2.729-6.526,47.852,47.852,0,0,0,3.34-6.07,16.972,16.972,0,0,0,1.287-5.542,9,9,0,0,0-1.208-5.192,7.775,7.775,0,0,0-4.471-3.194,10.936,10.936,0,0,0-10.3,2.238c-3.326,3.027-3.423,8.061-1.619,11.92a32.4,32.4,0,0,0,3.824,5.8,17.516,17.516,0,0,1,2.677,5.473,29.477,29.477,0,0,1,1.357,7.4c.013.284.151.755.516.746s.493-.487.479-.771Z" transform="translate(-1034.347 -2601.249)" fill="#bcbbbb"/>
        <path id="Path_210" data-name="Path 210" d="M1082.846,2635.083a2.65,2.65,0,0,0-2.722-.312,4.5,4.5,0,0,0-1.929,2.3c-.9,2-.958,4.834.487,6.6,1.668,2.044,5.117,1.84,7.076.331,1.944-1.5,1.832-4.344.952-6.388a6.4,6.4,0,0,0-3.782-3.754c-2.117-.585-3.738,1.041-4.624,2.79a1.057,1.057,0,0,0,.026,1.072.4.4,0,0,0,.7-.017,4.223,4.223,0,0,1,2.411-2.387,3.026,3.026,0,0,1,2.421.562,6.054,6.054,0,0,1,1.894,2.282,7.2,7.2,0,0,1,.3.727c.022.062.042.124.062.186-.049-.152.015.052.019.069.041.145.074.291.1.438.025.125.045.25.062.376.029.21-.015-.162,0,.049.006.062.009.124.013.187.007.123.007.247,0,.37,0,.033-.014.239,0,.042-.006.08-.015.161-.026.24-.015.119-.038.237-.064.354.035-.16-.051.164-.069.217a1.845,1.845,0,0,1-.291.59,3.077,3.077,0,0,1-1.049.958,5.6,5.6,0,0,1-3.877.553,3.09,3.09,0,0,1-1.364-.7,2.854,2.854,0,0,1-.734-1.066,4.271,4.271,0,0,1-.279-1.267,4.591,4.591,0,0,1,.107-1.47,4.141,4.141,0,0,1,.184-.68c.046-.138.1-.274.154-.408.023-.057.048-.113.074-.168a.763.763,0,0,1,.058-.117,3.292,3.292,0,0,1,.885-1.156,2,2,0,0,1,1.037-.452,2.031,2.031,0,0,1,1.3.375c.691.46.988-.976.47-1.322Z" transform="translate(-1072.908 -2630.246)" fill="#bcbbbb"/>
        <path id="Path_211" data-name="Path 211" d="M1072.089,2633.731a4.757,4.757,0,0,1,4.292.835,4.036,4.036,0,0,1,1.064,1.52,4.368,4.368,0,0,1,.323,1.822,4.758,4.758,0,0,1-1.791,3.551,5.171,5.171,0,0,1-4.666,1.4,4.942,4.942,0,0,1-3.317-3.024,4.159,4.159,0,0,1,1.12-4.423.994.994,0,0,0,.153-1.042c-.109-.264-.43-.518-.688-.255a6.084,6.084,0,0,0-1.8,4.874,6.392,6.392,0,0,0,2.252,4.26,5.278,5.278,0,0,0,4.445,1.148,7.159,7.159,0,0,0,4.251-3.013,6.651,6.651,0,0,0,.317-6.6,5.2,5.2,0,0,0-2.345-2.289,5.61,5.61,0,0,0-3.643-.277c-.671.152-.585,1.657.037,1.516Z" transform="translate(-1063.263 -2628.729)" fill="#bcbbbb"/>
      </g>
      <g id="Group_77" data-name="Group 77" transform="translate(65.428 0)" opacity="0.6">
        <path id="Path_212" data-name="Path 212" d="M1394,2118.3a7.808,7.808,0,0,0-3.925,3.451,19.851,19.851,0,0,0-2.218,5.4,17.75,17.75,0,0,0-.79,5.7,14.691,14.691,0,0,0,2.283,6.81,15.611,15.611,0,0,0,19.955,5.541,14.137,14.137,0,0,0,7.046-8.26,16.309,16.309,0,0,0-1.068-12.087,15.176,15.176,0,0,0-3.749-4.859,13.618,13.618,0,0,0-4.752-2.586,19.456,19.456,0,0,0-5.648-.836,17.322,17.322,0,0,0-5.707.875,9.633,9.633,0,0,0-4.4,2.9.518.518,0,0,0-.078.53c.05.121.229.278.35.13,2.355-2.9,6.491-3.7,10.035-3.66a18.755,18.755,0,0,1,5.591.892,13.167,13.167,0,0,1,4.7,2.71,15.517,15.517,0,0,1,4.918,10.84,13.665,13.665,0,0,1-4.15,10.4,14.352,14.352,0,0,1-9.578,3.824,15.373,15.373,0,0,1-10.036-3.437c-3.48-2.85-5.818-7.558-5.09-12.109a27.386,27.386,0,0,1,1.386-5.332,12.577,12.577,0,0,1,2.891-4.744,5.962,5.962,0,0,1,2.194-1.351c.306-.1.205-.862-.153-.74Z" transform="translate(-1387.046 -2116.467)" fill="#bcbbbb"/>
        <path id="Path_213" data-name="Path 213" d="M1499.963,2252.9a8.268,8.268,0,0,1,.005-2.894l-.366.24a2.229,2.229,0,0,1,.116,2.494.542.542,0,0,0,.014.546.2.2,0,0,0,.358-.01,3.262,3.262,0,0,0-.248-3.7c-.172-.178-.339.1-.366.24a9.46,9.46,0,0,0,.005,3.3c.022.139.152.336.318.262s.191-.319.165-.479Z" transform="translate(-1490.501 -2238.951)" fill="#bcbbbb"/>
        <path id="Path_214" data-name="Path 214" d="M1505.089,2129.16a5.93,5.93,0,0,0-.11-2.491,9.9,9.9,0,0,1-.43-2.169l-.244.392a1.575,1.575,0,0,1,.964.315.2.2,0,0,0,.306-.067,10.241,10.241,0,0,0,1.131-2.267c.057-.166.042-.494-.165-.563-.983-.327-2.243-.65-2.761-1.649q-.069.285-.137.57a3.122,3.122,0,0,1,2.235-.361c.29.054.381-.368.272-.573a2.041,2.041,0,0,1-.242-.634c.014.088,0-.043,0-.061,0,.1,0-.017.01-.042-.019.1.009-.011.018-.033-.044.1.066-.08.008-.01a1.681,1.681,0,0,1,.878-.4c.722-.182,1.663-.322,1.89-1.167a.47.47,0,0,0-.165-.563,11.8,11.8,0,0,0-1.458-.547q-.025.38-.049.759a2.774,2.774,0,0,0,2.584-1.836.5.5,0,0,0-.1-.526c-.141-.119-.293,0-.343.147a2.284,2.284,0,0,1-2.156,1.444c-.324,0-.32.669-.049.759a11.833,11.833,0,0,1,1.458.547l-.165-.563a.479.479,0,0,1-.215.33,1.606,1.606,0,0,1-.471.236c-.391.138-.8.2-1.2.32a1.329,1.329,0,0,0-.888.689,1.834,1.834,0,0,0,.233,1.549l.272-.573a3.469,3.469,0,0,0-2.5.368.462.462,0,0,0-.138.57c.619,1.194,1.876,1.6,3.072,2l-.165-.563a9.483,9.483,0,0,1-1.056,2.108l.305-.068a1.974,1.974,0,0,0-1.223-.414c-.185,0-.245.255-.244.392a8.767,8.767,0,0,0,.389,2.115,5.242,5.242,0,0,1,.164,2.339c-.03.157.021.4.188.47s.279-.14.305-.277Z" transform="translate(-1494.164 -2115.19)" fill="#bcbbbb"/>
        <path id="Path_215" data-name="Path 215" d="M1518.379,2163.771a.447.447,0,0,0-.353.592,1.063,1.063,0,0,0,.373.554c.188.159.371.236.562.046l.658-.658-.35-.129c.18.344.5.676.507,1.082,0,.133.08.4.263.379a1.253,1.253,0,0,0,.673-.42l-.194.044a2.1,2.1,0,0,0,1.542.254,2.489,2.489,0,0,0,1.437-1.088.506.506,0,0,0-.066-.6l-.729-.729q-.022.353-.043.706a1.057,1.057,0,0,1,1.073-.077,2.211,2.211,0,0,1,.825,1c.089.176.268.262.4.068a8.722,8.722,0,0,1,1.511-1.609,3.294,3.294,0,0,1,.92-.611.384.384,0,0,1,.306-.013,1.212,1.212,0,0,1,.506.393c.06.087.047.108.029.21a1.613,1.613,0,0,1-.181.4c-.192.329-.437.624-.645.942a2.681,2.681,0,0,0-.242.458,1.53,1.53,0,0,0-.072.253,1.407,1.407,0,0,0-.026.313,3.73,3.73,0,0,0,.186,1.274,11.227,11.227,0,0,0,1.73,3.238,23.029,23.029,0,0,0,2.417,2.838.184.184,0,0,0,.2.034,3.3,3.3,0,0,0,1.645-1.4,8.338,8.338,0,0,0,1.053-2.442,12.347,12.347,0,0,0,.43-2.808,6.676,6.676,0,0,0-.292-2.416c-.463-1.342-2.224-1.156-2.961-2.212a6.85,6.85,0,0,1-.789-2.134,4.625,4.625,0,0,0-1.048-2.063l-.178.71a2.151,2.151,0,0,0,.979.194c.188,0,.241-.251.244-.392.01-.541.175-1.089.182-1.64l-.244.392c.753.01,1.164.632,1.595,1.16a2.846,2.846,0,0,0,2.233,1.21c.306,0,.305-.588.11-.722a4.884,4.884,0,0,1-1.292-1.672,3.782,3.782,0,0,0-1.493-1.5,8.685,8.685,0,0,0-1.915-.581,1.924,1.924,0,0,1-1.4-.854l-.2.586a3.194,3.194,0,0,0,1.286-.508c.362-.249.678-.558,1.028-.824.252-.191.064-.915-.272-.659-.3.231-.583.493-.888.724a2.712,2.712,0,0,1-1.173.5c-.248.044-.293.39-.2.586.579,1.286,2.225,1.206,3.359,1.659a3.172,3.172,0,0,1,1.534,1.427,5.316,5.316,0,0,0,1.4,1.79q.055-.36.11-.722a2.127,2.127,0,0,1-1.207-.352,3.881,3.881,0,0,1-.8-.807,2.451,2.451,0,0,0-1.824-1.21c-.187,0-.242.253-.244.392-.007.552-.172,1.089-.182,1.641l.244-.392a1.806,1.806,0,0,1-.844-.17c-.13-.063-.244.079-.281.184a.512.512,0,0,0,.1.525c.763.783.867,1.994,1.2,2.985a3.428,3.428,0,0,0,.83,1.426,4.2,4.2,0,0,0,1.239.724,3.53,3.53,0,0,1,1.106.625,1.684,1.684,0,0,1,.372.958,8.338,8.338,0,0,1-.011,2.422,9.77,9.77,0,0,1-.89,3.08,3.341,3.341,0,0,1-1.8,1.839l.2.034a22.743,22.743,0,0,1-2.108-2.441,12.63,12.63,0,0,1-1.653-2.79,4.028,4.028,0,0,1-.3-1.184,2.617,2.617,0,0,1,0-.275c0,.083.015-.194,0-.046,0-.012.022-.11,0-.032a1.3,1.3,0,0,1,.2-.4c.4-.622,1.036-1.251.966-2.053a1.253,1.253,0,0,0-.275-.7,1.136,1.136,0,0,0-1.875-.086,8.667,8.667,0,0,0-1.2,1.088,7.7,7.7,0,0,0-.806.96l.4.068a2.988,2.988,0,0,0-1.09-1.322,1.365,1.365,0,0,0-1.388.058.475.475,0,0,0-.043.707l.729.729-.066-.6a2.061,2.061,0,0,1-1.162.871,1.773,1.773,0,0,1-1.329-.247.179.179,0,0,0-.194.044c-.1.1-.27.293-.42.309l.263.379a1.987,1.987,0,0,0-.214-.844c-.11-.218-.26-.411-.372-.626-.066-.126-.211-.268-.35-.129l-.729.729.127-.056c.055.006-.031-.019-.038-.022a.586.586,0,0,1-.1-.079.672.672,0,0,1-.092-.094c-.024-.038-.029-.042-.015-.014-.249.313-.282.457-.1.434.346-.022.322-.792-.019-.771Z" transform="translate(-1507.711 -2149.372)" fill="#bcbbbb"/>
        <path id="Path_216" data-name="Path 216" d="M1409.282,2145.487c-.767,1.331-1.785,2.5-2.552,3.835-.1.178-.1.662.2.662h1.094c-.048-.236-.1-.485-.145-.723a4.879,4.879,0,0,0-.779,1.151.478.478,0,0,0,.127.64c.583.308,1,.864,1.64,1.092l-.188-.47a2.646,2.646,0,0,1-.742,1.224,4.5,4.5,0,0,0-.875,1.235,1.7,1.7,0,0,0,.247,1.315c.095.186.2.368.289.556a2.429,2.429,0,0,1,.107.263c.013.038,0,.127.021.041a.659.659,0,0,1-.228.239,1.929,1.929,0,0,1-.524.222,5.139,5.139,0,0,1-1.3.152c-.45.012-.9-.007-1.349-.031-.178-.009-.357-.02-.535-.028s-.4-.059-.521.107a2.486,2.486,0,0,0-.271,1.732,6.683,6.683,0,0,0,.584,1.991c.363.791,1.329,2.478,2.445,1.869a2.4,2.4,0,0,0,.933-1.307l-.4.088a2.3,2.3,0,0,0,1.617,1.088,1.771,1.771,0,0,0,1.475-.915l-.427-.16a4.8,4.8,0,0,1,.063,1.553,11.65,11.65,0,0,1-.4,2.164,7.983,7.983,0,0,1-.831,1.993,2.344,2.344,0,0,1-1.186,1.087,1.472,1.472,0,0,1-1.292-.315c-.338-.25-.494.484-.239.672a1.859,1.859,0,0,0,1.684.383,2.688,2.688,0,0,0,1.319-1.157,10.048,10.048,0,0,0,1.406-4.3,6.2,6.2,0,0,0-.037-2.3c-.056-.209-.262-.4-.427-.16a1.341,1.341,0,0,1-1.123.68,1.8,1.8,0,0,1-1.253-.871c-.134-.184-.324-.1-.4.087a2.32,2.32,0,0,1-.488.828.645.645,0,0,1-.518.2,1.032,1.032,0,0,1-.528-.247,2.63,2.63,0,0,1-.541-.611,5.974,5.974,0,0,1-.8-1.76c-.042-.155-.077-.311-.107-.468-.014-.076-.026-.151-.037-.228,0-.006-.015-.129-.006-.046-.005-.048-.009-.1-.013-.145-.005-.07-.007-.14-.008-.21,0-.031.008-.22,0-.129,0-.062.012-.124.022-.185,0-.029.011-.059.016-.087.013-.063-.017.054.012-.045a1.2,1.2,0,0,1,.057-.15c-.034.074.044-.067.063-.094l-.177.117c.8,0,1.595.094,2.4.064a2.8,2.8,0,0,0,2.207-.789,1.272,1.272,0,0,0-.024-1.25,6.442,6.442,0,0,1-.517-1.1c-.013-.06-.017-.041,0-.088a1.737,1.737,0,0,1,.159-.273,5.146,5.146,0,0,1,.478-.582,4.381,4.381,0,0,0,.881-1.279,2.4,2.4,0,0,0,.123-.458c.028-.153-.019-.409-.189-.47-.629-.225-1.059-.786-1.641-1.094l.127.642a4.362,4.362,0,0,1,.68-1.031c.16-.167.182-.715-.145-.715h-1.094c.065.236.13.436.195.654.767-1.331,1.785-2.5,2.552-3.828a.53.53,0,0,0-.013-.546.2.2,0,0,0-.358.009Z" transform="translate(-1401.706 -2143.002)" fill="#bcbbbb"/>
        <path id="Path_217" data-name="Path 217" d="M1471.305,2420.023c.853-.865,1.434-1.944,2.37-2.734l-.308-.053a1.487,1.487,0,0,0,1.174.667,2.753,2.753,0,0,1,1.071-.045c.328.107.677.141,1.006.243a.689.689,0,0,1,.106.043c.057.029-.053-.035,0,0,.017.012.033.025.049.038.1.078.187.169.278.254a5.944,5.944,0,0,1,.537.477q.2.246.4.5a14.01,14.01,0,0,1,.859,1.228c.387.625.961,1.592.663,2.326a.5.5,0,0,0,.1.525c.145.123.287-.008.343-.146a3.427,3.427,0,0,0-.507-2.813,11.892,11.892,0,0,0-.866-1.341,6.885,6.885,0,0,0-.966-1.128,6.078,6.078,0,0,0-.689-.611,2.172,2.172,0,0,0-.721-.219,3.127,3.127,0,0,0-1.322-.163,2.208,2.208,0,0,1-.493.062.926.926,0,0,1-.571-.323c-.041-.041-.079-.083-.115-.127-.087-.1-.194-.149-.308-.053-.936.791-1.516,1.87-2.37,2.735a.5.5,0,0,0-.078.529c.056.135.218.263.35.13Z" transform="translate(-1464.32 -2392.877)" fill="#bcbbbb"/>
        <path id="Path_218" data-name="Path 218" d="M1471.619,2136.78a.687.687,0,0,0-.137-.417c-.036-.043-.074-.081-.113-.121.066.069.031.035.017.014a.284.284,0,0,1,.045.112c-.007-.038-.006-.022.005.048-.005-.144-.078-.384-.263-.379s-.249.247-.244.391a.686.686,0,0,0,.137.417c.036.042.074.081.113.12-.065-.068-.031-.035-.017-.013a.274.274,0,0,1-.045-.112c.008.038.006.023-.005-.048.006.145.078.384.263.379s.249-.248.244-.392Z" transform="translate(-1464.334 -2134.397)" fill="#bcbbbb"/>
      </g>
      <g id="Group_78" data-name="Group 78" transform="translate(0 133.437)" opacity="0.6">
        <path id="Path_219" data-name="Path 219" d="M730.833,2469.509a41.5,41.5,0,0,1-6.043,1.29,5.692,5.692,0,0,1-5.139-2.811c-1.675-2.582-1.471-6.571,1.755-7.782a5.593,5.593,0,0,1,1.929-.311c.418,0,.435-.744.24-.978a5.531,5.531,0,0,1-1.451-3.964,6.044,6.044,0,0,1,1.587-3.47c1.529-1.712,4.374-3.1,6.561-1.753a4.68,4.68,0,0,1,1.872,2.634c.089.269.435.384.589.1a5.7,5.7,0,0,1,3.176-3,4.2,4.2,0,0,1,3.4.682,8.593,8.593,0,0,1,3.8,6.771c0,.293.245.736.574.477a2.815,2.815,0,0,1,3.1-.59,4,4,0,0,1,1.665,2.639A7.237,7.237,0,0,1,746,2466.97a9.511,9.511,0,0,1-4.669,1.279c-1.831.158-3.673.12-5.508.177-3.387.105-7.111.554-9.259,3.5-.1.144-.2.293-.294.445a.776.776,0,0,0,.02.8.3.3,0,0,0,.528-.013c1.937-3.129,5.8-3.5,9.145-3.6,1.834-.057,3.673-.025,5.5-.183a10.341,10.341,0,0,0,4.7-1.271c2.58-1.682,3.506-5.015,3.173-7.944-.236-2.076-1.492-5.218-4.123-4.716a4.556,4.556,0,0,0-1.936.976l.574.477a9.814,9.814,0,0,0-4.195-7.744,4.811,4.811,0,0,0-3.8-.827,6.224,6.224,0,0,0-3.669,3.347l.589.1a5.441,5.441,0,0,0-2.55-3.265,4.8,4.8,0,0,0-3.519-.192,7.736,7.736,0,0,0-5.215,5.711,6.784,6.784,0,0,0,1.575,5.706l.24-.977a5.354,5.354,0,0,0-4.341,2.007,6.348,6.348,0,0,0-1.07,4.57,8.29,8.29,0,0,0,2.365,4.848,6.188,6.188,0,0,0,5.484,1.663c1.737-.242,3.4-.851,5.115-1.2.505-.1.445-1.233-.028-1.137Z" transform="translate(-717.845 -2448.077)" fill="#bcbbbb"/>
      </g>
    </g>
    <g id="Group_116" data-name="Group 116" transform="translate(76.095 183.569)">
      <g id="Group_115" data-name="Group 115" transform="translate(0 0)">
        <g id="Group_101" data-name="Group 101" transform="translate(2.382)">
          <path id="Path_242" data-name="Path 242" d="M2585.986-378.419c.512-3.778,3.378-5.4,6.4-3.625l31.223,18.23c3.02,1.777,5.057,6.288,4.545,10.066l-4.759,36.011c-.512,3.777-3.382,5.4-6.4,3.625l-31.222-18.23c-3.024-1.779-5.058-6.289-4.546-10.066Z" transform="translate(-2581.148 382.766)" fill="#a9a9aa" fill-rule="evenodd" opacity="0.5" style="mix-blend-mode: multiply;isolation: isolate"/>
          <g id="Group_100" data-name="Group 100" transform="translate(0.423 0.1)">
            <path id="Path_243" data-name="Path 243" d="M2599.427-377.775c.055-.408.135-2.233.626-2.6a11.413,11.413,0,0,1,2.223-1.325,4.03,4.03,0,0,1,3.1.56l29.176,16.907c2.806,1.652,4.7,5.843,4.223,9.354l-4.421,33.462a5.387,5.387,0,0,1-1.213,2.9,9.014,9.014,0,0,1-2.193,1.536c-.836.432-2.012-.751-2.542-1.063l-29.176-16.907c-2.81-1.653-4.7-5.843-4.224-9.353Z" transform="translate(-2593.904 381.814)" fill="#006eab" fill-rule="evenodd"/>
            <path id="Path_244" data-name="Path 244" d="M2589.661-370.955c.476-3.51,3.139-5.022,5.948-3.369l29.013,16.94c2.807,1.651,4.7,5.843,4.224,9.353l-4.422,33.462c-.476,3.51-3.142,5.02-5.948,3.369l-29.012-16.94c-2.81-1.653-4.7-5.843-4.224-9.353Z" transform="translate(-2585.166 375.711)" fill="#fff" fill-rule="evenodd"/>
            <g id="Group_95" data-name="Group 95" transform="translate(4.037 0.717)">
              <path id="Path_245" data-name="Path 245" d="M2624.008-370.955c.476-3.51,3.139-5.022,5.948-3.369l29.013,16.94c2.806,1.651,4.7,5.843,4.224,9.353l-.453,3.324-39.19-22.882Z" transform="translate(-2623.55 374.994)" fill="#ff931e" fill-rule="evenodd"/>
              <g id="Group_94" data-name="Group 94" transform="translate(3.897 4.144)">
                <path id="Path_246" data-name="Path 246" d="M2661.827-335.568a1.666,1.666,0,0,1,1.09,1.71c-.037.793-.585,1.313-1.224,1.161a1.664,1.664,0,0,1-1.091-1.71C2660.64-335.2,2661.188-335.72,2661.827-335.568Z" transform="translate(-2660.601 335.594)" fill="#fff" fill-rule="evenodd"/>
                <path id="Path_247" data-name="Path 247" d="M2694.256-315.352a1.665,1.665,0,0,1,1.09,1.71c-.037.793-.585,1.313-1.224,1.161a1.665,1.665,0,0,1-1.09-1.71C2693.069-314.984,2693.617-315.5,2694.256-315.352Z" transform="translate(-2689.619 317.505)" fill="#fff" fill-rule="evenodd"/>
                <path id="Path_248" data-name="Path 248" d="M2726.685-295.135a1.666,1.666,0,0,1,1.091,1.71c-.038.793-.585,1.313-1.225,1.161a1.665,1.665,0,0,1-1.09-1.71C2725.5-294.767,2726.046-295.287,2726.685-295.135Z" transform="translate(-2718.638 299.414)" fill="#fff" fill-rule="evenodd"/>
              </g>
            </g>
            <g id="Group_99" data-name="Group 99" transform="translate(2.556 21.015)">
              <g id="Group_97" data-name="Group 97" transform="translate(14.043)">
                <g id="Group_96" data-name="Group 96">
                  <path id="Path_249" data-name="Path 249" d="M2749.515-181.12c.105-.781.7-1.108,1.32-.729l18.963,10.931a2.281,2.281,0,0,1,.937,2.1l-.206,1.544c-.105.781-.7,1.107-1.32.729l-18.963-10.931a2.281,2.281,0,0,1-.937-2.1Z" transform="translate(-2748.63 182.007)" fill="#adadad" fill-rule="evenodd" opacity="0.2"/>
                  <path id="Path_250" data-name="Path 250" d="M2743.115-124.025c.063-.461.412-.654.78-.43l11.2,6.455a1.348,1.348,0,0,1,.553,1.241l-.121.912c-.063.461-.412.654-.78.43l-11.2-6.455a1.347,1.347,0,0,1-.554-1.24Z" transform="translate(-2742.985 130.592)" fill="#adadad" fill-rule="evenodd" opacity="0.2"/>
                </g>
              </g>
              <g id="Group_98" data-name="Group 98" transform="translate(0 7.369)">
                <path id="Path_251" data-name="Path 251" d="M2622.913-111.295c.077-.568.507-.807.961-.53l32.75,18.789a1.662,1.662,0,0,1,.682,1.53l-.1.745c-.077.568-.508.807-.961.531l-32.75-18.789a1.658,1.658,0,0,1-.682-1.53Z" transform="translate(-2621.397 111.94)" fill="#b5b5b5" fill-rule="evenodd" opacity="0.2"/>
                <path id="Path_252" data-name="Path 252" d="M2616.4-58.9c.077-.568.508-.807.961-.53l32.75,18.789a1.662,1.662,0,0,1,.682,1.53l-.1.745c-.077.569-.508.806-.961.531l-32.75-18.789a1.66,1.66,0,0,1-.682-1.53Z" transform="translate(-2615.572 65.053)" fill="#b5b5b5" fill-rule="evenodd" opacity="0.2"/>
                <path id="Path_253" data-name="Path 253" d="M2609.582-8.982c.077-.568.508-.807.962-.531l32.75,18.789a1.661,1.661,0,0,1,.682,1.53l-.1.745c-.077.568-.508.806-.961.531l-32.75-18.789a1.661,1.661,0,0,1-.682-1.53Z" transform="translate(-2609.468 20.389)" fill="#b5b5b5" fill-rule="evenodd" opacity="0.2"/>
              </g>
            </g>
          </g>
        </g>
        <g id="Group_114" data-name="Group 114" transform="translate(0 23.32)">
          <g id="Group_113" data-name="Group 113" transform="translate(0 0)">
            <g id="Group_106" data-name="Group 106" transform="translate(0 42.927)">
              <g id="Group_102" data-name="Group 102" transform="translate(0 36.626)">
                <path id="Path_254" data-name="Path 254" d="M2560.363,615.255c.343-.008,1.5-1.1,2.6-.546,1.317.66,3.816.075,5.078.378.225.054.664-.111.751.043.272.483.535,1.206-.134,1.679a11.433,11.433,0,0,1-2.236,1.053,18.868,18.868,0,0,1-2.828.8,3.662,3.662,0,0,0-1.705.475,2.477,2.477,0,0,1-1.3.313,2.192,2.192,0,0,1-1.658-1.157,4.957,4.957,0,0,1,.013-1.836,9.266,9.266,0,0,1,.586-1.6Z" transform="translate(-2558.813 -612.533)" fill="#fff" fill-rule="evenodd"/>
                <path id="Path_255" data-name="Path 255" d="M2568.943,595.716c-.417,1-.289,2.547-1.276,3.084a1.467,1.467,0,0,1-2.143-.663c-.251-.572.083-1.549.009-2.8Z" transform="translate(-2564.701 -595.333)" fill="#ffa495" fill-rule="evenodd"/>
                <path id="Path_256" data-name="Path 256" d="M2563.021,606.44c.756.22,2.844.073,4.164.18.568.046,1.076.042,1.342.557.244.474.116.88-.437,1.271a9.358,9.358,0,0,1-2.017.99,18.915,18.915,0,0,1-2.828.8,3.662,3.662,0,0,0-1.705.475,2.478,2.478,0,0,1-1.3.313,2.289,2.289,0,0,1-1.658-1.23,4.563,4.563,0,0,1,.013-1.763,3.436,3.436,0,0,1,.1-.373c.1-.994.432-1.4.741-1.225a1.91,1.91,0,0,1,.744,1,.972.972,0,0,0,.575.549,1.137,1.137,0,0,0,1.268-.557,3.575,3.575,0,0,0,.347-1.007c0-.034,0-.068,0-.1.1-.868.522-.793.458-.61A.745.745,0,0,0,2563.021,606.44Z" transform="translate(-2558.504 -604.508)" fill="#193161" fill-rule="evenodd"/>
                <path id="Path_257" data-name="Path 257" d="M2651.278,618.311c-.01.336.5.368.355.957.248-.242-.1-.938-.25-1.044C2651.32,618.181,2651.267,618.163,2651.278,618.311Z" transform="translate(-2641.519 -615.789)" fill="#fff" fill-rule="evenodd"/>
              </g>
              <g id="Group_103" data-name="Group 103" transform="translate(8.53 32.556)">
                <path id="Path_258" data-name="Path 258" d="M2646.5,562.567c.32-.125,1.032-1.545,2.25-1.406a6.2,6.2,0,0,0,2.083-.3c1.279-.364,3.061-1.507,3.365-1.32a1.2,1.2,0,0,1,.25,1.825,9.368,9.368,0,0,1-1.553,1.623,16.417,16.417,0,0,1-2.193,1.668c-.7.39-.937.356-1.437,1.032a2.347,2.347,0,0,1-1.113.7,2.647,2.647,0,0,1-2.175-.817,4.5,4.5,0,0,1-.395-2.711Z" transform="translate(-2644.872 -559.217)" fill="#fff" fill-rule="evenodd"/>
                <path id="Path_259" data-name="Path 259" d="M2642.921,556.637c-.02,1.083.668,2.475-.052,3.337a1.468,1.468,0,0,1-2.237.171c-.444-.44-.492-1.471-1.023-2.611Z" transform="translate(-2639.609 -556.637)" fill="#ffa495" fill-rule="evenodd"/>
                <path id="Path_260" data-name="Path 260" d="M2649.2,559.465l.218-.06c1.279-.364,2.988-1.245,3.292-1.057a.95.95,0,0,1,.323,1.563,9.345,9.345,0,0,1-1.553,1.623,16.424,16.424,0,0,1-2.192,1.667c-.7.39-.937.356-1.437,1.032a2.35,2.35,0,0,1-1.113.7,2.718,2.718,0,0,1-2.207-.821,6.546,6.546,0,0,1-.449-1.879c-.106-.963-.04-1.453.379-1.441a2.323,2.323,0,0,1,1.423.634c.693.432,1.157-.126,1.271-.817a4.036,4.036,0,0,0-.063-.913c-.011-.032-.023-.064-.036-.095-.227-.844.194-.929.2-.735a.724.724,0,0,0,.643.737A5.653,5.653,0,0,0,2649.2,559.465Z" transform="translate(-2643.57 -558.145)" fill="#193161" fill-rule="evenodd"/>
                <path id="Path_261" data-name="Path 261" d="M2725.462,558.5c.136.307.614.114.734.711.119-.325-.493-.8-.676-.834C2725.445,558.369,2725.389,558.375,2725.462,558.5Z" transform="translate(-2716.402 -558.194)" fill="#fff" fill-rule="evenodd"/>
              </g>
              <g id="Group_104" data-name="Group 104" transform="translate(3.574 0)">
                <path id="Path_262" data-name="Path 262" d="M2600.015,250.4c.28,3.138,1.853,13.161,1.415,15.912-.658,4.137-.47,9.136-.463,13.528-.111,1.845-2.648,2.809-3.386,1.637-.593-3.924-1.436-7.362-1.78-9.542a15.82,15.82,0,0,1,.362-7.013,83.4,83.4,0,0,0-2.448-9.41c-.36-1.131-2.4-4.785-.289-8.417Z" transform="translate(-2592.483 -247.099)" fill-rule="evenodd" fill="url(#linear-gradient)"/>
                <path id="Path_263" data-name="Path 263" d="M2643.081,547.24c0,.326-.01.822-.009,1.141-.111,1.845-2.68,2.846-3.418,1.674-.044-.289-.107-.576-.153-.859C2640.494,550.265,2642.439,548.875,2643.081,547.24Z" transform="translate(-2634.556 -515.672)" fill-rule="evenodd" fill="url(#linear-gradient-2)"/>
                <path id="Path_264" data-name="Path 264" d="M2623.12,299.745c-.827,4.149-3.167,9.692-4.445,13.864-.665-3.575-2.328-9.662-.889-13.388-.145-1-.6-2.9-1.14-4.922,1.107-2.1.049-3.774.572-6.731,2.931-.511-1.493-4.088,4.71-.32A107.385,107.385,0,0,1,2623.12,299.745Z" transform="translate(-2614.105 -282.394)" fill="#1e2353" fill-rule="evenodd" opacity="0.3" style="mix-blend-mode: multiply;isolation: isolate"/>
              </g>
              <g id="Group_105" data-name="Group 105" transform="translate(0.458 1.902)">
                <path id="Path_265" data-name="Path 265" d="M2573.827,284.568c-1.691,3.828-4.811,11.337-6.47,16.036-.858,1.248-3.919,1.118-3.913-.046.676-3.928,1.47-9.986,2.88-13.431a30.826,30.826,0,0,1,2.6-4.344c.446-1.734,1.005-6.416,1.437-8.95-.387-2.1-2.078-5.6,1.171-8.649,1.311.932,5.364,1.516,7.2.477C2579.027,273.943,2576.994,277.4,2573.827,284.568Z" transform="translate(-2563.381 -265.184)" fill-rule="evenodd" fill="url(#linear-gradient-3)"/>
                <path id="Path_266" data-name="Path 266" d="M2567.175,594.163c-.074.205-.221.62-.29.816-.884,1.284-4.035,1.151-4.029-.047.034-.194.067-.393.1-.6C2563.708,595.1,2565.98,595.111,2567.175,594.163Z" transform="translate(-2562.855 -559.562)" fill-rule="evenodd" fill="url(#linear-gradient-4)"/>
              </g>
            </g>
            <g id="Group_108" data-name="Group 108" transform="translate(3.24)">
              <g id="Group_107" data-name="Group 107" transform="translate(12.946)">
                <path id="Path_267" data-name="Path 267" d="M2717.48-160.7c-.121.254-.236.51-.361.761l-.518,1.034c-.109-.507-.514-.7-.826-.446a.884.884,0,0,0-.252.338c-.05-.138-.442-.45-.971.3a.581.581,0,0,0-.644.371,4.219,4.219,0,0,0-.222.542,2.179,2.179,0,0,0-.154.735c0,.5.025,1.04.01,1.636-.015.647-.749,1.466-1.147,1.937l2.4.761a13.29,13.29,0,0,1,.935-1.169c.377-.382.853-.427,1.212-.722a4.591,4.591,0,0,0,.658-.867c.283-.4.438-.834.708-1.273a1.176,1.176,0,0,0,.274-.863,9.187,9.187,0,0,1,.18-1.02c-.493-.246-.882.363-.878.956a1.472,1.472,0,0,0-.532.722c-.392-.513-.159-.727,0-1.386a6.623,6.623,0,0,0,.565-1.322c.077-.2.153-.413.236-.64a.637.637,0,0,0-.143-.7C2717.918-161.077,2717.681-161.049,2717.48-160.7Z" transform="translate(-2712.396 161.042)" fill-rule="evenodd" fill="url(#linear-gradient-5)"/>
                <path id="Path_268" data-name="Path 268" d="M2733.138-143.245c-.35.051-.6.534-.595,1.008a1.437,1.437,0,0,0-.518.686,3.253,3.253,0,0,1,.631-.628,1.505,1.505,0,0,1,.482-1.066Zm-1.833-.3-.045.089a.9.9,0,0,0-.131-.318,1.284,1.284,0,0,1-.342.761.858.858,0,0,0,.518-.533Zm-1.126-.026a.3.3,0,0,0-.127-.129,2.033,2.033,0,0,1-.27.688,1.149,1.149,0,0,0,.4-.559Zm-.957.295-.011.016a.84.84,0,0,0-.154,0,1.561,1.561,0,0,1-.281.769A1.245,1.245,0,0,0,2729.221-143.277Z" transform="translate(-2727.053 145.591)" fill="#ff8978" fill-rule="evenodd"/>
              </g>
              <path id="Path_269" data-name="Path 269" d="M2598.271-95.583c1.209-2.106,2.155-4.743,3.843-6.881.141-.178.472-.315.593-.5q.265-.408.527-.8a3.745,3.745,0,0,1,2.43,1.1q-.142.423-.279.842c-.107.325.1,1.021.006,1.346a54.158,54.158,0,0,1-2.961,8.065c-1.675,2.16-9.116,16.026-13.006,10.995a6.265,6.265,0,0,1,1.024-4.727,12.843,12.843,0,0,1,1.766-2.03C2593.437-89.452,2596.435-93.689,2598.271-95.583Z" transform="translate(-2589.308 109.793)" fill="#2ea7cc" fill-rule="evenodd"/>
            </g>
            <path id="Path_270" data-name="Path 270" d="M2589.793,76.392c.272,2.455-.466,4.87.285,7.112.034.232.055,1.14.095,1.387.5,2.9,6.637,5.843,11.76,3.056.028-.36,0-.736.023-1.4a7.954,7.954,0,0,1,.172-1.67c-.007-1.58-.5-2.388-.263-4.147.48-3.577,2.462-7.016,1.366-9.83a2.99,2.99,0,0,0-1.115-1.272c-1.21-.973-7.472-4.161-9.37-4.386C2587.236,64.525,2589.5,73.729,2589.793,76.392Z" transform="translate(-2585.868 -41.404)" fill="#2ea7cc" fill-rule="evenodd"/>
            <path id="Path_271" data-name="Path 271" d="M2687.8,113.932c.711-2.629,1.639-5.111.811-7.237a2.992,2.992,0,0,0-1.114-1.272c-1.211-.973-1.051,1.643-2.949,1.418C2684.182,110.336,2685.91,113.515,2687.8,113.932Z" transform="translate(-2671.247 -77.203)" fill="#6266d7" fill-rule="evenodd" opacity="0.35" style="mix-blend-mode: multiply;isolation: isolate"/>
            <g id="Group_111" data-name="Group 111" transform="translate(4.425 13.371)">
              <path id="Path_272" data-name="Path 272" d="M2610.368-12.61a13.508,13.508,0,0,0,.139,3.015c-1.794-.058-4.288-.528-4.561-1.864.012-.16.024-.323.032-.482a.647.647,0,0,0-.073-.057,9.718,9.718,0,0,1-2.392-1.528,4.047,4.047,0,0,1-.817-4.621c1.567-3.088,5.358-3.14,7.47-.643.412.487.11.992.345,1.463.046.092.214.133.41.294a7.028,7.028,0,0,1,1.037,3.161c-.008.406-.94.977-1.354,1.2A1.1,1.1,0,0,1,2610.368-12.61Z" transform="translate(-2602.104 21.975)" fill="#ffa698" fill-rule="evenodd"/>
              <path id="Path_273" data-name="Path 273" d="M2637.194,43.637a13.493,13.493,0,0,0,.139,3.015c-1.795-.058-4.289-.528-4.562-1.864.013-.16.024-.323.033-.482-.025-.022-.052-.037-.073-.057-1.364-1.277.46-2.74,2.766-1.479A1.788,1.788,0,0,0,2637.194,43.637Z" transform="translate(-2628.93 -34.272)" fill-rule="evenodd" fill="url(#linear-gradient-6)"/>
              <path id="Path_274" data-name="Path 274" d="M2668.55-7.228c-.007.177-.742.444-1.049.486.209-1.907-1.606-2.2-1.333-4.061.165-1.119-.986-1.524-.535-2.343a5.216,5.216,0,0,1,1.125,1c.412.487.111.992.345,1.463.046.092.214.133.41.294A6.714,6.714,0,0,1,2668.55-7.228Z" transform="translate(-2658.696 15.33)" fill-rule="evenodd" fill="url(#linear-gradient-7)"/>
              <g id="Group_109" data-name="Group 109" transform="translate(6.774 6.885)">
                <path id="Path_275" data-name="Path 275" d="M2665.582,32c-.035-.427-.208-.509-.351-.4a1.147,1.147,0,0,0-.248.933c.07.709.727,1.343,1.179.77-.5.262-.729-.372-.75-.82C2665.4,32.181,2665.474,31.926,2665.582,32Z" transform="translate(-2664.974 -31.556)" fill="#ffb49c" fill-rule="evenodd"/>
                <path id="Path_276" data-name="Path 276" d="M2669.182,38.35c.264.2.385.334.381.446,0,.078-.068.195-.3.113A1.01,1.01,0,0,1,2669.182,38.35Z" transform="translate(-2668.732 -37.635)" fill="#ff9d8e" fill-rule="evenodd"/>
              </g>
              <path id="Path_277" data-name="Path 277" d="M2628.882,65.618c-.531.164-1.027.71-.93,1.06.529,2.16,4.489,2.643,6.951,2.122.03-.006-.922-1.264-1.393-1.418C2631.96,67.535,2629.36,66.894,2628.882,65.618Z" transform="translate(-2625.061 -55.15)" fill="#726cde" fill-rule="evenodd"/>
              <g id="Group_110" data-name="Group 110" transform="translate(0 0)">
                <path id="Path_278" data-name="Path 278" d="M2604.2-23.577c-.656-.7-1.767-1.035-2.481-1.85a3.4,3.4,0,0,1-1-3.305c-.828-2.6,2-4.669,4.385-5.138a1.851,1.851,0,0,1,1.984,2.731,2.5,2.5,0,0,1,.573,1.9,1.74,1.74,0,0,0,.121,1.394c.188.439.655,1.5-.191.829-.547-.435-.93.526-.745,1.19a3.042,3.042,0,0,1,.119,1.284C2606.805-23.147,2604.568-23.187,2604.2-23.577Z" transform="translate(-2600.572 33.911)" fill="#562e65" fill-rule="evenodd"/>
                <path id="Path_279" data-name="Path 279" d="M2608.939-28.456c-.565-2.522,2.751-3.8,4.048-3.829,1.313-.03,2.341,2.129.785,2.857C2612.711-28.932,2610.609-29.9,2608.939-28.456Z" transform="translate(-2608.002 32.456)" fill-rule="evenodd" fill="url(#linear-gradient-8)"/>
              </g>
            </g>
            <g id="Group_112" data-name="Group 112" transform="translate(13.289 18.642)">
              <path id="Path_280" data-name="Path 280" d="M2845.892,18.507a1.723,1.723,0,0,0-.107.51,4.068,4.068,0,0,0-.247.773,7.176,7.176,0,0,0-.063,1.273,2.814,2.814,0,0,0,.111.783,7.2,7.2,0,0,1-1.288,1.52l1.516,1.156c.64-.422,1.139-.865,1.69-1.232a1.866,1.866,0,0,0,.738-.416,7.024,7.024,0,0,0,1.444-1.881,9.8,9.8,0,0,0-.168-2.174c-.274-1.536-.86-3.15-.96-2.438-.146.171-.027,1.559-.119,1.765-.359.413-.53.583-.979,1.075a5.188,5.188,0,0,1-.6.361c-.155.042-.24-.066-.246-.2a6.5,6.5,0,0,1,.171-.819c0-.658-.163-1.031-.515-1a.348.348,0,0,0-.331.308C2845.907,18.025,2845.917,18.238,2845.892,18.507Z" transform="translate(-2827.529 -16.207)" fill-rule="evenodd" fill="url(#linear-gradient-9)"/>
              <path id="Path_281" data-name="Path 281" d="M2687.938,73.679c2.087.322,6.114,2.618,8.893,3.863,1.55-2.209,3.583-4.856,4.838-5.746a4.16,4.16,0,0,0,.624-.448q.274-.335.531-.688c.783.109,1.92,1.088,1.9,1.55-.126.231-.255.473-.386.722a4.786,4.786,0,0,0-.109.736c-.425,1.546-2.771,5.118-3.865,6.712-.632.921-.854,1.461-1.282,1.736-.686.441-1.608.2-3.383-.246-1.494-.375-6.317-1.253-8.537-2.424-1.565-.826-2.766-2.313-2.144-4.026A2.7,2.7,0,0,1,2687.938,73.679Z" transform="translate(-2684.854 -64.932)" fill="#2ea7cc" fill-rule="evenodd"/>
            </g>
          </g>
        </g>
      </g>
    </g>
    <path id="Path_159" data-name="Path 159" d="M3129.011,2325.166c-10.094-.941-21.279,2.009-28.587,9.288a25.591,25.591,0,0,0-4.552,6.247,13.967,13.967,0,0,0-1.759,5.765c-.155,3.229,1.817,5.783,4.567,7.246,3.177,1.69,6.939,2.193,10.484,2.391a53.86,53.86,0,0,0,10.89-.541,22.08,22.08,0,0,0,5.183-1.574,37.642,37.642,0,0,0,5.841-3.057c3.478-2.23,6.95-5.176,8.528-9.1a8.118,8.118,0,0,0,.281-5.335,10.966,10.966,0,0,0-3.846-5.175,13.058,13.058,0,0,0-6.642-2.4,28.5,28.5,0,0,0-7.349.069,22.48,22.48,0,0,0-3.19.617.851.851,0,0,0,.452,1.64,25.007,25.007,0,0,1,6.3-.819,19.842,19.842,0,0,1,7.214,1.018,9.743,9.743,0,0,1,4.771,4.072,6.218,6.218,0,0,1,.723,4.758c-.922,3.795-4.445,6.73-7.544,8.82a36.441,36.441,0,0,1-5.741,3.144,21.433,21.433,0,0,1-5.164,1.641,52.712,52.712,0,0,1-10.6.527c-3.38-.172-7.044-.675-9.981-2.3a6.932,6.932,0,0,1-2.849-2.675,5.257,5.257,0,0,1-.6-1.837,8.323,8.323,0,0,1,.066-2.1,16.848,16.848,0,0,1,2.566-5.934,23.812,23.812,0,0,1,5.077-5.662c6.921-5.7,16.655-7.859,25.45-7.039,1.093.1,1.083-1.6,0-1.7Z" transform="translate(-3041.449 -2180.587)" fill="#f48221"/>
  </g>
</svg>
