<svg xmlns="http://www.w3.org/2000/svg" width="11.891" height="11.89" viewBox="0 0 11.891 11.89">
  <path id="Path_267" data-name="Path 267" d="M2.662-.359V-8.3H.2V-.359ZM1.428-9.381a1.44,1.44,0,0,0,1.428-1.441A1.428,1.428,0,0,0,1.428-12.25,1.428,1.428,0,0,0,0-10.822,1.44,1.44,0,0,0,1.428-9.381ZM11.888-.359h0V-4.72c0-2.134-.459-3.777-2.954-3.777A2.59,2.59,0,0,0,6.6-7.215H6.57V-8.3H4.206V-.359H6.668V-4.29c0-1.035.2-2.036,1.478-2.036,1.263,0,1.282,1.181,1.282,2.1V-.359Z" transform="translate(0 12.25)" fill="#0078aa"/>
</svg>
