<svg xmlns="http://www.w3.org/2000/svg" viewBox="0 0 464.44 701.81"><defs><style>.cls-1{fill:#5e6466;}.cls-2{fill:none;}.cls-3{fill:#ef8224;}.cls-4{fill:#151615;}</style></defs><title>logo-eventbuizz</title><g id="Layer_2" data-name="Layer 2"><g id="Layer_1-2" data-name="Layer 1"><g id="Group_778" data-name="Group 778"><g id="Group_776" data-name="Group 776"><g id="Group_775" data-name="Group 775"><path id="Path_88" data-name="Path 88" class="cls-1" d="M370.16,70.38l-21.5.09h0A71.13,71.13,0,0,0,276.9,0C276,0,275,0,274.12.08c0,0-17.2.16-43.14,0s-44.43,0-44.43,0a71.12,71.12,0,0,0-74.46,67.61c0,.92-.07,1.85-.08,2.78h0l-17.66-.09a92,92,0,0,0-92,92h0V300.28a92,92,0,0,0,92,92H370.23a92,92,0,0,0,91.95-92h0V162.34a92,92,0,0,0-91.95-92ZM184.4,30s25.8-.19,41.57-.09l11.29.19c15.77,0,39.44-.1,39.44-.1a40.71,40.71,0,0,1,41.92,39.48c0,.33,0,.67,0,1H142.48A40.71,40.71,0,0,1,183.4,30ZM311.33,271.41l18.09,109.77L231.3,328.77,132.49,379.9,152,270.39,72.86,192.22l110.19-15.28L232.93,77.5l48.58,100.09,110,16.71Z"/><path id="Path_89" data-name="Path 89" class="cls-2" d="M276.76,30s-23.73.17-39.44.1L226,29.9c-15.86-.09-41.57.09-41.57.09a40.71,40.71,0,0,0-41.93,39.48c0,.33,0,.67,0,1H318.75A40.71,40.71,0,0,0,277.81,30C277.46,30,277.11,30,276.76,30Z"/><path id="Path_90" data-name="Path 90" class="cls-2" d="M233,77.48l-49.88,99.43L72.89,192.19,152,270.36,132.52,379.89l98.81-51.13,98.12,52.41L311.36,271.39l80.17-77.13-110-16.72Z"/></g><path id="Path_91" data-name="Path 91" class="cls-3" d="M297.94,333.59l-66.32-35.44-66.79,34.57,13.19-74-53.51-52.84,74.54-10.32,33.67-67.21L265.56,196l74.34,11.3-54.2,52.14Z"/></g><g id="Group_777" data-name="Group 777"><path id="Path_92" data-name="Path 92" class="cls-4" d="M0,524.6H5.29c4.08,0,5.46-1.37,5.46-5.45v-65.5c0-4.1-1.43-5.46-5.46-5.46H0V426.88H94v33.94H71.47v-4.77c0-5.46-1.43-6.83-6.82-6.83H43.83v24.57H82.72v22.35H43.83v22c0,4.09,1.44,5.47,5.47,5.47H61.41c7.17,0,10.74-2.73,11.25-7.52l.52-5.11H96l-2.05,35H0Z"/><path id="Path_93" data-name="Path 93" class="cls-4" d="M98.42,458.92H136a358.67,358.67,0,0,0,11.25,56.29,362,362,0,0,0,11.08-56.29H192.4v19.6h-2.73c-4.1,0-5.46,1.44-6.65,5.47a428.54,428.54,0,0,1-23.71,61.92h-27.8A428.54,428.54,0,0,1,107.8,484c-1.19-4.09-2.57-5.47-6.65-5.47H98.42Z"/><path id="Path_94" data-name="Path 94" class="cls-4" d="M236.4,513.14a5.21,5.21,0,0,0-4.77,5.46c0,2.73,2.22,5.64,8,5.64a128.93,128.93,0,0,0,39.57-8.7v24.57a84.76,84.76,0,0,1-39.57,8.18c-29,0-42.47-17.9-42.47-45.87a42.59,42.59,0,0,1,39.09-45.82,43.48,43.48,0,0,1,5.93-.05c25.25,0,37.53,12.61,37.53,28,0,16.37-9.37,21.15-30.19,25.8Zm-7.84-16.88V500c.69-.69,1.54-1.19,5.46-2.22l6.31-1.53c6.14-1.54,8.7-4.3,8.7-10a6.77,6.77,0,0,0-6.73-6.82H242c-8.88,0-13.49,7.32-13.49,16.88Z"/><path id="Path_95" data-name="Path 95" class="cls-4" d="M291.83,458.93H328.5a45.92,45.92,0,0,1,1.71,11.94A28.78,28.78,0,0,1,356,456.54c16.37,0,23.88,5.46,27.64,15.35a70.17,70.17,0,0,1,3.06,24.22v24.74c0,4.09,1.44,5.47,5.47,5.47h4.3v19.61H360.83c-4.1,0-5.47-1.71-5.47-5.74V501a44.05,44.05,0,0,0-1.87-15.18A7.17,7.17,0,0,0,346,481c-7.85,0-12,4.94-12,21v18.94c0,4.08,1.44,5.46,5.47,5.46h3.58V546H291.91V526.39h5.29c4.1,0,5.46-1.44,5.46-5.46V484.09c0-4.09-1.44-5.46-5.46-5.46h-5.29Z"/><path id="Path_96" data-name="Path 96" class="cls-4" d="M406.44,479.05H394.5V459h11.94V440.74a87.29,87.29,0,0,1,31.38-7.86V459h18.76v20.06H437.82V514.7c0,8,4.1,9,8.18,9A47.43,47.43,0,0,0,459.3,522v23.71a88,88,0,0,1-21.5,2.57c-23,0-31.38-10.24-31.38-30.53Z"/><path id="Path_97" data-name="Path 97" class="cls-4" d="M11.25,604.75a31.25,31.25,0,0,0,.69-5.46,3.51,3.51,0,0,0-3.26-3.75H8.53a32.15,32.15,0,0,0-4.6.34l3.24-18.76a75.86,75.86,0,0,1,19.28-2.23c13.64,0,17.2,5.47,17.2,13.65a119.12,119.12,0,0,1-2.57,17.73l-2.55,14.34A27.47,27.47,0,0,1,60,610c18.08,0,25.8,13.3,25.8,30.53,0,33.77-16.19,61.24-50.65,61.24-25.81,0-34.12-13.31-34.12-30.71a125.05,125.05,0,0,1,2.05-19.78ZM31,666c0,8.19,2.4,12.28,8.19,12.28,10.58,0,16-18.93,16-31.53,0-8.19-2.37-12.63-8.18-12.63C36.5,634.1,31,653.38,31,666Z"/><path id="Path_98" data-name="Path 98" class="cls-4" d="M138.31,668.56c0,4.42,1.44,8.87,6.83,8.87,7.51,0,12.45-6,15.35-22.69l7.34-42.3H198l-10.24,58.17a29.66,29.66,0,0,0-.67,4.6c0,4.08,2.38,4.6,5.11,4.6h4.3l-3.23,18.42a62.11,62.11,0,0,1-16.55,2.22c-13.13,0-17.05-1.88-17.57-12.63a35.08,35.08,0,0,1-27.12,14c-15,0-25.42-5.73-25.42-22.52,0-13.64,8-35.13,8-42.64,0-4.1-2.4-4.6-5.12-4.6h-4.3l3.24-18.42a85.6,85.6,0,0,1,20.3-2.23c13.64,0,17.2,5.47,17.2,13.65C146,637.68,138.31,658.32,138.31,668.56Z"/><path id="Path_99" data-name="Path 99" class="cls-4" d="M228.39,641.26a29.45,29.45,0,0,0,.69-5.46,3.53,3.53,0,0,0-3.26-3.75h-.15a60,60,0,0,0-6.14.34l3.24-18.76a90.52,90.52,0,0,1,20.82-2.23c13.64,0,17.2,5.47,17.2,13.65a119.57,119.57,0,0,1-2.57,17.75l-4.94,27.81a29.82,29.82,0,0,0-.69,4.61c0,4.09,2.38,4.6,5.11,4.6H262l-3.23,18.42a61.7,61.7,0,0,1-16.55,2.22c-14.16,0-20.47-4.42-20.47-17.57a119.82,119.82,0,0,1,2.4-18.09Zm23-73.35a18.64,18.64,0,1,1-18.63,18.64A18.65,18.65,0,0,1,251.41,567.91Z"/><path id="Path_100" data-name="Path 100" class="cls-4" d="M281.59,678.79a346.25,346.25,0,0,0,49.12-45.71H316.17c-5.28,0-6.82,1.43-7.85,6.82l-.17,1.19H289.94l4.95-28.67H365.5l-1.19,7.51a50.94,50.94,0,0,1-13.65,27,365.48,365.48,0,0,1-33.94,31.9h12.11a8.61,8.61,0,0,0,9.72-6.65l.69-2.73h18.42c-1.44,27.24-5.64,30-20.64,30H278Z"/><path id="Path_101" data-name="Path 101" class="cls-4" d="M380.52,678.79a346.33,346.33,0,0,0,49.13-45.71H415.11c-5.29,0-6.82,1.43-7.84,6.82l-.17,1.19H388.88l4.94-28.67h70.62l-1.19,7.51a51.08,51.08,0,0,1-13.65,27,366.75,366.75,0,0,1-33.94,31.9h12.09a8.61,8.61,0,0,0,9.74-6.65l.68-2.73h18.42c-1.43,27.24-5.63,30-20.64,30h-59Z"/></g></g></g></g></svg>