<svg xmlns="http://www.w3.org/2000/svg" width="10.192" height="13.247" viewBox="0 0 10.192 13.247">
  <path id="Path_268" data-name="Path 268" d="M5.415-12.072C2.691-12.072,0-10.257,0-7.319c0,1.869,1.051,2.93,1.688,2.93.263,0,.414-.733.414-.94,0-.247-.629-.772-.629-1.8A3.587,3.587,0,0,1,5.2-10.774,2.835,2.835,0,0,1,8.345-7.86c0,1.409-.565,4.053-2.4,4.053A1.178,1.178,0,0,1,4.722-4.97c0-1,.7-1.975.7-3.01,0-1.757-2.492-1.439-2.492.685a3.118,3.118,0,0,0,.255,1.346A29.054,29.054,0,0,0,2.07-.4c0,.5.072,1,.119,1.5.09.1.045.09.183.04,1.338-1.831,1.29-2.19,1.9-4.586a2.153,2.153,0,0,0,1.839.956c2.819,0,4.085-2.747,4.085-5.223A4.517,4.517,0,0,0,5.415-12.072Z" transform="translate(0 12.072)" fill="#d62f2f"/>
</svg>
