<svg xmlns="http://www.w3.org/2000/svg" viewBox="0 0 1301.33 185.41"><defs><style>.cls-1{isolation:isolate;}.cls-2{fill:#717070;}.cls-3{fill:#0d9ac5;}.cls-4{fill:#ef8121;}</style></defs><title>logo-plugnplay</title><g id="Layer_2" data-name="Layer 2"><g id="Layer_1-2" data-name="Layer 1"><g id="pLUG_N_PLAY" data-name="pLUG N PLAY"><g id="PLUG_PLAY" data-name="PLUG PLAY" class="cls-1"><g class="cls-1"><path class="cls-2" d="M0,25.38H67.09q19.89,0,32.12,11.27t12.24,31.69A46.05,46.05,0,0,1,100.53,98.9q-10.9,13-33.4,13H20.31v63.37H0ZM78.77,46q-6.67-3.16-18.33-3.16H20.31V94.77H60.44q13.57,0,22-5.81t8.46-20.52Q90.93,51.91,78.77,46Z"/><path class="cls-2" d="M137.47,25.38h20.31V157.43H233v17.86H137.47Z"/><path class="cls-2" d="M275.65,25.38V118q0,16.33,6.17,27.15,9.15,16.32,30.86,16.33,26,0,35.39-17.66,5-9.6,5-25.82V25.38h20.51v84.19q0,27.66-7.47,42.56-13.72,27.13-51.82,27.14t-51.72-27.14q-7.47-14.91-7.47-42.56V25.38Z"/><path class="cls-2" d="M504.44,29.66q22,11.75,27,41.13H511.29q-3.6-16.43-14.89-23.93t-28.48-7.5q-20.39,0-34.33,15.61t-13.94,46.54q0,26.73,11.5,43.52t37.5,16.79q19.91,0,33-11.79T515,111.92H468V95.08h65.83v80.21H520.78L515.88,156q-10.14,11.34-18,15.72-13.16,7.54-33.44,7.55-26.21,0-45.07-17.24-20.58-21.65-20.58-59.4t20.11-59.91Q438.07,21.5,468.43,21.5,489.25,21.5,504.44,29.66Z"/><path class="cls-2" d="M801.43,25.38h67.09q19.89,0,32.13,11.27t12.23,31.69A46.05,46.05,0,0,1,902,98.9q-10.9,13-33.4,13H821.74v63.37H801.43ZM880.21,46q-6.69-3.16-18.34-3.16H821.74V94.77h40.13q13.57,0,22-5.81t8.46-20.52Q892.36,51.91,880.21,46Z"/><path class="cls-2" d="M938.9,25.38h20.31V157.43h75.21v17.86H938.9Z"/><path class="cls-2" d="M1098.72,25.38h23l54.39,149.91h-22.24l-15.21-44.9h-59.29l-16.23,44.9h-20.82Zm33.37,88.48-22.76-66.24-24.19,66.24Z"/><path class="cls-2" d="M1167.57,25.38h23.68l43.1,72,43.09-72h23.89l-56.78,89.5v60.41h-20.31V114.88Z"/></g></g><path id="Path_293" data-name="Path 293" class="cls-3" d="M575.45,185V27L706.93,158.44H670.05l-67-67v94Z"/><path id="Path_294" data-name="Path 294" class="cls-4" d="M739.24.43v158L607.77,27h36.88l67,67V0Z"/></g></g></g></svg>