<svg xmlns="http://www.w3.org/2000/svg" xmlns:xlink="http://www.w3.org/1999/xlink" viewBox="0 0 527.42 587.28"><defs><style>.cls-1,.cls-31{fill:#2ea7cc;}.cls-2{fill:#d2d3d4;}.cls-18,.cls-3{fill:#fff;}.cls-4{fill:#1f6fa0;}.cls-5{fill:#9ad1e2;}.cls-6{fill:#00446d;}.cls-7{fill:#333;}.cls-8{fill:#e8c27e;}.cls-9{fill:#f48221;}.cls-10{fill:#f2501d;}.cls-11{fill:#0fb4db;}.cls-12{fill:#dfdcde;}.cls-13{opacity:0.6;}.cls-14{fill:#cbc4c4;}.cls-15{fill:#bcbbbb;}.cls-16{fill:#a9a9aa;}.cls-16,.cls-17,.cls-18,.cls-19,.cls-20,.cls-21,.cls-22,.cls-23,.cls-24,.cls-25,.cls-26,.cls-27,.cls-28,.cls-29,.cls-30,.cls-31,.cls-32,.cls-33,.cls-34,.cls-35,.cls-36,.cls-37,.cls-38,.cls-39,.cls-40,.cls-41{fill-rule:evenodd;}.cls-16,.cls-42{opacity:0.5;}.cls-16,.cls-20,.cls-21,.cls-26,.cls-32,.cls-42,.cls-43{isolation:isolate;}.cls-17{fill:#006eab;}.cls-19{fill:#ff931e;}.cls-20{fill:#adadad;}.cls-20,.cls-21{opacity:0.2;}.cls-21{fill:#b5b5b5;}.cls-22{fill:#ffa495;}.cls-23{fill:#193161;}.cls-24{fill:url(#linear-gradient);}.cls-25{fill:url(#linear-gradient-2);}.cls-26{fill:#1e2353;opacity:0.3;}.cls-27{fill:url(#linear-gradient-3);}.cls-28{fill:url(#linear-gradient-4);}.cls-29{fill:url(#linear-gradient-5);}.cls-30{fill:#ff8978;}.cls-32{fill:#6266d7;opacity:0.35;}.cls-33{fill:#ffa698;}.cls-34{fill:url(#linear-gradient-6);}.cls-35{fill:url(#linear-gradient-7);}.cls-36{fill:#ffb49c;}.cls-37{fill:#ff9d8e;}.cls-38{fill:#726cde;}.cls-39{fill:#562e65;}.cls-40{fill:url(#linear-gradient-8);}.cls-41{fill:url(#linear-gradient-9);}.cls-42,.cls-43{fill:#b3d8e8;}.cls-43{opacity:0.4;}</style><linearGradient id="linear-gradient" x1="-412.03" y1="678.75" x2="-412.48" y2="678.19" gradientTransform="matrix(27.38, 0, 0, -105.92, 11550.92, 72370.44)" gradientUnits="userSpaceOnUse"><stop offset="0" stop-color="#40457f"/><stop offset="1" stop-color="#1e2353"/></linearGradient><linearGradient id="linear-gradient-2" x1="-403.41" y1="678.42" x2="-403.83" y2="677.76" gradientTransform="matrix(10.87, 0, 0, -10.07, 4654.98, 7389.12)" gradientUnits="userSpaceOnUse"><stop offset="0" stop-color="#3773b9"/><stop offset="1" stop-color="#003c76"/></linearGradient><linearGradient id="linear-gradient-3" x1="-414.23" y1="678.75" x2="-415.13" y2="678.23" gradientTransform="matrix(46.49, 0, 0, -110.19, 19536.3, 75277.22)" xlink:href="#linear-gradient"/><linearGradient id="linear-gradient-4" x1="-405.92" y1="678.17" x2="-406.46" y2="677.82" gradientTransform="matrix(13.11, 0, 0, -5.24, 5568.33, 4118.7)" xlink:href="#linear-gradient-2"/><linearGradient id="linear-gradient-5" x1="-410.15" y1="678.04" x2="-409.69" y2="678.54" gradientTransform="matrix(19.33, 0, 0, -25.23, 8218.66, 17454.37)" gradientUnits="userSpaceOnUse"><stop offset="0" stop-color="#ff8a78"/><stop offset="1" stop-color="#ffa799"/></linearGradient><linearGradient id="linear-gradient-6" x1="-407.67" y1="678.5" x2="-407.8" y2="678.14" gradientTransform="matrix(15.39, 0, 0, -13.25, 6544.34, 9384.81)" xlink:href="#linear-gradient-5"/><linearGradient id="linear-gradient-7" x1="-400.85" y1="678.44" x2="-401.15" y2="678.16" gradientTransform="matrix(9.18, 0, 0, -19.44, 3956.95, 13569.16)" gradientUnits="userSpaceOnUse"><stop offset="0" stop-color="#ffb89e"/><stop offset="1" stop-color="#ffa799"/></linearGradient><linearGradient id="linear-gradient-8" x1="-408.37" y1="678.66" x2="-409.09" y2="678.05" gradientTransform="matrix(17.24, 0, 0, -11.62, 7311.85, 8254.64)" gradientUnits="userSpaceOnUse"><stop offset="0" stop-color="#8a4791"/><stop offset="1" stop-color="#562e65"/></linearGradient><linearGradient id="linear-gradient-9" x1="-408.6" y1="678.19" x2="-408.09" y2="678.62" gradientTransform="matrix(16.37, 0, 0, -25.24, 7022.51, 17515.64)" xlink:href="#linear-gradient-5"/></defs><title>img_no_event</title><g id="Layer_2" data-name="Layer 2"><g id="Layer_1-2" data-name="Layer 1"><g id="illustration"><g id="Group_32" data-name="Group 32"><rect id="Rectangle_13" data-name="Rectangle 13" class="cls-1" x="394.02" y="283.82" width="45.25" height="31.13" transform="translate(-69.17 134.44) rotate(-16.95)"/><path id="Path_65" data-name="Path 65" class="cls-2" d="M433.76,277.9l-1.18.36-16.16,20.32-24.75-7.86-1.2.37.25.82L412,298.63,399.27,320l.27.91,1-.3,12.8-21.51,3.57,1.12,2.34-2.93L441.84,308l1-.3-.27-.88-22.43-10.66L434,278.72Z"/></g><g id="Group_64" data-name="Group 64"><g id="Group_59" data-name="Group 59"><path id="Path_135" data-name="Path 135" class="cls-3" d="M212.61,386.14a2,2,0,0,1-2.36,1.42h0l-88.46-22.18a1.94,1.94,0,0,1-1.41-2.36h0l21.51-85.84a2,2,0,0,1,2.36-1.42h0l88.47,22.18a2,2,0,0,1,1.41,2.36h0Z"/><path id="Path_136" data-name="Path 136" class="cls-4" d="M229.37,319.64l4.87-19.45a2,2,0,0,0-1.41-2.36h0L144.18,275.6a1.94,1.94,0,0,0-2.36,1.42h0l-4.88,19.45Z"/><rect id="Rectangle_14" data-name="Rectangle 14" class="cls-4" x="150.2" y="295.91" width="3.95" height="25.45" transform="translate(-184.2 381.2) rotate(-75.93)"/><rect id="Rectangle_15" data-name="Rectangle 15" class="cls-5" x="179.09" y="280.6" width="0.89" height="85.6" transform="translate(-177.81 418.91) rotate(-75.93)"/><rect id="Rectangle_16" data-name="Rectangle 16" class="cls-5" x="176.17" y="292.26" width="0.89" height="85.6" transform="translate(-191.34 424.9) rotate(-75.93)"/><rect id="Rectangle_17" data-name="Rectangle 17" class="cls-5" x="173.32" y="303.6" width="0.89" height="85.59" transform="translate(-204.47 430.78) rotate(-75.94)"/><rect id="Rectangle_18" data-name="Rectangle 18" class="cls-5" x="170.48" y="314.95" width="0.89" height="85.6" transform="translate(-217.65 436.55) rotate(-75.93)"/><rect id="Rectangle_19" data-name="Rectangle 19" class="cls-5" x="167.5" y="326.83" width="0.89" height="85.59" transform="translate(-231.41 442.72) rotate(-75.94)"/><rect id="Rectangle_20" data-name="Rectangle 20" class="cls-5" x="107.95" y="335.66" width="48.56" height="0.89" transform="translate(-225.94 382.64) rotate(-75.93)"/><rect id="Rectangle_21" data-name="Rectangle 21" class="cls-5" x="124.69" y="339.86" width="48.56" height="0.89" transform="translate(-217.33 402.11) rotate(-75.94)"/><rect id="Rectangle_22" data-name="Rectangle 22" class="cls-5" x="140.9" y="343.92" width="48.56" height="0.89" transform="translate(-209.02 420.85) rotate(-75.93)"/><rect id="Rectangle_23" data-name="Rectangle 23" class="cls-5" x="157.1" y="347.98" width="48.56" height="0.89" transform="translate(-200.69 439.65) rotate(-75.93)"/><rect id="Rectangle_24" data-name="Rectangle 24" class="cls-5" x="173.31" y="352.05" width="48.56" height="0.89" transform="translate(-192.37 458.44) rotate(-75.93)"/><rect id="Rectangle_25" data-name="Rectangle 25" class="cls-5" x="190.6" y="356.38" width="48.56" height="0.89" transform="translate(-183.49 478.49) rotate(-75.93)"/><rect id="Rectangle_26" data-name="Rectangle 26" class="cls-5" x="171.62" y="320.81" width="12.2" height="16.26" transform="translate(-184.55 421.39) rotate(-75.94)"/><rect id="Rectangle_27" data-name="Rectangle 27" class="cls-5" x="149.32" y="339.9" width="12.2" height="16.26" transform="translate(-219.95 414.22) rotate(-75.94)"/><rect id="Rectangle_28" data-name="Rectangle 28" class="cls-4" x="138.95" y="315.12" width="2.12" height="1.89" transform="translate(-200.61 375.07) rotate(-75.94)"/><rect id="Rectangle_29" data-name="Rectangle 29" class="cls-4" x="135.98" y="326.95" width="2.12" height="1.89" transform="translate(-214.34 381.1) rotate(-75.93)"/><rect id="Rectangle_30" data-name="Rectangle 30" class="cls-4" x="133.13" y="338.35" width="2.12" height="1.89" transform="translate(-227.55 387.01) rotate(-75.94)"/><rect id="Rectangle_31" data-name="Rectangle 31" class="cls-4" x="130.2" y="350.02" width="2.12" height="1.89" transform="translate(-241.09 392.95) rotate(-75.93)"/><rect id="Rectangle_32" data-name="Rectangle 32" class="cls-4" x="155.69" y="319.32" width="2.12" height="1.89" transform="translate(-192.01 394.49) rotate(-75.94)"/><rect id="Rectangle_33" data-name="Rectangle 33" class="cls-4" x="152.73" y="331.15" width="2.12" height="1.89" transform="translate(-205.73 400.57) rotate(-75.94)"/><rect id="Rectangle_34" data-name="Rectangle 34" class="cls-3" x="149.87" y="342.55" width="2.12" height="1.89" transform="translate(-218.94 406.43) rotate(-75.94)"/><rect id="Rectangle_35" data-name="Rectangle 35" class="cls-4" x="146.95" y="354.22" width="2.12" height="1.89" transform="translate(-232.49 412.36) rotate(-75.93)"/><rect id="Rectangle_36" data-name="Rectangle 36" class="cls-3" x="171.9" y="323.38" width="2.12" height="1.89" transform="translate(-183.69 413.23) rotate(-75.93)"/><rect id="Rectangle_37" data-name="Rectangle 37" class="cls-4" x="168.93" y="335.21" width="2.12" height="1.89" transform="translate(-197.4 419.37) rotate(-75.94)"/><rect id="Rectangle_38" data-name="Rectangle 38" class="cls-4" x="166.08" y="346.61" width="2.12" height="1.89" transform="translate(-210.62 425.22) rotate(-75.94)"/><rect id="Rectangle_39" data-name="Rectangle 39" class="cls-4" x="163.15" y="358.28" width="2.12" height="1.89" transform="translate(-224.15 431.22) rotate(-75.94)"/><rect id="Rectangle_40" data-name="Rectangle 40" class="cls-4" x="188.21" y="327.47" width="2.12" height="1.89" transform="translate(-175.31 432.15) rotate(-75.93)"/><rect id="Rectangle_41" data-name="Rectangle 41" class="cls-4" x="185.25" y="339.3" width="2.12" height="1.89" transform="translate(-189.03 438.23) rotate(-75.93)"/><rect id="Rectangle_42" data-name="Rectangle 42" class="cls-4" x="182.39" y="350.7" width="2.12" height="1.89" transform="translate(-202.24 444.14) rotate(-75.94)"/><rect id="Rectangle_43" data-name="Rectangle 43" class="cls-4" x="179.47" y="362.37" width="2.12" height="1.89" transform="translate(-215.77 450.14) rotate(-75.94)"/><rect id="Rectangle_44" data-name="Rectangle 44" class="cls-4" x="204.42" y="331.53" width="2.12" height="1.89" transform="translate(-166.97 451) rotate(-75.94)"/><rect id="Rectangle_45" data-name="Rectangle 45" class="cls-4" x="201.45" y="343.36" width="2.12" height="1.89" transform="translate(-180.71 457.02) rotate(-75.93)"/><rect id="Rectangle_46" data-name="Rectangle 46" class="cls-4" x="198.6" y="354.76" width="2.12" height="1.89" transform="translate(-193.92 462.88) rotate(-75.93)"/><rect id="Rectangle_47" data-name="Rectangle 47" class="cls-4" x="195.67" y="366.43" width="2.12" height="1.89" transform="translate(-207.44 468.93) rotate(-75.94)"/><g id="Group_58" data-name="Group 58"><path id="Path_137" data-name="Path 137" class="cls-6" d="M156.78,283.61a2.37,2.37,0,1,1-1.72-2.88h0a2.37,2.37,0,0,1,1.72,2.88Z"/><path id="Path_138" data-name="Path 138" class="cls-6" d="M166,285.91a2.38,2.38,0,1,1-1.73-2.88,2.38,2.38,0,0,1,1.73,2.88Z"/><path id="Path_139" data-name="Path 139" class="cls-6" d="M175.68,288.35a2.37,2.37,0,1,1-1.72-2.88h0A2.37,2.37,0,0,1,175.68,288.35Z"/><path id="Path_140" data-name="Path 140" class="cls-6" d="M184.87,290.65a2.38,2.38,0,1,1-1.73-2.88h0A2.38,2.38,0,0,1,184.87,290.65Z"/><path id="Path_141" data-name="Path 141" class="cls-6" d="M194.59,293.09a2.37,2.37,0,1,1-1.72-2.88A2.37,2.37,0,0,1,194.59,293.09Z"/><path id="Path_142" data-name="Path 142" class="cls-6" d="M203.78,295.39a2.38,2.38,0,1,1-1.73-2.88,2.38,2.38,0,0,1,1.73,2.88Z"/><path id="Path_143" data-name="Path 143" class="cls-6" d="M213.5,297.83a2.38,2.38,0,1,1-1.73-2.88,2.37,2.37,0,0,1,1.73,2.88Z"/><path id="Path_144" data-name="Path 144" class="cls-6" d="M222.68,300.13a2.37,2.37,0,1,1-1.72-2.88,2.38,2.38,0,0,1,1.72,2.88Z"/></g></g><g id="Group_63" data-name="Group 63"><g id="Group_62" data-name="Group 62"><g id="Group_61" data-name="Group 61"><g id="Group_60" data-name="Group 60"><path id="Path_145" data-name="Path 145" class="cls-7" d="M200,318.77,199.12,306l-9.63,5.71Z"/><path id="Path_146" data-name="Path 146" class="cls-8" d="M189.67,311.82l-.17-.12,9.62-5.71-1.19-18-9.49-16-23.2,13.75,9.49,16,14.94,10.09Z"/></g></g><rect id="Rectangle_48" data-name="Rectangle 48" class="cls-9" x="158" y="241.23" width="26.96" height="57.16" transform="translate(-113.64 125.2) rotate(-30.67)"/><rect id="Rectangle_49" data-name="Rectangle 49" class="cls-10" x="164.54" y="241.5" width="12.94" height="57.17" transform="translate(-113.83 124.97) rotate(-30.66)"/></g><rect id="Rectangle_50" data-name="Rectangle 50" class="cls-1" x="143.69" y="241.91" width="26.97" height="7.55" transform="translate(-103.33 114.52) rotate(-30.67)"/><rect id="Rectangle_51" data-name="Rectangle 51" class="cls-11" x="147.36" y="250.71" width="26.96" height="2.32" transform="translate(-105.98 117.27) rotate(-30.67)"/></g></g><g id="Group_65" data-name="Group 65"><path id="Path_147" data-name="Path 147" class="cls-12" d="M494.85,326.94a20.34,20.34,0,0,0-9.8,2.94,18.42,18.42,0,0,0-6.28,6.64,23.7,23.7,0,0,0-1.7,18.31,21,21,0,0,0,12.52,13.68,22.86,22.86,0,0,0,10.93,1.25,19.66,19.66,0,0,0,9.36-3.94c5.34-4.12,8.43-10.84,8.88-17.49a21.16,21.16,0,0,0-12.23-21.63,19.35,19.35,0,0,0-7.82-1.68,25.4,25.4,0,0,0-16,5.87c-.57.46-.13,2.15.64,1.54a24.43,24.43,0,0,1,16.11-5.6,18.25,18.25,0,0,1,7.46,1.92,20.14,20.14,0,0,1,4.53,3.11,19,19,0,0,1,5.29,8.35,21.78,21.78,0,0,1,.72,9.46c-.87,6.35-4.43,12.56-10.09,15.9-6.08,3.6-14.11,3.33-20.22-.07a20.06,20.06,0,0,1-9.73-14.71,21.84,21.84,0,0,1,.48-8.63,17.68,17.68,0,0,1,17-13.42c.8,0,.75-1.84,0-1.79Z"/><path id="Path_148" data-name="Path 148" class="cls-12" d="M496.85,344.88a3.83,3.83,0,0,0-4.07-.56,4.59,4.59,0,0,0-2.08,3.33,5.23,5.23,0,0,0,1,4.13,5,5,0,0,0,8.54-3.9,5.82,5.82,0,0,0-1.69-3.59,6.37,6.37,0,0,0-4.1-1.65c-.78-.06-.77,1.74,0,1.79a5.05,5.05,0,0,1,4.21,2.38,3,3,0,0,1-.15,3.25,4.18,4.18,0,0,1-4.11,1.42,3.32,3.32,0,0,1-1.8-.85,2.79,2.79,0,0,1-.49-.64c.08.14,0-.07,0-.08l-.09-.21-.08-.21c.07.18,0-.11,0-.15s-.09-.49-.06-.28a4.58,4.58,0,0,1,0-.53s0-.28,0-.06l0-.22,0-.22s.08-.34,0-.15a2.92,2.92,0,0,1,.13-.42,2.17,2.17,0,0,1,.15-.35,2.52,2.52,0,0,1,.51-.7c1-1,2.45-.76,3.62,0,.81.56,1.16-1.15.55-1.56Z"/><path id="Path_149" data-name="Path 149" class="cls-12" d="M494.4,343.73a91.84,91.84,0,0,1,.41-10.36l-1.07.24c1.54,3.59,1.4,7.66,2.06,11.45.05.32.35.78.74.61s.44-.75.38-1.11c-.68-4-.58-8.14-2.19-11.88-.29-.68-1-.42-1.07.24a95.66,95.66,0,0,0-.44,10.84c0,.34.19.9.61.89s.57-.58.57-.92Z"/><path id="Path_150" data-name="Path 150" class="cls-12" d="M499.26,351.32c3.25,2.6,6.49,5.23,9.55,8.06.08-.56.17-1.12.25-1.68a17.16,17.16,0,0,1-6.44-2.44c-2.06-1.16-4-2.52-6-3.81-.83-.53-1.18,1.16-.56,1.56,2.08,1.35,4.12,2.76,6.27,4a17.82,17.82,0,0,0,6.76,2.49c.33,0,.51-.42.55-.67a1.15,1.15,0,0,0-.3-1c-3.06-2.83-6.29-5.45-9.54-8.06-.76-.6-1.13,1.1-.56,1.57Z"/><path id="Path_151" data-name="Path 151" class="cls-12" d="M479.41,350.94h3.82c.8,0,.76-1.65,0-1.65h-3.82C478.57,349.29,478.61,350.94,479.41,350.94Z"/><path id="Path_152" data-name="Path 152" class="cls-12" d="M510.39,348.47a24.27,24.27,0,0,0,3.81.21c.8,0,.76-1.8,0-1.8a24.4,24.4,0,0,1-3.82-.21C509.59,346.55,509.58,348.33,510.39,348.47Z"/><path id="Path_153" data-name="Path 153" class="cls-12" d="M507.49,337.3l2.12-2.12a1.16,1.16,0,0,0,.19-1.23c-.13-.31-.51-.61-.82-.3l-2.12,2.12a1.17,1.17,0,0,0-.18,1.23c.13.32.51.61.81.3Z"/><path id="Path_154" data-name="Path 154" class="cls-12" d="M482.51,338.59a25.51,25.51,0,0,0,2.54,2.33c.78.6,1.14-1.11.56-1.56a26.78,26.78,0,0,1-2.55-2.33c-.31-.31-.68,0-.8.34a1.19,1.19,0,0,0,.25,1.22Z"/><path id="Path_155" data-name="Path 155" class="cls-12" d="M488.1,361.55c.24-.45.61-.82.84-1.27a1.23,1.23,0,0,0,0-1.27.46.46,0,0,0-.64-.18.52.52,0,0,0-.19.2c-.24.45-.61.82-.85,1.27a1.25,1.25,0,0,0,0,1.27.47.47,0,0,0,.64.18.43.43,0,0,0,.2-.2Z"/><path id="Path_156" data-name="Path 156" class="cls-12" d="M497.16,364.73a28,28,0,0,0-.24-4.48c-.05-.32-.35-.78-.74-.61s-.44.75-.38,1.12a25.4,25.4,0,0,1,.18,4c0,.33.19.89.61.88s.57-.57.57-.91Z"/><path id="Path_157" data-name="Path 157" class="cls-12" d="M484.09,326.34a22.81,22.81,0,0,0-8,7.64,22.35,22.35,0,0,0-3.18,9.7,28.53,28.53,0,0,0,5.73,19.5c4.09,5.42,10.24,9.22,17.13,9.42a24,24,0,0,0,11.34-2.78,28.16,28.16,0,0,0,11.19-10.13A24.51,24.51,0,0,0,522,345.16,28.83,28.83,0,0,0,516.14,330a32.49,32.49,0,0,0-5.8-6.09,12.65,12.65,0,0,0-7-2.76,33.66,33.66,0,0,0-7.75.85c-2.59.42-5.2.67-7.74,1.31a15.09,15.09,0,0,0-7.71,4.6,1.2,1.2,0,0,0-.19,1.23c.13.3.53.63.82.3a14.25,14.25,0,0,1,6.7-4.2,55.39,55.39,0,0,1,7.68-1.37,43.42,43.42,0,0,1,7.8-.95,11.77,11.77,0,0,1,7,2.67,31.36,31.36,0,0,1,5.7,6.09,28.15,28.15,0,0,1,3.79,7.17,22.25,22.25,0,0,1,.21,14.93,26.61,26.61,0,0,1-20.87,16.86c-6.84.88-13.35-2-17.94-7a26.5,26.5,0,0,1-6.88-18.11,20,20,0,0,1,9.78-17l.72-.44c.66-.38.38-2.14-.35-1.72Z"/></g><g id="Group_75" data-name="Group 75"><g id="Group_68" data-name="Group 68" class="cls-13"><path id="Path_160" data-name="Path 160" class="cls-14" d="M39.1,263.05c3.15,14.09,5.41,28.44,10.12,42.12.1.29.44.62.76.45a23.71,23.71,0,0,1,7.29-2.08c2.71-.41,5.44-.61,8.16-.83,3.2-.26,6.36-.87,9.54-1.29a80.12,80.12,0,0,1,10.5-.78c.9,0,.85-2,0-2a82,82,0,0,0-10.5.79c-3.24.41-6.45,1-9.7,1.3-2.74.22-5.47.43-8.19.84a24.48,24.48,0,0,0-7.45,2.13l.76.45c-4.66-13.52-6.87-27.72-10-41.64-.08-.36-.38-.89-.83-.69s-.53.85-.44,1.26Z"/><path id="Path_161" data-name="Path 161" class="cls-14" d="M39.76,263.06c12.36,1.41,24.09-3.8,36.13-5.5l-.67-1.27c-.93,14.26,4.9,27.78,7.9,41.46.17.8.34,1.6.49,2.4.07.36.39.88.83.68s.52-.84.44-1.25c-1.33-6.94-3.47-13.7-5.26-20.52s-3.31-13.69-3.17-20.7q0-.78.06-1.56c0-.37-.06-1.35-.67-1.26-12,1.71-23.78,6.91-36.14,5.5-.86-.1-.86,1.92,0,2Z"/><path id="Path_162" data-name="Path 162" class="cls-14" d="M49.81,271.92c4.84-.71,9.74-.72,14.6-1.2.91-.09.83-2.11,0-2-4.86.48-9.76.49-14.6,1.2-.91.14-.82,2.16.05,2Z"/><path id="Path_163" data-name="Path 163" class="cls-14" d="M51.49,277.18c5.35-.72,10.75-1.2,16-2.39.9-.2.78-2.21,0-2-5.28,1.19-10.68,1.67-16,2.4-.9.12-.82,2.14.06,2Z"/><path id="Path_164" data-name="Path 164" class="cls-14" d="M52.38,282.89a92.54,92.54,0,0,1,18.49-3.79c.91-.11.83-2.13-.05-2A95.22,95.22,0,0,0,52,280.94c-.8.27-.55,2.26.4,1.95Z"/><path id="Path_165" data-name="Path 165" class="cls-14" d="M56,288.39a122.85,122.85,0,0,1,12.74-2.59c.91-.15.81-2.17,0-2a132.75,132.75,0,0,0-13.1,2.67c-.8.23-.56,2.22.4,1.95Z"/><path id="Path_166" data-name="Path 166" class="cls-14" d="M58.18,293.22a49.83,49.83,0,0,1,10.3-1.44c.9,0,.85-2,0-2a50.31,50.31,0,0,0-10.29,1.43c-.9.2-.79,2.2,0,2Z"/></g><g id="Group_69" data-name="Group 69" class="cls-13"><path id="Path_167" data-name="Path 167" class="cls-14" d="M417.83,372.63a209.65,209.65,0,0,0,27.92-3.49c.73-.14.65-1.77,0-1.65A206.41,206.41,0,0,1,417.79,371c-.73,0-.69,1.68,0,1.64Z"/><path id="Path_168" data-name="Path 168" class="cls-14" d="M443.34,369.9c1.23,3.34,1.91,6.88,3.49,10.09.12.25.31.46.62.36,3.6-1.18,7.4-1.56,11.1-2.29.72-.15.64-1.78-.05-1.64-3.8.75-7.69,1.14-11.38,2.35l.62.37c-1.58-3.21-2.26-6.75-3.5-10.09-.11-.3-.46-.53-.74-.27a1.1,1.1,0,0,0-.17,1.13Z"/><path id="Path_169" data-name="Path 169" class="cls-14" d="M446,370.27c4.09,2.06,7.86,4.69,12,6.6.7.32.87-1.3.24-1.59-4.16-1.91-7.93-4.54-12-6.6-.68-.34-.86,1.28-.24,1.59Z"/><path id="Path_170" data-name="Path 170" class="cls-14" d="M417,374.56a124.72,124.72,0,0,1,7.48,22.52c.89,3.61,1.83,7.26,2.42,10.94a61.49,61.49,0,0,0,.82,6.18,3.59,3.59,0,0,0,3.18,2.91,12.36,12.36,0,0,0,3.64-.21c1.9-.32,3.81-.59,5.7-1a59.82,59.82,0,0,1,5.9-1.19l6.22-.71a32.2,32.2,0,0,0,7.66-1.45,4.49,4.49,0,0,0,2.84-3.65,16.77,16.77,0,0,0,.14-3.61c-.07-1.76-.19-3.52-.37-5.27a168,168,0,0,0-4.05-22.6c-.22-.92-.44-1.84-.67-2.76s-1.25-.4-1,.47a192.46,192.46,0,0,1,4.4,22.46,57.52,57.52,0,0,1,.64,9.9,3.44,3.44,0,0,1-2.13,3.44,14.55,14.55,0,0,1-2.9.75c-1.6.3-3.2.52-4.81.71l-6.23.71c-2,.22-3.93.8-5.89,1.2s-3.76.66-5.65,1a11.81,11.81,0,0,1-3.56.18c-1.62-.23-2-1.39-2.23-2.78-.33-2.14-.4-4.3-.83-6.43-.74-3.69-1.61-7.37-2.53-11a122.82,122.82,0,0,0-7.26-21.53c-.45-1-1.23.16-.91.85Z"/><path id="Path_171" data-name="Path 171" class="cls-14" d="M427.14,381.54a22.49,22.49,0,0,0,10.22-1.2c.65-.23.43-1.85-.32-1.57a22,22,0,0,1-9.94,1.13c-.7-.07-.7,1.56,0,1.64Z"/><path id="Path_172" data-name="Path 172" class="cls-14" d="M430.24,385.42c4.3-.76,8.7-.84,12.94-2,.66-.17.46-1.78-.32-1.57-4.14,1.1-8.46,1.15-12.66,1.9-.73.13-.65,1.77,0,1.64Z"/><path id="Path_173" data-name="Path 173" class="cls-14" d="M431.4,389.69c5.9,0,11.59-1.92,17.45-2.33.74-.05.69-1.69,0-1.64-5.86.41-11.54,2.3-17.45,2.33-.73,0-.69,1.64,0,1.64Z"/><path id="Path_174" data-name="Path 174" class="cls-14" d="M433.34,394.34c5.86-.8,11.54-2.68,17.45-3.1.74-.05.69-1.69,0-1.64-5.91.42-11.59,2.3-17.45,3.1-.73.1-.66,1.74,0,1.64Z"/><path id="Path_175" data-name="Path 175" class="cls-14" d="M434.5,399.38a118.9,118.9,0,0,1,16.29-1.94c.74-.05.68-1.69,0-1.64a118.57,118.57,0,0,0-16.28,1.94C433.74,397.9,433.83,399.53,434.5,399.38Z"/><path id="Path_176" data-name="Path 176" class="cls-14" d="M436.44,403.26l17.46-2.33c.73-.1.66-1.73,0-1.64l-17.45,2.33C435.67,401.72,435.74,403.35,436.44,403.26Z"/></g><g id="Group_70" data-name="Group 70" class="cls-13"><path id="Path_177" data-name="Path 177" class="cls-14" d="M412.7,213.28a20.28,20.28,0,0,1,4.55-5.3h-.55c1.3,1.31,2.63,2.83,4.39,3.53,2,.78,3.65-.6,4.79-2.12a1.1,1.1,0,0,0,0-1.16c-1.22-1.64-2.27-3.4-3.49-5,0,.43-.05.86-.07,1.29a14.41,14.41,0,0,1,5.31-3.86c1.78-.79,3.91-1.1,5,.8.8,1.34.78,3,1.55,4.37,1,1.77,2.93,1.62,4.64,1.1.22-.07.34-.39.37-.59.17-1.28.27-2.57.44-3.85a9.36,9.36,0,0,1,1-3.54l-.52.23c2.24.54,4.58.54,6.8,1.26a5.5,5.5,0,0,1,2.77,1.79,3.48,3.48,0,0,1,.38.68,3,3,0,0,1,.13.36c-.06-.19,0,0,0,0a.7.7,0,0,1,0,.29,5.4,5.4,0,0,1-.1.58c-.55,2.49-3,7.65,1.12,8.58a6.82,6.82,0,0,0,3.64-.15,4.6,4.6,0,0,0,2-2.12c.52-.84,1.37-1.8,2.5-1.58a7.38,7.38,0,0,1,3.83,2.58,11.79,11.79,0,0,1,2.47,3.82,1.91,1.91,0,0,1-.45,2.11,19.46,19.46,0,0,1-2.62,2.08c-.53.4-1,.82-1.53,1.27s-1.4,1.15-1.51,1.84a4.57,4.57,0,0,0,.71,2.29,4.19,4.19,0,0,0,1.07,1.4,2.53,2.53,0,0,0,2.44.21c1.69-.55,3.7-2.07,5.3-.5a6.22,6.22,0,0,1,1.43,3.11,7.39,7.39,0,0,1,0,3.53,6.45,6.45,0,0,1-1.61,2.74,4.1,4.1,0,0,1-2.33,1c-1.89.26-3.82-.25-5.7.18-2.54.58-3.56,3.06-4.05,5.39-.05.28,0,.92.4,1a13.66,13.66,0,0,1,5.5,2,2.63,2.63,0,0,1,.93,1.13,1.2,1.2,0,0,1,.07.46,1.27,1.27,0,0,1,0,.28c0,.11,0,.22-.07.33a11.08,11.08,0,0,1-2.17,3.57c-1.15,1.49-2.41,2.89-3.61,4.34h.54c-3.13-2.14-5.86-7.36-10.33-5.58a4.78,4.78,0,0,0-2.51,2.07,4.1,4.1,0,0,0-.24,2.76c.44,2,1.79,3.68,1.82,5.74l.38-.8a32.45,32.45,0,0,1-6.77,2.26c-2.2.41-4.87.42-5.77-2.05-.6-1.65.63-3.56.81-5.19a3.75,3.75,0,0,0-.71-2.77,7,7,0,0,0-3.56-1.95.4.4,0,0,0-.42.09,29.26,29.26,0,0,0-2.63,3.15,14.86,14.86,0,0,1-2.11,2.5c-2,1.71-4.78-.85-6.19-2.21a4.12,4.12,0,0,1-1.51-2.55,3.34,3.34,0,0,1,.94-2c1.41-1.73,3.17-3.13,4.43-5a1.1,1.1,0,0,0,.06-1,5.4,5.4,0,0,0-2.42-2.51,5.89,5.89,0,0,0-3.21-.43,22.42,22.42,0,0,0-6.62,2.19l.53.2c-.62-1.13-1.31-2.22-1.91-3.36a4.56,4.56,0,0,1-.74-2.64,4.37,4.37,0,0,1,1.9-2.48,6.25,6.25,0,0,1,2.24-1c1.19-.31,2.64-.31,3.56-1.24,1.38-1.4.87-3.92.52-5.6a.64.64,0,0,0-.53-.59,27.54,27.54,0,0,1-5.51-.56,2.73,2.73,0,0,1-2.09-2.69,12.85,12.85,0,0,1,1.31-6.57,13.65,13.65,0,0,1,4.53-5.64c.59-.37.31-2-.32-1.57a16.33,16.33,0,0,0-6.58,14,4.28,4.28,0,0,0,2.51,4c1.89.75,4.19.61,6.19.74l-.53-.59c.28,1.36.85,3.49-.75,4.17-1.33.57-2.82.54-4.14,1.18a5.65,5.65,0,0,0-3.41,5.09c.14,2.4,1.9,4.57,3,6.59a.43.43,0,0,0,.53.2c3.1-1.38,8.84-4.18,11,0l.06-1c-1.37,2-3.4,3.47-4.78,5.46s-.92,4.31.66,6.08a13.94,13.94,0,0,0,4,3.09,3.46,3.46,0,0,0,3.12.14,7.9,7.9,0,0,0,2.42-2.43,34.75,34.75,0,0,1,3-3.7l-.42.09c1.18.34,2.64.78,3.32,1.9a2.61,2.61,0,0,1-.09,2c-.6,2.12-1.17,4.13,0,6.18,1.27,2.25,3.86,2.36,6.15,2a31,31,0,0,0,7-2.27l.19-.08a.84.84,0,0,0,.37-.8c0-1.9-.91-3.57-1.59-5.3a3.12,3.12,0,0,1-.3-2c.29-.91,1.42-1.44,2.23-1.76,1.85-.74,3.52.23,4.89,1.44a47.27,47.27,0,0,0,4.44,4,.4.4,0,0,0,.55,0c1.32-1.61,2.71-3.17,4-4.81a11.45,11.45,0,0,0,2.28-4.16c1-4.16-4.24-5.49-7.21-6.1.13.33.26.67.4,1,.43-2.1,1.4-4,3.68-4.28,1.78-.24,3.59.2,5.36-.11,2.22-.38,3.44-2,4.32-4,1-2.28.56-5.27-.39-7.49a4.78,4.78,0,0,0-2.25-2.65,4.3,4.3,0,0,0-3.17.2,10.2,10.2,0,0,1-2.72,1c-1.31.1-1.83-1.52-2.13-2.51-.08.31-.15.62-.23.93a18.49,18.49,0,0,1,3.18-2.88,13.86,13.86,0,0,0,2.46-2.06c1.79-2.15.45-4.82-.9-6.82s-4.19-5.17-7-4.3a4.31,4.31,0,0,0-2.17,2.1,5.11,5.11,0,0,1-.77,1.07,2.16,2.16,0,0,1-1.49.58,5,5,0,0,1-3.06-.34,1.34,1.34,0,0,1-.66-1.33c0-1.45.79-3.17,1.16-4.68a4.38,4.38,0,0,0,.07-2.38,5.25,5.25,0,0,0-2.07-2.72c-2-1.34-4.57-1.53-6.88-1.84-.61-.08-1.21-.18-1.81-.32a.44.44,0,0,0-.52.22c-1.4,2.43-1.31,5.43-1.68,8.12l.36-.58a4.06,4.06,0,0,1-2.81.11,2.2,2.2,0,0,1-1-1.4c-.53-1.5-.68-3.19-1.79-4.44-1.51-1.71-3.72-1.35-5.62-.54a15,15,0,0,0-5.56,4,1.08,1.08,0,0,0-.08,1.29c1.22,1.64,2.27,3.4,3.49,5l0-1.16c-1,1.36-2.34,2.29-4,1.56-1.52-.66-2.71-2.11-3.86-3.25a.39.39,0,0,0-.54,0,21.29,21.29,0,0,0-4.76,5.56,1.1,1.1,0,0,0,0,1.16.43.43,0,0,0,.76,0Z"/><path id="Path_178" data-name="Path 178" class="cls-14" d="M441.51,216.57a8.76,8.76,0,0,0-8.45,1.15,13.16,13.16,0,0,0-4.32,7.7c-1.34,6.16.57,13.82,6.67,16.71a14.42,14.42,0,0,0,11.45,0A10.6,10.6,0,0,0,453,234c1.22-6.93-2.87-15.37-9.68-17.77a11.77,11.77,0,0,0-9.05.73c-.63.3-.39,1.92.32,1.58a10.9,10.9,0,0,1,10.6.27,15.17,15.17,0,0,1,6.23,8.33,12.16,12.16,0,0,1-.55,9.55c-1.94,3.45-5.86,4.79-9.62,4.92a11,11,0,0,1-8.94-3.65,13.48,13.48,0,0,1-2.87-8.4c-.1-5.26,2.76-12.23,9.12-12a9.48,9.48,0,0,1,2.73.56c.75.26.9-1.37.24-1.59Z"/><path id="Path_179" data-name="Path 179" class="cls-14" d="M412,218.93c1.18-3.81,3.83-6.84,6.41-9.79a1.08,1.08,0,0,0,.17-1.12c-.12-.27-.48-.58-.75-.28-2.73,3.12-5.53,6.34-6.78,10.38a1.09,1.09,0,0,0,.22,1.12c.3.25.64,0,.73-.31Z"/><path id="Path_180" data-name="Path 180" class="cls-14" d="M410.46,218.21a2.19,2.19,0,0,0-.63,1.49c0,.31.17.82.56.81s.51-.53.51-.84c0-.08,0,.3,0,.17a.13.13,0,0,1,0-.06c0-.12-.06.21,0,.08l0-.1c-.08.2,0,.07,0,0l.09-.13c-.09.13,0,0,0,0a1.09,1.09,0,0,0,.17-1.12c-.12-.28-.47-.57-.75-.28Z"/><path id="Path_181" data-name="Path 181" class="cls-14" d="M412.57,220.1a25.07,25.07,0,0,1,3.58,2,3.66,3.66,0,0,1,.82.75,1.66,1.66,0,0,1,.19.3.72.72,0,0,1,.13.37,8.32,8.32,0,0,1-.08,2.39c-.17,1.55-.32,3.1-.4,4.66,0,.31.19.82.56.81s.5-.53.52-.83c.08-1.57.26-3.12.43-4.68a8.18,8.18,0,0,0,0-3,4,4,0,0,0-1.54-2.14,24.79,24.79,0,0,0-3.92-2.21c-.69-.34-.87,1.28-.25,1.59Z"/><path id="Path_182" data-name="Path 182" class="cls-14" d="M424.26,203.83c.85,2.09,1.87,4.11,2.71,6.2.06-.38.11-.76.17-1.13a31.43,31.43,0,0,1-4.53,2.63l.42.07a7.38,7.38,0,0,1-2.13-2.42c-.11-.3-.46-.54-.74-.28A1.08,1.08,0,0,0,420,210a8.92,8.92,0,0,0,2.53,3,.4.4,0,0,0,.42.07,31.78,31.78,0,0,0,4.78-2.8,1.06,1.06,0,0,0,.16-1.13c-.84-2.09-1.87-4.11-2.71-6.2-.12-.3-.46-.54-.74-.27a1,1,0,0,0-.17,1.12Z"/><path id="Path_183" data-name="Path 183" class="cls-14" d="M435.74,206.13a6.22,6.22,0,0,1,2.57-.36c.73,0,.69-1.64,0-1.64a7,7,0,0,0-2.86.42c-.63.29-.39,1.9.32,1.58Z"/><path id="Path_184" data-name="Path 184" class="cls-14" d="M438.84,207.68c2.89-1.73,2.67-5,3.07-8,0-.34,0-.86-.4-1s-.6.29-.64.59c-.33,2.37,0,5.37-2.36,6.78-.59.36-.33,2,.33,1.58Z"/><path id="Path_185" data-name="Path 185" class="cls-14" d="M450.18,211.56a4.73,4.73,0,0,1,2.86,2.12.43.43,0,0,0,.59.17.39.39,0,0,0,.17-.19,1.08,1.08,0,0,0,0-1.15,5.69,5.69,0,0,0-3.34-2.54c-.78-.2-.91,1.42-.25,1.59Z"/><path id="Path_186" data-name="Path 186" class="cls-14" d="M450.18,210.4a7.72,7.72,0,0,1,3.55,3.9c.12.3.45.54.74.27a1.07,1.07,0,0,0,.17-1.12,9.17,9.17,0,0,0-4.21-4.64c-.68-.35-.86,1.27-.25,1.59Z"/><path id="Path_187" data-name="Path 187" class="cls-14" d="M452.92,211.86l4.27-4.27c.47-.47,0-2-.58-1.4l-4.27,4.27c-.47.47,0,2,.58,1.4Z"/><path id="Path_188" data-name="Path 188" class="cls-14" d="M457.94,208.07a6.28,6.28,0,0,1,2.86,2.51.41.41,0,0,0,.58.16.39.39,0,0,0,.18-.18,1.12,1.12,0,0,0,0-1.16,7.43,7.43,0,0,0-3.35-2.92C457.44,206.21,457.28,207.83,457.94,208.07Z"/><path id="Path_189" data-name="Path 189" class="cls-14" d="M454.86,213.41a45.68,45.68,0,0,1,4.65-4.26c.54-.41.14-2-.58-1.4a45.68,45.68,0,0,0-4.65,4.26C453.81,212.48,454.24,214,454.86,213.41Z"/><path id="Path_190" data-name="Path 190" class="cls-14" d="M460.8,223.38a5.17,5.17,0,0,1,1,2.53c0,.3.17.81.56.8s.52-.52.52-.83a7.41,7.41,0,0,0-1.34-3.68.43.43,0,0,0-.59-.16.42.42,0,0,0-.17.18,1.1,1.1,0,0,0,0,1.16Z"/><path id="Path_191" data-name="Path 191" class="cls-14" d="M459.46,224.35a3.23,3.23,0,0,0,.67,2.26c.27.3.64-.05.73-.32a1.08,1.08,0,0,0-.22-1.11.55.55,0,0,1,0-.12c0,.08,0-.18-.05-.22,0,.15,0-.15,0-.18v-.33c0-.31-.17-.82-.56-.81s-.52.53-.52.83Z"/><path id="Path_192" data-name="Path 192" class="cls-14" d="M462.1,225.52c1.43-.9,3.38-2,5.14-1.6,2,.47,2,3.07,1.92,4.7,0,.3.18.81.55.8s.5-.52.52-.83c.11-2.14-.08-5.14-2.36-6.14-2-.87-4.45.46-6.1,1.49-.58.37-.31,2,.33,1.57Z"/><path id="Path_193" data-name="Path 193" class="cls-14" d="M458,238.29c-.4.86-.39,1.84-.78,2.71-.15.32-.07,1.08.35,1.2,1.63.44,3,1.5,4.65,1.94.78.21.91-1.41.25-1.59-1.63-.44-3-1.5-4.65-1.94.12.4.23.8.35,1.2.39-.87.38-1.85.78-2.71.31-.7-.51-1.79-1-.81Z"/><path id="Path_194" data-name="Path 194" class="cls-14" d="M459.24,241.06a4.47,4.47,0,0,1,3.72,2.11c.68,1.39.09,3-.64,4.25a1.1,1.1,0,0,0,0,1.16.43.43,0,0,0,.58.17.41.41,0,0,0,.18-.19,6.93,6.93,0,0,0,.81-6.11,5.38,5.38,0,0,0-4.72-3c-.7-.08-.7,1.56,0,1.64Z"/><path id="Path_195" data-name="Path 195" class="cls-14" d="M446.59,252.66a13.2,13.2,0,0,0,3.88-1.94,1,1,0,0,0,.35-1c-.05-.24-.34-.78-.68-.56a12.79,12.79,0,0,1-3.87,1.94c-.66.18-.46,1.79.32,1.58Z"/><path id="Path_196" data-name="Path 196" class="cls-14" d="M445.67,253.62a11.09,11.09,0,0,1,1.77,5.63c0,.36.39,1.15.83.69,2.45-2.54,2-6.33.55-9.27-.37-.77-1-.2-1,.44a21.52,21.52,0,0,0,.41,4.87l1-.66a32.52,32.52,0,0,0-1.94-3.87c-.43-.87-1.14,0-1,.65a13.57,13.57,0,0,0,1.7,4.24c.34.52.81,0,.89-.39a6.71,6.71,0,0,0,0-2.64c-.17-.84-.52-1.62-.74-2.45-.27-1-1.25-.39-1,.46.38,1.43,1,2.71.77,4.22l.89-.38a11.53,11.53,0,0,1-1.4-3.52l-1,.66a32.52,32.52,0,0,1,1.94,3.87c.08.25.35.49.62.37a.94.94,0,0,0,.35-1,18.9,18.9,0,0,1-.36-4.44l-1,.44c1.1,2.23,1.68,5-.22,7l.83.69a13.66,13.66,0,0,0-2.11-6.79.44.44,0,0,0-.59-.16.45.45,0,0,0-.18.18,1.15,1.15,0,0,0,0,1.16Z"/><path id="Path_197" data-name="Path 197" class="cls-14" d="M425.65,256.92c3.29-.87,5.34-3.8,7.21-6.42.4-.56-.21-1.95-.79-1.14-1.77,2.47-3.65,5.17-6.75,6-.65.17-.45,1.78.33,1.57Z"/><path id="Path_198" data-name="Path 198" class="cls-14" d="M418.26,249c.39-2.88,2.27-5.07,4.42-6.88.51-.43.1-2-.58-1.4-2.45,2.06-4.45,4.62-4.89,7.87,0,.34,0,.85.4,1s.61-.29.65-.59Z"/><path id="Path_199" data-name="Path 199" class="cls-14" d="M411.55,222.06c2.51,0,5,1.07,6.12,3.48.19-.41.38-.81.58-1.22-2.4-1.24-4-3.73-6.6-4.65-.75-.27-.8,1.17-.37,1.51a16.05,16.05,0,0,1,4.45,5.14l.82-1a10.11,10.11,0,0,0-5.67-3.69c-.82-.18-.84,1.29-.25,1.59a33,33,0,0,1,4.91,3c.13-.5.25-1,.38-1.51a31.79,31.79,0,0,1-4.91-2.64l-.38,1.51a8.37,8.37,0,0,1,3.63,1.85,6,6,0,0,1,1.8,3.8c0,.25.24.6.53.59s.52-.53.52-.84a14.67,14.67,0,0,0-.86-4.29c-.08-.24-.35-.48-.62-.36a.84.84,0,0,0-.37.8,29.25,29.25,0,0,0,.8,5.65l1-.66a16.16,16.16,0,0,1-1.08-5.79c0-.31-.17-.82-.56-.81s-.52.53-.52.83a18.48,18.48,0,0,0,1.25,6.62c.09.24.34.49.61.36s.42-.68.36-1a27.75,27.75,0,0,1-.76-5.21l-1,.44A11.69,11.69,0,0,1,416,229l1.05-.25a7.82,7.82,0,0,0-2-4.43,8.55,8.55,0,0,0-4.22-2.34c-.75-.19-.85,1.17-.38,1.51a34,34,0,0,0,5.17,2.8c.69.34.82-1.18.38-1.51a35.17,35.17,0,0,0-5.17-3.18c-.08.53-.17,1.06-.25,1.59a9.14,9.14,0,0,1,5.19,3.28c.6.73,1.09-.48.82-1a17.52,17.52,0,0,0-4.86-5.72c-.12.5-.25,1-.37,1.51,2.56.91,4.2,3.41,6.59,4.65.62.32.72-.91.58-1.22a7.5,7.5,0,0,0-7.07-4.27c-.73,0-.7,1.63,0,1.64Z"/><path id="Path_200" data-name="Path 200" class="cls-14" d="M419.91,245.29l.12-.48.38-.25h0l.28.1a.68.68,0,0,1,.22.49c0-.15,0,0,0-.17a1.85,1.85,0,0,1,.32-.68c.21-.33.22-1.47-.41-1.39a1.48,1.48,0,0,0-1.28,1.39,1,1,0,0,0,.27.92.42.42,0,0,0,.59-.05l.06-.1c.3-.63.47-1.31.77-1.93a1.15,1.15,0,0,0,0-1.16.43.43,0,0,0-.76,0c-.3.63-.47,1.31-.77,1.93l.91.78c0-.11.19-.15.28-.16l-.42-1.39a3.3,3.3,0,0,0-.58,2.36c.05.29.24.7.59.68s.52-.6.54-.93-.19-.82-.56-.81-.5.53-.52.83Z"/><path id="Path_201" data-name="Path 201" class="cls-14" d="M412.08,234.44c1.36-.37,2.52-1.19,3.88-1.56.61-.16.48-1.6-.18-1.6a30.67,30.67,0,0,0-5.82.38c.06.54.12,1.07.19,1.61,1.4-.34,2.85-.44,4.26-.77l-.33-1.58c-1.46.39-2.79,1.16-4.26,1.55l.33,1.58a9.76,9.76,0,0,1,3-.74c.7,0,.68-1.42.1-1.62-1.62-.57-3.55-.66-4.49,1.05s-.52,3.87,0,5.6a.46.46,0,0,0,.54.36.37.37,0,0,0,.2-.09,1.07,1.07,0,0,0,.17-1.12,5.11,5.11,0,0,1-.16-3.61c.65-1.32,2.33-1,3.46-.6,0-.54.07-1.08.1-1.62a10.94,10.94,0,0,0-3.24.81c-.66.22-.46,1.78.32,1.58,1.47-.39,2.8-1.16,4.27-1.55.65-.18.46-1.77-.33-1.58-1.4.34-2.86.44-4.27.78-.6.14-.46,1.73.19,1.61a29.78,29.78,0,0,1,5.81-.39l-.18-1.61c-1.36.36-2.52,1.19-3.88,1.55-.65.18-.46,1.79.33,1.58Z"/><path id="Path_202" data-name="Path 202" class="cls-14" d="M444.51,219.5a33.84,33.84,0,0,1,5,8.36c1.08,2.94,1,6.44-1.22,8.85a12,12,0,0,1-6.22,3.24,10,10,0,0,1-6.95-.68,5.28,5.28,0,0,1-1.92-2,.42.42,0,0,0-.58-.16.45.45,0,0,0-.18.18,1.15,1.15,0,0,0,0,1.16c2.6,4.44,8.87,3.87,12.91,2a9.78,9.78,0,0,0,5.23-5.25c1.27-3.11.61-6.58-.71-9.55a39.24,39.24,0,0,0-4.68-7.39c-.6-.8-1.14.62-.73,1.17Z"/></g><g id="Group_74" data-name="Group 74" class="cls-13"><g id="Group_73" data-name="Group 73"><path id="Path_206" data-name="Path 206" class="cls-14" d="M408.27,455.47c2.43,4.9,3.47,10.53,6.72,15a5.9,5.9,0,0,0,5.53,2.8,20.63,20.63,0,0,0,7.19-1.88c2.33-1,4.56-2.16,6.93-3l-.76-.45c1.47,4.46,2.21,9.16,4.3,13.4.28.55.95.67,1.15,0,.94-3.27.8-6.7,1.3-10a13.48,13.48,0,0,1,1.35-4.46,5,5,0,0,1,2.21-2A62,62,0,0,1,451.3,462a15.41,15.41,0,0,0,5.84-3.17,6.57,6.57,0,0,0,1.45-6.32c-.28-1.23-.81-2.41-1.2-3.61s-.74-2.36-1.13-3.52a25.59,25.59,0,0,0-3.24-6.92,8.59,8.59,0,0,0-2.41-2.32,7.63,7.63,0,0,0-3.36-1,22.17,22.17,0,0,0-8.39,1.33,75.81,75.81,0,0,0-7.86,2.95c-3.55,1.53-7.07,3.1-10.59,4.68-2.28,1-4.58,1.94-6.88,2.89s-4.86,2-6.42,4.05a4.14,4.14,0,0,0-.76,3.26,6.3,6.3,0,0,0,2.41,3.5c.84.7,1.27-1.23.63-1.76a7.69,7.69,0,0,1-1.21-1.21,3.3,3.3,0,0,1-.34-.49,2.55,2.55,0,0,1-.13-.29.57.57,0,0,1-.07-.22s-.06-.33,0-.1a2.44,2.44,0,0,1,0-.27c0,.29.1-.4,0-.17a2.24,2.24,0,0,1,.45-.83c1.23-1.53,3.24-2.4,5-3.16,2.07-.91,4.2-1.67,6.27-2.6,3.5-1.57,7-3.14,10.54-4.68,2.69-1.17,5.41-2.28,8.19-3.22a25.71,25.71,0,0,1,8.45-1.67,7.57,7.57,0,0,1,3.4.78,7,7,0,0,1,2.26,2.16,24.91,24.91,0,0,1,3.09,6.83c.38,1.15.74,2.32,1.12,3.47a22.33,22.33,0,0,1,1.07,3.49c.3,1.89-.8,3.35-2.4,4.35a33.33,33.33,0,0,1-6.61,2.76c-1.24.44-2.46.95-3.68,1.45a8.68,8.68,0,0,0-2.77,1.69,7.41,7.41,0,0,0-1.69,2.84,20.77,20.77,0,0,0-1.07,4.45c-.4,3-.26,6.06-1.09,9l1.15,0c-2.1-4.24-2.83-8.94-4.31-13.4a.61.61,0,0,0-.73-.45h0c-4.4,1.64-8.57,4.47-13.36,4.82a6.31,6.31,0,0,1-3-.44,5.64,5.64,0,0,1-2.23-2.13,34.17,34.17,0,0,1-3.55-7.57c-.86-2.24-1.63-4.53-2.69-6.68-.59-1.19-1.55.2-1.13,1.05Z"/><path id="Path_207" data-name="Path 207" class="cls-14" d="M406.27,456.6a13.28,13.28,0,0,0,.76,6.12,31.76,31.76,0,0,0,3.14,6.8,24,24,0,0,0,4.42,5.55,8,8,0,0,0,5.41,2.27c2.06,0,3.73-1.39,5.17-2.71,1.16-1.07,2.45-2.54,4.17-2.41,1.9.14,2.78,2.2,3.36,3.74a62.35,62.35,0,0,0,2.13,6.12,6.45,6.45,0,0,0,.83,1.35.52.52,0,0,0,.72.2.47.47,0,0,0,.09-.06c1.87-1.31,2.67-4,2.7-6.15,0-.38-.22-1-.69-1s-.63.65-.64,1a5.61,5.61,0,0,1-2.08,4.39l.81.13c-1.23-1.51-1.65-3.7-2.23-5.54s-1.33-4.14-3-5.43c-3.57-2.82-6.48,2.18-9.22,3.68-4.07,2.25-7.8-1.84-9.92-4.86a31,31,0,0,1-3.5-6.55,21.26,21.26,0,0,1-1-3.15c-.09-.41-.18-1-.21-1.26s0-.44,0-.65v-.32s0-.43,0-.23a3.45,3.45,0,0,1,.07-.55c.07-.42-.05-1.06-.5-1.24s-.74.37-.8.73Z"/><path id="Path_208" data-name="Path 208" class="cls-14" d="M440.3,471.6c3.06-3,7.33-4.32,11-6.36a15.52,15.52,0,0,0,4.82-3.89,11.19,11.19,0,0,0,2.19-6.43c0-.38-.23-1-.69-1s-.62.65-.64,1a8.7,8.7,0,0,1-2.09,5.3,16,16,0,0,1-4.67,3.42c-3.62,1.91-7.68,3.27-10.64,6.2a1.33,1.33,0,0,0-.21,1.39c.15.35.57.68.92.34Z"/></g></g></g><g id="Group_80" data-name="Group 80"><g id="Group_76" data-name="Group 76" class="cls-13"><path id="Path_209" data-name="Path 209" class="cls-15" d="M15.43,492a50.26,50.26,0,0,0-1.5-9.68,38.12,38.12,0,0,0-3.6-9.42A35.58,35.58,0,0,0,7.56,469c-1.08-1.42-2.12-2.87-3.07-4.38a17.18,17.18,0,0,1-3-9.68,11.36,11.36,0,0,1,3.38-7.78,14.55,14.55,0,0,1,7.24-3.69c5.17-1.05,12,.36,14.4,5.62a13.07,13.07,0,0,1,.57,7.55A27.2,27.2,0,0,1,24,465c-1.74,3.19-3.82,6.17-5.43,9.43a33.46,33.46,0,0,0-3.08,11.09,74.89,74.89,0,0,0-.48,9c0,.44.24,1.16.79,1.15s.74-.75.74-1.19a61.18,61.18,0,0,1,1-12.15,32.15,32.15,0,0,1,4.2-10,75.09,75.09,0,0,0,5.14-9.35,26.33,26.33,0,0,0,2-8.53,13.89,13.89,0,0,0-1.86-8,12,12,0,0,0-6.88-4.91,16.82,16.82,0,0,0-15.86,3.44C-.83,449.57-1,457.32,1.8,463.26a50.76,50.76,0,0,0,5.88,8.92,27.07,27.07,0,0,1,4.13,8.42A45.19,45.19,0,0,1,13.89,492c0,.43.24,1.16.8,1.14s.76-.74.74-1.18Z"/><path id="Path_210" data-name="Path 210" class="cls-15" d="M15.3,448.22a4.07,4.07,0,0,0-4.19-.48,6.86,6.86,0,0,0-3,3.53c-1.38,3.09-1.48,7.44.75,10.17,2.56,3.15,7.87,2.83,10.89.51s2.82-6.69,1.46-9.83c-1.06-2.49-3.11-5-5.82-5.78-3.25-.9-5.75,1.6-7.11,4.29a1.63,1.63,0,0,0,0,1.65.62.62,0,0,0,.83.24.59.59,0,0,0,.25-.27,6.5,6.5,0,0,1,3.71-3.67,4.69,4.69,0,0,1,3.73.86A9.38,9.38,0,0,1,19.78,453a8.49,8.49,0,0,1,.46,1.12c0,.09.07.19.1.28-.08-.23,0,.08,0,.11.06.22.11.45.16.67s.07.39.1.58,0-.25,0,.08c0,.1,0,.19,0,.28a5.42,5.42,0,0,1,0,.57c0,.05,0,.37,0,.07,0,.12,0,.24,0,.37a3.41,3.41,0,0,1-.1.54c.06-.24-.07.25-.1.34a3,3,0,0,1-.45.9,4.75,4.75,0,0,1-1.61,1.48,8.67,8.67,0,0,1-6,.85,4.8,4.8,0,0,1-2.1-1.08,4.24,4.24,0,0,1-1.13-1.64,6.49,6.49,0,0,1-.43-2,6.87,6.87,0,0,1,.17-2.26,5.42,5.42,0,0,1,.28-1q.11-.32.24-.63c0-.09.07-.17.11-.26a.76.76,0,0,1,.09-.18A5,5,0,0,1,11,450.37a3.17,3.17,0,0,1,1.6-.7,3.11,3.11,0,0,1,2,.58c1.07.71,1.52-1.5.72-2Z"/><path id="Path_211" data-name="Path 211" class="cls-15" d="M13.59,448.47a7.3,7.3,0,0,1,6.6,1.29,6.21,6.21,0,0,1,1.64,2.34,6.85,6.85,0,0,1,.5,2.8,7.34,7.34,0,0,1-2.76,5.46c-2,1.72-4.49,2.85-7.18,2.16a7.63,7.63,0,0,1-5.11-4.66A6.39,6.39,0,0,1,9,451.06a1.53,1.53,0,0,0,.23-1.6c-.16-.41-.66-.8-1.05-.4a9.38,9.38,0,0,0-2.78,7.5,9.8,9.8,0,0,0,3.47,6.56,8.15,8.15,0,0,0,6.84,1.77,11,11,0,0,0,6.54-4.64,10.25,10.25,0,0,0,.49-10.16,8,8,0,0,0-3.61-3.53,8.65,8.65,0,0,0-5.61-.42c-1,.23-.9,2.55.06,2.33Z"/></g><g id="Group_77" data-name="Group 77" class="cls-13"><path id="Path_212" data-name="Path 212" class="cls-15" d="M208.79,213.12a12.09,12.09,0,0,0-6,5.31,30.59,30.59,0,0,0-3.41,8.31,27.5,27.5,0,0,0-1.22,8.78A22.67,22.67,0,0,0,201.64,246a24,24,0,0,0,30.71,8.53,21.8,21.8,0,0,0,10.85-12.71,25.11,25.11,0,0,0-1.65-18.6,23.3,23.3,0,0,0-5.77-7.48,20.78,20.78,0,0,0-7.31-4,29.81,29.81,0,0,0-8.7-1.29,26.46,26.46,0,0,0-8.78,1.35,14.81,14.81,0,0,0-6.78,4.45.81.81,0,0,0-.12.82c.08.19.36.43.54.2,3.62-4.46,10-5.7,15.45-5.63a28.85,28.85,0,0,1,8.6,1.37,20.24,20.24,0,0,1,7.23,4.17,23.93,23.93,0,0,1,7.57,16.69,21.06,21.06,0,0,1-6.39,16,22.09,22.09,0,0,1-14.74,5.88,23.66,23.66,0,0,1-15.45-5.29c-5.35-4.38-9-11.63-7.83-18.63a42.36,42.36,0,0,1,2.13-8.21,19.28,19.28,0,0,1,4.45-7.3,9.16,9.16,0,0,1,3.38-2.08c.47-.16.31-1.33-.24-1.14Z"/><path id="Path_213" data-name="Path 213" class="cls-15" d="M212.65,231.76a12.55,12.55,0,0,1,0-4.45l-.57.37c1,1,.75,2.66.18,3.83a.84.84,0,0,0,0,.84.31.31,0,0,0,.42.13.35.35,0,0,0,.13-.14c.88-1.79,1.11-4.16-.38-5.7-.26-.27-.52.15-.56.37a14.22,14.22,0,0,0,0,5.08c0,.22.23.52.49.4s.29-.49.25-.73Z"/><path id="Path_214" data-name="Path 214" class="cls-15" d="M214.9,231.8a9.05,9.05,0,0,0-.17-3.84,15.72,15.72,0,0,1-.66-3.33l-.37.6a2.41,2.41,0,0,1,1.48.48.3.3,0,0,0,.43,0l0-.06a15.8,15.8,0,0,0,1.74-3.49c.09-.25.07-.76-.25-.86-1.52-.5-3.46-1-4.25-2.54l-.21.87a4.8,4.8,0,0,1,3.44-.55c.44.08.58-.57.41-.88a3.53,3.53,0,0,1-.37-1c0,.14,0-.07,0-.09,0,.15,0,0,0-.07,0,.15,0,0,0-.05-.06.16.1-.12,0,0a2.55,2.55,0,0,1,1.35-.62c1.11-.28,2.56-.5,2.91-1.8a.71.71,0,0,0-.26-.86,18.33,18.33,0,0,0-2.24-.84c0,.39,0,.77-.08,1.16a4.25,4.25,0,0,0,4-2.82.77.77,0,0,0-.16-.81c-.22-.19-.45,0-.53.22a3.53,3.53,0,0,1-3.32,2.23c-.5,0-.49,1-.07,1.16a20.2,20.2,0,0,1,2.24.85l-.25-.87a.74.74,0,0,1-.33.51,2.49,2.49,0,0,1-.73.36c-.6.21-1.24.31-1.85.49a2.06,2.06,0,0,0-1.36,1.06,2.81,2.81,0,0,0,.36,2.39l.42-.88a5.31,5.31,0,0,0-3.86.56.71.71,0,0,0-.21.88c1,1.84,2.89,2.46,4.73,3.07l-.26-.86a14.65,14.65,0,0,1-1.62,3.24l.47-.1a3.05,3.05,0,0,0-1.88-.64c-.29,0-.38.4-.38.6a13.88,13.88,0,0,0,.6,3.26,8,8,0,0,1,.25,3.6c0,.24,0,.62.29.72s.43-.21.47-.42Z"/><path id="Path_215" data-name="Path 215" class="cls-15" d="M214.51,232.46a.69.69,0,0,0-.58.78l0,.13a1.63,1.63,0,0,0,.58.85c.29.25.57.36.86.07l1-1-.53-.2c.27.53.76,1,.78,1.66,0,.2.12.62.4.59a2,2,0,0,0,1-.65l-.3.07a3.24,3.24,0,0,0,2.38.39,3.8,3.8,0,0,0,2.21-1.68.8.8,0,0,0-.1-.93l-1.12-1.12c0,.36,0,.73-.07,1.09a1.61,1.61,0,0,1,1.65-.12,3.36,3.36,0,0,1,1.27,1.54c.14.27.41.4.61.1a13.68,13.68,0,0,1,2.33-2.48,5,5,0,0,1,1.41-.94.61.61,0,0,1,.48,0,2.07,2.07,0,0,1,.78.6c.09.14.07.17,0,.33a2.63,2.63,0,0,1-.28.62c-.3.5-.67,1-1,1.45a3.6,3.6,0,0,0-.37.7,1.6,1.6,0,0,0-.11.39,1.54,1.54,0,0,0,0,.48,5.68,5.68,0,0,0,.28,2,17.45,17.45,0,0,0,2.66,5,35.33,35.33,0,0,0,3.72,4.37.3.3,0,0,0,.3,0,5.09,5.09,0,0,0,2.54-2.15A13.09,13.09,0,0,0,239,240.6a19.72,19.72,0,0,0,.66-4.32,10.45,10.45,0,0,0-.45-3.72c-.71-2.06-3.43-1.78-4.56-3.4a10.68,10.68,0,0,1-1.21-3.29,7.11,7.11,0,0,0-1.62-3.17l-.27,1.09a3.27,3.27,0,0,0,1.51.3c.28,0,.37-.39.37-.6,0-.83.27-1.67.28-2.52l-.37.6c1.15,0,1.79,1,2.45,1.78a4.35,4.35,0,0,0,3.44,1.86c.47,0,.47-.9.17-1.11a7.34,7.34,0,0,1-2-2.57,5.85,5.85,0,0,0-2.3-2.3,14,14,0,0,0-2.95-.9A3,3,0,0,1,230,217l-.31.9a4.93,4.93,0,0,0,2-.78c.55-.39,1-.86,1.58-1.27.39-.29.1-1.41-.42-1s-.9.75-1.37,1.11a4.11,4.11,0,0,1-1.8.76c-.38.07-.45.6-.32.9.9,2,3.43,1.86,5.18,2.56a4.9,4.9,0,0,1,2.36,2.2,8.12,8.12,0,0,0,2.15,2.75c.06-.37.11-.74.17-1.11a3.31,3.31,0,0,1-1.86-.54,5.74,5.74,0,0,1-1.22-1.24c-.75-.93-1.53-1.85-2.81-1.87-.29,0-.38.39-.38.6,0,.85-.26,1.68-.28,2.53l.38-.6a2.76,2.76,0,0,1-1.3-.26c-.2-.1-.38.12-.44.28a.8.8,0,0,0,.16.81c1.18,1.2,1.34,3.07,1.85,4.6a5.22,5.22,0,0,0,1.28,2.19,6.44,6.44,0,0,0,1.91,1.12,5.41,5.41,0,0,1,1.7,1,2.55,2.55,0,0,1,.57,1.47,12.6,12.6,0,0,1,0,3.73,14.76,14.76,0,0,1-1.37,4.74,5.08,5.08,0,0,1-2.76,2.83l.3.05a35.08,35.08,0,0,1-3.25-3.75,19.39,19.39,0,0,1-2.54-4.3,6,6,0,0,1-.47-1.82,2.94,2.94,0,0,1,0-.42c0,.12,0-.3,0-.07,0,0,0-.17,0,0a2,2,0,0,1,.31-.61c.61-1,1.59-1.93,1.49-3.16a1.94,1.94,0,0,0-.43-1.08,1.75,1.75,0,0,0-2.4-.57,1.84,1.84,0,0,0-.48.44,12.82,12.82,0,0,0-1.85,1.68,11.62,11.62,0,0,0-1.24,1.47l.61.11a4.57,4.57,0,0,0-1.67-2,2.13,2.13,0,0,0-2.14.09.74.74,0,0,0-.12,1l.06.06,1.12,1.12-.1-.93A3.17,3.17,0,0,1,220,234a2.74,2.74,0,0,1-2-.38.28.28,0,0,0-.3.07c-.16.16-.41.45-.64.47l.4.59a3.25,3.25,0,0,0-.33-1.3c-.17-.34-.4-.63-.58-1-.1-.19-.32-.41-.53-.2l-1.13,1.13.2-.09c.08,0-.05,0-.06,0a.64.64,0,0,1-.15-.13,1,1,0,0,1-.15-.14c0-.06,0-.07,0,0-.38.48-.43.7-.15.67.53,0,.5-1.22,0-1.19Z"/><path id="Path_216" data-name="Path 216" class="cls-15" d="M209.75,214.12c-1.18,2-2.75,3.86-3.93,5.9-.16.28-.16,1,.3,1h1.68c-.07-.36-.15-.74-.22-1.11a7.57,7.57,0,0,0-1.2,1.77.74.74,0,0,0,.2,1c.9.47,1.55,1.33,2.52,1.68-.1-.24-.19-.49-.29-.73a4.11,4.11,0,0,1-1.14,1.89,6.68,6.68,0,0,0-1.34,1.9,2.58,2.58,0,0,0,.38,2c.14.29.3.57.44.86a2.78,2.78,0,0,1,.16.4c0,.06,0,.2,0,.06a1.13,1.13,0,0,1-.35.37,2.9,2.9,0,0,1-.81.34,7.45,7.45,0,0,1-2,.24c-.69,0-1.38,0-2.07-.05l-.83,0c-.27,0-.61-.09-.8.16a3.82,3.82,0,0,0-.41,2.67,10,10,0,0,0,.9,3.06c.55,1.22,2,3.82,3.76,2.88a3.79,3.79,0,0,0,1.44-2l-.61.13a3.53,3.53,0,0,0,2.49,1.68,2.73,2.73,0,0,0,2.27-1.41l-.66-.25a7.68,7.68,0,0,1,.1,2.39,18,18,0,0,1-.62,3.34,12.63,12.63,0,0,1-1.28,3.06A3.61,3.61,0,0,1,206,249a2.26,2.26,0,0,1-2-.49c-.52-.38-.76.75-.37,1a2.86,2.86,0,0,0,2.59.59,4.15,4.15,0,0,0,2-1.78,15.59,15.59,0,0,0,2.16-6.62,9.58,9.58,0,0,0-.05-3.54c-.09-.32-.4-.62-.66-.24a2.07,2.07,0,0,1-1.73,1,2.77,2.77,0,0,1-1.93-1.34c-.21-.28-.5-.15-.61.14a3.56,3.56,0,0,1-.75,1.27,1,1,0,0,1-.8.32,1.64,1.64,0,0,1-.81-.38,3.9,3.9,0,0,1-.83-.94,9,9,0,0,1-1.24-2.71c-.07-.23-.12-.47-.17-.72l-.06-.35s0-.2,0-.07c0-.07,0-.14,0-.22s0-.21,0-.32,0-.34,0-.2a2.89,2.89,0,0,1,0-.29.59.59,0,0,1,0-.13c0-.1,0,.08,0-.07a.92.92,0,0,1,.09-.23c-.05.11.07-.1.1-.15l-.27.19c1.23,0,2.45.14,3.68.1s2.6-.2,3.4-1.22a1.93,1.93,0,0,0,0-1.92,9.76,9.76,0,0,1-.8-1.7c0-.1,0-.07,0-.14a2.86,2.86,0,0,1,.24-.42,8,8,0,0,1,.74-.9,6.84,6.84,0,0,0,1.35-2,3.29,3.29,0,0,0,.19-.7c.05-.23,0-.63-.29-.72a22.07,22.07,0,0,1-2.52-1.68l.2,1a6.65,6.65,0,0,1,1-1.58c.25-.26.29-1.1-.22-1.1h-1.68c.1.36.2.67.3,1,1.18-2.05,2.74-3.84,3.93-5.89a.82.82,0,0,0,0-.84.31.31,0,0,0-.42-.12.4.4,0,0,0-.13.13Z"/><path id="Path_217" data-name="Path 217" class="cls-15" d="M208.84,252.08c1.31-1.34,2.21-3,3.65-4.21l-.48-.08a2.3,2.3,0,0,0,1.81,1,4.36,4.36,0,0,1,1.65-.07c.5.17,1,.22,1.55.38l.16.06h0l.08.06c.15.12.28.26.42.39a9.74,9.74,0,0,1,.83.74c.21.25.42.51.62.77a21.22,21.22,0,0,1,1.32,1.89c.6,1,1.48,2.45,1,3.58a.74.74,0,0,0,.16.8c.22.19.44,0,.53-.22.58-1.43-.09-3.07-.78-4.33a18.68,18.68,0,0,0-1.33-2.07,11.23,11.23,0,0,0-1.49-1.73,9.38,9.38,0,0,0-1.06-.94,3.33,3.33,0,0,0-1.11-.34,4.87,4.87,0,0,0-2-.25,3.14,3.14,0,0,1-.75.09,1.38,1.38,0,0,1-.88-.5,1.8,1.8,0,0,1-.18-.2c-.13-.15-.3-.23-.47-.08-1.45,1.22-2.34,2.88-3.65,4.21a.79.79,0,0,0-.12.82c.08.2.33.4.54.2Z"/><path id="Path_218" data-name="Path 218" class="cls-15" d="M209.3,214a1.07,1.07,0,0,0-.21-.64l-.17-.18,0,0a.36.36,0,0,1,.07.17c0-.06,0,0,0,.07,0-.22-.12-.59-.4-.58s-.38.38-.38.6a1.05,1.05,0,0,0,.22.64,1.54,1.54,0,0,0,.17.19c-.1-.1,0-.06,0,0a.67.67,0,0,1-.07-.18c0,.06,0,0,0-.07,0,.22.12.59.4.58s.39-.38.38-.6Z"/></g><g id="Group_78" data-name="Group 78" class="cls-13"><path id="Path_219" data-name="Path 219" class="cls-15" d="M117.38,448.66c-3.1.63-6.13,1.82-9.3,2a8.75,8.75,0,0,1-7.91-4.33c-2.58-4-2.27-10.11,2.7-12a8.8,8.8,0,0,1,3-.48c.64,0,.67-1.14.37-1.5a8.47,8.47,0,0,1-2.24-6.1,9.35,9.35,0,0,1,2.45-5.34c2.35-2.63,6.73-4.77,10.1-2.7a7.24,7.24,0,0,1,2.88,4.06c.13.41.67.59.9.15,1.1-2,2.6-3.93,4.89-4.62a6.49,6.49,0,0,1,5.23,1.05,13.24,13.24,0,0,1,5.85,10.42c0,.45.38,1.14.88.74,1.38-1.09,3.12-1.8,4.78-.91,1.44.77,2.2,2.56,2.56,4.06,1,4.14-.21,9-3.76,11.59-2,1.43-4.82,1.76-7.19,2-2.82.24-5.65.18-8.48.27-5.21.16-10.94.85-14.25,5.38a8.18,8.18,0,0,0-.45.69,1.2,1.2,0,0,0,0,1.24.46.46,0,0,0,.63.17.41.41,0,0,0,.18-.19c3-4.82,8.93-5.39,14.08-5.55,2.82-.08,5.65,0,8.47-.28,2.41-.21,5.16-.6,7.23-2,4-2.59,5.4-7.71,4.88-12.22-.36-3.2-2.3-8-6.34-7.26a7,7,0,0,0-3,1.5l.88.73A15.1,15.1,0,0,0,131,417.33a7.39,7.39,0,0,0-5.85-1.27c-2.61.65-4.42,2.89-5.65,5.15l.91.16a8.4,8.4,0,0,0-3.93-5,7.39,7.39,0,0,0-5.41-.29,11.89,11.89,0,0,0-8,8.79,10.44,10.44,0,0,0,2.43,8.78l.37-1.5a8.23,8.23,0,0,0-6.68,3.09,9.76,9.76,0,0,0-1.65,7,12.75,12.75,0,0,0,3.64,7.46,9.5,9.5,0,0,0,8.44,2.56c2.67-.37,5.23-1.31,7.87-1.84.78-.16.69-1.9,0-1.75Z"/></g></g><g id="Group_116" data-name="Group 116"><g id="Group_115" data-name="Group 115"><g id="Group_101" data-name="Group 101"><path id="Path_242" data-name="Path 242" class="cls-16" d="M259.46,267.2c1.55-11.46,10.25-16.4,19.43-11l94.77,55.34c9.17,5.39,15.35,19.09,13.8,30.55L373,451.4c-1.56,11.46-10.27,16.4-19.43,11l-94.78-55.34c-9.17-5.4-15.35-19.08-13.8-30.55Z"/><g id="Group_100" data-name="Group 100"><path id="Path_243" data-name="Path 243" class="cls-17" d="M262.82,266.57c.17-1.24.41-6.77,1.9-7.9a34.59,34.59,0,0,1,6.75-4,12.25,12.25,0,0,1,9.41,1.7l88.56,51.32c8.51,5,14.26,17.74,12.82,28.4L368.83,437.63a16.32,16.32,0,0,1-3.68,8.79,27.33,27.33,0,0,1-6.66,4.66c-2.53,1.31-6.1-2.28-7.71-3.23l-88.56-51.32c-8.53-5-14.27-17.73-12.82-28.39Z"/><path id="Path_244" data-name="Path 244" class="cls-18" d="M259.7,268.75c1.45-10.65,9.53-15.24,18.06-10.23l88.06,51.42c8.52,5,14.27,17.74,12.82,28.39L365.22,439.9c-1.44,10.66-9.54,15.24-18.06,10.23L259.1,398.71c-8.53-5-14.27-17.74-12.82-28.39Z"/><g id="Group_95" data-name="Group 95"><path id="Path_245" data-name="Path 245" class="cls-19" d="M259.7,268.75c1.45-10.65,9.53-15.24,18.06-10.23l88.06,51.42c8.52,5,14.26,17.74,12.82,28.39l-1.37,10.1L258.31,279Z"/><g id="Group_94" data-name="Group 94"><path id="Path_246" data-name="Path 246" class="cls-18" d="M273.86,269.15c1.94.46,3.42,2.78,3.31,5.19s-1.78,4-3.71,3.52-3.43-2.78-3.32-5.19S271.92,268.69,273.86,269.15Z"/><path id="Path_247" data-name="Path 247" class="cls-18" d="M284.21,275.6c2,.46,3.43,2.79,3.31,5.19s-1.77,4-3.71,3.53-3.42-2.79-3.31-5.19S282.27,275.14,284.21,275.6Z"/><path id="Path_248" data-name="Path 248" class="cls-18" d="M294.57,282.06c1.93.46,3.42,2.78,3.31,5.19s-1.78,4-3.72,3.52-3.42-2.78-3.31-5.19S292.63,281.6,294.57,282.06Z"/></g></g><g id="Group_99" data-name="Group 99"><g id="Group_97" data-name="Group 97"><g id="Group_96" data-name="Group 96"><path id="Path_249" data-name="Path 249" class="cls-20" d="M299.12,320.79c.32-2.37,2.12-3.36,4-2.21l57.56,33.18a6.94,6.94,0,0,1,2.85,6.38l-.63,4.69c-.32,2.37-2.12,3.36-4,2.21l-57.56-33.18a7,7,0,0,1-2.84-6.38Z"/><path id="Path_250" data-name="Path 250" class="cls-20" d="M296.84,338c.19-1.4,1.25-2,2.36-1.3l34,19.59a4.09,4.09,0,0,1,1.68,3.77l-.36,2.77c-.2,1.4-1.25,2-2.37,1.3l-34-19.59a4.09,4.09,0,0,1-1.68-3.77Z"/></g></g><g id="Group_98" data-name="Group 98"><path id="Path_251" data-name="Path 251" class="cls-21" d="M258.42,342.43c.23-1.73,1.54-2.45,2.91-1.61l99.41,57a5,5,0,0,1,2.07,4.65l-.31,2.26c-.23,1.72-1.54,2.44-2.92,1.61l-99.4-57a5,5,0,0,1-2.07-4.64Z"/><path id="Path_252" data-name="Path 252" class="cls-21" d="M256.34,359.16c.23-1.73,1.54-2.45,2.91-1.61l99.41,57a5,5,0,0,1,2.07,4.64l-.31,2.26c-.23,1.73-1.54,2.45-2.91,1.61l-99.41-57a5,5,0,0,1-2.07-4.64Z"/><path id="Path_253" data-name="Path 253" class="cls-21" d="M254.16,375.09c.23-1.72,1.54-2.44,2.92-1.61l99.41,57a5.07,5.07,0,0,1,2.07,4.65l-.31,2.26c-.24,1.72-1.54,2.45-2.92,1.61l-99.41-57a5,5,0,0,1-2.07-4.65Z"/></g></g></g></g><g id="Group_114" data-name="Group 114"><g id="Group_113" data-name="Group 113"><g id="Group_106" data-name="Group 106"><g id="Group_102" data-name="Group 102"><path id="Path_254" data-name="Path 254" class="cls-18" d="M242.25,574.53c1,0,4.55-3.33,7.88-1.66,4,2,11.58.23,15.41,1.15.69.16,2-.34,2.28.13.83,1.47,1.63,3.66-.4,5.1a34.8,34.8,0,0,1-6.79,3.2,56.68,56.68,0,0,1-8.58,2.43c-2.83.44-4.12.63-5.18,1.44a7.55,7.55,0,0,1-4,.95,6.65,6.65,0,0,1-5-3.51,15.12,15.12,0,0,1,0-5.57,27.81,27.81,0,0,1,1.78-4.87Z"/><path id="Path_255" data-name="Path 255" class="cls-22" d="M250.43,567.43c-1.27,3-.88,7.73-3.88,9.36-2,1.09-5.13,1.1-6.5-2-.76-1.73.25-4.7,0-8.51Z"/><path id="Path_256" data-name="Path 256" class="cls-23" d="M251.26,572.13c2.3.67,8.63.22,12.64.54,1.72.14,3.26.13,4.07,1.7s.35,2.67-1.33,3.85a28,28,0,0,1-6.12,3,56.68,56.68,0,0,1-8.58,2.43c-2.83.44-4.12.63-5.18,1.44a7.45,7.45,0,0,1-3.94.95,7,7,0,0,1-5-3.73,14,14,0,0,1,0-5.35,11.24,11.24,0,0,1,.3-1.14c.31-3,1.31-4.23,2.25-3.71a5.77,5.77,0,0,1,2.25,3,3,3,0,0,0,1.75,1.66,3.44,3.44,0,0,0,3.85-1.69,10.71,10.71,0,0,0,1.05-3.05c0-.1,0-.21,0-.31.3-2.64,1.59-2.41,1.39-1.85A2.25,2.25,0,0,0,251.26,572.13Z"/><path id="Path_257" data-name="Path 257" class="cls-18" d="M267.17,573.92c0,1,1.53,1.12,1.08,2.91.75-.74-.3-2.85-.76-3.17C267.29,573.53,267.13,573.47,267.17,573.92Z"/></g><g id="Group_103" data-name="Group 103"><path id="Path_258" data-name="Path 258" class="cls-18" d="M268.37,564.08c1-.38,3.13-4.69,6.83-4.27a18.83,18.83,0,0,0,6.32-.91c3.88-1.1,9.29-4.57,10.21-4,2,1.23,2.17,3.49.76,5.54a28.87,28.87,0,0,1-4.71,4.92,49.5,49.5,0,0,1-6.66,5.06c-2.13,1.19-2.84,1.08-4.36,3.14a7.16,7.16,0,0,1-3.38,2.14,8.05,8.05,0,0,1-6.6-2.48c-.74-2.39-2-4.65-1.2-8.23Z"/><path id="Path_259" data-name="Path 259" class="cls-22" d="M273.49,553.91c-.06,3.29,2,7.51-.16,10.13-1.46,1.75-4.37,2.91-6.79.52-1.34-1.33-1.49-4.46-3.1-7.92Z"/><path id="Path_260" data-name="Path 260" class="cls-23" d="M280.52,557.92l.67-.18c3.88-1.1,9.06-3.78,10-3.21,2,1.23,2.39,2.7,1,4.74a28.25,28.25,0,0,1-4.72,4.93,50.25,50.25,0,0,1-6.65,5.06c-2.14,1.18-2.84,1.08-4.36,3.13a7.21,7.21,0,0,1-3.38,2.14,8.26,8.26,0,0,1-6.7-2.49,19.37,19.37,0,0,1-1.36-5.7c-.33-2.93-.13-4.41,1.14-4.38,2.37.07,3.35,1.32,4.33,1.93,2.1,1.31,3.51-.38,3.85-2.48a12.23,12.23,0,0,0-.19-2.77,2.49,2.49,0,0,0-.11-.29c-.69-2.56.59-2.82.61-2.23a2.21,2.21,0,0,0,1.95,2.24C277.86,558.55,279.48,558,280.52,557.92Z"/><path id="Path_261" data-name="Path 261" class="cls-18" d="M290.94,554.86c.41.93,1.86.34,2.23,2.15.36-1-1.5-2.44-2.06-2.53C290.89,554.44,290.72,554.46,290.94,554.86Z"/></g><g id="Group_104" data-name="Group 104"><path id="Path_262" data-name="Path 262" class="cls-24" d="M271.26,465.13c.85,9.52,5.62,39.94,4.29,48.3-2,12.55-1.43,27.73-1.4,41.06-.34,5.6-8,8.52-10.28,5-1.8-11.91-4.36-22.35-5.4-29-1.16-7.41-.78-16.42,1.1-21.29-.77-5.32-4.4-19-7.43-28.56-1.09-3.43-7.29-14.52-.88-25.55Z"/><path id="Path_263" data-name="Path 263" class="cls-25" d="M274.27,550.91c0,1,0,2.5,0,3.47-.33,5.6-8.13,8.64-10.37,5.08-.13-.88-.33-1.75-.47-2.61C266.42,560.1,272.32,555.87,274.27,550.91Z"/><path id="Path_264" data-name="Path 264" class="cls-26" d="M275.76,507.76c-2.51,12.59-9.61,29.42-13.49,42.08-2-10.85-7.07-29.33-2.7-40.64-.44-3-1.81-8.79-3.46-14.94,3.36-6.37.15-11.45,1.73-20.43,8.9-1.55-4.53-12.41,14.3-1C273.82,486.38,275.4,494.88,275.76,507.76Z"/></g><g id="Group_105" data-name="Group 105"><path id="Path_265" data-name="Path 265" class="cls-27" d="M270.64,519.71C265.5,531.32,256,554.12,251,568.38c-2.61,3.79-11.9,3.39-11.88-.14,2-11.92,4.46-30.31,8.74-40.77,1.31-3.2,6.14-10.9,7.89-13.19,1.35-5.26,3.05-19.47,4.36-27.16-1.18-6.37-6.31-17,3.55-26.25,4,2.83,16.29,4.6,21.86,1.45C286.43,487.45,280.25,497.94,270.64,519.71Z"/><path id="Path_266" data-name="Path 266" class="cls-28" d="M252,565.89l-.88,2.48c-2.68,3.9-12.24,3.49-12.23-.14.1-.59.2-1.2.31-1.81C241.52,568.74,248.42,568.77,252,565.89Z"/></g></g><g id="Group_108" data-name="Group 108"><g id="Group_107" data-name="Group 107"><path id="Path_267" data-name="Path 267" class="cls-29" d="M302.11,325.82c-.37.77-.72,1.55-1.1,2.31l-1.58,3.14c-.33-1.54-1.56-2.13-2.5-1.35a2.69,2.69,0,0,0-.77,1c-.15-.42-1.34-1.37-3,.92a1.76,1.76,0,0,0-1.95,1.12,11.87,11.87,0,0,0-.67,1.65,6.31,6.31,0,0,0-.47,2.23c0,1.51.07,3.16,0,5,0,2-2.27,4.45-3.48,5.88L294,350a39.89,39.89,0,0,1,2.83-3.54c1.15-1.16,2.59-1.3,3.68-2.19a13.9,13.9,0,0,0,2-2.64c.86-1.21,1.33-2.53,2.15-3.86a3.53,3.53,0,0,0,.83-2.62,29.57,29.57,0,0,1,.55-3.1c-1.5-.75-2.68,1.1-2.67,2.9a4.52,4.52,0,0,0-1.61,2.19c-1.19-1.55-.48-2.2,0-4.2a20.08,20.08,0,0,0,1.71-4c.23-.61.47-1.25.72-1.94a1.92,1.92,0,0,0-.44-2.13C303.44,324.69,302.72,324.77,302.11,325.82Z"/><path id="Path_268" data-name="Path 268" class="cls-30" d="M305.14,331.91c-1.06.16-1.81,1.63-1.8,3.06a4.37,4.37,0,0,0-1.58,2.09,10.21,10.21,0,0,1,1.92-1.91,4.59,4.59,0,0,1,1.46-3.24Zm-5.56-.91-.14.27a2.62,2.62,0,0,0-.4-1,3.9,3.9,0,0,1-1,2.31,2.62,2.62,0,0,0,1.58-1.62Zm-3.42-.08a.92.92,0,0,0-.39-.39,6.27,6.27,0,0,1-.81,2.09,3.55,3.55,0,0,0,1.2-1.7Zm-2.9.9,0,0a3.73,3.73,0,0,0-.47,0,4.81,4.81,0,0,1-.85,2.34,3.74,3.74,0,0,0,1.34-2.37Z"/></g><path id="Path_269" data-name="Path 269" class="cls-31" d="M274.59,367.92c3.67-6.39,6.54-14.4,11.66-20.88.43-.54,1.43-1,1.8-1.53.54-.82,1.07-1.64,1.6-2.43A11.41,11.41,0,0,1,297,346.4c-.29.86-.57,1.71-.85,2.56s.3,3.1,0,4.08a164,164,0,0,1-9,24.49c-5.08,6.55-27.67,48.64-39.48,33.37-1.06-5.43.38-9.95,3.11-14.35a39.29,39.29,0,0,1,5.36-6.16C259.91,386.54,269,373.67,274.59,367.92Z"/></g><path id="Path_270" data-name="Path 270" class="cls-31" d="M249.46,431c.82,7.45-1.42,14.78.86,21.58.1.7.17,3.47.29,4.21,1.5,8.82,20.15,17.74,35.7,9.28.09-1.09,0-2.23.07-4.26-.28-1.89.53-3.92.53-5.07,0-4.8-1.52-7.25-.8-12.59,1.45-10.86,7.47-21.3,4.14-29.84-.71-1.83-2-2.72-3.38-3.86-3.68-2.95-22.68-12.63-28.44-13.31C241.7,395,248.56,422.91,249.46,431Z"/><path id="Path_271" data-name="Path 271" class="cls-32" d="M287.79,436.28c2.16-8,5-15.51,2.46-22-.71-1.84-2-2.73-3.38-3.86-3.68-3-3.19,5-8.95,4.3C276.81,425.37,282.05,435,287.79,436.28Z"/><g id="Group_111" data-name="Group 111"><path id="Path_272" data-name="Path 272" class="cls-33" d="M276.06,393.81a41.24,41.24,0,0,0,.42,9.15c-5.44-.18-13-1.6-13.84-5.66,0-.49.07-1,.1-1.46a1.24,1.24,0,0,0-.22-.18c-2-1.3-5.19-2.26-7.26-4.64-3.32-3.8-5.09-8.9-2.48-14,4.75-9.38,16.26-9.53,22.67-2,1.25,1.48.33,3,1.05,4.44.14.28.65.4,1.24.9.82.68,3.21,6.53,3.15,9.6,0,1.23-2.85,3-4.11,3.65A4.21,4.21,0,0,1,276.06,393.81Z"/><path id="Path_273" data-name="Path 273" class="cls-34" d="M276.06,393.81a41.24,41.24,0,0,0,.42,9.15c-5.44-.18-13-1.6-13.84-5.66,0-.49.07-1,.1-1.46l-.23-.18c-4.14-3.87,1.4-8.32,8.4-4.49A5.44,5.44,0,0,0,276.06,393.81Z"/><path id="Path_274" data-name="Path 274" class="cls-35" d="M280.88,390c0,.54-2.25,1.35-3.18,1.48.63-5.79-4.88-6.68-4.05-12.33.5-3.4-3-4.62-1.62-7.11a15.64,15.64,0,0,1,3.41,3c1.25,1.48.34,3,1.05,4.44.14.28.65.4,1.25.9C278.56,381.06,281,386.92,280.88,390Z"/><g id="Group_109" data-name="Group 109"><path id="Path_275" data-name="Path 275" class="cls-36" d="M273.38,387.62c-.11-1.3-.63-1.54-1.07-1.2a3.51,3.51,0,0,0-.75,2.84c.21,2.15,2.21,4.08,3.58,2.34-1.5.8-2.21-1.13-2.28-2.49C272.82,388.18,273.05,387.4,273.38,387.62Z"/><path id="Path_276" data-name="Path 276" class="cls-37" d="M272.9,388.45c.8.61,1.17,1,1.16,1.35s-.21.6-.91.35A3.1,3.1,0,0,1,272.9,388.45Z"/></g><path id="Path_277" data-name="Path 277" class="cls-38" d="M262.57,397.15c-1.61.5-3.12,2.16-2.82,3.22,1.6,6.56,13.62,8,21.1,6.44.09,0-2.8-3.83-4.23-4.3C271.92,403,264,401,262.57,397.15Z"/><g id="Group_110" data-name="Group 110"><path id="Path_278" data-name="Path 278" class="cls-39" d="M262,396.75c-2-2.13-5.37-3.14-7.53-5.62s-4.47-6.18-3.05-10c-2.51-7.9,6.08-14.17,13.31-15.6a5.61,5.61,0,0,1,6,8.29,7.53,7.53,0,0,1,1.74,5.78c-.41,2.25-.35,2.54.37,4.23.57,1.33,2,4.55-.58,2.51-1.66-1.32-2.82,1.6-2.26,3.61a9.2,9.2,0,0,1,.36,3.9C269.9,398.05,263.1,397.93,262,396.75Z"/><path id="Path_279" data-name="Path 279" class="cls-40" d="M253.82,377.52c-1.71-7.65,8.35-11.53,12.29-11.62s7.1,6.46,2.38,8.67C265.27,376.08,258.89,373.13,253.82,377.52Z"/></g></g><g id="Group_112" data-name="Group 112"><path id="Path_280" data-name="Path 280" class="cls-41" d="M333.62,388.36a4.87,4.87,0,0,0-.32,1.55,11.92,11.92,0,0,0-.75,2.35,21.67,21.67,0,0,0-.19,3.86,8.76,8.76,0,0,0,.33,2.38c-1,1.89-2.49,3.05-3.91,4.61l4.6,3.51c1.95-1.28,3.46-2.63,5.13-3.74a5.66,5.66,0,0,0,2.24-1.26c1.07-1.11,4.2-4.42,4.39-5.71a30.37,30.37,0,0,0-.51-6.6c-.84-4.67-2.61-9.57-2.92-7.4-.44.51-.08,4.73-.36,5.35-1.09,1.26-1.61,1.77-3,3.27a18.57,18.57,0,0,1-1.81,1.1c-.47.12-.73-.2-.75-.62a18.83,18.83,0,0,1,.52-2.48c0-2-.5-3.13-1.56-3a1.06,1.06,0,0,0-1,.94C333.67,386.9,333.7,387.54,333.62,388.36Z"/><path id="Path_281" data-name="Path 281" class="cls-31" d="M287.24,407.93c6.34,1,18.56,7.95,27,11.73,4.7-6.7,10.88-14.74,14.69-17.45a11.9,11.9,0,0,0,1.89-1.36c.56-.67,1.09-1.37,1.61-2.08,2.38.33,5.83,3.3,5.79,4.7q-.58,1-1.17,2.19a15.2,15.2,0,0,0-.34,2.23c-1.29,4.7-8.41,15.54-11.73,20.38-1.92,2.8-2.59,4.43-3.89,5.27-2.08,1.34-4.88.6-10.27-.75-4.54-1.14-19.18-3.8-25.91-7.36-4.75-2.51-8.4-7-6.51-12.22A8.18,8.18,0,0,1,287.24,407.93Z"/></g></g></g></g></g><g id="Group_1473" data-name="Group 1473"><path id="Path_478" data-name="Path 478" class="cls-42" d="M184.91,23.59A23.59,23.59,0,1,1,161.32,0h0A23.59,23.59,0,0,1,184.91,23.59Z"/><g id="Group_1470" data-name="Group 1470"><path id="Path_480" data-name="Path 480" class="cls-43" d="M112.64,35.28a8.81,8.81,0,0,1-.52,2.92H13.44a9.68,9.68,0,0,1-.5-2.92c0-.31,0-.62,0-.93a9.55,9.55,0,0,1,16-6.13,21.4,21.4,0,0,1,41.62-4.11A14.95,14.95,0,0,1,98,28.25a8.82,8.82,0,0,1,5.63-2,9.06,9.06,0,0,1,9,8.13C112.62,34.66,112.64,35,112.64,35.28Z"/></g><g id="Group_1471" data-name="Group 1471"><path id="Path_481" data-name="Path 481" class="cls-43" d="M305.77,37a7.34,7.34,0,0,1-.42,2.37H225.26a8.24,8.24,0,0,1-.41-2.37c0-.26,0-.5,0-.75a7.78,7.78,0,0,1,7.74-7,7.7,7.7,0,0,1,5.2,2,17.37,17.37,0,0,1,33.78-3.33,12.13,12.13,0,0,1,22.23,3.35,7.26,7.26,0,0,1,4.57-1.65,7.34,7.34,0,0,1,7.36,7.33v0Z"/></g><g id="Group_1472" data-name="Group 1472"><path id="Path_482" data-name="Path 482" class="cls-43" d="M476,16.6a4.79,4.79,0,0,0,.27,1.5h50.86a4.78,4.78,0,0,0,.26-1.5,3.85,3.85,0,0,0,0-.48A4.92,4.92,0,0,0,519.18,13a11,11,0,0,0-21.45-2.12A7.7,7.7,0,0,0,483.61,13a4.58,4.58,0,0,0-2.9-1,4.67,4.67,0,0,0-4.65,4.19A3.75,3.75,0,0,0,476,16.6Z"/></g></g></g></g></g></svg>