<svg xmlns="http://www.w3.org/2000/svg" width="13.589" height="11.037" viewBox="0 0 13.589 11.037">
  <path id="Path_265" data-name="Path 265" d="M12.193-8.185a5.987,5.987,0,0,0,1.4-1.44,5.583,5.583,0,0,1-1.6.431,2.778,2.778,0,0,0,1.224-1.535,5.483,5.483,0,0,1-1.768.673,2.779,2.779,0,0,0-2.035-.88A2.784,2.784,0,0,0,6.622-8.15a3.144,3.144,0,0,0,.069.638A7.917,7.917,0,0,1,.948-10.427,2.764,2.764,0,0,0,.569-9.021,2.783,2.783,0,0,0,1.811-6.7,2.8,2.8,0,0,1,.552-7.055v.034A2.785,2.785,0,0,0,2.785-4.287a2.945,2.945,0,0,1-.733.095,3.51,3.51,0,0,1-.526-.043A2.79,2.79,0,0,0,4.13-2.3,5.578,5.578,0,0,1,.673-1.114,5.764,5.764,0,0,1,0-1.148,7.871,7.871,0,0,0,4.277.1,7.87,7.87,0,0,0,12.2-7.822C12.2-7.943,12.2-8.064,12.193-8.185Z" transform="translate(0 10.935)" fill="#31b1ff"/>
</svg>
