<svg xmlns="http://www.w3.org/2000/svg" width="15" height="11.25" viewBox="0 0 15 11.25">
  <path id="Path_353" data-name="Path 353" d="M13.594-9.375H7.969L6.094-11.25H1.406a1.356,1.356,0,0,0-1,.41,1.356,1.356,0,0,0-.41,1v8.438a1.356,1.356,0,0,0,.41,1,1.356,1.356,0,0,0,1,.41H13.594a1.356,1.356,0,0,0,1-.41,1.356,1.356,0,0,0,.41-1V-7.969a1.356,1.356,0,0,0-.41-1A1.356,1.356,0,0,0,13.594-9.375Zm.469,7.969a.456.456,0,0,1-.132.337.456.456,0,0,1-.337.132H1.406a.456.456,0,0,1-.337-.132.456.456,0,0,1-.132-.337V-9.844a.456.456,0,0,1,.132-.337.456.456,0,0,1,.337-.132H5.713L7.588-8.437h6.006a.456.456,0,0,1,.337.132.456.456,0,0,1,.132.337Z" transform="translate(0 11.25)" fill="#6d6d6d"/>
</svg>
