<svg xmlns="http://www.w3.org/2000/svg" width="16.7" height="16.7" viewBox="0 0 16.7 16.7">
  <g id="noun_account_1564543" transform="translate(0.35 0.35)">
    <g id="Group_1896" data-name="Group 1896">
      <path id="Path_691" data-name="Path 691" d="M12.75,4.75A7.991,7.991,0,0,0,7.412,18.7v0l.055.049.2.174v-.007a7.959,7.959,0,0,0,10.172,0v.007l.2-.174.055-.049v0A7.991,7.991,0,0,0,12.75,4.75Zm0,15.723a7.708,7.708,0,0,1-5.044-1.885c0-.027.008-.053.012-.08s.013-.081.02-.121.014-.074.022-.111.016-.08.026-.12.018-.072.027-.108.02-.08.031-.119.021-.07.031-.106.023-.078.036-.117.024-.069.036-.1.027-.077.041-.115.027-.067.04-.1.03-.075.046-.112.029-.065.044-.1.033-.073.051-.11.033-.064.049-.1.036-.071.056-.107l.053-.093c.02-.035.04-.07.06-.1s.038-.06.057-.09.042-.067.065-.1.041-.059.061-.088.045-.065.068-.1.043-.057.065-.086.048-.063.072-.093.046-.055.069-.082.05-.06.076-.09.048-.053.073-.08.053-.058.08-.087l.075-.076c.028-.028.055-.056.083-.082l.08-.073c.028-.026.057-.053.086-.078l.082-.07.09-.075.086-.066c.031-.024.061-.048.093-.071l.09-.063.095-.065.093-.06.1-.061.1-.056.1-.057.1-.052.1-.052.1-.048.1-.048.1-.043.106-.043.109-.039.105-.038.113-.035.105-.032.116-.03.106-.027.121-.026.1-.022.131-.021.1-.016c.046-.006.092-.011.139-.016l.094-.011c.054,0,.108-.008.162-.011l.073,0c.079,0,.158-.006.238-.006s.159,0,.238.006l.073,0c.054,0,.109.006.162.011l.094.011c.046.005.093.01.139.016l.1.016.131.021.1.022.121.026.106.027.116.03.105.032.113.035.1.037.11.04.1.043.105.043.1.048.1.048.1.052.1.052.1.057.1.056c.033.02.065.041.1.061l.093.06.095.065.09.063c.031.023.062.047.093.071l.086.066.09.075.082.07c.029.026.058.052.086.078l.08.073c.028.027.056.055.083.082l.075.076c.027.028.053.058.08.087s.049.053.073.08.051.06.076.09.046.055.069.082.048.062.072.093l.065.086c.023.032.046.064.068.1s.041.058.061.088.043.067.065.1l.057.091c.021.034.04.069.06.1s.036.062.053.094.037.07.055.106.033.064.049.1.034.073.051.11.03.065.044.1.031.075.046.112.027.067.04.1.028.076.041.115.024.068.036.1.024.078.036.117.021.07.031.106.021.079.031.119.018.072.027.108.017.08.026.12.015.074.022.111.014.081.02.121.008.053.012.08A7.706,7.706,0,0,1,12.75,20.473Zm0-6.549a2.7,2.7,0,1,1,2.7-2.7A2.7,2.7,0,0,1,12.75,13.924Zm5.291,4.441c-.01-.057-.022-.113-.034-.17,0-.022-.008-.045-.013-.066q-.027-.119-.058-.236c-.007-.027-.016-.053-.023-.08-.015-.051-.029-.1-.045-.153-.01-.032-.022-.063-.033-.1s-.03-.089-.046-.133-.026-.065-.038-.1-.033-.084-.05-.125-.03-.067-.045-.1-.035-.079-.053-.117-.033-.067-.05-.1-.037-.075-.057-.112-.036-.066-.055-.1-.04-.072-.061-.107-.04-.065-.06-.1-.043-.069-.065-.1-.043-.064-.064-.1l-.069-.1-.068-.092-.073-.1-.073-.09-.076-.091-.077-.088-.08-.087-.08-.084-.083-.084-.084-.08-.087-.08-.087-.077-.09-.076-.091-.073-.093-.072-.094-.069-.1-.068-.1-.065-.1-.064-.1-.061-.1-.06-.1-.056-.107-.055-.1-.052-.11-.051-.1-.047-.113-.047-.106-.042-.117-.042-.108-.038-.119-.037-.109-.033-.124-.032-.108-.027c-.042-.01-.086-.018-.128-.027l-.07-.015a2.977,2.977,0,1,0-2.024,0l-.07.015-.128.027-.108.027-.124.032-.109.033-.119.037-.108.038-.117.042-.106.042-.113.047-.1.047-.11.051-.1.052-.107.055-.1.056-.1.06-.1.061-.1.064-.1.065-.1.068-.094.069-.093.072-.091.073-.09.076-.087.077-.087.08-.084.08L8.9,15.55l-.08.084-.08.087-.077.088-.076.091-.073.09-.073.1-.068.092-.069.1-.064.1-.065.1c-.02.033-.041.065-.06.1s-.041.071-.061.107-.037.066-.055.1-.038.075-.057.112-.034.066-.05.1-.036.078-.053.117-.03.066-.045.1-.033.083-.05.125-.026.065-.038.1-.031.088-.046.133-.022.063-.033.1c-.016.05-.031.1-.045.153-.008.027-.016.053-.023.08-.021.078-.041.157-.058.236,0,.022-.009.044-.013.066-.012.056-.024.112-.034.17a7.723,7.723,0,1,1,10.582,0Z" transform="translate(-4.75 -4.75)" fill="#117093" stroke="#117093" stroke-width="0.7"/>
    </g>
  </g>
</svg>
