<svg xmlns="http://www.w3.org/2000/svg" width="14.985" height="14.985" viewBox="0 0 14.985 14.985">
  <path id="Path_354" data-name="Path 354" d="M8.818-1.553,6.5.762a3.658,3.658,0,0,1-1.714.981,3.93,3.93,0,0,1-1.963,0A3.658,3.658,0,0,1,1.113.762,3.658,3.658,0,0,1,.132-.952a3.93,3.93,0,0,1,0-1.963,3.658,3.658,0,0,1,.981-1.714L3.545-7.061a.313.313,0,0,1,.366-.059.312.312,0,0,1,.22.308,2.7,2.7,0,0,0,.029.41.337.337,0,0,1-.088.308l-2.2,2.227a2.583,2.583,0,0,0-.82,1.934A2.654,2.654,0,0,0,1.86.015,2.654,2.654,0,0,0,3.809.82,2.583,2.583,0,0,0,5.742,0L8.086-2.314a2.711,2.711,0,0,0,.791-1.948,2.711,2.711,0,0,0-.791-1.948,2.651,2.651,0,0,0-.82-.557.3.3,0,0,1-.22-.322,1.617,1.617,0,0,1,.1-.469.268.268,0,0,1,.176-.205.381.381,0,0,1,.293,0,3.865,3.865,0,0,1,1.2.82,3.77,3.77,0,0,1,1,1.714,3.719,3.719,0,0,1,0,1.963A3.77,3.77,0,0,1,8.818-1.553ZM6.182-4.307a3.77,3.77,0,0,1-1-1.714,3.719,3.719,0,0,1,0-1.963,3.77,3.77,0,0,1,1-1.714L8.5-12.012a3.658,3.658,0,0,1,1.714-.981,3.93,3.93,0,0,1,1.963,0,3.658,3.658,0,0,1,1.714.981,3.658,3.658,0,0,1,.981,1.714,3.93,3.93,0,0,1,0,1.963,3.658,3.658,0,0,1-.981,1.714L11.455-4.189a.313.313,0,0,1-.366.059.312.312,0,0,1-.22-.308,2.7,2.7,0,0,0-.029-.41.337.337,0,0,1,.088-.308l2.2-2.227a2.583,2.583,0,0,0,.82-1.934,2.654,2.654,0,0,0-.806-1.948,2.654,2.654,0,0,0-1.948-.806,2.583,2.583,0,0,0-1.934.82L6.914-8.936a2.711,2.711,0,0,0-.791,1.948,2.711,2.711,0,0,0,.791,1.948,2.651,2.651,0,0,0,.82.557.3.3,0,0,1,.22.322,1.617,1.617,0,0,1-.1.469.268.268,0,0,1-.176.205.381.381,0,0,1-.293,0A3.865,3.865,0,0,1,6.182-4.307Z" transform="translate(-0.007 13.118)" fill="#6d6d6d"/>
</svg>
