<svg xmlns="http://www.w3.org/2000/svg" width="16.469" height="16.469" viewBox="0 0 16.469 16.469">
  <path id="Path_305" data-name="Path 305" d="M8.5-14.609A7.982,7.982,0,0,0,4.383-13.5a8.321,8.321,0,0,0-3,3A7.982,7.982,0,0,0,.266-6.375,7.982,7.982,0,0,0,1.378-2.258a8.321,8.321,0,0,0,3,3A7.982,7.982,0,0,0,8.5,1.859,7.982,7.982,0,0,0,12.617.747a8.321,8.321,0,0,0,3-3,7.982,7.982,0,0,0,1.112-4.117,7.982,7.982,0,0,0-1.112-4.117,8.321,8.321,0,0,0-3-3A7.982,7.982,0,0,0,8.5-14.609Zm7.172,8.234a7.026,7.026,0,0,1-.963,3.586A7.139,7.139,0,0,1,12.1-.166,6.968,6.968,0,0,1,8.517.8a7.056,7.056,0,0,1-3.6-.963A7.139,7.139,0,0,1,2.291-2.772a6.968,6.968,0,0,1-.963-3.586,7.056,7.056,0,0,1,.963-3.6A7.139,7.139,0,0,1,4.9-12.584a6.968,6.968,0,0,1,3.586-.963,7.056,7.056,0,0,1,3.6.963,7.139,7.139,0,0,1,2.623,2.606A7,7,0,0,1,15.672-6.375ZM10.725-3.453a.413.413,0,0,0,.3.083.364.364,0,0,0,.266-.149l.266-.4a.387.387,0,0,0,.083-.282.352.352,0,0,0-.149-.249L9.131-6.176v-4.848a.384.384,0,0,0-.116-.282.384.384,0,0,0-.282-.116H8.268a.384.384,0,0,0-.282.116.384.384,0,0,0-.116.282v5.313a.326.326,0,0,0,.166.3Z" transform="translate(-0.266 14.609)" fill="#a6aaaf"/>
</svg>
