<svg xmlns="http://www.w3.org/2000/svg" width="15.559" height="19.199" viewBox="0 0 15.559 19.199">
  <g id="Icon_feather-clipboard" data-name="Icon feather-clipboard" transform="translate(-5.5 -2.5)">
    <path id="Path_637" data-name="Path 637" d="M16.919,6h1.82a1.82,1.82,0,0,1,1.82,1.82V20.559a1.82,1.82,0,0,1-1.82,1.82H7.82A1.82,1.82,0,0,1,6,20.559V7.82A1.82,1.82,0,0,1,7.82,6H9.64" transform="translate(0 -1.18)" fill="none" stroke="#117093" stroke-linecap="round" stroke-linejoin="round" stroke-width="1"/>
    <path id="Path_638" data-name="Path 638" d="M12.91,3h5.46a.91.91,0,0,1,.91.91V5.73a.91.91,0,0,1-.91.91H12.91A.91.91,0,0,1,12,5.73V3.91A.91.91,0,0,1,12.91,3Z" transform="translate(-2.36)" fill="none" stroke="#117093" stroke-linecap="round" stroke-linejoin="round" stroke-width="1"/>
    <line id="Line_143" data-name="Line 143" x2="9" transform="translate(8.659 10.5)" fill="none" stroke="#117093" stroke-linecap="round" stroke-width="1"/>
    <line id="Line_144" data-name="Line 144" x2="9" transform="translate(8.659 13.5)" fill="none" stroke="#117093" stroke-linecap="round" stroke-width="1"/>
    <line id="Line_145" data-name="Line 145" x2="9" transform="translate(8.659 16.5)" fill="none" stroke="#117093" stroke-linecap="round" stroke-width="1"/>
  </g>
</svg>
