<svg xmlns="http://www.w3.org/2000/svg" width="17.503" height="19.287" viewBox="0 0 17.503 19.287">
  <g id="pdf" transform="translate(0.38 0.753)">
    <path id="Path_682" data-name="Path 682" d="M19.5,3V9.169h6.169" transform="translate(-11.568 -3)" fill="none" stroke="#117093" stroke-linecap="round" stroke-linejoin="round" stroke-width="1"/>
    <path id="Path_681" data-name="Path 681" d="M-22.35,518.35v-2.4l-6.168-6.169h-6.169a1.763,1.763,0,0,0-1.763,1.763v14.1a1.764,1.764,0,0,0,1.763,1.763h5.965" transform="translate(36.57 -510.034)" fill="none" stroke="#117093" stroke-linecap="round" stroke-linejoin="round" stroke-width="1"/>
    <g id="Group_1918" data-name="Group 1918" transform="translate(16.417 17.827) rotate(180)">
      <path id="Path_677" data-name="Path 677" d="M212.225,726.176l-2.676-2.676-2.676,2.676" transform="translate(-206.873 -723.5)" fill="none" stroke="#117093" stroke-linecap="round" stroke-miterlimit="10" stroke-width="1"/>
      <line id="Line_184" data-name="Line 184" x1="0.097" y2="6.137" transform="translate(2.579 0.193)" fill="none" stroke="#117093" stroke-linecap="round" stroke-miterlimit="10" stroke-width="1"/>
    </g>
    <path id="Icon_metro-file-pdf" data-name="Icon metro-file-pdf" d="M17.724,26.5a6.39,6.39,0,0,0,.705.47,8.334,8.334,0,0,1,.983-.059q1.235,0,1.487.412a.406.406,0,0,1,.017.437.024.024,0,0,1-.008.017l-.017.017V27.8q-.05.319-.6.319a3.464,3.464,0,0,1-.966-.168,6.124,6.124,0,0,1-1.092-.445,15.123,15.123,0,0,0-3.292.7q-1.285,2.2-2.032,2.2a.488.488,0,0,1-.235-.059l-.2-.1-.05-.042a.347.347,0,0,1-.05-.3,1.824,1.824,0,0,1,.47-.768,4.059,4.059,0,0,1,1.109-.81.123.123,0,0,1,.193.05.048.048,0,0,1,.017.034q.437-.714.9-1.654a12.818,12.818,0,0,0,.873-2.2,6.789,6.789,0,0,1-.256-1.34,3.265,3.265,0,0,1,.055-1.071q.092-.336.353-.336h.185a.354.354,0,0,1,.294.126.671.671,0,0,1,.076.571.182.182,0,0,1-.034.067.219.219,0,0,1,.008.067v.252A11,11,0,0,1,16.5,24.5a5.334,5.334,0,0,0,.759,1.512,2.763,2.763,0,0,0,.467.486Zm-4.837,3.452a3.708,3.708,0,0,0,1.151-1.327,4.788,4.788,0,0,0-.735.705A2.792,2.792,0,0,0,12.886,29.948Zm3.343-7.727a2.5,2.5,0,0,0-.017,1.109q.008-.059.059-.37,0-.025.059-.361a.189.189,0,0,1,.034-.067.024.024,0,0,1-.008-.017.017.017,0,0,0,0-.013.017.017,0,0,1,0-.013.483.483,0,0,0-.109-.3.024.024,0,0,1-.008.017v.017Zm-1.041,5.551a12.319,12.319,0,0,1,2.385-.68,1.267,1.267,0,0,1-.109-.08,1.5,1.5,0,0,1-.134-.113,4.449,4.449,0,0,1-1.067-1.478,11.223,11.223,0,0,1-.7,1.654q-.252.47-.378.7Zm5.425-.134a2.01,2.01,0,0,0-1.176-.2,3.177,3.177,0,0,0,1.041.235.815.815,0,0,0,.151-.008q0-.008-.017-.025Z" transform="translate(-10.756 -15.881)" fill="#117093"/>
  </g>
</svg>
