<svg xmlns="http://www.w3.org/2000/svg" width="26.523" height="26.523" viewBox="0 0 26.523 26.523">
  <g id="Group_1467" data-name="Group 1467" transform="translate(-111.315 -25.559)">
    <path id="Path_476" data-name="Path 476" d="M136.838,40.535V37.106l-3.4-.53a9.1,9.1,0,0,0-1.018-2.421l2.038-2.792-2.425-2.425-2.809,2.051a9.1,9.1,0,0,0-2.4-.989l-.537-3.441h-3.429L122.325,30a9.1,9.1,0,0,0-2.4.989l-2.809-2.051-2.425,2.425,2.038,2.792a9.1,9.1,0,0,0-1.018,2.421l-3.4.53v3.429l3.372.526a9.094,9.094,0,0,0,1.01,2.472l-2,2.745,2.425,2.425,2.727-1.991a9.094,9.094,0,0,0,2.5,1.04l.52,3.33h3.429l.52-3.33a9.1,9.1,0,0,0,2.5-1.04l2.727,1.991,2.425-2.425-2-2.745a9.1,9.1,0,0,0,1.01-2.472Z" fill="none" stroke="#afb3b8" stroke-miterlimit="10" stroke-width="2"/>
    <circle id="Ellipse_156" data-name="Ellipse 156" cx="4.7" cy="4.7" r="4.7" transform="translate(119.876 34.174)" fill="none" stroke="#afb3b8" stroke-miterlimit="10" stroke-width="2"/>
  </g>
</svg>
