<svg xmlns="http://www.w3.org/2000/svg" width="12.107" height="12.303" viewBox="0 0 12.107 12.303">
  <path id="Icon_awesome-flag-checkered" data-name="Icon awesome-flag-checkered" d="M6.214,4.56V6.2c.627.142,1.185.375,1.768.536V5.094c-.625-.139-1.187-.372-1.768-.533Zm5.365-2.955a7.016,7.016,0,0,1-2.811.766c-1.285,0-2.35-.836-3.969-.836a4.671,4.671,0,0,0-1.634.288,1.346,1.346,0,1,0-2.025.622v9.277a.575.575,0,0,0,.577.577H2.1a.575.575,0,0,0,.577-.577V9.455a6.7,6.7,0,0,1,2.749-.531c1.288,0,2.35.836,3.969.836a5.02,5.02,0,0,0,2.943-.983.767.767,0,0,0,.332-.634V2.3A.768.768,0,0,0,11.579,1.605ZM4.445,7.818a7.569,7.569,0,0,0-1.768.4V6.523a6.874,6.874,0,0,1,1.768-.418Zm7.073-3.232a7.664,7.664,0,0,1-1.768.574V6.869a4.466,4.466,0,0,0,1.768-.625V7.939A3.882,3.882,0,0,1,9.75,8.59V6.869a4.064,4.064,0,0,1-1.768-.135V8.354a14.018,14.018,0,0,0-1.768-.512V6.2a5.341,5.341,0,0,0-1.768-.091V4.423a8.479,8.479,0,0,0-1.768.5V3.232A6.88,6.88,0,0,1,4.445,2.7v1.72a4.087,4.087,0,0,1,1.768.137V2.941a13.678,13.678,0,0,0,1.768.512V5.1a4.577,4.577,0,0,0,1.768.065V3.434a8.5,8.5,0,0,0,1.768-.541Z" transform="translate(-0.563 0.003)" fill="#fff"/>
</svg>
