<svg xmlns="http://www.w3.org/2000/svg" width="21.637" height="16.198" viewBox="0 0 21.637 16.198">
  <g id="Group_1922" data-name="Group 1922" transform="translate(-17.438 28.025)">
    <path id="Path_648" data-name="Path 648" d="M424.154,446.887v-11.16a1.568,1.568,0,0,1,1.453-1.663h17.73a1.569,1.569,0,0,1,1.453,1.663v11.557s0,1.716-1.453,1.716l-17.73.262c-1.383,0-1.453-1.077-1.453-1.6v-1.271" transform="translate(-406.216 -461.589)" fill="none" stroke="#117093" stroke-linecap="round" stroke-width="1"/>
    <path id="Path_649" data-name="Path 649" d="M657.075,283.276l8.706,7.237a1.709,1.709,0,0,0,2.229-.068l8.662-7.282" transform="translate(-638.64 -310.392)" fill="none" stroke="#117093" stroke-miterlimit="10" stroke-width="1"/>
    <line id="Line_191" data-name="Line 191" x2="8.476" y2="7.306" transform="translate(30.061 -20.692)" fill="none" stroke="#117093" stroke-width="1"/>
    <line id="Line_192" data-name="Line 192" x1="7.935" y2="7.935" transform="translate(18.158 -20.692)" fill="none" stroke="#117093" stroke-width="1"/>
  </g>
</svg>
