<svg xmlns="http://www.w3.org/2000/svg" width="18.133" height="18.715" viewBox="0 0 14.133 14.715">
  <g id="Group_1665" data-name="Group 1665" transform="translate(-376.747 -4665)">
    <path id="Path_252" data-name="Path 252" d="M11.1-13.1H9.765v-1.443a.321.321,0,0,0-.1-.236.321.321,0,0,0-.236-.1H9.21a.321.321,0,0,0-.236.1.321.321,0,0,0-.1.236V-13.1H3.551v-1.443a.321.321,0,0,0-.1-.236.321.321,0,0,0-.236-.1H3a.321.321,0,0,0-.236.1.321.321,0,0,0-.1.236V-13.1H1.332a1.284,1.284,0,0,0-.943.388A1.284,1.284,0,0,0,0-11.768V-2a1.284,1.284,0,0,0,.388.943,1.284,1.284,0,0,0,.943.388H11.1a1.284,1.284,0,0,0,.943-.388A1.284,1.284,0,0,0,12.429-2v-9.765a1.284,1.284,0,0,0-.388-.943A1.284,1.284,0,0,0,11.1-13.1Zm-9.765.888H11.1a.432.432,0,0,1,.319.125.432.432,0,0,1,.125.319v1.332H.888v-1.332a.432.432,0,0,1,.125-.319A.432.432,0,0,1,1.332-12.212ZM11.1-1.559H1.332a.432.432,0,0,1-.319-.125A.432.432,0,0,1,.888-2V-9.548H11.541V-2a.432.432,0,0,1-.125.319A.432.432,0,0,1,11.1-1.559Z" transform="translate(376.747 4679.875)" fill="#a6aaaf"/>
    <ellipse id="Ellipse_132" data-name="Ellipse 132" cx="3.406" cy="3.406" rx="3.406" ry="3.406" transform="translate(383.824 4672.659)" fill="#fff"/>
    <path id="Path_179" data-name="Path 179" d="M433.941,204.352a3.65,3.65,0,1,0,3.65,3.65A3.65,3.65,0,0,0,433.941,204.352Zm1.921,5.566-2.377-1.46v-2.738h.684l0,2.372,2.053,1.232Z" transform="translate(-46.712 4468.063)" fill="#a6aaaf"/>
  </g>
</svg>
