<svg xmlns="http://www.w3.org/2000/svg" width="11.25" height="13.125" viewBox="0 0 11.25 13.125">
  <path id="Path_258" data-name="Path 258" d="M1.055-5.859l4.336-4.365a.317.317,0,0,1,.234-.088.428.428,0,0,1,.264.088l4.336,4.365a.408.408,0,0,1,.088.249.408.408,0,0,1-.088.249l-.234.205a.278.278,0,0,1-.234.117.364.364,0,0,1-.264-.117l-3.369-3.4V.586a.339.339,0,0,1-.1.249.339.339,0,0,1-.249.1H5.479a.339.339,0,0,1-.249-.1.339.339,0,0,1-.1-.249V-8.555l-3.369,3.4a.364.364,0,0,1-.264.117.278.278,0,0,1-.234-.117l-.205-.205A.35.35,0,0,1,.938-5.61a.408.408,0,0,1,.088-.249ZM0-11.836a.339.339,0,0,1,.1-.249.339.339,0,0,1,.249-.1H10.9a.339.339,0,0,1,.249.1.339.339,0,0,1,.1.249v.234a.339.339,0,0,1-.1.249.339.339,0,0,1-.249.1H.352a.339.339,0,0,1-.249-.1A.339.339,0,0,1,0-11.6Z" transform="translate(0 12.188)" fill="#333333"/>
</svg>
