<svg xmlns="http://www.w3.org/2000/svg" width="47.814" height="35.477" viewBox="0 0 47.814 35.477">
  <g id="envelop" transform="translate(-17.438 28.025)">
    <path id="Path_648" data-name="Path 648" d="M424.154,463.153V437.836a3.558,3.558,0,0,1,3.3-3.772h40.221a3.558,3.558,0,0,1,3.3,3.772v26.217s0,3.893-3.3,3.893l-40.221.595c-3.138,0-3.3-2.444-3.3-3.631v-2.883" transform="translate(-406.216 -461.589)" fill="none" stroke="#a6aaaf" stroke-linecap="round" stroke-width="1"/>
    <path id="Path_649" data-name="Path 649" d="M657.075,283.419l19.75,16.417a3.876,3.876,0,0,0,5.056-.154l19.651-16.519" transform="translate(-638.009 -310.017)" fill="none" stroke="#a6aaaf" stroke-miterlimit="10" stroke-width="1"/>
    <line id="Line_191" data-name="Line 191" x2="19.227" y2="16.574" transform="translate(45.438 -12.025)" fill="none" stroke="#a6aaaf" stroke-width="1"/>
    <line id="Line_192" data-name="Line 192" x1="18" y2="18" transform="translate(18.438 -12.025)" fill="none" stroke="#a6aaaf" stroke-width="1"/>
  </g>
</svg>
