<svg xmlns="http://www.w3.org/2000/svg" width="61.412" height="53.358" viewBox="0 0 61.412 53.358">
  <g id="mobile" transform="translate(-473.548 -548.435)">
    <g id="Group_1880" data-name="Group 1880" transform="translate(473.548 565.793)">
      <g id="Rectangle_790" data-name="Rectangle 790" fill="none" stroke="#fff" stroke-width="4">
        <rect width="54" height="36" rx="4" stroke="none"/>
        <rect x="2" y="2" width="50" height="32" rx="2" fill="none"/>
      </g>
      <line id="Line_33" data-name="Line 33" x2="52.393" transform="translate(0.929 12.604)" fill="none" stroke="#fff" stroke-width="1"/>
      <line id="Line_36" data-name="Line 36" x2="4.208" transform="translate(24.725 21.788)" fill="none" stroke="#fff" stroke-linecap="round" stroke-width="1"/>
      <line id="Line_37" data-name="Line 37" x2="4.208" transform="translate(34.546 21.788)" fill="none" stroke="#fff" stroke-linecap="round" stroke-width="1"/>
      <line id="Line_38" data-name="Line 38" x2="4.208" transform="translate(44.379 21.788)" fill="none" stroke="#fff" stroke-linecap="round" stroke-width="1"/>
    </g>
    <g id="Ellipse_199" data-name="Ellipse 199" transform="translate(482.056 585.383)" fill="none" stroke="#fff" stroke-width="1">
      <circle cx="3.688" cy="3.688" r="3.688" stroke="none"/>
      <circle cx="3.688" cy="3.688" r="3.188" fill="none"/>
    </g>
    <g id="Ellipse_200" data-name="Ellipse 200" transform="translate(486.27 585.383)" fill="#117093" stroke="#fff" stroke-width="1">
      <circle cx="3.688" cy="3.688" r="3.688" stroke="none"/>
      <circle cx="3.688" cy="3.688" r="3.188" fill="none"/>
    </g>
    <g id="Group_1880-2" data-name="Group 1880" transform="matrix(0.951, -0.309, 0.309, 0.951, 475.695, 554.463)">
      <path id="Path_699" data-name="Path 699" d="M0,.332,33.431,0" transform="translate(13.888 19.736)" fill="none" stroke="#fff" stroke-width="1"/>
      <g id="Rectangle_790-2" data-name="Rectangle 790" transform="translate(11.35 0) rotate(18)">
        <path id="Path_701" data-name="Path 701" d="M.094,6.542,0,3.747A3.747,3.747,0,0,1,3.747,0H36.032a3.747,3.747,0,0,1,3.747,3.747v18.2a3.747,3.747,0,0,1-3.747,3.747l-4.744.6" transform="matrix(0.951, -0.309, 0.309, 0.951, 0, 12.292)" fill="none" stroke="#fff" stroke-width="4"/>
      </g>
    </g>
  </g>
</svg>
