<svg xmlns="http://www.w3.org/2000/svg" xmlns:xlink="http://www.w3.org/1999/xlink" viewBox="0 0 560.04 363.73"><defs><style>.cls-1{fill:#d3f2fd;}.cls-2{opacity:0.6;}.cls-3{fill:#cbc4c4;}.cls-23,.cls-4{fill:#32376d;}.cls-10,.cls-11,.cls-12,.cls-13,.cls-14,.cls-15,.cls-16,.cls-17,.cls-22,.cls-24,.cls-25,.cls-4,.cls-5,.cls-6,.cls-7,.cls-8,.cls-9{fill-rule:evenodd;}.cls-5{fill:#a9a9aa;opacity:0.5;}.cls-10,.cls-15,.cls-26,.cls-27,.cls-28,.cls-29,.cls-30,.cls-31,.cls-5,.cls-9{isolation:isolate;}.cls-6{fill:#006eab;}.cls-7{fill:#fff;}.cls-8{fill:#ff931e;}.cls-9{fill:#adadad;}.cls-10,.cls-9{opacity:0.2;}.cls-10{fill:#b5b5b5;}.cls-11{fill:#ffa495;}.cls-12{fill:#193161;}.cls-13{fill:url(#linear-gradient);}.cls-14{fill:url(#linear-gradient-2);}.cls-15{fill:#1e2353;opacity:0.3;}.cls-16{fill:url(#linear-gradient-3);}.cls-17{fill:url(#linear-gradient-4);}.cls-18{fill:#2ea7cc;}.cls-19,.cls-20,.cls-21{fill:none;}.cls-20,.cls-21{stroke:#2e3047;stroke-miterlimit:4;}.cls-21{stroke-linecap:round;}.cls-22{fill:url(#linear-gradient-5);}.cls-24{fill:#ffa698;}.cls-25{fill:#562e65;}.cls-27,.cls-31{font-size:35px;}.cls-27{fill:#1272bc;}.cls-27,.cls-28,.cls-29,.cls-30,.cls-31{font-family:HoeflerText-Regular, Hoefler Text;}.cls-28,.cls-30{font-size:31px;}.cls-28,.cls-29{fill:#707070;}.cls-29{font-size:23px;}.cls-30{fill:#21b5d5;}.cls-31{fill:#f98c00;}.cls-32{fill:#b3d8e8;}</style><linearGradient id="linear-gradient" x1="-395.85" y1="563.11" x2="-396.3" y2="562.55" gradientTransform="matrix(27.38, 0, 0, -105.92, 11111.92, 59888.95)" gradientUnits="userSpaceOnUse"><stop offset="0" stop-color="#40457f"/><stop offset="1" stop-color="#1e2353"/></linearGradient><linearGradient id="linear-gradient-2" x1="-388.16" y1="552.12" x2="-388.58" y2="551.46" gradientTransform="matrix(10.87, 0, 0, -10.07, 4493.34, 5883.8)" gradientUnits="userSpaceOnUse"><stop offset="0" stop-color="#3773b9"/><stop offset="1" stop-color="#003c76"/></linearGradient><linearGradient id="linear-gradient-3" x1="-397.79" y1="563.15" x2="-398.7" y2="562.63" gradientTransform="matrix(46.49, 0, 0, -110.19, 18776.44, 62306.44)" xlink:href="#linear-gradient"/><linearGradient id="linear-gradient-4" x1="-390.41" y1="540.97" x2="-390.95" y2="540.63" gradientTransform="matrix(13.11, 0, 0, -5.24, 5369.05, 3167.51)" xlink:href="#linear-gradient-2"/><linearGradient id="linear-gradient-5" x1="-387.69" y1="564.08" x2="-387.19" y2="564.51" gradientTransform="matrix(9.89, 9.22, 14.2, -15.25, -3856.98, 12356.88)" gradientUnits="userSpaceOnUse"><stop offset="0" stop-color="#ff8a78"/><stop offset="1" stop-color="#ffa799"/></linearGradient></defs><title>plugnplay-img_no_result_found</title><g id="Layer_2" data-name="Layer 2"><g id="Layer_1-2" data-name="Layer 1"><g id="illustration"><g id="Group_75" data-name="Group 75"><path id="Path_500" data-name="Path 500" class="cls-1" d="M104.67,211.19c-2.62-37,31.8-29,85.87-73.3S272.68,32.77,320.91,34s37.22,64.55,62.51,108.84,52.69,40.76,45.29,71.67S376.22,249,344,285.81s-15.08,72.68-50.82,72.68-45-35.86-92.14-72.68S107.3,248.17,104.67,211.19Z"/><g id="Group_68" data-name="Group 68" class="cls-2"><path id="Path_160" data-name="Path 160" class="cls-3" d="M122.2,136.24c3.15,14.09,5.41,28.44,10.13,42.12.1.29.43.62.76.45a23.73,23.73,0,0,1,7.28-2.08c2.71-.41,5.44-.61,8.17-.83,3.2-.26,6.35-.87,9.53-1.29a80.25,80.25,0,0,1,10.5-.78c.9,0,.86-2,0-2a82,82,0,0,0-10.5.79c-3.23.41-6.44,1-9.7,1.3-2.73.22-5.47.43-8.18.84a24.54,24.54,0,0,0-7.46,2.13l.76.45c-4.65-13.52-6.86-27.72-10-41.64-.08-.36-.38-.89-.83-.69s-.53.85-.43,1.26Z"/><path id="Path_161" data-name="Path 161" class="cls-3" d="M122.86,136.25c12.36,1.41,24.09-3.8,36.14-5.5l-.68-1.27c-.92,14.26,4.9,27.78,7.9,41.46.18.8.34,1.6.49,2.4.07.36.4.88.84.69s.51-.85.43-1.26c-1.32-6.94-3.46-13.7-5.26-20.52s-3.31-13.69-3.17-20.7c0-.52,0-1,.07-1.56s-.07-1.35-.67-1.26c-12,1.71-23.78,6.92-36.14,5.5-.87-.1-.86,1.92,0,2Z"/><path id="Path_162" data-name="Path 162" class="cls-3" d="M132.91,145.11c4.84-.71,9.74-.72,14.6-1.2.91-.09.84-2.11,0-2-4.86.48-9.76.49-14.6,1.2-.91.14-.82,2.16,0,2Z"/><path id="Path_163" data-name="Path 163" class="cls-3" d="M134.59,150.37c5.35-.72,10.75-1.2,16-2.39.9-.2.79-2.21-.05-2-5.28,1.19-10.68,1.67-16,2.4-.91.12-.82,2.14.05,2Z"/><path id="Path_164" data-name="Path 164" class="cls-3" d="M135.48,156.08A92.69,92.69,0,0,1,154,152.29c.91-.11.83-2.13-.05-2a95.36,95.36,0,0,0-18.84,3.87c-.8.27-.54,2.26.4,2Z"/><path id="Path_165" data-name="Path 165" class="cls-3" d="M139.07,161.58A125.72,125.72,0,0,1,151.82,159c.9-.15.81-2.17,0-2a132.75,132.75,0,0,0-13.1,2.67c-.81.23-.56,2.22.4,2Z"/><path id="Path_166" data-name="Path 166" class="cls-3" d="M141.29,166.41A49.64,49.64,0,0,1,151.58,165c.9,0,.86-2-.05-2a50.31,50.31,0,0,0-10.29,1.43c-.9.2-.79,2.2,0,2Z"/></g><g id="Group_69" data-name="Group 69" class="cls-2"><path id="Path_167" data-name="Path 167" class="cls-3" d="M348.32,74.82a209.86,209.86,0,0,0,27.92-3.49c.73-.14.65-1.77,0-1.64a209.86,209.86,0,0,1-27.92,3.49c-.74,0-.69,1.67,0,1.64Z"/><path id="Path_168" data-name="Path 168" class="cls-3" d="M373.82,72.09c1.24,3.34,1.91,6.88,3.49,10.09.13.25.32.46.62.36,3.6-1.18,7.4-1.56,11.1-2.29.73-.15.65-1.78,0-1.64-3.8.75-7.69,1.14-11.39,2.35l.62.37c-1.58-3.21-2.25-6.75-3.49-10.09-.11-.3-.46-.53-.74-.27a1.08,1.08,0,0,0-.17,1.13Z"/><path id="Path_169" data-name="Path 169" class="cls-3" d="M376.48,72.46c4.09,2.06,7.86,4.69,12,6.6.71.32.88-1.3.25-1.59-4.17-1.91-7.94-4.54-12-6.59-.69-.35-.87,1.27-.25,1.58Z"/><path id="Path_170" data-name="Path 170" class="cls-3" d="M347.45,76.75a124,124,0,0,1,7.49,22.52c.88,3.61,1.83,7.26,2.42,10.94q.25,3.11.81,6.18a3.62,3.62,0,0,0,3.19,2.92,12.64,12.64,0,0,0,3.63-.22c1.91-.32,3.81-.59,5.7-1a60,60,0,0,1,5.91-1.19l6.22-.71a32.29,32.29,0,0,0,7.66-1.45,4.46,4.46,0,0,0,2.83-3.64,16.27,16.27,0,0,0,.14-3.62c-.07-1.76-.19-3.52-.36-5.27a169.56,169.56,0,0,0-4-22.6c-.22-.92-.45-1.84-.68-2.76s-1.24-.4-1,.47a188.4,188.4,0,0,1,4.4,22.46,57.53,57.53,0,0,1,.65,9.9,3.45,3.45,0,0,1-2.14,3.45,15,15,0,0,1-2.89.74c-1.6.3-3.2.52-4.81.71l-6.24.71c-2,.22-3.92.8-5.89,1.2s-3.76.66-5.65,1a11.77,11.77,0,0,1-3.55.18c-1.62-.23-2-1.39-2.23-2.78-.33-2.14-.41-4.3-.83-6.43-.75-3.69-1.62-7.37-2.53-11a122.82,122.82,0,0,0-7.26-21.53c-.45-1-1.23.16-.91.85Z"/><path id="Path_171" data-name="Path 171" class="cls-3" d="M357.62,83.74a22.8,22.8,0,0,0,10.23-1.2c.64-.24.43-1.86-.33-1.58a21.94,21.94,0,0,1-9.94,1.13c-.7-.07-.7,1.56.05,1.64Z"/><path id="Path_172" data-name="Path 172" class="cls-3" d="M360.73,87.61c4.3-.76,8.7-.84,12.94-2,.65-.17.45-1.78-.33-1.57-4.14,1.1-8.45,1.15-12.65,1.9-.73.13-.65,1.77,0,1.64Z"/><path id="Path_173" data-name="Path 173" class="cls-3" d="M361.89,91.88c5.9,0,11.58-1.92,17.45-2.33.73,0,.68-1.69,0-1.64-5.87.41-11.55,2.3-17.45,2.33-.73,0-.69,1.64,0,1.64Z"/><path id="Path_174" data-name="Path 174" class="cls-3" d="M363.83,96.53c5.86-.8,11.53-2.68,17.45-3.1.73-.05.68-1.69,0-1.64-5.92.42-11.59,2.3-17.45,3.1-.74.1-.67,1.74,0,1.64Z"/><path id="Path_175" data-name="Path 175" class="cls-3" d="M365,101.57a118.9,118.9,0,0,1,16.29-1.94c.73,0,.68-1.69,0-1.64A118.9,118.9,0,0,0,365,99.93C364.22,100.09,364.31,101.72,365,101.57Z"/><path id="Path_176" data-name="Path 176" class="cls-3" d="M366.93,105.45l17.45-2.33c.74-.1.67-1.73,0-1.64l-17.45,2.33C366.16,103.91,366.22,105.55,366.93,105.45Z"/></g></g><g id="Group_116" data-name="Group 116"><g id="Group_115" data-name="Group 115"><path id="Path_281" data-name="Path 281" class="cls-4" d="M302.72,204.85c6.56,1.65,23.15,14.58,26.36,16.72a10.59,10.59,0,0,0,1.61,1.05c.69.23,1.38.44,2.09.63.45,1.93-.82,5.47-1.92,5.85l-2-.26a12.31,12.31,0,0,0-1.82.41c-4,.39-23.05-12.45-27.76-13.57s-6.8-8.68-6.8-8.68l-1.89-11.7,11.58-5.2Z"/><g id="Group_101" data-name="Group 101"><path id="Path_242" data-name="Path 242" class="cls-5" d="M322.16,135.11c1.19-8.81,7.88-12.6,14.93-8.45l72.82,42.51c7,4.15,11.8,14.67,10.6,23.48l-11.1,84c-1.19,8.81-7.88,12.6-14.93,8.46l-72.82-42.52c-7.05-4.15-11.8-14.67-10.6-23.48Z"/><g id="Group_100" data-name="Group 100"><path id="Path_243" data-name="Path 243" class="cls-6" d="M324.74,134.63c.13-1,.32-5.21,1.46-6.08a27,27,0,0,1,5.19-3.09,9.45,9.45,0,0,1,7.23,1.3l68.05,39.44c6.54,3.85,11,13.63,9.85,21.81L406.2,266.06a12.56,12.56,0,0,1-2.82,6.75,21.15,21.15,0,0,1-5.12,3.58c-1.95,1-4.69-1.75-5.93-2.48l-68.05-39.43c-6.55-3.85-11-13.63-9.85-21.81Z"/><path id="Path_244" data-name="Path 244" class="cls-7" d="M322.35,136.3c1.11-8.19,7.32-11.71,13.87-7.86L403.89,168c6.54,3.85,11,13.63,9.85,21.82l-10.31,78c-1.11,8.19-7.33,11.71-13.88,7.86l-67.66-39.51c-6.56-3.86-11-13.63-9.86-21.82Z"/><g id="Group_95" data-name="Group 95"><path id="Path_245" data-name="Path 245" class="cls-8" d="M322.35,136.3c1.11-8.19,7.32-11.71,13.87-7.86L403.89,168c6.54,3.85,11,13.63,9.85,21.82l-1.05,7.75-91.41-53.37Z"/><g id="Group_94" data-name="Group 94"><path id="Path_246" data-name="Path 246" class="cls-7" d="M333.23,136.6a3.9,3.9,0,0,1,2.54,4c-.09,1.85-1.37,3.07-2.85,2.71a3.89,3.89,0,0,1-2.55-4C330.46,137.46,331.74,136.25,333.23,136.6Z"/><path id="Path_247" data-name="Path 247" class="cls-7" d="M341.18,141.56a3.89,3.89,0,0,1,2.55,4c-.09,1.85-1.37,3.06-2.86,2.71a3.89,3.89,0,0,1-2.54-4C338.41,142.42,339.69,141.21,341.18,141.56Z"/><path id="Path_248" data-name="Path 248" class="cls-7" d="M349.14,146.52a3.89,3.89,0,0,1,2.54,4c-.09,1.85-1.37,3.06-2.86,2.71a3.89,3.89,0,0,1-2.54-4C346.37,147.38,347.65,146.17,349.14,146.52Z"/></g></g><g id="Group_99" data-name="Group 99"><g id="Group_97" data-name="Group 97"><g id="Group_96" data-name="Group 96"><path id="Path_249" data-name="Path 249" class="cls-9" d="M352.64,176.29c.25-1.82,1.62-2.59,3.08-1.7L400,200.08a5.31,5.31,0,0,1,2.18,4.9l-.48,3.6c-.24,1.82-1.62,2.58-3.08,1.7l-44.22-25.5a5.32,5.32,0,0,1-2.19-4.9Z"/><path id="Path_250" data-name="Path 250" class="cls-9" d="M350.88,189.54c.15-1.08,1-1.53,1.82-1l26.12,15.05a3.15,3.15,0,0,1,1.29,2.89l-.28,2.13c-.15,1.08-1,1.53-1.82,1l-26.12-15.05a3.17,3.17,0,0,1-1.29-2.9Z"/></g></g><g id="Group_98" data-name="Group 98"><path id="Path_251" data-name="Path 251" class="cls-10" d="M321.36,192.91c.18-1.32,1.18-1.88,2.24-1.23L400,235.5a3.89,3.89,0,0,1,1.59,3.57l-.24,1.73c-.18,1.33-1.19,1.88-2.24,1.24l-76.39-43.82a3.9,3.9,0,0,1-1.59-3.57Z"/><path id="Path_252" data-name="Path 252" class="cls-10" d="M319.76,205.77c.18-1.33,1.19-1.88,2.24-1.24l76.39,43.82a3.9,3.9,0,0,1,1.59,3.57l-.24,1.74c-.18,1.32-1.18,1.88-2.24,1.23l-76.38-43.82a3.87,3.87,0,0,1-1.6-3.57Z"/><path id="Path_253" data-name="Path 253" class="cls-10" d="M318.09,218c.18-1.32,1.18-1.88,2.24-1.24l76.39,43.83a3.89,3.89,0,0,1,1.59,3.57l-.24,1.73c-.18,1.33-1.19,1.88-2.24,1.24l-76.39-43.82a3.9,3.9,0,0,1-1.59-3.57Z"/></g></g></g></g><g id="Group_114" data-name="Group 114"><g id="Group_113" data-name="Group 113"><g id="Group_106" data-name="Group 106"><g id="Group_102" data-name="Group 102"><path id="Path_254" data-name="Path 254" class="cls-7" d="M247.06,339.51c1,.19,5.14-2.31,8.05,0,3.49,2.78,11.28,2.63,14.83,4.33.64.3,2.05.08,2.21.6.5,1.6.82,3.92-1.46,4.9a34.75,34.75,0,0,1-7.3,1.72,57.7,57.7,0,0,1-8.9.59c-2.86-.15-4.16-.25-5.37.33a7.43,7.43,0,0,1-4.05.11,6.65,6.65,0,0,1-4.2-4.48,15.15,15.15,0,0,1,1.2-5.44,27,27,0,0,1,2.76-4.39Z"/><path id="Path_255" data-name="Path 255" class="cls-11" d="M256.53,334.27c-1.87,2.7-2.47,7.38-5.74,8.35-2.18.65-5.25,0-5.94-3.32-.38-1.86,1.22-4.55,1.8-8.32Z"/><path id="Path_256" data-name="Path 256" class="cls-12" d="M256.36,339c2.11,1.13,8.4,2,12.25,3.16,1.66.49,3.17.8,3.63,2.5s-.21,2.68-2.1,3.49a28.24,28.24,0,0,1-6.61,1.67,58.8,58.8,0,0,1-8.9.59c-2.86-.16-4.15-.25-5.36.33a7.53,7.53,0,0,1-4.05.11,7,7,0,0,1-4.15-4.7,13.86,13.86,0,0,1,1.15-5.23,10.24,10.24,0,0,1,.52-1c.94-2.88,2.17-3.86,3-3.16a5.81,5.81,0,0,1,1.58,3.42,2.93,2.93,0,0,0,1.36,2,3.46,3.46,0,0,0,4.12-.85,10.67,10.67,0,0,0,1.66-2.77c0-.1.05-.2.07-.3.84-2.51,2.05-2,1.74-1.52A2.27,2.27,0,0,0,256.36,339Z"/><path id="Path_257" data-name="Path 257" class="cls-7" d="M271.55,344.1c-.24,1,1.27,1.41.45,3.06.89-.56.3-2.84-.08-3.25C271.76,343.74,271.61,343.65,271.55,344.1Z"/></g><g id="Group_103" data-name="Group 103"><path id="Path_258" data-name="Path 258" class="cls-7" d="M269.3,327.2c1,.17,5.1-2.41,8.05-.14a18.86,18.86,0,0,0,5.89,2.47c3.89,1.06,10.32.87,10.82,1.83,1.08,2.09.06,4.11-2.2,5.14a28.51,28.51,0,0,1-6.58,1.79,49.37,49.37,0,0,1-8.31.91c-2.44-.08-3-.54-5.36.44a7.16,7.16,0,0,1-4,.1,8.07,8.07,0,0,1-4.38-5.53c.6-2.42.67-5,3.21-7.67Z"/><path id="Path_259" data-name="Path 259" class="cls-11" d="M278.93,321.12c-1.75,2.79-2.13,7.48-5.35,8.6-2.16.75-5.25.25-6.09-3.05-.47-1.84,1-4.6,1.42-8.39Z"/><path id="Path_260" data-name="Path 260" class="cls-12" d="M282.89,328.18l.66.18c3.9,1.06,9.72,1.44,10.22,2.4,1.09,2.09.66,3.55-1.6,4.57a28.25,28.25,0,0,1-6.58,1.79,49.37,49.37,0,0,1-8.31.91c-2.44-.08-3-.54-5.35.44a7.08,7.08,0,0,1-4,.1,8.26,8.26,0,0,1-4.46-5.59,20,20,0,0,1,1.77-5.59c1.23-2.67,2.16-3.84,3.24-3.15,2,1.27,2.18,2.84,2.71,3.87,1.12,2.21,3.21,1.48,4.58-.14A11.5,11.5,0,0,0,277,325.5c0-.11,0-.21.06-.31.73-2.55,2-2.11,1.67-1.6a2.21,2.21,0,0,0,.52,2.93C280.28,327.34,282,327.72,282.89,328.18Z"/><path id="Path_261" data-name="Path 261" class="cls-7" d="M293.4,330.92c-.13,1,1.42,1.25.8,3,.81-.66,0-2.86-.46-3.22C293.56,330.54,293.41,330.47,293.4,330.92Z"/></g><g id="Group_104" data-name="Group 104"><path id="Path_262" data-name="Path 262" class="cls-13" d="M275.36,232.32c.85,9.52,5.62,39.94,4.29,48.3-2,12.56-1.42,27.73-1.4,41.06-.33,5.6-8,8.53-10.28,5-1.8-11.91-4.35-22.35-5.39-29-1.17-7.41-.79-16.41,1.1-21.29-.78-5.32-4.4-19-7.44-28.56-1.09-3.43-7.29-14.52-.87-25.55Z"/><path id="Path_263" data-name="Path 263" class="cls-14" d="M278.37,318.1c0,1,0,2.5,0,3.47-.34,5.6-8.14,8.64-10.38,5.08-.13-.88-.32-1.75-.46-2.61C270.52,327.29,276.43,323.06,278.37,318.1Z"/><path id="Path_264" data-name="Path 264" class="cls-15" d="M279.86,275c-2.51,12.59-9.61,29.42-13.49,42.08-2-10.85-7.07-29.33-2.7-40.64-.44-3-1.8-8.78-3.46-14.94,3.36-6.37.15-11.45,1.74-20.43,8.9-1.55-4.53-12.41,14.3-1C277.92,253.57,279.5,262.07,279.86,275Z"/></g><g id="Group_105" data-name="Group 105"><path id="Path_265" data-name="Path 265" class="cls-16" d="M274.74,286.9c-5.13,11.61-14.6,34.41-19.64,48.67-2.6,3.79-11.9,3.39-11.88-.14,2.06-11.92,4.47-30.31,8.75-40.77,1.31-3.2,6.14-10.9,7.88-13.18,1.35-5.27,3-19.48,4.36-27.17-1.17-6.36-6.31-17,3.56-26.25,4,2.83,16.28,4.6,21.86,1.45C290.53,254.64,284.36,265.13,274.74,286.9Z"/><path id="Path_266" data-name="Path 266" class="cls-17" d="M256.15,333.08c-.23.63-.67,1.89-.88,2.48-2.69,3.9-12.25,3.49-12.23-.14.1-.59.2-1.2.3-1.81C245.62,335.93,252.52,336,256.15,333.08Z"/></g></g><path id="Path_498" data-name="Path 498" class="cls-18" d="M249.51,234.29a95.41,95.41,0,0,0,19.76,3.56,128,128,0,0,0,21.88-.89l.77-46.15L302,187.36a66.63,66.63,0,0,0-5-12.71c-3-5.28-7-8-6.91-8.41-6.9-.73-8.44-4.08-8.44-4.08a34.77,34.77,0,0,0-13.27,8.46c-5.55,6-8.92,15.54-8.92,15.54a107.86,107.86,0,0,0-5.08,24.1A115.72,115.72,0,0,1,249.51,234.29Z"/></g></g><g id="Group_112" data-name="Group 112"><g id="Group_1476" data-name="Group 1476"><g id="Ellipse_157" data-name="Ellipse 157"><circle class="cls-19" cx="334.74" cy="167.83" r="7"/><circle class="cls-20" cx="334.74" cy="167.83" r="6.5"/></g><line id="Line_129" data-name="Line 129" class="cls-21" x1="332.88" y1="174.08" x2="328.94" y2="184.36"/></g><path id="Path_280" data-name="Path 280" class="cls-22" d="M327.05,177.15a4.42,4.42,0,0,0-1.06.75,10.7,10.7,0,0,0-1.78,1,18.54,18.54,0,0,0-2.29,2.23,7,7,0,0,0-1.13,1.62c-1.65.6-3.22.45-5,.59l.81,4.71c1.89.32,3.56.36,5.2.63a4.77,4.77,0,0,0,2.06.5c1.27-.07,5-.3,5.87-1a24.6,24.6,0,0,0,3.4-4.28c2.12-3.28,3.81-7.24,2.41-6.11-.56.07-2.72,2.82-3.24,3-1.36.15-2,.17-3.63.3a12.37,12.37,0,0,1-1.71-.36.48.48,0,0,1-.11-.79,15.67,15.67,0,0,1,1.72-1.21c1.12-1.21,1.46-2.17.76-2.71a.88.88,0,0,0-1.14,0C327.9,176.3,327.56,176.7,327.05,177.15Z"/><path id="Path_499" data-name="Path 499" class="cls-23" d="M273.27,187.87l13.08-6.05,4.83,8.16,26.6-7.26,4.05,2.54-1.29,2.59s-28.41,14.05-34.18,13.55S273.27,187.87,273.27,187.87Z"/></g></g></g><g id="Group_1477" data-name="Group 1477"><path id="Path_272" data-name="Path 272" class="cls-24" d="M291.49,166.74c-2.23,1.43-3.5,5.24-5.35,7.25-3.13-4.46-6.55-11.36-3.81-14.46l1.23-.81a2.53,2.53,0,0,0,0-.28c-.14-2.34-1.32-5.5-.67-8.59,1-4.94,4.05-9.42,9.72-10.43,10.35-1.84,17.06,4.78,14.87,14.47-.43,1.89-1.28,7.84-2,9.27-.14.28-3.58-2.12-3.62-1.35,0,1.07-2.51,5.14-5,6.93C295.89,169.46,291.75,167,291.49,166.74Z"/><g id="Group_110" data-name="Group 110"><path id="Path_278" data-name="Path 278" class="cls-25" d="M282.38,158.68c.5-2.87-.72-6.18,0-9.4s2.25-7.29,6.18-8.47c4.8-6.76,15-3.68,20.48,1.25,3.93,3.52-2.84,6-7.19,6.48-.57,2.86-4.22.8-4.9,1.13-2.05,1-2.7,4.19-3.62,5.78-.72,1.26.07-5.2-2.66-4.41s-3.58,8.29-5.16,9.22C281.8,162.42,282.1,160.28,282.38,158.68Z"/></g></g><g id="_" data-name=" " class="cls-26"><text class="cls-27" transform="translate(458.66 31.83) rotate(-16)">?</text></g><g id="_2" data-name=" 2" class="cls-26"><text class="cls-28" transform="translate(442.32 101.92) rotate(-7)">?</text></g><g id="_3" data-name=" 3" class="cls-26"><text class="cls-29" transform="translate(410.57 60.69) rotate(-7)">?</text></g><g id="_4" data-name=" 4" class="cls-26"><text class="cls-30" transform="translate(410.17 120.84) rotate(-7)">?</text></g><g id="_5" data-name=" 5" class="cls-26"><text class="cls-31" transform="translate(449.29 173.66) rotate(-7)">?</text></g></g><g id="Group_1474" data-name="Group 1474"><path id="Path_484" data-name="Path 484" class="cls-32" d="M560,357.45a6.28,6.28,0,0,1-6.28,6.28H6.27A6.28,6.28,0,0,1,0,357.45H0a6.27,6.27,0,0,1,6.27-6.27H553.76a6.27,6.27,0,0,1,6.27,6.27h0Z"/></g></g></g></svg>