<svg id="noun_Upload_1716776" xmlns="http://www.w3.org/2000/svg" width="89.12" height="93.042" viewBox="0 0 89.12 93.042">
  <g id="Camada_2" data-name="Camada 2">
    <g id="Your_Icon" data-name="Your Icon">
      <path id="Path_801" data-name="Path 801" d="M87.68,51.182,69.21,32.712l-1.37-1.37-.63-.64H49.66a1.01,1.01,0,0,0-1.01,1.01h0a1.01,1.01,0,0,0,1.01,1.01l16.73.009,19.31,19.3-26.08-.06v1a9.7,9.7,0,0,1-9.89,9.73H39.39a9.708,9.708,0,0,1-9.89-9.73v-1l-26.08.06,19.33-19.32,16.71.009a1.01,1.01,0,0,0,1.01-1.01h0a1.01,1.01,0,0,0-1.01-1.01H21.91l-2.01,2.01L0,52.622v35.17a5.25,5.25,0,0,0,5.25,5.25H48.33a1,1,0,0,0,0-2H5.25A3.26,3.26,0,0,1,2,87.792V54.042l25.54-.06A11.686,11.686,0,0,0,39.39,64.7H49.73a11.688,11.688,0,0,0,11.86-10.72l25.53.06v33.75a3.26,3.26,0,0,1-3.25,3.25H75.08a1,1,0,0,0,0,2h8.79a5.25,5.25,0,0,0,5.25-5.251V52.632Z" fill="#e6e6e6"/>
      <rect id="Rectangle_16848" data-name="Rectangle 16848" width="15.79" height="2" rx="1" transform="translate(53.745 91.042)" fill="#e6e6e6"/>
      <path id="Path_802" data-name="Path 802" d="M58.816,16.533,45.565,2.87V49.32a1,1,0,0,1-1,1h0a1,1,0,0,1-1-1l-.01-46.45L30.3,16.533a1,1,0,0,1-1.358-.381h0a1,1,0,0,1,.382-1.362L43.555.57,44.565,0l1,.57L59.792,14.791a1,1,0,0,1,.382,1.361h0a1,1,0,0,1-1.358.381Z" fill="#009de0"/>
    </g>
  </g>
</svg>
