<svg xmlns="http://www.w3.org/2000/svg" xmlns:xlink="http://www.w3.org/1999/xlink" width="105" height="105" viewBox="0 0 105 105">
  <defs>
    <linearGradient id="linear-gradient" x2="2.114" y2="2.146" gradientUnits="objectBoundingBox">
      <stop offset="0" stop-color="#006ef5"/>
      <stop offset="0.78" stop-color="#2131ae"/>
      <stop offset="1" stop-color="#2b1e99"/>
    </linearGradient>
  </defs>
  <g id="Group_30" data-name="Group 30" transform="translate(-1027.234 -576.469)">
    <rect id="Rectangle_26" data-name="Rectangle 26" width="105" height="105" transform="translate(1132.233 576.469) rotate(90)" fill="url(#linear-gradient)"/>
    <path id="Path_62" data-name="Path 62" d="M37.308,37.512a8.834,8.834,0,0,1-.97,4.2,8.654,8.654,0,0,1-2.657,3.052A12.963,12.963,0,0,1,29.8,46.633a18.135,18.135,0,0,1-4.848.754H7V9.431H27.253a7.433,7.433,0,0,1,3.591.862,8.547,8.547,0,0,1,2.729,2.19A10.378,10.378,0,0,1,35.3,15.571a10.773,10.773,0,0,1,.61,3.591,10.2,10.2,0,0,1-1.4,5.207,8.367,8.367,0,0,1-4.022,3.591,9.8,9.8,0,0,1,5.135,3.591,9.983,9.983,0,0,1,1.688,5.961Zm-23.126-21.8v9.552h9.839a4.345,4.345,0,0,0,3.16-1.293,4.7,4.7,0,0,0,1.293-3.591,4.92,4.92,0,0,0-1.185-3.591,3.986,3.986,0,0,0-2.981-1.257Zm15.728,20.4a5.782,5.782,0,0,0-.323-1.939,5.961,5.961,0,0,0-.934-1.616,4.668,4.668,0,0,0-1.4-1.113,4.094,4.094,0,0,0-1.76-.4H14.182v9.983H24.955a4.561,4.561,0,0,0,1.867-.4,4.2,4.2,0,0,0,1.544-1.041A4.884,4.884,0,0,0,29.731,36Z" transform="translate(1045.37 600.901)" fill="#fff"/>
    <path id="Path_63" data-name="Path 63" d="M30.157,40.212A14.831,14.831,0,0,1,24.268,39.1a13.251,13.251,0,0,1-7.361-7.433A14.867,14.867,0,0,1,15.9,26.35a14.364,14.364,0,0,1,1.005-5.458,13.215,13.215,0,0,1,7.182-7.577,15.262,15.262,0,0,1,6-1.113,14.615,14.615,0,0,1,5.889,1.113,14,14,0,0,1,8.151,14.041,4.2,4.2,0,0,1,0,1.041h-20.9a8.439,8.439,0,0,0,.79,2.837,6.787,6.787,0,0,0,1.616,2.119,7.182,7.182,0,0,0,2.19,1.365A8.08,8.08,0,0,0,34.215,34a5.279,5.279,0,0,0,2.514-2.657l5.925,1.652a12.03,12.03,0,0,1-4.776,5.1,14.831,14.831,0,0,1-7.721,2.119Zm7.182-16.3a7.182,7.182,0,0,0-2.262-4.884,6.9,6.9,0,0,0-4.812-1.831,7.182,7.182,0,0,0-2.621.5,7.541,7.541,0,0,0-2.155,1.365,7.182,7.182,0,0,0-1.508,2.119,6.787,6.787,0,0,0-.682,2.729Z" transform="translate(1068.429 608.077)" fill="#fff"/>
    <path id="Path_64" data-name="Path 64" d="M17.34,9.93H35.295v4.489H17.34Z" transform="translate(1072.161 602.197)" fill="#fff"/>
  </g>
</svg>
