<svg xmlns="http://www.w3.org/2000/svg" width="105" height="105" viewBox="0 0 105 105">
  <g id="Group_9745" data-name="Group 9745" transform="translate(-1437 -343)">
    <rect id="Rectangle_14" data-name="Rectangle 14" width="105" height="105" transform="translate(1542 343) rotate(90)" fill="#656565"/>
    <path id="Path_33" data-name="Path 33" d="M9.086,23.611H19.249V56.289H9.086Zm5.1-16.231A5.889,5.889,0,1,1,8.26,13.2,5.889,5.889,0,0,1,14.185,7.38" transform="translate(1458.401 362.121)" fill="#fff"/>
    <path id="Path_34" data-name="Path 34" d="M13.1,12.5h9.732v4.453h0a10.773,10.773,0,0,1,9.588-5.279c10.306,0,12.173,6.787,12.173,15.585V45.213H34.61V29.269c0-3.771,0-8.654-5.279-8.654s-6.1,4.13-6.1,8.4V45.177H13.1Z" transform="translate(1470.942 373.233)" fill="#fff"/>
  </g>
</svg>
