<svg xmlns="http://www.w3.org/2000/svg" width="105" height="105" viewBox="0 0 105 105">
  <g id="Group_15" data-name="Group 15" transform="translate(-1087.243 -268.469)">
    <rect id="Rectangle_13" data-name="Rectangle 13" width="105" height="105" transform="translate(1192.243 268.469) rotate(90)" fill="#656565"/>
    <path id="Path_30" data-name="Path 30" d="M53.325,28.273a3.2,3.2,0,0,1-2.765,1.544,2.837,2.837,0,0,1-1.58-.431,46.683,46.683,0,0,0-24.67-5.458,61.046,61.046,0,0,0-12.748,1.688A3.219,3.219,0,0,1,9.874,19.4a67.115,67.115,0,0,1,14.077-1.9,61.657,61.657,0,0,1,13.574,1.005A45.354,45.354,0,0,1,52.176,23.82a3.232,3.232,0,0,1,1.149,4.453Z" transform="translate(1106.671 313.703)" fill="#fff"/>
    <path id="Path_31" data-name="Path 31" d="M60.637,26.154A3.591,3.591,0,0,1,55.5,27.483a55.373,55.373,0,0,0-29.195-6.464A68.875,68.875,0,0,0,11.189,23.03a3.771,3.771,0,0,1-2.011-7.182,79.4,79.4,0,0,1,16.7-2.262,73.364,73.364,0,0,1,16.088,1.185,54.87,54.87,0,0,1,17.344,6.32,3.591,3.591,0,0,1,1.329,5.063Z" transform="translate(1105.249 303.541)" fill="#fff"/>
    <path id="Path_32" data-name="Path 32" d="M67.852,26.784a4.6,4.6,0,0,1-2.334-.646c-23.557-13.753-54.08-5.566-54.367-5.494a4.632,4.632,0,0,1-2.478-8.906,96.956,96.956,0,0,1,20.5-2.693,90.1,90.1,0,0,1,19.714,1.436,66.325,66.325,0,0,1,21.294,7.756,4.632,4.632,0,0,1-2.334,8.618Z" transform="translate(1101.696 291.743)" fill="#fff"/>
  </g>
</svg>
