<svg xmlns="http://www.w3.org/2000/svg" xmlns:xlink="http://www.w3.org/1999/xlink" width="105" height="105" viewBox="0 0 105 105">
  <defs>
    <linearGradient id="linear-gradient" x1="0.099" x2="1.868" y2="2.035" gradientUnits="objectBoundingBox">
      <stop offset="0" stop-color="red"/>
      <stop offset="1" stop-color="#850000"/>
    </linearGradient>
  </defs>
  <g id="Group_29" data-name="Group 29" transform="translate(-845.268 -603)">
    <rect id="Rectangle_25" data-name="Rectangle 25" width="105" height="105" transform="translate(950.268 603) rotate(90)" fill="url(#linear-gradient)"/>
    <path id="Path_61" data-name="Path 61" d="M63.905,21.569A12.64,12.64,0,0,0,51.3,9H19.2A12.64,12.64,0,0,0,6.45,21.569V36.543A12.6,12.6,0,0,0,19.2,49.147H51.517a12.6,12.6,0,0,0,12.6-12.6Zm-18.96,8.618L30.581,37.369c-.539.287-2.478,0-2.478-.754V21.892c0-.646,1.939-1.041,2.514-.718l13.717,7.505C44.909,29.038,45.52,29.864,44.945,30.187Z" transform="translate(861.818 626)" fill="#fff"/>
  </g>
</svg>
